<svg id="レイヤー_1" data-name="レイヤー 1" xmlns="http://www.w3.org/2000/svg" viewBox="0 0 500 157.61"><title>horizontal_1</title><g id="Horizontal2"><path d="M192.34,125.41c-3.83,2-8.46-1.64-11.87,0a44.09,44.09,0,0,1-6.07-9.26,18.19,18.19,0,0,0-4.92,5c-2.73-9.56-3-18.81-2.07-31.88a50,50,0,0,0,18.48,21.34,41,41,0,0,0-6.65,2.6A49.39,49.39,0,0,0,192.34,125.41Zm76.88,3.18c-3.69,2.34-8,1.23-7.91,2.56s2.78,1.37,2.12,2.62-5.75.47-7,.78c-1.44.38-1.3,1.53-2.65,1.65s-1.93-1-6.62-1.44c-1.17-.11-9.82.69-9.93-.62S245,134,245,132.48c0-.8-3.88-.38-4.11-1.33-.17-.72.84-1,.14-2.56-3.1,1.2-10.58-1.65-17.27,0-.64,1.39-2,.8-3,1.68s.69,4.26-.78,4.67-4.54-.48-6.6-.46c-1.23,0-3.16,1.33-4.48,1.05s-1.75-1.62-3.21-2.15c-1.31-.48-6,.34-6.05-1.09,0-.86-4.8,0-4.78-.86s2.88-.6,3.62-.84c.53-.18.24-.58-.39-.67a10.83,10.83,0,0,1-2.53-1.39c-3.42,1.91-9.35-2.46-12.4,0,1.55,1.27-.43,2.78.3,3.52s4.84.13,5.29,1.17c.9,2.08,7.64.79,7.95,1.83.42,1.42-6.43,1.31-6.43,2.42s6.49.54,7.56,1.17c.75.43-.15,1.07.43,1.74s2.29.42,2.08,1.62c-.14.78-4.34.08-4.28,1.15.07,1.51,9,.87,10.45,1,2.93.25,1.93,1.67,3.34,2.21a13.92,13.92,0,0,0,4.94.6c1.81-.07,11.66.07,13,.45,1.06.3,1,1.28,0,1.39-1.8.2-8.1-.11-8,1.63.06,1.06,3.48.2,4.36,1.63,1.22,2,4,1.21,5.18,2.12.93.69,1.68,3.43,3.11,3.43,3.83,0,1.81-2.58,2.54-3.26s10.51.63,10.46-1c-.08-2.43-5.4.2-5.26-2.57.06-1.13,5,.37,5-.69,0-1.21-2.54-.3-2.54-1.27,0-1.37,7.36,0,9-1.54,1-.94.46-1.66,1.67-2.13,1.69-.67,6.94-.13,7-1.83.07-1.41-7.73-.14-7.32-1.89.33-1.38,16,.58,17.6-1.21.63-.71,0-2.32,1.28-3.1.78-.47,6.3.07,6.29-.78,0-1.39-9.39-.25-9.39-1.05,0-1,7.58-.14,8.78-1.13s-.66-1.4.27-3.12c.51-.94,2.63-1.6,3.32-2.41C280.42,128,272.3,128.05,269.22,128.59Zm21.13-12.44a18.13,18.13,0,0,1,4.91,5c2.74-9.56,3.05-18.81,2.08-31.88a50.1,50.1,0,0,1-18.48,21.34,40.49,40.49,0,0,1,6.64,2.6,49.35,49.35,0,0,1-13.09,12.18c4.28,2,5.62-1,11.86,0A43.74,43.74,0,0,0,290.35,116.15Zm-36-62.26-15.85,1.42c.18,22.54,0,50.55,2.49,70.1-1.95.78-5.64-1.42-9.18-.42-3.34.94-5.87,1.49-8.09.42,2.52-19.55,2.31-47.56,2.48-70.1l-15.84-1.42V46.46L226.29,45c0-2.77,0-5.15,0-7a19.5,19.5,0,1,1,12.09,0c0,1.86,0,4.24,0,7l15.92,1.42Zm-22-25.52a8.87,8.87,0,1,0-8.86-8.87A8.88,8.88,0,0,0,232.37,28.37Z" style="fill:#fff"/><path d="M293,19.81h-3.1v1.3l2.23.66-24.58,56.5h11.07L283,67.18h28.35L316,78.27h11.18L302,19.81Zm-6.39,38.4,10.59-26,10.84,26ZM402.8,19.81,385.22,78.27H374.74l-12.4-44.5h-.17l-12.4,44.5H339.62L322.43,21.92l-2.71-.81v-1.3h13.47l11.55,42.11h.17l11.95-40.07-2.49-.74v-1.3H367.7L380,61.92h.16l11.47-40.07-2.48-.74v-1.3H402.8Zm20.25,0H420v1.3l2.22.66-24.58,56.5h11.08l4.43-11.09h28.34L446,78.27h11.17L432,19.81Zm-6.4,38.4,10.59-26,10.84,26ZM500,19.81,478,53v25.3h-10.4V53l-22-33.16h13L472.94,43.1,486.4,21.74l-2.12-.63v-1.3H500Z" style="fill:#fff"/><path d="M121,19.81h10.12V78.27H120.74V22l-2.81-.84v-1.3H121Zm-37.47,0,25.19,58.46H97.57L93,67.18H64.63L60.2,78.27H49.13l24.58-56.5-2.23-.66v-1.3H83.56Zm6,38.4-10.84-26-10.58,26Zm69.75,10.65v-49H146.13v1.3L149,22V78.27h35.26V68.86ZM13.08,35.25c0-5.37,4.51-7.51,9.3-7.51a13.06,13.06,0,0,1,9,3.27l-.91,2.17.72.65,1.39-1.47h0l7.59-8c-4.54-4.29-10.65-6-16.76-6C12.63,18.32,2.18,23.94,2.18,36c0,19.7,27.75,13.47,27.75,26.62,0,5.37-5.74,7.73-10.52,7.73A13.8,13.8,0,0,1,7.84,64.24L0,71.83c4.79,5.7,11.89,7.93,19.16,7.93,11.48,0,21.39-5.82,21.39-18.38C40.55,40.78,13.08,48.42,13.08,35.25Z" style="fill:#fff"/></g></svg>