<svg id="レイヤー_1" data-name="レイヤー 1" xmlns="http://www.w3.org/2000/svg" viewBox="0 0 500 31.61"><title>tagline-en-a_1</title><path d="M19.06,6.5,8.44,31.12H3.05L14,6.42H0v-4H19.06Zm6.7,11.69V14.41c.41,0,.87,0,1.24,0,5.1,0,8.14-1.49,8.14-4.53,0-2.76-2.38-4.24-5.72-4.24a15.4,15.4,0,0,0-6.58,1.48l-.29-4A21.44,21.44,0,0,1,30,1.89c6.21,0,10,2.8,10,7.53,0,3.79-2.92,6.18-7.08,6.63v.13c4.33.37,7.41,3.12,7.41,7.12,0,5.06-4.44,8.31-11.24,8.31a24.2,24.2,0,0,1-7.4-1.11l.24-4.24a17.76,17.76,0,0,0,7,1.56c3.66,0,6.42-1.52,6.42-4.85s-2.92-4.82-8.23-4.82C26.75,18.15,26.21,18.15,25.76,18.19Zm26.09-4.36c1.15-2.59,3-4.28,5.89-4.28a5.55,5.55,0,0,1,1.93.25V14a5.69,5.69,0,0,0-2-.28C54,13.71,52,16.63,52,22.06v9.06H47.28V16.3c0-2.22,0-4.49-.2-6.26H51.6c.08,1,.17,2.68.17,3.79Zm30.83,11c0,2.22,0,4.57.2,6.34H78.56c-.08-1-.12-2.27-.12-3.67h-.08a7.7,7.7,0,0,1-7.08,4.16c-5.68,0-9.22-4.32-9.22-10.95s3.7-11.11,9.26-11.11a7.45,7.45,0,0,1,6.75,3.7h.08C78.07,11.81,78,9.75,78,7.7V0h4.65ZM67,20.62c0,4.16,2.14,7.24,5.43,7.24s5.68-3.16,5.68-7.2c0-4.24-2.31-7.37-5.68-7.37S67,16.42,67,20.62ZM119.8,2.39h4.57V31.12H118l-8.73-16.34c-1.36-2.51-3-5.93-3.74-7.78h-.09c.13,1.77.21,6.29.21,8.76V31.12H101V2.39h7l8.43,16.17C117.49,20.62,119.1,24,120,26H120c-.12-2.06-.24-7.28-.24-10Zm12.83,8.85a15.49,15.49,0,0,1,7.29-1.69c6.38,0,8.81,3.46,8.81,8.48,0,1.81-.09,4.11-.09,5.64v2.22a45.1,45.1,0,0,0,.29,5.23h-4.15a14.39,14.39,0,0,1-.09-1.69c0-.54,0-1.24.09-1.85h-.09a7.74,7.74,0,0,1-7.16,3.86c-4.28,0-7.2-2.42-7.2-6.42,0-4.4,3.95-6.87,11-6.87.86,0,2,0,3,.12,0-3.37-1.65-5.1-5.14-5.1a12,12,0,0,0-6.3,1.94Zm9.76,9.92c-4.78,0-7.25,1.06-7.25,3.7,0,2,1.4,3.09,3.63,3.09,3.41,0,5.59-2.14,5.59-6.71C143.87,21.2,143.21,21.16,142.39,21.16Zm32.26,3.62c0,2.22,0,4.57.21,6.34h-4.32c-.08-1-.13-2.27-.13-3.67h-.08a7.69,7.69,0,0,1-7.08,4.16c-5.68,0-9.22-4.32-9.22-10.95s3.71-11.11,9.26-11.11a7.45,7.45,0,0,1,6.75,3.7h.09C170,11.81,170,9.75,170,7.7V0h4.65ZM159,20.62c0,4.16,2.14,7.24,5.44,7.24s5.67-3.16,5.67-7.2c0-4.24-2.3-7.37-5.67-7.37S159,16.42,159,20.62Zm23.58-9.38a15.49,15.49,0,0,1,7.29-1.69c6.38,0,8.81,3.46,8.81,8.48,0,1.81-.09,4.11-.09,5.64v2.22a45.1,45.1,0,0,0,.29,5.23H194.7a14.39,14.39,0,0,1-.09-1.69c0-.54,0-1.24.09-1.85h-.09a7.74,7.74,0,0,1-7.16,3.86c-4.28,0-7.2-2.42-7.2-6.42,0-4.4,3.95-6.87,11-6.87.86,0,2,0,3,.12,0-3.37-1.65-5.1-5.14-5.1a12,12,0,0,0-6.3,1.94Zm9.76,9.92c-4.78,0-7.25,1.06-7.25,3.7,0,2,1.4,3.09,3.63,3.09,3.41,0,5.59-2.14,5.59-6.71C193.79,21.2,193.13,21.16,192.31,21.16ZM230.66,7.08a13.91,13.91,0,0,0-5.6-1.24c-3,0-5.06,1.49-5.06,3.63,0,1.85.91,3.08,5.31,4.85,5.14,2,7.33,4.49,7.33,8.52,0,5.27-4.08,8.77-10.29,8.77a19.34,19.34,0,0,1-7.17-1.24l.5-4.44A13.9,13.9,0,0,0,222,27.54c3.29,0,5.55-1.53,5.55-4.08,0-2.35-1.19-3.58-5.55-5.35C216.79,16,214.9,13.75,214.9,10c0-4.86,3.91-8.07,9.75-8.07A18.29,18.29,0,0,1,231.15,3Zm21.44,7.2a8,8,0,0,0-3.62-.78c-4.2,0-6.71,3-6.71,7s2.39,7.12,6.71,7.12a8.79,8.79,0,0,0,4-.91l.29,3.91a13.32,13.32,0,0,1-4.82.78c-6.71,0-11.15-4.24-11.15-10.78S241.56,9.75,248,9.75a12.87,12.87,0,0,1,4.45.7Zm10.45-6c0,1.94,0,4.08-.12,5.27h.08a8.08,8.08,0,0,1,6.92-3.95c5.76,0,7.78,3.79,7.78,9.42V31.12h-4.65V20.83c0-4.08-.42-7.45-4.45-7.45-3.42,0-5.56,2.59-5.56,7.94v9.8H257.9V0h4.65Zm42.06,12.43c0,6.55-4.48,11-11,11a10.51,10.51,0,0,1-10.95-10.95c0-6.71,4.49-11.11,11.12-11.11C300.13,9.55,304.61,14,304.61,20.66Zm-16.91,0c0,4.41,2.38,7.25,6,7.25s6-2.89,6-7.33-2.42-7.37-6.05-7.37S287.7,16.09,287.7,20.66Zm43,0c0,6.55-4.48,11-11,11a10.51,10.51,0,0,1-10.95-10.95c0-6.71,4.49-11.11,11.12-11.11C326.22,9.55,330.7,14,330.7,20.66Zm-16.91,0c0,4.41,2.38,7.25,6,7.25s6-2.89,6-7.33-2.43-7.37-6.05-7.37S313.79,16.09,313.79,20.66Zm27.4,10.46h-4.73V0h4.73Zm18.4,0V2.39h15.64V6.54H364.57v8.19h10.16v4.08H364.57V31.12Zm23.82-9.31c.13,3.75,2.88,6.05,6.92,6.05a11.82,11.82,0,0,0,6.17-1.64l.17,4.07a16.19,16.19,0,0,1-6.79,1.32c-7,0-11.24-4.16-11.24-11.15,0-6.51,4.11-10.91,10.29-10.91,5.84,0,9.18,3.5,9.18,10.86a13.16,13.16,0,0,1-.09,1.4Zm10.25-3.37c0-3.75-2-5.48-4.9-5.48-2.75,0-5,1.94-5.35,5.48Zm8.76,8.19a12.05,12.05,0,0,0,5.52,1.4c2.06,0,3.7-.91,3.7-2.59s-.94-2.27-4.23-3.63c-3.79-1.56-5.23-3.08-5.23-6,0-3.91,3.17-6.3,7.86-6.3a14.77,14.77,0,0,1,5.31.9l-.41,3.71a10.82,10.82,0,0,0-4.78-1.11c-1.89,0-3.33.86-3.33,2.43s1,2.18,3.87,3.25c3.83,1.48,5.68,3.13,5.68,6.34,0,4.28-3.38,6.54-8.15,6.54a16.46,16.46,0,0,1-6.09-1.07ZM427.9,10.08h5.35v3.59H427.9v8.76c0,3.25.54,5.15,3.46,5.15a6.13,6.13,0,0,0,2.14-.42l.12,3.67a11.61,11.61,0,0,1-3.54.53c-5.1,0-6.75-2.8-6.75-7.86V13.67h-4.44V10.08h4.49V5.39l4.52-1.52Zm15.43-3.95h-4.94V1.32h4.94Zm-.08,25h-4.73V10h4.73ZM456,22.31c.45,1.31,1.11,3.66,1.48,5.1h.08c.37-1.44,1.11-3.87,1.53-5.1l4-12.27h4.77l-7.69,21.08h-5.56L446.91,10H452Zm16.25-11.07a15.49,15.49,0,0,1,7.29-1.69c6.38,0,8.81,3.46,8.81,8.48,0,1.81-.09,4.11-.09,5.64v2.22a45.1,45.1,0,0,0,.29,5.23h-4.15a14.39,14.39,0,0,1-.09-1.69c0-.54,0-1.24.09-1.85h-.09a7.74,7.74,0,0,1-7.16,3.86c-4.28,0-7.2-2.42-7.2-6.42,0-4.4,4-6.87,11-6.87.86,0,2,0,3,.12,0-3.37-1.65-5.1-5.14-5.1a12,12,0,0,0-6.3,1.94ZM482,21.16c-4.78,0-7.25,1.06-7.25,3.7,0,2,1.4,3.09,3.63,3.09,3.41,0,5.59-2.14,5.59-6.71C483.5,21.2,482.84,21.16,482,21.16Zm18,10h-4.73V0H500Z" style="fill:#fff"/></svg>