<svg id="レイヤー_1" data-name="レイヤー 1" xmlns="http://www.w3.org/2000/svg" viewBox="0 0 500 54.66"><title>tagline-jp_1</title><path d="M52.15,33.85A16.66,16.66,0,0,0,52,35.64a51,51,0,0,1-.54,7.75,10.48,10.48,0,0,1-1.14,3.2,6.09,6.09,0,0,1-1.7,1.82,9.67,9.67,0,0,1-2.78,1.4,21.11,21.11,0,0,1-3.89.84,39.55,39.55,0,0,1-5.14.3l-.24-.75c-.12-.37-.78-2.32-2-5.83a16.43,16.43,0,0,0,4.43.54A13.83,13.83,0,0,0,43,44.46,3.65,3.65,0,0,0,45,43.12a5.46,5.46,0,0,0,.66-1.65,17,17,0,0,0,.36-2.72H30.32V52.51a12.31,12.31,0,0,0,.12,2.09H24.1a12.31,12.31,0,0,0,.12-2.09q0-3.72.18-9.81a42.27,42.27,0,0,1-5.62,4.13,54.21,54.21,0,0,1-7.12,3.61,54.15,54.15,0,0,1-8.73,2.84,21.21,21.21,0,0,0-1-2.15A37.43,37.43,0,0,0,0,47.9a58.56,58.56,0,0,0,12.11-3.62,35.86,35.86,0,0,0,9.54-5.53H10.7l-.59,2.87q-2.22-.06-6.28-.36,3.23-12.61,3.71-15.9l0-.66q2.64,0,6.22.24H24.22V20.63H10.64c-2,0-3.4,0-4.24.12V15.61c.84.08,2.25.12,4.24.12H49.16c0,.36-.06.94-.06,1.73V28.11l.06,1.73H30.32v4ZM10.88,9.27a42.75,42.75,0,0,1-3,3.41,24.14,24.14,0,0,1-3.08,2.69A16.63,16.63,0,0,0,3.05,14c-.84-.61-1.84-1.3-3-2.06a24,24,0,0,0,5.71-5A25.94,25.94,0,0,0,10.11.12l5.68,1-.36.71q-.24.54-.66,1.41c-.28.58-.52,1-.72,1.4h11l2.63-.06V9.33l-2.63-.06H19.55a39.13,39.13,0,0,1,2.93,4.48l-5.56,1.56a30.39,30.39,0,0,0-1.52-3c-.66-1.16-1.27-2.17-1.82-3.05Zm1.8,20.57-.9,4H24.22v-4ZM51.61,4.6l2.81-.06V9.33l-2.81-.06h-7A41.52,41.52,0,0,1,48,13.75l-5.62,1.56a27.64,27.64,0,0,0-1.73-3c-.76-1.16-1.46-2.17-2.1-3.05H34.56a27.75,27.75,0,0,1-4.42,5.26,43.86,43.86,0,0,0-4.78-3,22.79,22.79,0,0,0,4.48-5A23.47,23.47,0,0,0,33.07,0l5.56,1-.36.71c-.4,1.16-.77,2.14-1.13,2.93Zm-21.29,16v4.31H43V20.63ZM67.34,51,84.56,12.2h-22V5.92H92.39v6.4L75.83,51Zm60.58-12.26a12.51,12.51,0,0,1-.84,4.4,11,11,0,0,1-2.9,4.15,13.89,13.89,0,0,1-4.73,2.9,22.77,22.77,0,0,1-5,1.29,32.4,32.4,0,0,1-4.16.3,39,39,0,0,1-5.92-.48A38.14,38.14,0,0,1,98.67,50l.42-6.63A29.12,29.12,0,0,0,110,45.81a16.86,16.86,0,0,0,3.88-.45A9.8,9.8,0,0,0,117.18,44a6.25,6.25,0,0,0,2.15-2.42,7.29,7.29,0,0,0,.75-3.38,6.1,6.1,0,0,0-3.32-5.65q-3.32-1.87-9.59-1.88l-2.1.06V24.76l2,.06a29.33,29.33,0,0,0,5.39-.45,14.23,14.23,0,0,0,4-1.32A6.44,6.44,0,0,0,119,20.84a5.73,5.73,0,0,0,.86-3.14,6.5,6.5,0,0,0-.45-2.36,5.36,5.36,0,0,0-1.52-2.12A8.24,8.24,0,0,0,115,11.66a13.17,13.17,0,0,0-4.22-.6,23.62,23.62,0,0,0-5.14.6,27.61,27.61,0,0,0-5.14,1.68l-.48-6.22a25.13,25.13,0,0,1,5.53-1.5,38.61,38.61,0,0,1,6.07-.48A24.79,24.79,0,0,1,118.2,6a14.78,14.78,0,0,1,5,2.33,10.19,10.19,0,0,1,3.11,3.77A11.23,11.23,0,0,1,127.38,17a9.61,9.61,0,0,1-1.23,4.85,10.23,10.23,0,0,1-3.71,3.65,15.17,15.17,0,0,1-6.13,1.91v.18a20.41,20.41,0,0,1,2.7.48,14.67,14.67,0,0,1,3,1.1,11.87,11.87,0,0,1,2.84,2,10,10,0,0,1,2.21,3.29A10.59,10.59,0,0,1,127.92,38.75Zm60.7-31.69V50.35l.11,3.83h-6.57V49.87h-35.7v4.31H140c.08-1.43.12-2.69.12-3.77V7.06c0-1.12,0-2.4-.12-3.83h48.73ZM146.46,44.13h35.7V9h-35.7Zm28.64-26V34.45l.06,2H153.51a18,18,0,0,0,.12-2V18.12c0-.52,0-1.18-.12-2h21.65ZM159,31.16h10.71V21.41H159Zm46.47-.84,4.84,4.48Q209,40.13,205.54,51l-.78,2.93-5.38-4.24.6-1.14A61.12,61.12,0,0,0,202.34,42c.78-2.53,1.43-4.83,2-6.91S205.24,31.44,205.48,30.32Zm1.19-4.9c-.87-.92-2-2-3.28-3.11s-2.54-2.16-3.65-3L203,14.77a85.36,85.36,0,0,1,7,5.8Zm.42-13.88a77,77,0,0,0-7-6.34L203.68.6q3.24,2.63,7.06,6.22Zm44,34.09,2.45-.06v5.26l-2.45-.06H240.22V54.3h-5.14c.08-.88.12-1.59.12-2.15V28.76l.12-5.08c-.64,1.2-1.12,2-1.44,2.51-.35-1.15-.81-2.41-1.37-3.76v3.88l.06,1.5h-7.66v2.27h5.15l2.75-.06v4.55l-2.75-.06h-5.45L224.26,37h6.16c1.35,0,2.35,0,3-.06v4.9c-.64,0-1.64-.06-3-.06h-3.65a18.57,18.57,0,0,0,7.83,6c-.52.8-1.07,1.7-1.64,2.69a16,16,0,0,0-1.11,2.16,29.72,29.72,0,0,1-5.65-4.16,17.85,17.85,0,0,1-3.86-5.35A24.9,24.9,0,0,1,212,54.3a52.25,52.25,0,0,0-3.35-5.14A23.87,23.87,0,0,0,213.73,46a14.17,14.17,0,0,0,2.6-2.72q.75-1.14,1-1.56h-3.95c-1.35,0-2.35,0-3,.06V36.9c.64,0,1.64.06,3,.06h5.56a21.48,21.48,0,0,0,.36-2.45h-5l-2.81.06V30l2.81.06h5.26V27.81h-7.89a12.89,12.89,0,0,0,.12-1.5V18.24a10.48,10.48,0,0,0-.12-1.49h7.89v-2.7h-5a13.48,13.48,0,0,0,.12-1.67V8.55h-2l-1.79.06V3.83l1.79.06h2V1.79a15.9,15.9,0,0,0-.06-1.61c.6,0,1.52,0,2.78.09s2.12.11,2.6.15l-.06,1.37v2h5v-2a15.9,15.9,0,0,0-.06-1.61c.6,0,1.53,0,2.78.09s2.13.11,2.61.15l-.06,1.37v2.1h2.15l1.85-.06V8.61l-1.85-.06h-2.15v3.83a11.78,11.78,0,0,0,.12,1.67h-5.33v2.7h7.66a13.06,13.06,0,0,0-.06,1.49v1.08a47.1,47.1,0,0,0,2.06-5.92q1-3.48,1.62-6.85c.41-2.25.72-4.36.92-6.31l5.09,1.61-.3.6c-.16,1-.41,2.34-.75,3.92s-.69,3-1.05,4.27h3.11c.48-1.47,1-3.26,1.53-5.35A29.65,29.65,0,0,0,245.66.6l5,1.67-.36.78a4.64,4.64,0,0,0-.27.81c-.1.38-.38,1.4-.84,3.08s-.8,2.91-1,3.7h2.51l2.45-.06v5.27l-2.45-.06h-1.91V22h1.13l2.39-.06v5l-2.39-.06h-1.13v6.52h1.13l2.39-.06v5l-2.39-.06h-1.13v7.36ZM216.18,20.69v3.17H220V20.69Zm8.67-12.86h-5v2.28h5Zm-.41,16h3.64V20.69h-3.64Zm19.49-8.07h-3.71V22h3.71Zm-3.71,11.06v6.52h3.71V26.85Zm0,11.42v7.36h3.71V38.27ZM276,27.33q.3,15.56.3,24.22c0,.88,0,1.91.12,3.11h-6.1c.08-1.2.12-2.23.12-3.11q0-9,.3-24.7a75.35,75.35,0,0,1-3.26,9.27A36.11,36.11,0,0,1,263.79,43c-.21-.56-.56-1.45-1.08-2.66s-1.14-2.5-1.86-3.86a41.68,41.68,0,0,0,4.91-8,55.09,55.09,0,0,0,3.94-10.56h-5l-2.75.06V12.08l2.75.06h5.74V1.85a14.12,14.12,0,0,0-.12-1.73c.72,0,1.77,0,3.14.09s2.37.11,3,.15a10.71,10.71,0,0,0-.12,1.49V12.14h1.8l2.75-.06v5.86l-2.75-.06h-1.56a43.37,43.37,0,0,0,2.4,5.77,26.85,26.85,0,0,0,3.52,5.59c-.48.92-.95,2-1.43,3.14a20.75,20.75,0,0,0-1,2.78,27.53,27.53,0,0,1-2.06-3.43A47.38,47.38,0,0,1,276,27.33Zm41.09,21.29c-1.4,3-2.27,4.92-2.63,5.8a62.93,62.93,0,0,1-7.09-2.75,34.48,34.48,0,0,1-5.53-3.17,31,31,0,0,1-3.83-3.17q-6.27,6.22-16.56,9.21a13.73,13.73,0,0,0-1.32-2.66,22.44,22.44,0,0,0-1.79-2.6,67.37,67.37,0,0,0,7-2.58,34.33,34.33,0,0,0,5.39-2.87A26.74,26.74,0,0,0,294.4,41a48.37,48.37,0,0,1-6-13.22l5.8-2.51a41.43,41.43,0,0,0,1.68,6.07,29.59,29.59,0,0,0,2.33,5,31.66,31.66,0,0,0,4-10.94L308,28.17l-.3.53a48.51,48.51,0,0,1-2.63,6.58,41,41,0,0,1-3.23,5.51,23.86,23.86,0,0,0,2.69,2.27,28.77,28.77,0,0,0,3.68,2.24,30.94,30.94,0,0,0,4.48,1.91C314.25,47.75,315.73,48.22,317.13,48.62ZM294.58,18.36q-.12.24-.57,1c-.29.51-.84,1.37-1.64,2.57A34.16,34.16,0,0,1,289.08,26a25.42,25.42,0,0,1-4.24,3.77,42.88,42.88,0,0,0-3.83-4.9,30.35,30.35,0,0,0,4.84-4.43,24,24,0,0,0,3-4q.87-1.59,1.11-2.13l5.14,3.35Zm17.11-5H286.33c-1.83,0-3.13,0-3.89.12V7.71c.76.08,2.06.12,3.89.12h9.09v-6L295.3.24c.72,0,1.8,0,3.26.09s2.48.11,3.08.15a8.37,8.37,0,0,0-.12,1.37v6h10.17c1.75,0,3,0,3.82-.12v5.75C314.76,13.38,313.48,13.34,311.69,13.34Zm-5.39,1.31a28.35,28.35,0,0,0,4.61,5.77,29.59,29.59,0,0,0,5.92,4.64l-3.05,5.56a37,37,0,0,1-6.61-5.56,41.33,41.33,0,0,1-5.65-7.42c.48-.24,1.23-.69,2.24-1.34Zm72.06,33.61q-2.08,4.31-2.87,6.28c-1.11-.28-2.56-.68-4.33-1.2a53.22,53.22,0,0,1-5.48-1.94c-1.87-.78-3.69-1.62-5.47-2.54a43,43,0,0,1-5.11-3.11,54.38,54.38,0,0,1-4.31-3.35c-1.11,1-2.46,2.07-4,3.23a50,50,0,0,1-5.47,3.44,59.76,59.76,0,0,1-7,3.2,54.25,54.25,0,0,1-8.13,2.39q-.78-1.74-3.17-6a58.06,58.06,0,0,0,13-4,41.41,41.41,0,0,0,10.47-6.55,49.54,49.54,0,0,1-6.73-10A64.54,64.54,0,0,1,335,15.85h-5.09c-2.71,0-4.54,0-5.5.12V10c1,.08,2.79.12,5.5.12H347V1.73a13.75,13.75,0,0,0-.12-1.67c.75,0,1.9,0,3.44.09s2.62.11,3.26.15a9,9,0,0,0-.12,1.43v8.38h17.76c2.63,0,4.42,0,5.38-.12v6c-1-.08-2.75-.12-5.38-.12h-5.33a65.22,65.22,0,0,1-4.39,12,49.19,49.19,0,0,1-6.31,10.1,34.6,34.6,0,0,0,3.53,2.52c1.27.79,2.71,1.6,4.3,2.42a64.09,64.09,0,0,0,6.22,2.66A83.78,83.78,0,0,0,378.36,48.26ZM359.53,15.85H341.35a39.88,39.88,0,0,0,9.32,17.94,42,42,0,0,0,5.27-8.25A49.48,49.48,0,0,0,359.53,15.85ZM383,24.7a36,36,0,0,0,4.57-4.55,64.81,64.81,0,0,0,4.7-6.13,65.79,65.79,0,0,0,4-6.78A31.12,31.12,0,0,0,398.88.6L405,3l-.3.42A95.7,95.7,0,0,1,399.24,15V50.77c0,1,0,2.13.11,3.41h-6.93c.08-1.28.12-2.41.12-3.41q0-3.52.21-12.32t.45-15.37q-.84,1.08-2,2.43c-.76.89-1.57,1.79-2.45,2.69s-1.7,1.66-2.45,2.3A41.71,41.71,0,0,0,383,24.7Zm48.44,10.1c3.83,2.44,5.92,3.75,6.28,4q-.3,6.34-1.74,9.18a8.18,8.18,0,0,1-4.42,4A23.72,23.72,0,0,1,423,53.16a48.7,48.7,0,0,1-6.88-.36,6.92,6.92,0,0,1-3.35-1.19,5.68,5.68,0,0,1-2.06-2.93,16.38,16.38,0,0,1-.69-5.26l.06-40.79A12.15,12.15,0,0,0,410,.9l6.58.42a7.65,7.65,0,0,0-.12,1.49v19.5a84.73,84.73,0,0,0,8.22-6.85,42.7,42.7,0,0,0,6-6.91l5.08,4.67-1.07.65a57.76,57.76,0,0,1-6.76,7,123.12,123.12,0,0,1-11.48,9V43.42a3.86,3.86,0,0,0,.51,2.21,2.71,2.71,0,0,0,1.58,1,31.46,31.46,0,0,0,5,.23,19.08,19.08,0,0,0,3.44-.29,5.62,5.62,0,0,0,2.84-1.38,7.37,7.37,0,0,0,1.2-3.35A54,54,0,0,0,431.41,34.8Zm43.53,1.38v7.59l.12,4.49a4.73,4.73,0,0,1-2.75,4.37q-2.74,1.48-8.85,1.49C463,53,462,51,460.59,48a28.77,28.77,0,0,0,4.72.42,8.28,8.28,0,0,0,2.52-.33,1.39,1.39,0,0,0,1-1.46V36.18H454.67c-2.23,0-3.81,0-4.72.12V31a33.83,33.83,0,0,1-3.29,1.43,32.32,32.32,0,0,0-2.93-4.9c.63-.24,1.86-.75,3.67-1.53a43.13,43.13,0,0,0,5.9-3.14,28.37,28.37,0,0,0-3.71-2.15l3-3.35a35.84,35.84,0,0,1,4.78,2.51c1-.83,2-1.69,2.93-2.57a28.48,28.48,0,0,0-4.42-2.21l2.33-3.53a36.38,36.38,0,0,1,5.26,2.1q.54-.72,1.38-2c.55-.81,1-1.48,1.25-2h-8a50,50,0,0,1-5.26,5.83,37.76,37.76,0,0,1-5.38,4.33,50.36,50.36,0,0,0-3.77-4.48,36.58,36.58,0,0,0,4.81-3.59,35.6,35.6,0,0,0,5.2-5.59A21.11,21.11,0,0,0,457.12,0L463,1.26l-.3.59c-.47,1.08-.93,2-1.37,2.81h8.13l.48-.53,1.38,1c-.56-1.31-1-2.49-1.38-3.53L475.24.18a42.85,42.85,0,0,0,2.87,6.88V3.71l2.4.06h12.13l.36-.42a39,39,0,0,1,4.19,3.47l-.72.36c-.36.79-.81,1.69-1.34,2.69S494,11.92,493.24,13s-1.52,2.25-2.42,3.4A39.22,39.22,0,0,1,488,19.73a37,37,0,0,0,12,6.94c-.48.76-1,1.72-1.61,2.87a28.34,28.34,0,0,0-1.26,2.69,27.58,27.58,0,0,1-3-1.37V36.3c-.88-.08-2.43-.12-4.66-.12Zm-11.54,5A42.28,42.28,0,0,1,448.51,52a44.66,44.66,0,0,0-3.41-5.2,37.85,37.85,0,0,0,8.11-4.1,30.15,30.15,0,0,0,6.19-5.47l4.54,3.4Zm-8.73-10.46h34.81c1.95,0,3.32,0,4.12-.06a40.29,40.29,0,0,1-6-3.95A50.07,50.07,0,0,1,482,21.53v4.12l-2.69-.06H465.67l-2.69.06V21.71a50.52,50.52,0,0,1-5.83,4.9,50.45,50.45,0,0,1-6.49,4C451.42,30.66,452.76,30.68,454.67,30.68Zm26.19-10.35a52.06,52.06,0,0,1-4.39-5.83A63,63,0,0,1,472.67,8a44.61,44.61,0,0,1-3.62,6.46,45.87,45.87,0,0,1-4.69,5.92h16.5Zm-.35-11.42h-1.38c.28.48.83,1.35,1.64,2.6A40,40,0,0,0,484,15.73a29.64,29.64,0,0,0,3-3.2,24.11,24.11,0,0,0,2.46-3.62Zm-.42,31.64,4.42-3.17a45.43,45.43,0,0,0,4.67,3.91,41.87,41.87,0,0,0,5,3.23q2.39,1.29,4.13,2.07c-.88,1.35-2,3.07-3.23,5.14A44.58,44.58,0,0,1,487.44,47,56.09,56.09,0,0,1,480.09,40.55Z" style="fill:#fff"/></svg>