<svg id="レイヤー_1" data-name="レイヤー 1" xmlns="http://www.w3.org/2000/svg" viewBox="0 0 250 300"><title>vertical-a_1</title><g id="Vertical1"><path d="M111.84,115.82h23.39c0-3.47,0-6.9-.06-10.25l30-2.68V88.82L135,86.14c0-5.24-.06-9.74-.07-13.25a36.89,36.89,0,1,0-22.87,0c0,3.51,0,8-.07,13.25L81.94,88.82v14.07l30,2.68C111.88,108.92,111.86,112.35,111.84,115.82Zm-5.07-78a16.77,16.77,0,1,1,16.76,16.77A16.78,16.78,0,0,1,106.77,37.84Zm4.66,125.35h24.21c.44,26.93,1.48,53.61,4.23,74.94-3.68,1.5-10.66-2.67-17.37-.78-6.31,1.77-11.09,2.82-15.3.78C110,216.8,111,190.12,111.43,163.19Zm131,66.93c-1.61-2.78-4.76-6.16-9.29-9.48a82.93,82.93,0,0,1-11.49,17.49c-11.8-1.89-14.34,3.69-22.44,0a93.27,93.27,0,0,0,24.77-23,76.6,76.6,0,0,0-12.57-4.92c13.72-8.4,27-23,35-40.36C248.23,194.54,247.65,212,242.47,230.12ZM209.4,248.71c-1.78,3.25,1.69,4.09-.52,5.91s-16.61.23-16.61,2.12c0,1.53,17.75-.64,17.77,2,0,1.62-10.42.6-11.9,1.48-2.47,1.48-1.23,4.53-2.42,5.87-3,3.37-32.66-.32-33.28,2.28-.79,3.32,14,.92,13.83,3.58-.15,3.21-10.08,2.2-13.27,3.46-2.29.9-1.29,2.26-3.16,4-3.05,2.91-17,.31-17,2.9,0,1.84,4.8.12,4.8,2.41,0,2-9.4-.85-9.5,1.29-.26,5.25,9.8.27,9.94,4.88.1,3.16-18.29.58-19.78,2s2.44,6.16-4.8,6.16c-2.7,0-4.12-5.18-5.88-6.49-2.32-1.73-7.49-.26-9.8-4-1.66-2.7-8.13-1.08-8.24-3.07-.18-3.29,11.74-2.7,15.15-3.08,2-.22,2.07-2.08.08-2.63-2.59-.72-21.22-1-24.64-.86a26.54,26.54,0,0,1-9.34-1.14c-2.66-1-.76-3.7-6.31-4.18-2.75-.25-19.64,1-19.78-1.88-.1-2,7.84-.7,8.1-2.18.4-2.27-2.92-1.9-3.92-3.07s.59-2.47-.81-3.29c-2-1.19-14.32-.23-14.31-2.2s13-1.9,12.16-4.59c-.58-2-13.32.48-15-3.45-.86-2-8.51-.71-10-2.22s2.35-4.26-.57-6.65c5.76-4.67,17,3.6,23.45,0,1,.61,3.66,2.46,4.78,2.62s1.74.92.74,1.26c-1.4.47-6.83,0-6.85,1.59s9,0,9.05,1.64c.12,2.7,9,1.16,11.44,2.06,2.76,1,3.41,3.51,6.06,4.06,2.5.52,6.15-2,8.48-2,3.9,0,9.68,1.67,12.48.88s-.62-7.06,1.48-8.83,4.49-.55,5.7-3.18c12.66-3.12,26.8,2.26,32.67,0,1.33,3-.59,3.47-.26,4.84.43,1.79,7.73,1,7.76,2.52.06,2.84-14.81.44-14.58,3.13.2,2.49,16.56,1,18.76,1.18,8.88.84,10,2.93,12.53,2.71s2.28-2.4,5-3.1c2.3-.6,12,.77,13.18-1.48s-3.87-2.52-4-5,8-.42,15-4.84c5.83-1,21.17-1.18,22.43,0C214.36,245.69,210.36,246.94,209.4,248.71Zm-184-10.58a82.93,82.93,0,0,1-11.49-17.49c-4.53,3.32-7.68,6.7-9.29,9.48C-.58,212-1.16,194.54.67,169.83c7.93,17.32,21.23,32,34.95,40.36a76.6,76.6,0,0,0-12.57,4.92,93.38,93.38,0,0,0,24.76,23C40.58,241.82,31.82,235.05,25.38,238.13Z" style="fill:#fff"/><path d="M125.7,122.33h-1.83v.76l1.31.39-14.44,33.2h6.51l2.6-6.52H136.5l2.7,6.52h6.57L131,122.33Zm-3.76,22.56,6.22-15.28,6.37,15.28Zm70.27-22.56-10.33,34.35h-6.16l-7.28-26.15h-.1l-7.29,26.15h-6L145,123.56l-1.59-.47v-.76h7.91l6.79,24.74h.1l7-23.54-1.47-.44v-.76h7.84l7.23,24.74h.1l6.74-23.55-1.45-.43v-.76h8Zm13.69,0h-1.82v.76l1.3.39-14.44,33.2h6.51l2.6-6.52h16.66l2.7,6.52H226l-14.8-34.35Zm-3.76,22.56,6.22-15.28,6.37,15.28Zm51.5-22.56-12.9,19.48v14.87h-6.12V141.81l-12.9-19.48h7.66L237.74,136l7.91-12.55-1.24-.37v-.76h9.23Zm-192,0h6v34.35H61.44v-33.1l-1.65-.49v-.76h1.82Zm-24,0H35.84v.76l1.31.39-14.44,33.2h6.5l2.61-6.52H48.47l2.7,6.52h6.57l-14.8-34.35Zm-3.75,22.56,6.22-15.28,6.37,15.28Zm47.29,6.26H95.81v5.53H75.09v-33.1l-1.66-.49v-.76H81.2Zm-61-4.4c0,7.38-5.82,10.8-12.57,10.8-4.27,0-8.44-1.31-11.25-4.66L1,148.43A8.09,8.09,0,0,0,7.76,152c2.81,0,6.18-1.38,6.18-4.54,0-7.73-16.3-4.06-16.3-15.64,0-7.09,6.14-10.39,12.5-10.39A14.08,14.08,0,0,1,20,125l-4.29,4.51-1,1.05-.43-.37.54-1.28A7.63,7.63,0,0,0,9.51,127c-2.82,0-5.46,1.26-5.46,4.41C4.05,139.14,20.18,134.65,20.18,146.75Z" style="fill:#fff"/></g></svg>