<?xml version="1.0" encoding="utf-8"?>
<!-- Generator: Adobe Illustrator 23.0.0, SVG Export Plug-In . SVG Version: 6.00 Build 0)  -->
<svg version="1.1" id="レイヤー_1" xmlns="http://www.w3.org/2000/svg" xmlns:xlink="http://www.w3.org/1999/xlink" x="0px"
	 y="0px" viewBox="0 0 257.3 298.1" style="enable-background:new 0 0 257.3 298.1;" xml:space="preserve">
<style type="text/css">
	.st0{fill:#FFFFFF;}
</style>
<title>vertical-a_1</title>
<g id="Vertical1">
	<path class="st0" d="M115.5,114.9h23.4c0-3.5,0-6.9-0.1-10.3l30-2.7V87.9l-30.2-2.7c0-5.2-0.1-9.7-0.1-13.3
		c19.4-6.3,30-27.1,23.6-46.5c-6.3-19.4-27.1-30-46.5-23.6S85.7,29,92.1,48.3c3.7,11.2,12.4,20,23.6,23.6c0,3.5,0,8-0.1,13.3
		l-30,2.7V102l30,2.7C115.5,108,115.5,111.4,115.5,114.9z M110.4,36.9c0-9.3,7.5-16.8,16.8-16.8s16.8,7.5,16.8,16.8
		s-7.5,16.8-16.8,16.8c0,0,0,0,0,0C117.9,53.7,110.4,46.2,110.4,36.9L110.4,36.9z M115.1,162.3h24.2c0.4,26.9,1.5,53.6,4.2,74.9
		c-3.7,1.5-10.7-2.7-17.4-0.8c-6.3,1.8-11.1,2.8-15.3,0.8C113.6,215.9,114.6,189.2,115.1,162.3L115.1,162.3z M246.1,229.2
		c-1.6-2.8-4.8-6.2-9.3-9.5c-3.1,6.3-6.9,12.2-11.5,17.5c-11.8-1.9-14.3,3.7-22.4,0c9.6-6.1,18-13.9,24.8-23c-4-2-8.2-3.7-12.6-4.9
		c13.7-8.4,27-23,35-40.4C251.9,193.6,251.3,211.1,246.1,229.2L246.1,229.2z M213,247.8c-1.8,3.3,1.7,4.1-0.5,5.9
		c-2.2,1.8-16.6,0.2-16.6,2.1c0,1.5,17.8-0.6,17.8,2c0,1.6-10.4,0.6-11.9,1.5c-2.5,1.5-1.2,4.5-2.4,5.9c-3,3.4-32.7-0.3-33.3,2.3
		c-0.8,3.3,14,0.9,13.8,3.6c-0.1,3.2-10.1,2.2-13.3,3.5c-2.3,0.9-1.3,2.3-3.2,4c-3.1,2.9-17,0.3-17,2.9c0,1.8,4.8,0.1,4.8,2.4
		c0,2-9.4-0.9-9.5,1.3c-0.3,5.3,9.8,0.3,9.9,4.9c0.1,3.2-18.3,0.6-19.8,2s2.4,6.2-4.8,6.2c-2.7,0-4.1-5.2-5.9-6.5
		c-2.3-1.7-7.5-0.3-9.8-4c-1.7-2.7-8.1-1.1-8.2-3.1c-0.2-3.3,11.7-2.7,15.2-3.1c2-0.2,2.1-2.1,0.1-2.6c-2.6-0.7-21.2-1-24.6-0.9
		c-3.2,0.2-6.3-0.2-9.3-1.1c-2.7-1-0.8-3.7-6.3-4.2c-2.8-0.3-19.6,1-19.8-1.9c-0.1-2,7.8-0.7,8.1-2.2c0.4-2.3-2.9-1.9-3.9-3.1
		s0.6-2.5-0.8-3.3c-2-1.2-14.3-0.2-14.3-2.2s13-1.9,12.2-4.6c-0.6-2-13.3,0.5-15-3.4c-0.9-2-8.5-0.7-10-2.2s2.3-4.3-0.6-6.6
		c5.8-4.7,17,3.6,23.5,0c1,0.6,3.7,2.5,4.8,2.6s1.7,0.9,0.7,1.3c-1.4,0.5-6.8,0-6.8,1.6s9,0,9,1.6c0.1,2.7,9,1.2,11.4,2.1
		c2.8,1,3.4,3.5,6.1,4.1c2.5,0.5,6.2-2,8.5-2c3.9,0,9.7,1.7,12.5,0.9c2.8-0.8-0.6-7.1,1.5-8.8s4.5-0.6,5.7-3.2
		c12.7-3.1,26.8,2.3,32.7,0c1.3,3-0.6,3.5-0.3,4.8c0.4,1.8,7.7,1,7.8,2.5c0.1,2.8-14.8,0.4-14.6,3.1c0.2,2.5,16.6,1,18.8,1.2
		c8.9,0.8,10,2.9,12.5,2.7s2.3-2.4,5-3.1c2.3-0.6,12,0.8,13.2-1.5s-3.9-2.5-4-5s8-0.4,15-4.8c5.8-1,21.2-1.2,22.4,0
		C218,244.8,214,246,213,247.8z M29,237.2c-4.6-5.3-8.4-11.2-11.5-17.5c-4.5,3.3-7.7,6.7-9.3,9.5c-5.2-18.1-5.8-35.6-3.9-60.3
		c7.9,17.3,21.2,32,34.9,40.4c-4.3,1.3-8.5,2.9-12.6,4.9c6.8,9.1,15.2,16.9,24.8,23C44.2,240.9,35.5,234.1,29,237.2L29,237.2z"/>
	<path class="st0" d="M129.3,121.4h-1.8v0.8l1.3,0.4l-14.4,33.2h6.5l2.6-6.5h16.7l2.7,6.5h6.6l-14.8-34.4H129.3z M125.6,144
		l6.2-15.3l6.4,15.3H125.6z M195.8,121.4l-10.3,34.3h-6.2l-7.3-26.1H172l-7.3,26.1h-6l-10-33.1l-1.6-0.5v-0.8h7.9l6.8,24.7h0.1
		l7-23.5l-1.5-0.4v-0.8h7.8l7.2,24.7h0.1l6.7-23.6l-1.4-0.4v-0.8L195.8,121.4L195.8,121.4z M209.5,121.4h-1.8v0.8l1.3,0.4
		l-14.4,33.2h6.5l2.6-6.5h16.7l2.7,6.5h6.6l-14.8-34.3L209.5,121.4z M205.8,144l6.2-15.3l6.4,15.3H205.8z M257.3,121.4l-12.9,19.5
		v14.9h-6.1v-14.9l-12.9-19.5h7.7l8.4,13.7l7.9-12.6l-1.2-0.4v-0.8L257.3,121.4L257.3,121.4z M65.3,121.4h6v34.3h-6.2v-33.1
		l-1.7-0.5v-0.8L65.3,121.4L65.3,121.4z M41.3,121.4h-1.8v0.8l1.3,0.4l-14.4,33.2h6.5l2.6-6.5h16.6l2.7,6.5h6.6l-14.8-34.3
		L41.3,121.4z M37.5,144l6.2-15.3l6.4,15.3H37.5z M84.8,150.2h14.6v5.5H78.7v-33.1l-1.7-0.5v-0.8h7.8L84.8,150.2z M23.8,145.8
		c0,7.4-5.8,10.8-12.6,10.8c-4.3,0-8.4-1.3-11.3-4.7l4.6-4.5c1.5,2.2,4.1,3.6,6.8,3.6c2.8,0,6.2-1.4,6.2-4.5
		c0-7.7-16.3-4.1-16.3-15.6c0-7.1,6.1-10.4,12.5-10.4c3.6-0.1,7.2,1.2,9.9,3.6l-4.3,4.5l-1,1.1l-0.4-0.4l0.5-1.3
		c-1.5-1.3-3.4-2-5.3-1.9c-2.8,0-5.5,1.3-5.5,4.4C7.7,138.2,23.8,133.7,23.8,145.8z"/>
</g>
</svg>
