<svg id="レイヤー_1" data-name="レイヤー 1" xmlns="http://www.w3.org/2000/svg" viewBox="0 0 250 385"><title>vertical-b_1</title><g id="Vertical2"><path d="M49.28,238.13c-7.23,3.69-16-3.08-22.44,0a82.9,82.9,0,0,1-11.48-17.49c-4.53,3.32-7.69,6.7-9.3,9.48C.88,212,.3,194.54,2.14,169.83c7.92,17.32,21.23,32,34.94,40.36a76.47,76.47,0,0,0-12.56,4.92A93.23,93.23,0,0,0,49.28,238.13Zm145.41,6c-7,4.42-15.11,2.33-15,4.84s5.27,2.59,4,5-10.87.88-13.18,1.48c-2.73.7-2.45,2.88-5,3.1s-3.65-1.87-12.53-2.71c-2.21-.21-18.56,1.31-18.77-1.18-.22-2.69,14.64-.29,14.59-3.13,0-1.51-7.33-.73-7.77-2.52-.33-1.37,1.59-1.86.27-4.84-5.88,2.26-20-3.12-32.68,0-1.2,2.63-3.71,1.5-5.7,3.18s1.3,8-1.48,8.83-8.57-.92-12.48-.88c-2.33,0-6,2.51-8.47,2-2.65-.55-3.3-3.06-6.07-4.06-2.48-.9-11.31.64-11.43-2.06-.08-1.63-9.08,0-9.06-1.64s5.46-1.12,6.85-1.59c1-.34.46-1.09-.74-1.26s-3.81-2-4.77-2.62c-6.47,3.6-17.7-4.67-23.45,0,2.92,2.39-.82,5.26.56,6.65s9.15.24,10,2.22c1.7,3.93,14.45,1.49,15,3.45.79,2.69-12.16,2.48-12.17,4.59s12.28,1,14.31,2.2c1.41.82-.28,2,.81,3.29s4.32.8,3.92,3.07c-.25,1.48-8.19.15-8.09,2.18.14,2.85,17,1.63,19.78,1.88,5.54.48,3.64,3.17,6.3,4.18a26.59,26.59,0,0,0,9.35,1.14c3.42-.14,22,.14,24.63.86,2,.55,1.92,2.41-.07,2.63-3.41.38-15.34-.21-15.15,3.08.11,2,6.58.37,8.24,3.07,2.31,3.75,7.48,2.28,9.8,4,1.76,1.31,3.18,6.49,5.88,6.49,7.24,0,3.42-4.88,4.8-6.16s19.87,1.2,19.78-2c-.15-4.61-10.21.37-10-4.88.11-2.14,9.5.7,9.5-1.29,0-2.29-4.81-.57-4.8-2.41,0-2.59,13.92,0,17-2.9,1.86-1.78.86-3.14,3.15-4,3.19-1.26,13.12-.25,13.28-3.46.13-2.66-14.63-.26-13.84-3.58.62-2.6,30.31,1.09,33.29-2.28,1.18-1.34-.06-4.39,2.42-5.87,1.47-.88,11.91.14,11.89-1.48,0-2.63-17.77-.46-17.77-2,0-1.89,14.35-.25,16.62-2.12s-1.26-2.66.51-5.91c1-1.77,5-3,6.27-4.55C215.87,243,200.52,243.14,194.69,244.16Zm39.95-23.52c4.53,3.32,7.69,6.7,9.3,9.48,5.18-18.08,5.76-35.58,3.92-60.29-7.92,17.32-21.23,32-34.94,40.36a76.47,76.47,0,0,1,12.56,4.92,93.23,93.23,0,0,1-24.76,23c8.1,3.69,10.63-1.89,22.44,0A82.9,82.9,0,0,0,234.64,220.64Zm-68-117.75-30,2.68c.33,42.63-.07,95.6,4.71,132.56-3.68,1.5-10.67-2.67-17.37-.78-6.32,1.77-11.1,2.82-15.31.78,4.78-37,4.38-89.93,4.71-132.56l-30-2.68V88.82l30.1-2.68c0-5.24,0-9.74.07-13.25a36.88,36.88,0,1,1,22.86,0c0,3.51,0,8,.07,13.25l30.1,2.68ZM125,54.61a16.77,16.77,0,1,0-16.76-16.77A16.78,16.78,0,0,0,125,54.61Z" style="fill:#fff"/><path d="M125.66,323.26h-1.75V324l1.26.37-13.9,31.95h6.26l2.5-6.27h16l2.6,6.27H145l-14.24-33.06ZM122,345l6-14.71L134.16,345Zm67.63-21.72-9.94,33.06h-5.92l-7-25.17h-.09l-7,25.17H154l-9.72-31.87L142.7,324v-.74h7.61l6.53,23.82h.1l6.76-22.66-1.41-.42v-.74h7.54l7,23.82h.09l6.49-22.67L182,324v-.74h7.7Zm13.18,0h-1.76V324l1.26.37-13.9,31.95h6.26l2.51-6.27h16l2.59,6.27h6.32l-14.24-33.06ZM199.23,345l6-14.71L211.35,345Zm49.56-21.72L236.37,342v14.31h-5.88V342l-12.42-18.75h7.38l8,13.17,7.61-12.08-1.19-.35v-.74h8.88Zm-184.8,0h5.72v33.06H63.83V324.47l-1.6-.47v-.74H64Zm-23.05,0H39.19V324l1.26.37-13.9,31.95h6.26l2.5-6.27h16l2.6,6.27h6.32L46,323.26ZM37.32,345l6-14.71L49.44,345Zm45.52,6H96.9v5.32H77V324.47l-1.6-.47v-.74h7.48Zm-58.73-4.23c0,7.1-5.6,10.39-12.09,10.39-4.11,0-8.12-1.26-10.83-4.48l4.43-4.3a7.8,7.8,0,0,0,6.54,3.46c2.71,0,5.95-1.33,5.95-4.37,0-7.44-15.69-3.91-15.69-15.06,0-6.81,5.91-10,12-10a13.58,13.58,0,0,1,9.48,3.41l-4.3,4.53h0l-.78.83-.41-.37L19,329.6a7.38,7.38,0,0,0-5.12-1.85c-2.71,0-5.25,1.21-5.25,4.24C8.59,339.44,24.11,335.12,24.11,346.77Z" style="fill:#fff"/><path d="M10.84,372.64l-5.18,12H3l5.36-12H1.55v-2h9.29Zm3.27,5.7v-1.85c.2,0,.42,0,.6,0,2.49,0,4-.72,4-2.2s-1.17-2.07-2.79-2.07a7.51,7.51,0,0,0-3.21.72l-.14-2a10.3,10.3,0,0,1,3.61-.61c3,0,4.9,1.37,4.9,3.68,0,1.84-1.43,3-3.46,3.23v.06c2.11.18,3.62,1.52,3.62,3.47,0,2.47-2.17,4.05-5.48,4.05a11.75,11.75,0,0,1-3.61-.54l.12-2.07a8.47,8.47,0,0,0,3.39.77c1.78,0,3.13-.75,3.13-2.37s-1.43-2.35-4-2.35C14.59,378.32,14.33,378.32,14.11,378.34Zm12.72-2.13a3.08,3.08,0,0,1,2.87-2.08,2.78,2.78,0,0,1,.95.12v2a2.73,2.73,0,0,0-1-.14c-1.78,0-2.77,1.43-2.77,4.08v4.41h-2.3v-7.22c0-1.09,0-2.19-.1-3.05h2.2c0,.48.08,1.3.08,1.84Zm15,5.34c0,1.09,0,2.23.1,3.09H39.86c0-.5-.06-1.1-.06-1.78h0a3.76,3.76,0,0,1-3.45,2c-2.77,0-4.5-2.1-4.5-5.33s1.81-5.42,4.52-5.42a3.63,3.63,0,0,1,3.29,1.8h0c0-.7-.06-1.7-.06-2.71v-3.75h2.27Zm-7.65-2c0,2,1,3.54,2.65,3.54s2.77-1.55,2.77-3.51-1.13-3.6-2.77-3.6S34.22,377.48,34.22,379.52ZM60,370.63H62.2v14H59.08l-4.25-8c-.66-1.22-1.45-2.89-1.83-3.79h0c.06.86.1,3.07.1,4.28v7.48H50.82v-14h3.39l4.11,7.89c.52,1,1.31,2.63,1.73,3.61h0c-.06-1-.12-3.55-.12-4.85ZM66.23,375a7.6,7.6,0,0,1,3.55-.82c3.11,0,4.3,1.68,4.3,4.13,0,.88,0,2,0,2.75v1.08a21.18,21.18,0,0,0,.15,2.55h-2c0-.16,0-.52,0-.82s0-.6,0-.9h0a3.79,3.79,0,0,1-3.49,1.88c-2.09,0-3.52-1.18-3.52-3.13,0-2.15,1.93-3.35,5.36-3.35.42,0,1,0,1.45.06a2.21,2.21,0,0,0-2.51-2.49,5.79,5.79,0,0,0-3.07.95ZM71,379.79c-2.32,0-3.53.52-3.53,1.8,0,1,.68,1.51,1.77,1.51,1.66,0,2.73-1.05,2.73-3.27C71.71,379.81,71.39,379.79,71,379.79Zm15.74,1.76c0,1.09,0,2.23.1,3.09H84.71c0-.5-.06-1.1-.06-1.78h0a3.76,3.76,0,0,1-3.45,2c-2.77,0-4.5-2.1-4.5-5.33s1.81-5.42,4.52-5.42a3.63,3.63,0,0,1,3.29,1.8h0c0-.7-.06-1.7-.06-2.71v-3.75h2.27Zm-7.65-2c0,2,1,3.54,2.65,3.54s2.77-1.55,2.77-3.51-1.13-3.6-2.77-3.6S79.07,377.48,79.07,379.52ZM90.57,375a7.6,7.6,0,0,1,3.55-.82c3.11,0,4.3,1.68,4.3,4.13,0,.88,0,2,0,2.75v1.08a21.47,21.47,0,0,0,.14,2.55h-2c0-.16,0-.52,0-.82s0-.6,0-.9h0A3.78,3.78,0,0,1,93,384.8c-2.09,0-3.51-1.18-3.51-3.13,0-2.15,1.92-3.35,5.35-3.35.43,0,1,0,1.45.06a2.2,2.2,0,0,0-2.51-2.49,5.82,5.82,0,0,0-3.07.95Zm4.76,4.84c-2.33,0-3.54.52-3.54,1.8,0,1,.69,1.51,1.77,1.51,1.67,0,2.73-1.05,2.73-3.27C96.05,379.81,95.73,379.79,95.33,379.79Zm18.7-6.87a6.87,6.87,0,0,0-2.73-.6c-1.49,0-2.47.72-2.47,1.77s.44,1.5,2.59,2.36c2.51,1,3.57,2.19,3.57,4.16,0,2.57-2,4.27-5,4.27a9.52,9.52,0,0,1-3.49-.6l.24-2.17a6.69,6.69,0,0,0,3.09.79c1.61,0,2.71-.75,2.71-2s-.58-1.75-2.71-2.61c-2.54-1-3.47-2.13-3.47-4,0-2.37,1.91-3.94,4.76-3.94a8.94,8.94,0,0,1,3.17.52Zm10.45,3.51a3.86,3.86,0,0,0-1.76-.38,3.45,3.45,0,0,0,0,6.89,4.28,4.28,0,0,0,1.94-.44l.15,1.9a6.62,6.62,0,0,1-2.35.38c-3.28,0-5.44-2.06-5.44-5.26a5.15,5.15,0,0,1,5.46-5.29,6.2,6.2,0,0,1,2.16.34Zm5.1-2.95c0,.95,0,2-.06,2.57h0a4,4,0,0,1,3.37-1.92c2.81,0,3.8,1.84,3.8,4.59v5.92h-2.27v-5c0-2-.2-3.64-2.17-3.64-1.66,0-2.71,1.27-2.71,3.88v4.77h-2.27V369.47h2.27Zm20.51,6.07a5.35,5.35,0,1,1-5.28-5.42A5.08,5.08,0,0,1,150.09,379.55Zm-8.25,0c0,2.14,1.17,3.53,2.91,3.53s2.93-1.41,2.93-3.58-1.18-3.59-3-3.59S141.84,377.32,141.84,379.55Zm21,0a5.35,5.35,0,1,1-5.28-5.42A5.08,5.08,0,0,1,162.81,379.55Zm-8.25,0c0,2.14,1.17,3.53,2.91,3.53s2.93-1.41,2.93-3.58-1.18-3.59-3-3.59S154.56,377.32,154.56,379.55Zm13.37,5.09h-2.31V369.47h2.31Zm9,0v-14h7.63v2h-5.2v4h4.95v2h-4.95v6Zm11.62-4.53c.06,1.82,1.4,2.95,3.37,2.95a5.69,5.69,0,0,0,3-.81l.08,2a7.94,7.94,0,0,1-3.31.64c-3.39,0-5.48-2-5.48-5.44,0-3.17,2-5.31,5-5.31,2.85,0,4.47,1.7,4.47,5.29,0,.19,0,.51,0,.69Zm5-1.65c0-1.83-1-2.67-2.38-2.67a2.64,2.64,0,0,0-2.61,2.67Zm4.28,4a5.76,5.76,0,0,0,2.69.69c1,0,1.8-.44,1.8-1.27s-.46-1.1-2.06-1.76c-1.85-.77-2.55-1.51-2.55-2.91,0-1.91,1.54-3.07,3.83-3.07a7.15,7.15,0,0,1,2.59.44l-.2,1.8a5.28,5.28,0,0,0-2.33-.54c-.92,0-1.62.42-1.62,1.19s.5,1.06,1.88,1.58c1.87.72,2.77,1.53,2.77,3.09,0,2.09-1.64,3.19-4,3.19a8,8,0,0,1-3-.52Zm12.42-8.06h2.61v1.74h-2.61v4.28c0,1.58.26,2.51,1.69,2.51a3,3,0,0,0,1-.2l.06,1.78a5.67,5.67,0,0,1-1.73.26c-2.48,0-3.29-1.36-3.29-3.83v-4.8h-2.16v-1.74H208V372.1l2.21-.74Zm7.53-1.93h-2.41v-2.35h2.41Zm0,12.18h-2.31V374.37h2.31Zm6.22-4.29c.22.64.54,1.78.72,2.49h0c.18-.71.54-1.89.74-2.49l2-6h2.33l-3.76,10.27h-2.71l-3.75-10.27H222Zm7.92-5.4a7.64,7.64,0,0,1,3.56-.82c3.11,0,4.29,1.68,4.29,4.13,0,.88,0,2,0,2.75v1.08a21.47,21.47,0,0,0,.14,2.55h-2c0-.16,0-.52,0-.82s0-.6,0-.9h0a3.77,3.77,0,0,1-3.49,1.88c-2.09,0-3.51-1.18-3.51-3.13,0-2.15,1.93-3.35,5.36-3.35.42,0,1,0,1.44.06a2.2,2.2,0,0,0-2.5-2.49,5.85,5.85,0,0,0-3.08.95Zm4.76,4.84c-2.33,0-3.53.52-3.53,1.8,0,1,.68,1.51,1.76,1.51,1.67,0,2.73-1.05,2.73-3.27C237.32,379.81,237,379.79,236.6,379.79Zm8.77,4.85h-2.31V369.47h2.31Z" style="fill:#fff"/></g></svg>