<svg id="レイヤー_1" data-name="レイヤー 1" xmlns="http://www.w3.org/2000/svg" viewBox="0 0 500 157.61"><title>horizontal-tagline</title><g id="Horizontal1"><path d="M192.34,125.41c-3.83,2-8.46-1.64-11.87,0a44.09,44.09,0,0,1-6.07-9.26,18.19,18.19,0,0,0-4.92,5c-2.73-9.56-3-18.81-2.07-31.88a50,50,0,0,0,18.48,21.34,41,41,0,0,0-6.65,2.6A49.39,49.39,0,0,0,192.34,125.41Zm76.88,3.18c-3.69,2.34-8,1.23-7.91,2.56s2.78,1.37,2.12,2.62-5.75.47-7,.78c-1.44.38-1.3,1.53-2.65,1.65s-1.93-1-6.62-1.44c-1.17-.11-9.82.69-9.93-.62S245,134,245,132.48c0-.8-3.88-.38-4.11-1.33-.17-.72.84-1,.14-2.56-3.1,1.2-10.58-1.65-17.27,0-.64,1.39-2,.8-3,1.68s.69,4.26-.78,4.67-4.54-.48-6.6-.46c-1.23,0-3.16,1.33-4.48,1.05s-1.75-1.62-3.21-2.15c-1.31-.48-6,.34-6.05-1.09,0-.86-4.8,0-4.78-.86s2.88-.6,3.62-.84c.53-.18.24-.58-.39-.67a10.83,10.83,0,0,1-2.53-1.39c-3.42,1.91-9.35-2.46-12.4,0,1.55,1.27-.43,2.78.3,3.52s4.84.13,5.29,1.17c.9,2.08,7.64.79,7.95,1.83.42,1.42-6.43,1.31-6.43,2.42s6.49.54,7.56,1.17c.75.43-.15,1.07.43,1.74s2.29.42,2.08,1.62c-.14.78-4.34.08-4.28,1.15.07,1.51,9,.87,10.45,1,2.93.25,1.93,1.67,3.34,2.21a13.92,13.92,0,0,0,4.94.6c1.81-.07,11.66.07,13,.45,1.06.3,1,1.28,0,1.39-1.8.2-8.1-.11-8,1.63.06,1.06,3.48.2,4.36,1.63,1.22,2,4,1.21,5.18,2.12.93.69,1.68,3.43,3.11,3.43,3.83,0,1.81-2.58,2.54-3.26s10.51.63,10.46-1c-.08-2.43-5.4.2-5.26-2.57.06-1.13,5,.37,5-.69,0-1.21-2.54-.3-2.54-1.27,0-1.37,7.36,0,9-1.54,1-.94.46-1.66,1.67-2.13,1.69-.67,6.94-.13,7-1.83.07-1.41-7.73-.14-7.32-1.89.33-1.38,16,.58,17.6-1.21.63-.71,0-2.32,1.28-3.1.78-.47,6.3.07,6.29-.78,0-1.39-9.39-.25-9.39-1.05,0-1,7.58-.14,8.78-1.13s-.66-1.4.27-3.12c.51-.94,2.63-1.6,3.32-2.41C280.42,128,272.3,128.05,269.22,128.59Zm21.13-12.44a18.13,18.13,0,0,1,4.91,5c2.74-9.56,3.05-18.81,2.08-31.88a50.1,50.1,0,0,1-18.48,21.34,40.49,40.49,0,0,1,6.64,2.6,49.35,49.35,0,0,1-13.09,12.18c4.28,2,5.62-1,11.86,0A43.74,43.74,0,0,0,290.35,116.15Zm-36-62.26-15.85,1.42c.18,22.54,0,50.55,2.49,70.1-1.95.78-5.64-1.42-9.18-.42-3.34.94-5.87,1.49-8.09.42,2.52-19.55,2.31-47.56,2.48-70.1l-15.84-1.42V46.46L226.29,45c0-2.77,0-5.15,0-7a19.5,19.5,0,1,1,12.09,0c0,1.86,0,4.24,0,7l15.92,1.42Zm-22-25.52a8.87,8.87,0,1,0-8.86-8.87A8.88,8.88,0,0,0,232.37,28.37Z"/><path d="M293,19.81h-3.1v1.3l2.23.66-24.58,56.5h11.07L283,67.18h28.35L316,78.27h11.18L302,19.81Zm-6.39,38.4,10.59-26,10.84,26ZM402.8,19.81,385.22,78.27H374.74l-12.4-44.5h-.17l-12.4,44.5H339.62L322.43,21.92l-2.71-.81v-1.3h13.47l11.55,42.11h.17l11.95-40.07-2.49-.74v-1.3H367.7L380,61.92h.16l11.47-40.07-2.48-.74v-1.3H402.8Zm20.25,0H420v1.3l2.22.66-24.58,56.5h11.08l4.43-11.09h28.34L446,78.27h11.17L432,19.81Zm-6.4,38.4,10.59-26,10.84,26ZM500,19.81,478,53v25.3h-10.4V53l-22-33.16h13L472.94,43.1,486.4,21.74l-2.12-.63v-1.3H500Z"/><path d="M121,19.81h10.12V78.27H120.74V22l-2.81-.84v-1.3H121Zm-37.47,0,25.19,58.46H97.57L93,67.18H64.63L60.2,78.27H49.13l24.58-56.5-2.23-.66v-1.3H83.56Zm6,38.4-10.84-26-10.58,26Zm69.75,10.65v-49H146.13v1.3L149,22V78.27h35.26V68.86ZM13.08,35.25c0-5.37,4.51-7.51,9.3-7.51a13.06,13.06,0,0,1,9,3.27l-.91,2.17.72.65,1.39-1.47h0l7.59-8c-4.54-4.29-10.65-6-16.76-6C12.63,18.32,2.18,23.94,2.18,36c0,19.7,27.75,13.47,27.75,26.62,0,5.37-5.74,7.73-10.52,7.73A13.8,13.8,0,0,1,7.84,64.24L0,71.83c4.79,5.7,11.89,7.93,19.16,7.93,11.48,0,21.39-5.82,21.39-18.38C40.55,40.78,13.08,48.42,13.08,35.25Z"/><path d="M322.05,99.05l-3.67,10.17h-2l3.87-10.29H315.4V97.44h6.65Zm2.21,4.84v-1.52a3.54,3.54,0,0,0,.45,0c1.88,0,2.94-.69,2.94-1.94s-.83-1.71-2-1.71a4.91,4.91,0,0,0-2.27.58l-.1-1.57a6.44,6.44,0,0,1,2.54-.51c2.22,0,3.73,1.05,3.73,3a2.79,2.79,0,0,1-2.65,2.81v0a2.87,2.87,0,0,1,2.76,2.93c0,2-1.6,3.41-4.11,3.41a8.24,8.24,0,0,1-2.59-.4l.1-1.67a6.09,6.09,0,0,0,2.4.55c1.33,0,2.28-.66,2.28-2s-1-2-2.95-2A4.18,4.18,0,0,0,324.26,103.89Zm9.49-1.79a2.34,2.34,0,0,1,2.1-1.72,1.89,1.89,0,0,1,.39,0v1.66a1.54,1.54,0,0,0-.48,0c-1.28,0-1.95.91-1.95,3.2v4h-1.76v-6.11c0-.87,0-1.79-.08-2.53h1.68c0,.36.07,1.06.07,1.52Zm8.19-.34c0-.32-.05-1.21-.05-1.75V96.46h1.77v10.21c0,.92,0,1.83.08,2.55h-1.67c0-.35-.06-.86-.06-1.31h0a2.33,2.33,0,0,1-2.21,1.53c-1.92,0-3.14-1.89-3.14-4.47s1.18-4.59,3.09-4.59a2.27,2.27,0,0,1,2.2,1.38Zm.07,3.11c0-1.69-.64-3.11-1.83-3.11s-1.73,1.4-1.73,3.14S339,108,340.17,108,342,106.59,342,104.87Zm14.64-7.43h1.67v11.78H356c-3.37-7.52-3.91-8.94-4.25-10h0c.06.93.08,2.58.08,3.61v6.41h-1.65V97.44h2.51c3.21,7.38,3.8,8.91,4.07,9.74h0c-.05-.89-.1-2.87-.1-3.92Zm4.62,3.55a5.58,5.58,0,0,1,2.65-.61c2.38,0,3.19,1.42,3.19,3.48,0,1,0,2.29,0,2.73,0,1,0,2,.08,2.63h-1.52c0-.13,0-.44,0-.69s0-.47,0-.71h0a2.61,2.61,0,0,1-2.51,1.54,2.45,2.45,0,0,1-2.62-2.64c0-1.84,1.4-2.85,3.91-2.85.31,0,.73,0,1.08,0v-.06c0-1.35-.57-2.11-1.83-2.11a4.1,4.1,0,0,0-2.28.72Zm3.48,4.05c-1.72,0-2.6.55-2.6,1.65a1.28,1.28,0,0,0,1.33,1.38,1.86,1.86,0,0,0,1.74-1.23,4.67,4.67,0,0,0,.27-1.77A6.61,6.61,0,0,0,364.75,105Zm9.57-3.28c0-.32-.06-1.21-.06-1.75V96.46H376v10.21c0,.92,0,1.83.08,2.55h-1.67c0-.35-.07-.86-.07-1.31h0a2.34,2.34,0,0,1-2.21,1.53c-1.93,0-3.14-1.89-3.14-4.47s1.18-4.59,3.09-4.59a2.25,2.25,0,0,1,2.19,1.38Zm.06,3.11c0-1.69-.64-3.11-1.82-3.11s-1.74,1.4-1.74,3.14.59,3.12,1.72,3.12S374.38,106.59,374.38,104.87Zm4.47-3.88a5.58,5.58,0,0,1,2.65-.61c2.38,0,3.19,1.42,3.19,3.48,0,1,0,2.29,0,2.73,0,1,0,2,.08,2.63h-1.52c0-.13,0-.44,0-.69s0-.47,0-.71h0a2.61,2.61,0,0,1-2.51,1.54,2.45,2.45,0,0,1-2.62-2.64c0-1.84,1.4-2.85,3.92-2.85.3,0,.72,0,1.08,0v-.06c0-1.35-.58-2.11-1.84-2.11a4.1,4.1,0,0,0-2.28.72Zm3.48,4.05c-1.72,0-2.6.55-2.6,1.65a1.28,1.28,0,0,0,1.33,1.38,1.86,1.86,0,0,0,1.74-1.23,4.67,4.67,0,0,0,.27-1.77A6.61,6.61,0,0,0,382.33,105Zm14-5.81a4.46,4.46,0,0,0-2-.47,1.6,1.6,0,0,0-1.78,1.55c0,.74.27,1.28,1.87,2.06,1.82.89,2.68,1.87,2.68,3.49a3.45,3.45,0,0,1-3.74,3.58,7.13,7.13,0,0,1-2.6-.45l.18-1.71a4.92,4.92,0,0,0,2.33.58,1.7,1.7,0,0,0,1.94-1.76c0-.94-.44-1.49-2-2.24-1.94-1-2.55-1.84-2.55-3.35a3.22,3.22,0,0,1,3.54-3.27,6.43,6.43,0,0,1,2.32.4Zm7.54,2.82a3,3,0,0,0-1-.15c-1.5,0-2.38,1.28-2.38,3s.88,3,2.45,3a3.43,3.43,0,0,0,1-.15l.14,1.42a5.38,5.38,0,0,1-1.44.18c-2.5,0-4-1.77-4-4.42s1.55-4.46,4.08-4.46a5.68,5.68,0,0,1,1.32.14Zm3.8-2.33c0,.76,0,1.77-.07,2.23h0a2.5,2.5,0,0,1,2.26-1.57c1.79,0,2.5,1.23,2.5,3.54v5.3h-1.75v-4.57c0-1.62-.14-2.8-1.29-2.8s-1.68,1.14-1.68,3.39v4h-1.78V96.46h1.78Zm13.85,5.22c0,2.66-1.32,4.5-3.61,4.5s-3.61-1.85-3.61-4.5,1.33-4.56,3.64-4.56S421.54,102.25,421.54,104.94Zm-5.37,0c0,1.82.56,3,1.79,3s1.74-1.21,1.74-3-.59-3.13-1.79-3.13S416.17,103.08,416.17,104.94Zm13.79,0c0,2.66-1.32,4.5-3.61,4.5s-3.62-1.85-3.62-4.5,1.34-4.56,3.65-4.56S430,102.25,430,104.94Zm-5.37,0c0,1.82.56,3,1.79,3s1.74-1.21,1.74-3-.59-3.13-1.79-3.13S424.59,103.08,424.59,104.94Zm9.16-8.48v12.76H432V96.46Zm12.19,1v1.5H442.1v3.51h3.67v1.49H442.1v5.28h-1.82V97.44Zm2.83,8a2.46,2.46,0,0,0,2.58,2.57,4.32,4.32,0,0,0,1.91-.41l.07,1.47a6,6,0,0,1-2.1.37c-2.73,0-4.22-1.75-4.22-4.61s1.44-4.45,3.63-4.45,3.24,1.5,3.24,4.29c0,.18,0,.59,0,.77Zm3.44-1.3c0-1.55-.56-2.5-1.58-2.5s-1.74.92-1.84,2.5Zm3.42,3.31a4.25,4.25,0,0,0,2,.56c.88,0,1.43-.41,1.43-1.12s-.37-.94-1.62-1.53-1.92-1.32-1.92-2.45c0-1.67,1.28-2.53,3-2.53a5.65,5.65,0,0,1,1.94.32l-.13,1.42a4.71,4.71,0,0,0-1.81-.39c-.69,0-1.26.34-1.26,1s.42.92,1.48,1.4c1.44.64,2,1.35,2,2.56,0,1.76-1.25,2.7-3,2.7a6.36,6.36,0,0,1-2.28-.4Zm9.23-6.82h1.78V102h-1.78v4.27c0,1.15.22,1.74,1.08,1.74a2.24,2.24,0,0,0,.73-.12l.07,1.32a4.12,4.12,0,0,1-1.22.18c-1.79,0-2.38-1-2.38-2.8V102h-1.36v-1.32h1.36v-2l1.72-.62Zm5.4-3.39v1.84h-1.92V97.24Zm-.06,3.34v8.64h-1.78v-8.64ZM475,107.7h0c.11-.59.38-1.65,1.78-7.12h1.83l-2.6,8.64H474l-2.56-8.64h1.87C474.7,106.05,474.92,107.11,475,107.7Zm4.84-6.71a5.56,5.56,0,0,1,2.65-.61c2.38,0,3.19,1.42,3.19,3.48,0,1,0,2.29,0,2.73,0,1,0,2,.08,2.63h-1.52a6.21,6.21,0,0,1,0-.69c0-.2,0-.47,0-.71h0a2.63,2.63,0,0,1-2.52,1.54,2.44,2.44,0,0,1-2.61-2.64c0-1.84,1.4-2.85,3.91-2.85.31,0,.73,0,1.08,0v-.06c0-1.35-.57-2.11-1.84-2.11a4.12,4.12,0,0,0-2.28.72Zm3.48,4.05c-1.73,0-2.6.55-2.6,1.65a1.28,1.28,0,0,0,1.33,1.38,1.86,1.86,0,0,0,1.74-1.23,4.88,4.88,0,0,0,.27-1.77A6.73,6.73,0,0,0,483.36,105Zm6.51-8.58v12.76h-1.79V96.46Z"/><path d="M28.81,105.07a4.21,4.21,0,0,0,0,.46,13,13,0,0,1-.14,2,2.58,2.58,0,0,1-.29.82,1.48,1.48,0,0,1-.44.47,2.49,2.49,0,0,1-.71.36,6.58,6.58,0,0,1-1,.22,10.52,10.52,0,0,1-1.32.07l-.06-.19c0-.1-.2-.59-.5-1.49a4.23,4.23,0,0,0,1.13.13,3.41,3.41,0,0,0,1-.11.89.89,0,0,0,.53-.35,1.15,1.15,0,0,0,.17-.42,4.48,4.48,0,0,0,.09-.7h-4v3.53a3.22,3.22,0,0,0,0,.54H21.62a3.22,3.22,0,0,0,0-.54c0-.63,0-1.47,0-2.51a10.67,10.67,0,0,1-1.44,1,13.4,13.4,0,0,1-1.82.93,14.34,14.34,0,0,1-2.24.73c-.05-.11-.13-.3-.26-.55s-.3-.53-.5-.83a14.59,14.59,0,0,0,3.11-.93A9,9,0,0,0,21,106.32H18.18l-.15.74c-.38,0-.92,0-1.61-.09.55-2.16.87-3.52.95-4.08v-.17c.45,0,1,0,1.6.06h2.67v-1.1H18.16q-.77,0-1.08,0v-1.32q.32,0,1.08,0H28c0,.09,0,.24,0,.44V104H23.21v1ZM18.23,98.76c-.25.31-.51.6-.78.88a6.83,6.83,0,0,1-.79.69,2.91,2.91,0,0,0-.44-.36c-.22-.16-.47-.34-.77-.53a6.23,6.23,0,0,0,1.46-1.29A6.6,6.6,0,0,0,18,96.42l1.45.24-.09.18c0,.1-.1.22-.17.37l-.18.36h2.82l.68,0v1.23l-.68,0H20.45a9.32,9.32,0,0,1,.75,1.15l-1.43.4a8,8,0,0,0-.39-.77c-.16-.29-.32-.55-.46-.78Zm.46,5.28-.23,1h3.19v-1Zm10-6.47.72,0v1.23l-.72,0H26.88a14.12,14.12,0,0,1,.86,1.15l-1.45.4a7.75,7.75,0,0,0-.44-.77c-.2-.29-.37-.55-.54-.78h-1a7.32,7.32,0,0,1-1.14,1.35,11.42,11.42,0,0,0-1.22-.77,5.65,5.65,0,0,0,1.15-1.28,6,6,0,0,0,.83-1.68l1.42.25-.09.18c-.1.3-.2.55-.29.76Zm-5.46,4.11v1.1h3.25v-1.1Zm9.5,7.79,4.41-10H31.48V97.9h7.65v1.64l-4.25,9.93Zm15.53-3.15a3.27,3.27,0,0,1-.21,1.13,2.87,2.87,0,0,1-.75,1.07,3.65,3.65,0,0,1-1.21.74,5.68,5.68,0,0,1-1.27.33,8.58,8.58,0,0,1-1.07.08,9.18,9.18,0,0,1-1.52-.13,10,10,0,0,1-1.47-.33l.11-1.71a7.4,7.4,0,0,0,2.79.63,4.2,4.2,0,0,0,1-.11,2.63,2.63,0,0,0,.85-.36A1.72,1.72,0,0,0,46,107a1.86,1.86,0,0,0,.19-.87,1.56,1.56,0,0,0-.85-1.45,5.1,5.1,0,0,0-2.46-.48h-.54v-1.52l.51,0a7.24,7.24,0,0,0,1.38-.12,3.53,3.53,0,0,0,1-.33,1.7,1.7,0,0,0,.64-.57,1.45,1.45,0,0,0,.22-.81,1.81,1.81,0,0,0-.11-.6,1.55,1.55,0,0,0-.39-.55,2.19,2.19,0,0,0-.73-.39,3.15,3.15,0,0,0-1.08-.16,5.66,5.66,0,0,0-1.32.16,7.25,7.25,0,0,0-1.32.42l-.13-1.59a6.71,6.71,0,0,1,1.42-.38,9.12,9.12,0,0,1,1.56-.13,6.33,6.33,0,0,1,1.68.21,3.8,3.8,0,0,1,1.28.6,2.59,2.59,0,0,1,.8,1,2.91,2.91,0,0,1,.27,1.26,2.46,2.46,0,0,1-.31,1.24,2.67,2.67,0,0,1-.95.94,4,4,0,0,1-1.57.49v0a5.59,5.59,0,0,1,.69.12,3.34,3.34,0,0,1,.76.28,3,3,0,0,1,.73.52,2.54,2.54,0,0,1,.57.85A2.69,2.69,0,0,1,48.24,106.32Zm15.57-8.13V109.3l0,1H62.15v-1.1H53v1.1H51.34c0-.37,0-.69,0-1V98.19c0-.28,0-.61,0-1h12.5ZM53,107.7h9.15v-9H53ZM60.34,101v4.19l0,.51H54.81a4.92,4.92,0,0,0,0-.51V101c0-.13,0-.3,0-.5h5.55Zm-4.12,3.35H59v-2.5H56.22Zm11.92-.22,1.24,1.15q-.34,1.36-1.23,4.14l-.2.75-1.38-1.08.15-.3a13.85,13.85,0,0,0,.61-1.66q.3-1,.51-1.77Zm.3-1.26a11.44,11.44,0,0,0-.84-.79c-.34-.3-.65-.56-.94-.77l.83-1.17a21,21,0,0,1,1.8,1.49Zm.11-3.56a19.82,19.82,0,0,0-1.79-1.62l.92-1.18c.55.45,1.15,1,1.81,1.59Zm11.29,8.75.63,0v1.35H77.05v.9H75.73c0-.22,0-.41,0-.55v-6l0-1.3a6.75,6.75,0,0,1-.37.64c-.09-.29-.21-.62-.35-1v1.38h-2v.58h1.32l.71,0v1.17l-.71,0H73l-.09.63H75.3v1.26l-.77,0H73.6a4.74,4.74,0,0,0,2,1.53c-.14.21-.28.44-.43.69a4.67,4.67,0,0,0-.28.56,7.78,7.78,0,0,1-1.45-1.07,4.67,4.67,0,0,1-1-1.37,6.4,6.4,0,0,1-2.65,2.88A13.61,13.61,0,0,0,69,109a5.75,5.75,0,0,0,1.3-.8,3.75,3.75,0,0,0,.67-.7c.13-.19.21-.33.25-.4h-1l-.77,0v-1.26h2.2a5.3,5.3,0,0,0,.09-.63H70.39l-.72,0v-1.17l.72,0h1.35v-.58h-2a3.44,3.44,0,0,0,0-.39v-2.07a2.75,2.75,0,0,0,0-.38h2V100H70.45a3.59,3.59,0,0,0,0-.43v-1h-1V97.37h1v-.54c0-.18,0-.32,0-.41l.71,0,.67,0,0,.35v.53h1.28v-.53a3.81,3.81,0,0,0,0-.41l.71,0,.67,0v.89h1v1.22h-1v1a3.59,3.59,0,0,0,0,.43H73.12v.69h2a3.78,3.78,0,0,0,0,.38v.28a13.15,13.15,0,0,0,.53-1.52c.17-.59.3-1.18.41-1.76s.19-1.11.24-1.61l1.3.41-.07.15c0,.27-.11.6-.2,1s-.17.77-.26,1.09h.79c.13-.37.26-.83.4-1.37a8.44,8.44,0,0,0,.23-1.2l1.28.43-.1.2a1,1,0,0,0-.06.2l-.22.79c-.12.43-.21.75-.27,1h1.28v1.35l-.63,0h-.49V102h.9v1.29l-.61,0h-.29v1.67h.9v1.29l-.61,0h-.29v1.89Zm-9-6.4v.81h1v-.81Zm2.23-3.3H71.83V99h1.28ZM73,102.5h.93v-.81H73Zm5-2.07h-1V102h1Zm-1,2.84v1.67h1v-1.67Zm0,2.93v1.89h1V106.2Zm9.19-2.81q.08,4,.07,6.22c0,.22,0,.49,0,.79H84.78c0-.3,0-.57,0-.79,0-1.54,0-3.65.08-6.34a21.27,21.27,0,0,1-.84,2.38,8.8,8.8,0,0,1-1,1.76c0-.14-.14-.37-.28-.68s-.29-.64-.47-1a10.7,10.7,0,0,0,1.26-2.06,14.64,14.64,0,0,0,1-2.71H83.34l-.71,0V99.48l.71,0h1.47V96.86a3.61,3.61,0,0,0,0-.44c.18,0,.45,0,.8,0l.76,0a2.75,2.75,0,0,0,0,.38V99.5h.46l.71,0V101l-.71,0h-.4a12,12,0,0,0,.62,1.48,6.27,6.27,0,0,0,.9,1.43c-.12.24-.24.51-.37.81a5.37,5.37,0,0,0-.24.71,6.34,6.34,0,0,1-.53-.88A10.51,10.51,0,0,1,86.24,103.39Zm10.53,5.46c-.36.77-.58,1.27-.67,1.49a15.76,15.76,0,0,1-1.82-.7,8.87,8.87,0,0,1-1.42-.82,6.7,6.7,0,0,1-1-.81,9.78,9.78,0,0,1-4.25,2.36,3.27,3.27,0,0,0-.34-.68,5.14,5.14,0,0,0-.46-.67,15.34,15.34,0,0,0,1.79-.66,8.77,8.77,0,0,0,1.38-.73,6.7,6.7,0,0,0,.94-.74,12.47,12.47,0,0,1-1.53-3.39l1.49-.64a9.43,9.43,0,0,0,.43,1.55,6.6,6.6,0,0,0,.6,1.28,7.94,7.94,0,0,0,1-2.8l1.48.72-.08.14a12.8,12.8,0,0,1-.68,1.68,10,10,0,0,1-.82,1.42,6.17,6.17,0,0,0,.69.58,7.75,7.75,0,0,0,.94.57,7.36,7.36,0,0,0,1.15.49Q96.23,108.7,96.77,108.85ZM91,101.09l-.15.26a6.08,6.08,0,0,1-.42.66,8,8,0,0,1-.84,1,6.31,6.31,0,0,1-1.09,1,10.94,10.94,0,0,0-1-1.25,8,8,0,0,0,1.24-1.14,6.26,6.26,0,0,0,.76-1c.15-.27.24-.45.28-.54l1.32.85Zm4.39-1.29H88.87c-.47,0-.8,0-1,0V98.36q.28,0,1,0H91.2V96.84l0-.39c.19,0,.47,0,.84,0l.79,0a2.16,2.16,0,0,0,0,.35v1.53h2.61c.45,0,.77,0,1,0v1.48C96.16,99.82,95.84,99.8,95.38,99.8Zm-1.38.34a7,7,0,0,0,1.18,1.48,7.33,7.33,0,0,0,1.52,1.19l-.79,1.43a9.81,9.81,0,0,1-1.69-1.43,10.62,10.62,0,0,1-1.45-1.9c.12-.06.31-.18.57-.35S93.82,100.25,94,100.14Zm18.48,8.62c-.36.74-.61,1.28-.74,1.61l-1.11-.3a14.8,14.8,0,0,1-1.4-.5c-.48-.2-1-.42-1.41-.65a13.48,13.48,0,0,1-1.31-.8,12.47,12.47,0,0,1-1.1-.86c-.29.26-.63.53-1,.83a13.16,13.16,0,0,1-1.4.88,15.27,15.27,0,0,1-1.8.82,12.81,12.81,0,0,1-2.08.61c-.14-.29-.41-.81-.82-1.55a14.37,14.37,0,0,0,3.33-1,10.39,10.39,0,0,0,2.69-1.68,12.48,12.48,0,0,1-1.73-2.56,17.23,17.23,0,0,1-1.22-3.14H100q-1,0-1.41,0V99Q99,99,100,99h4.39V96.83a2.37,2.37,0,0,0,0-.43l.89,0,.83,0a2.73,2.73,0,0,0,0,.37V99h4.56q1,0,1.38,0v1.53q-.37,0-1.38,0h-1.37a17,17,0,0,1-1.12,3.07,13.06,13.06,0,0,1-1.62,2.59,8,8,0,0,0,.9.64c.33.21.7.41,1.11.62a15.77,15.77,0,0,0,1.59.69A22,22,0,0,0,112.48,108.76Zm-4.83-8.31H103a10.2,10.2,0,0,0,2.4,4.6,10.7,10.7,0,0,0,1.35-2.12A13.23,13.23,0,0,0,107.65,100.45Zm6,2.27a9.17,9.17,0,0,0,1.17-1.17A15.92,15.92,0,0,0,116,100a18.94,18.94,0,0,0,1-1.74,7.85,7.85,0,0,0,.67-1.7l1.58.61-.08.11a24.79,24.79,0,0,1-1.41,3v9.19q0,.38,0,.87h-1.78q0-.5,0-.87c0-.61,0-1.66.06-3.16s.07-2.82.11-3.94l-.5.62q-.3.34-.63.69c-.23.23-.44.42-.63.59A10.41,10.41,0,0,0,113.66,102.72Zm12.42,2.59c1,.63,1.52,1,1.61,1a6.34,6.34,0,0,1-.44,2.36,2.13,2.13,0,0,1-1.14,1,5.9,5.9,0,0,1-2.17.31,12.9,12.9,0,0,1-1.77-.09,1.85,1.85,0,0,1-.86-.31,1.48,1.48,0,0,1-.53-.75,4.49,4.49,0,0,1-.17-1.35V97.06a3.4,3.4,0,0,0,0-.45l1.69.11a2.06,2.06,0,0,0,0,.39v5a22.09,22.09,0,0,0,2.11-1.76,11.29,11.29,0,0,0,1.54-1.77l1.3,1.19-.27.17a15.27,15.27,0,0,1-1.74,1.8,30.67,30.67,0,0,1-2.94,2.31v3.47a1,1,0,0,0,.13.57.71.71,0,0,0,.41.26,8,8,0,0,0,1.27.06,5,5,0,0,0,.88-.08,1.51,1.51,0,0,0,.73-.35,2,2,0,0,0,.31-.86A14.43,14.43,0,0,0,126.08,105.31Zm11.17.35v2l0,1.15a1.21,1.21,0,0,1-.71,1.12,4.91,4.91,0,0,1-2.27.39c-.12-.29-.36-.81-.73-1.57a7.55,7.55,0,0,0,1.21.11,1.93,1.93,0,0,0,.64-.09.34.34,0,0,0,.26-.37v-2.69h-3.63c-.57,0-1,0-1.21,0v-1.36a8.77,8.77,0,0,1-.85.37,7.45,7.45,0,0,0-.75-1.26l.95-.39a12.08,12.08,0,0,0,1.51-.81,9.18,9.18,0,0,0-.95-.55l.76-.86a9.25,9.25,0,0,1,1.23.65q.4-.33.75-.66a6.64,6.64,0,0,0-1.13-.57l.59-.91a11,11,0,0,1,1.35.54c.1-.12.21-.29.36-.5s.25-.38.32-.51h-2.06a12.7,12.7,0,0,1-1.35,1.49,9.57,9.57,0,0,1-1.38,1.12,10.87,10.87,0,0,0-1-1.15,11.11,11.11,0,0,0,1.23-.92A9.34,9.34,0,0,0,131.8,98a5.67,5.67,0,0,0,.88-1.59l1.52.33-.08.15c-.12.28-.24.52-.35.72h2.08l.13-.14.35.26c-.14-.33-.26-.64-.35-.9l1.35-.37a10.87,10.87,0,0,0,.73,1.76v-.85h3.73l.09-.11a12.25,12.25,0,0,1,1.08.89l-.19.1c-.09.2-.21.43-.34.69s-.3.52-.49.81-.39.58-.62.87a9.9,9.9,0,0,1-.73.85,9.63,9.63,0,0,0,3.09,1.78,8.12,8.12,0,0,0-.42.73c-.15.3-.26.53-.32.69a8,8,0,0,1-.77-.35v1.39c-.22,0-.62,0-1.19,0Zm-3,1.28a11,11,0,0,1-3.82,2.79,11.19,11.19,0,0,0-.87-1.34,9.15,9.15,0,0,0,2.07-1,7.52,7.52,0,0,0,1.59-1.4l1.17.87Zm-2.24-2.69h10a11.61,11.61,0,0,1-1.54-1,13.64,13.64,0,0,1-1.43-1.32v1h-4.88v-1a13.12,13.12,0,0,1-3.16,2.29Zm6.72-2.65a12.74,12.74,0,0,1-1.13-1.5,14.5,14.5,0,0,1-1-1.68,11.91,11.91,0,0,1-2.14,3.18h4.24Zm-.09-2.93h-.36l.42.67a10.11,10.11,0,0,0,.84,1.08,8.65,8.65,0,0,0,.77-.82,6.92,6.92,0,0,0,.63-.93Zm-.11,8.11,1.13-.81a12.73,12.73,0,0,0,1.2,1,10.9,10.9,0,0,0,1.29.82c.41.22.76.4,1.06.53-.23.35-.5.79-.83,1.32a11.56,11.56,0,0,1-2-1.21A14,14,0,0,1,138.57,106.78Z"/></g></svg>