<svg id="レイヤー_1" data-name="レイヤー 1" xmlns="http://www.w3.org/2000/svg" viewBox="0 0 500 70.15"><title>logotype</title><path id="Theme" d="M251.35,1.7h-3.54V3.19l2.54.75L222.29,68.45h12.64L240,55.79h32.37l5.24,12.66h12.76L261.61,1.7Zm-7.3,43.85,12.09-29.71,12.38,29.71ZM380.62,1.7,360.54,68.45h-12L334.42,17.63h-.19L320.07,68.45H308.48L288.85,4.1l-3.1-.91V1.7h15.38l13.19,48.08h.19L328.16,4l-2.85-.84V1.7h15.23L354.6,49.78h.19L367.88,4l-2.82-.83V1.7h15.56Zm26.59,0h-3.54V3.19l2.55.75L378.15,68.45h12.64l5.06-12.66h32.37l5.24,12.66h12.77L417.47,1.7Zm-7.3,43.85L412,15.84l12.38,29.71ZM500,1.7,474.92,39.56V68.45H463V39.56L438,1.7h14.89L469.1,28.29,484.47,3.9l-2.42-.71V1.7H500Zm-373.19,0h11.56V68.45H126.49V4.14l-3.22-.95V1.7h3.54Zm-46.54,0H76.73V3.19l2.55.75L51.21,68.45H63.85l5.06-12.66h32.37l5.24,12.66h12.77L90.53,1.7ZM73,45.55,85.06,15.84,97.44,45.55Zm91.92,12.16h28.38V68.45H153V4.14l-3.21-.95V1.7h15.1ZM46.3,49.17c0,14.33-11.32,21-24.42,21-8.3,0-16.41-2.54-21.88-9.05l9-8.68a15.72,15.72,0,0,0,13.2,7c5.47,0,12-2.69,12-8.82,0-15-31.69-7.9-31.69-30.4C2.49,6.41,14.43,0,26.78,0c7,0,13.95,2,19.14,6.88L37.25,16h0L35.66,17.7,34.84,17l1-2.48a14.89,14.89,0,0,0-10.33-3.74c-5.47,0-10.61,2.45-10.61,8.58C14.94,34.37,46.3,25.65,46.3,49.17Z"/></svg>