<svg id="レイヤー_1" data-name="レイヤー 1" xmlns="http://www.w3.org/2000/svg" viewBox="0 0 250 300"><title>logo</title><path id="Logo_Only" data-name="Logo Only" d="M49.28,238.13c-7.23,3.69-16-3.08-22.44,0a82.9,82.9,0,0,1-11.48-17.49c-4.53,3.32-7.69,6.7-9.3,9.48C.88,212,.3,194.54,2.14,169.83c7.92,17.32,21.23,32,34.94,40.36a76.47,76.47,0,0,0-12.56,4.92A93.23,93.23,0,0,0,49.28,238.13Zm145.41,6c-7,4.42-15.11,2.33-15,4.84s5.27,2.59,4,5-10.87.88-13.18,1.48c-2.73.7-2.45,2.88-5,3.1s-3.65-1.87-12.53-2.71c-2.21-.21-18.56,1.31-18.77-1.18-.22-2.69,14.64-.29,14.59-3.13,0-1.51-7.33-.73-7.77-2.52-.33-1.37,1.59-1.86.27-4.84-5.88,2.26-20-3.12-32.68,0-1.2,2.63-3.71,1.5-5.7,3.18s1.3,8-1.48,8.83-8.57-.92-12.48-.88c-2.33,0-6,2.51-8.47,2-2.65-.55-3.3-3.06-6.07-4.06-2.48-.9-11.31.64-11.43-2.06-.08-1.63-9.08,0-9.06-1.64s5.46-1.12,6.85-1.59c1-.34.46-1.09-.74-1.26s-3.81-2-4.77-2.62c-6.47,3.6-17.7-4.67-23.45,0,2.92,2.39-.82,5.26.56,6.65s9.15.24,10,2.22c1.7,3.93,14.45,1.49,15,3.45.79,2.69-12.16,2.48-12.17,4.59s12.28,1,14.31,2.2c1.41.82-.28,2,.81,3.29s4.32.8,3.92,3.07c-.25,1.48-8.19.15-8.09,2.18.14,2.85,17,1.63,19.78,1.88,5.54.48,3.64,3.17,6.3,4.18a26.59,26.59,0,0,0,9.35,1.14c3.42-.14,22,.14,24.63.86,2,.55,1.92,2.41-.07,2.63-3.41.38-15.34-.21-15.15,3.08.11,2,6.58.37,8.24,3.07,2.31,3.75,7.48,2.28,9.8,4,1.76,1.31,3.18,6.49,5.88,6.49,7.24,0,3.42-4.88,4.8-6.16s19.87,1.2,19.78-2c-.15-4.61-10.21.37-10-4.88.11-2.14,9.5.7,9.5-1.29,0-2.29-4.81-.57-4.8-2.41,0-2.59,13.92,0,17-2.9,1.86-1.78.86-3.14,3.15-4,3.19-1.26,13.12-.25,13.28-3.46.13-2.66-14.63-.26-13.84-3.58.62-2.6,30.31,1.09,33.29-2.28,1.18-1.34-.06-4.39,2.42-5.87,1.47-.88,11.91.14,11.89-1.48,0-2.63-17.77-.46-17.77-2,0-1.89,14.35-.25,16.62-2.12s-1.26-2.66.51-5.91c1-1.77,5-3,6.27-4.55C215.87,243,200.52,243.14,194.69,244.16Zm39.95-23.52c4.53,3.32,7.69,6.7,9.3,9.48,5.18-18.08,5.76-35.58,3.92-60.29-7.92,17.32-21.23,32-34.94,40.36a76.47,76.47,0,0,1,12.56,4.92,93.23,93.23,0,0,1-24.76,23c8.1,3.69,10.63-1.89,22.44,0A82.9,82.9,0,0,0,234.64,220.64Zm-68-117.75-30,2.68c.33,42.63-.07,95.6,4.71,132.56-3.68,1.5-10.67-2.67-17.37-.78-6.32,1.77-11.1,2.82-15.31.78,4.78-37,4.38-89.93,4.71-132.56l-30-2.68V88.82l30.1-2.68c0-5.24,0-9.74.07-13.25a36.88,36.88,0,1,1,22.86,0c0,3.51,0,8,.07,13.25l30.1,2.68ZM125,54.61a16.77,16.77,0,1,0-16.76-16.77A16.78,16.78,0,0,0,125,54.61Z"/></svg>