<svg id="レイヤー_1" data-name="レイヤー 1" xmlns="http://www.w3.org/2000/svg" viewBox="0 0 500 126.13"><title>logotype-tagline</title><g id="Theme_Full" data-name="Theme + Full"><path d="M251.35,1.7h-3.54V3.19l2.54.75L222.29,68.45h12.64L240,55.79h32.37l5.24,12.66h12.76L261.61,1.7Zm-7.3,43.85,12.09-29.71,12.38,29.71ZM380.62,1.7,360.54,68.45h-12L334.42,17.63h-.19L320.07,68.45H308.48L288.85,4.1l-3.1-.91V1.7h15.38l13.19,48.08h.19L328.16,4l-2.85-.84V1.7h15.23L354.6,49.78h.19L367.88,4l-2.82-.83V1.7h15.56Zm26.59,0h-3.54V3.19l2.55.75L378.15,68.45h12.64l5.06-12.66h32.37l5.24,12.66h12.77L417.47,1.7Zm-7.3,43.85L412,15.84l12.38,29.71ZM500,1.7,474.92,39.56V68.45H463V39.56L438,1.7h14.89L469.1,28.29,484.47,3.9l-2.42-.71V1.7H500Zm-373.19,0h11.56V68.45H126.49V4.14l-3.22-.95V1.7h3.54Zm-46.54,0H76.73V3.19l2.55.75L51.21,68.45H63.85l5.06-12.66h32.37l5.24,12.66h12.77L90.53,1.7ZM73,45.55,85.06,15.84,97.44,45.55Zm91.92,12.16h28.38V68.45H153V4.14l-3.21-.95V1.7h15.1ZM46.3,49.17c0,14.33-11.32,21-24.42,21-8.3,0-16.41-2.54-21.88-9.05l9-8.68a15.72,15.72,0,0,0,13.2,7c5.47,0,12-2.69,12-8.82,0-15-31.69-7.9-31.69-30.4C2.49,6.41,14.43,0,26.78,0c7,0,13.95,2,19.14,6.88L37.25,16h0L35.66,17.7,34.84,17l1-2.48a14.89,14.89,0,0,0-10.33-3.74c-5.47,0-10.61,2.45-10.61,8.58C14.94,34.37,46.3,25.65,46.3,49.17Z"/><path d="M19.49,101.41,9,125.64H3.73l10.82-24.31H.73v-4H19.49Zm6.61,11.51v-3.73c.4,0,.85,0,1.21,0,5,0,8-1.46,8-4.46,0-2.71-2.35-4.17-5.64-4.17a15.12,15.12,0,0,0-6.48,1.46l-.28-4a21,21,0,0,1,7.29-1.22c6.12,0,9.89,2.75,9.89,7.41,0,3.73-2.88,6.08-7,6.53v.12c4.26.37,7.29,3.08,7.29,7,0,5-4.37,8.19-11.06,8.19A23.74,23.74,0,0,1,22.09,125l.24-4.18a17.32,17.32,0,0,0,6.85,1.54c3.61,0,6.32-1.5,6.32-4.78s-2.88-4.74-8.1-4.74C27.07,112.88,26.54,112.88,26.1,112.92Zm25.69-4.3c1.13-2.55,3-4.21,5.79-4.21a5.68,5.68,0,0,1,1.91.24v4.13a5.58,5.58,0,0,0-2-.28c-3.6,0-5.59,2.88-5.59,8.23v8.91H47.29V111.05c0-2.18,0-4.41-.2-6.16h4.45c.08,1,.17,2.64.17,3.73ZM82.14,119.4c0,2.19,0,4.5.21,6.24H78.09c-.08-1-.12-2.23-.12-3.6h-.08a7.59,7.59,0,0,1-7,4.09c-5.6,0-9.08-4.26-9.08-10.78s3.65-10.94,9.12-10.94a7.35,7.35,0,0,1,6.65,3.64h.08c-.08-1.41-.13-3.44-.13-5.47V95h4.58ZM66.7,115.31c0,4.09,2.11,7.13,5.35,7.13s5.6-3.12,5.6-7.09c0-4.17-2.28-7.25-5.6-7.25S66.7,111.18,66.7,115.31Zm52-18h4.5v28.28h-6.28l-8.59-16.09c-1.34-2.47-2.92-5.83-3.69-7.66h-.08c.12,1.75.2,6.21.2,8.64v15.11h-4.53V97.36h6.84l8.31,15.92c1.06,2,2.64,5.31,3.49,7.3h.08c-.12-2-.25-7.18-.25-9.81Zm12.65,8.71a15.23,15.23,0,0,1,7.17-1.66c6.28,0,8.67,3.4,8.67,8.35,0,1.78-.08,4-.08,5.55v2.19a41.48,41.48,0,0,0,.29,5.14h-4.1c0-.32-.08-1-.08-1.66s0-1.21.08-1.82h-.08a7.63,7.63,0,0,1-7.05,3.81c-4.22,0-7.09-2.39-7.09-6.32,0-4.34,3.89-6.77,10.82-6.77.85,0,2,0,2.92.12,0-3.32-1.63-5-5.07-5a11.82,11.82,0,0,0-6.2,1.91Zm9.6,9.77c-4.7,0-7.13,1-7.13,3.64,0,2,1.38,3,3.57,3,3.36,0,5.51-2.1,5.51-6.6C142.4,115.88,141.75,115.84,140.94,115.84Zm31.77,3.56c0,2.19,0,4.5.2,6.24h-4.25c-.08-1-.12-2.23-.12-3.6h-.08a7.59,7.59,0,0,1-7,4.09c-5.59,0-9.07-4.26-9.07-10.78s3.64-10.94,9.12-10.94a7.33,7.33,0,0,1,6.64,3.64h.08c-.08-1.41-.12-3.44-.12-5.47V95h4.58Zm-15.44-4.09c0,4.09,2.11,7.13,5.35,7.13s5.59-3.12,5.59-7.09c0-4.17-2.27-7.25-5.59-7.25S157.27,111.18,157.27,115.31Zm23.22-9.24a15.27,15.27,0,0,1,7.18-1.66c6.28,0,8.67,3.4,8.67,8.35,0,1.78-.08,4-.08,5.55v2.19a43.83,43.83,0,0,0,.28,5.14h-4.09c0-.32-.08-1-.08-1.66s0-1.21.08-1.82h-.08a7.63,7.63,0,0,1-7.06,3.81c-4.21,0-7.09-2.39-7.09-6.32,0-4.34,3.89-6.77,10.82-6.77.85,0,2,0,2.92.12,0-3.32-1.62-5-5.06-5a11.88,11.88,0,0,0-6.21,1.91Zm9.61,9.77c-4.71,0-7.14,1-7.14,3.64,0,2,1.38,3,3.57,3,3.36,0,5.51-2.1,5.51-6.6C191.56,115.88,190.91,115.84,190.1,115.84ZM227.86,102a13.6,13.6,0,0,0-5.51-1.22c-3,0-5,1.46-5,3.57,0,1.82.89,3,5.22,4.78,5.07,2,7.22,4.42,7.22,8.39,0,5.19-4,8.63-10.13,8.63a19,19,0,0,1-7.06-1.22l.49-4.37a13.71,13.71,0,0,0,6.24,1.58c3.24,0,5.47-1.5,5.47-4,0-2.31-1.17-3.53-5.47-5.27-5.14-2.11-7-4.3-7-8,0-4.78,3.85-7.94,9.61-7.94a18,18,0,0,1,6.4,1ZM249,109.07a7.8,7.8,0,0,0-3.57-.77c-4.13,0-6.61,2.92-6.61,6.89s2.35,7,6.61,7a8.65,8.65,0,0,0,3.93-.89l.28,3.85a13.31,13.31,0,0,1-4.74.77c-6.6,0-11-4.18-11-10.62s4.7-10.7,11-10.7a12.51,12.51,0,0,1,4.38.69Zm10.29-6c0,1.9,0,4-.12,5.19h.08a8,8,0,0,1,6.81-3.89c5.67,0,7.66,3.73,7.66,9.28v12h-4.58V115.51c0-4-.41-7.33-4.38-7.33-3.36,0-5.47,2.55-5.47,7.82v9.64h-4.58V95h4.58Zm41.41,12.24c0,6.44-4.41,10.78-10.82,10.78a10.34,10.34,0,0,1-10.78-10.78c0-6.61,4.42-10.94,10.94-10.94C296.27,104.41,300.68,108.82,300.68,115.35Zm-16.65,0c0,4.34,2.35,7.13,5.87,7.13s5.92-2.83,5.92-7.21-2.39-7.26-6-7.26S284,110.85,284,115.35Zm42.35,0c0,6.44-4.42,10.78-10.82,10.78a10.35,10.35,0,0,1-10.79-10.78c0-6.61,4.42-10.94,11-10.94C322,104.41,326.38,108.82,326.38,115.35Zm-16.66,0c0,4.34,2.35,7.13,5.88,7.13s5.91-2.83,5.91-7.21-2.39-7.26-5.95-7.26S309.72,110.85,309.72,115.35Zm27,10.29h-4.66V95h4.66Zm18.11,0V97.36h15.4v4.09h-10.5v8.06h10v4h-10v12.11Zm23.46-9.16c.12,3.69,2.84,6,6.81,6a11.7,11.7,0,0,0,6.08-1.62l.16,4a16,16,0,0,1-6.69,1.3c-6.85,0-11.06-4.09-11.06-11,0-6.41,4.05-10.74,10.13-10.74,5.76,0,9,3.44,9,10.7,0,.36,0,1-.08,1.37Zm10.09-3.32c0-3.69-1.94-5.39-4.82-5.39-2.71,0-4.94,1.91-5.27,5.39Zm8.63,8.07a11.87,11.87,0,0,0,5.43,1.37c2,0,3.65-.89,3.65-2.55s-.93-2.23-4.17-3.57c-3.73-1.53-5.15-3-5.15-5.87,0-3.85,3.12-6.2,7.74-6.2a14.37,14.37,0,0,1,5.23.89l-.41,3.65a10.61,10.61,0,0,0-4.7-1.1c-1.86,0-3.28.85-3.28,2.39s1,2.15,3.81,3.2c3.77,1.46,5.59,3.09,5.59,6.25,0,4.21-3.32,6.44-8,6.44a16.22,16.22,0,0,1-6-1Zm25.09-16.3h5.27v3.53h-5.27v8.63c0,3.2.52,5.07,3.4,5.07a6,6,0,0,0,2.11-.41l.12,3.61a11.56,11.56,0,0,1-3.48.53c-5,0-6.65-2.76-6.65-7.74v-9.69h-4.38v-3.53h4.42v-4.62l4.46-1.5ZM437.28,101h-4.86V96.3h4.86Zm-.08,24.6h-4.66V104.89h4.66ZM449.77,117c.44,1.3,1.09,3.61,1.46,5h.08c.36-1.42,1.09-3.81,1.5-5l3.93-12.08h4.7l-7.58,20.75h-5.47l-7.58-20.75h5Zm16-10.9a15.27,15.27,0,0,1,7.18-1.66c6.28,0,8.67,3.4,8.67,8.35,0,1.78-.08,4-.08,5.55v2.19a43.83,43.83,0,0,0,.28,5.14h-4.09c0-.32-.08-1-.08-1.66s0-1.21.08-1.82h-.08a7.63,7.63,0,0,1-7.06,3.81c-4.21,0-7.09-2.39-7.09-6.32,0-4.34,3.89-6.77,10.82-6.77.86,0,2,0,2.92.12,0-3.32-1.62-5-5.06-5a11.88,11.88,0,0,0-6.21,1.91Zm9.61,9.77c-4.71,0-7.14,1-7.14,3.64,0,2,1.38,3,3.57,3,3.37,0,5.51-2.1,5.51-6.6C476.84,115.88,476.19,115.84,475.38,115.84Zm17.7,9.8h-4.66V95h4.66Z"/></g></svg>