<?xml version="1.0" encoding="utf-8"?>
<!-- Generator: Adobe Illustrator 23.0.0, SVG Export Plug-In . SVG Version: 6.00 Build 0)  -->
<svg version="1.1" id="レイヤー_1" xmlns="http://www.w3.org/2000/svg" xmlns:xlink="http://www.w3.org/1999/xlink" x="0px"
	 y="0px" viewBox="0 0 247.6 298.1" style="enable-background:new 0 0 247.6 298.1;" xml:space="preserve">
<title>logo</title>
<path id="Logo_Only" d="M48.1,237.2c-7.2,3.7-16-3.1-22.4,0c-4.5-5.3-8.4-11.2-11.5-17.5c-4.5,3.3-7.7,6.7-9.3,9.5
	c-5.2-18.1-5.8-35.6-3.9-60.3c7.9,17.3,21.2,32,34.9,40.4c-4.3,1.3-8.5,2.9-12.6,4.9C30.1,223.3,38.5,231.1,48.1,237.2z
	 M193.5,243.2c-7,4.4-15.1,2.3-15,4.8s5.3,2.6,4,5s-10.9,0.9-13.2,1.5c-2.7,0.7-2.4,2.9-5,3.1s-3.6-1.9-12.5-2.7
	c-2.2-0.2-18.6,1.3-18.8-1.2c-0.2-2.7,14.6-0.3,14.6-3.1c0-1.5-7.3-0.7-7.8-2.5c-0.3-1.4,1.6-1.9,0.3-4.8c-5.9,2.3-20-3.1-32.7,0
	c-1.2,2.6-3.7,1.5-5.7,3.2s1.3,8-1.5,8.8c-2.8,0.8-8.6-0.9-12.5-0.9c-2.3,0-6,2.5-8.5,2c-2.7-0.6-3.3-3.1-6.1-4.1
	c-2.5-0.9-11.3,0.6-11.4-2.1c-0.1-1.6-9.1,0-9.1-1.6s5.5-1.1,6.8-1.6c1-0.3,0.5-1.1-0.7-1.3s-3.8-2-4.8-2.6
	c-6.5,3.6-17.7-4.7-23.4,0c2.9,2.4-0.8,5.3,0.6,6.6c1.4,1.4,9.1,0.2,10,2.2c1.7,3.9,14.5,1.5,15,3.5C57,258.1,44,257.9,44,260
	s12.3,1,14.3,2.2c1.4,0.8-0.3,2,0.8,3.3s4.3,0.8,3.9,3.1c-0.3,1.5-8.2,0.1-8.1,2.2c0.1,2.9,17,1.6,19.8,1.9c5.5,0.5,3.6,3.2,6.3,4.2
	c3,0.9,6.2,1.3,9.3,1.1c3.4-0.1,22,0.1,24.6,0.9c2,0.5,1.9,2.4-0.1,2.6c-3.4,0.4-15.3-0.2-15.2,3.1c0.1,2,6.6,0.4,8.2,3.1
	c2.3,3.8,7.5,2.3,9.8,4c1.8,1.3,3.2,6.5,5.9,6.5c7.2,0,3.4-4.9,4.8-6.2s19.9,1.2,19.8-2c-0.1-4.6-10.2,0.4-10-4.9
	c0.1-2.1,9.5,0.7,9.5-1.3c0-2.3-4.8-0.6-4.8-2.4c0-2.6,13.9,0,17-2.9c1.9-1.8,0.9-3.1,3.1-4c3.2-1.3,13.1-0.3,13.3-3.5
	c0.1-2.7-14.6-0.3-13.8-3.6c0.6-2.6,30.3,1.1,33.3-2.3c1.2-1.3-0.1-4.4,2.4-5.9c1.5-0.9,11.9,0.1,11.9-1.5c0-2.6-17.8-0.5-17.8-2
	c0-1.9,14.4-0.3,16.6-2.1s-1.3-2.7,0.5-5.9c1-1.8,5-3,6.3-4.6C214.7,242.1,199.3,242.2,193.5,243.2L193.5,243.2z M233.5,219.7
	c4.5,3.3,7.7,6.7,9.3,9.5c5.2-18.1,5.8-35.6,3.9-60.3c-7.9,17.3-21.2,32-34.9,40.4c4.3,1.3,8.5,2.9,12.6,4.9
	c-6.8,9.1-15.2,16.9-24.8,23c8.1,3.7,10.6-1.9,22.4,0C226.5,231.8,230.4,226,233.5,219.7L233.5,219.7z M165.5,101.9l-30,2.7
	c0.3,42.6-0.1,95.6,4.7,132.6c-3.7,1.5-10.7-2.7-17.4-0.8c-6.3,1.8-11.1,2.8-15.3,0.8c4.8-37,4.4-89.9,4.7-132.6l-30-2.7v-14
	l30.1-2.7c0-5.2,0-9.7,0.1-13.3C93,65.6,82.4,44.8,88.7,25.5s27.1-29.9,46.5-23.6s29.9,27.1,23.6,46.5c-3.7,11.2-12.4,20-23.6,23.6
	c0,3.5,0,8,0.1,13.3l30.1,2.7L165.5,101.9z M123.8,53.7c9.3,0,16.8-7.5,16.8-16.8s-7.5-16.8-16.8-16.8s-16.8,7.5-16.8,16.8
	c0,0,0,0,0,0C107.1,46.2,114.6,53.7,123.8,53.7z"/>
</svg>
