<?xml version="1.0" encoding="utf-8"?>
<!-- Generator: Adobe Illustrator 23.0.0, SVG Export Plug-In . SVG Version: 6.00 Build 0)  -->
<svg version="1.1" id="レイヤー_1" xmlns="http://www.w3.org/2000/svg" xmlns:xlink="http://www.w3.org/1999/xlink" x="0px"
	 y="0px" viewBox="0 0 274.8 66.8" style="enable-background:new 0 0 274.8 66.8;" xml:space="preserve">
<g>
	<g>
		<path d="M246,0h-13.8v1.5l2.5,0.8l-28.1,64.5h12.6l5.1-12.7h32.4l5.3,12.7h12.8L246,0z M228.4,43.8l12.1-29.7l12.4,29.7H228.4z"/>
	</g>
	<g>
		<path d="M172.6,0h-29.5v1.5l3.2,1v64.3h24.9c16,0,35.4-10.6,35.4-33.4C206.6,10.8,190.2,0,172.6,0z M167.1,56h-8.9V10.8H169
			c14.5,0,25.1,6.4,25.1,22.6C194.1,49.6,182,56,167.1,56z"/>
	</g>
	<g>
		<path d="M110.1,0H99.9h-3.5v1.5l2.5,0.8L70.8,66.8h12.7l5.1-12.7H121l5.3,12.7h12.8L110.1,0z M92.6,43.8l12.1-29.7L117,43.8H92.6z
			"/>
	</g>
	<g>
		<polygon points="51.5,0 63.4,0 63.4,66.8 48.3,66.8 15.3,15.6 15.1,15.6 15.1,66.8 3.2,66.8 3.2,2.4 0,1.5 0,0 19,0 51.3,49.6 
			51.5,49.6 		"/>
	</g>
</g>
</svg>
