<svg id="レイヤー_1" data-name="レイヤー 1" xmlns="http://www.w3.org/2000/svg" viewBox="0 0 274.75 66.76"><title>nada</title><path id="NADA" d="M99.88,0H96.34V1.49l2.54.75L70.81,66.76H83.46l5.05-12.67h32.37l5.25,12.67h12.76L110.13,0Zm-7.3,43.85,12.09-29.71L117,43.85ZM51.49,0H63.37V66.76H48.29l-33-51.2H15.1v51.2H3.21V2.44L0,1.49V0H19L51.3,49.6h.19ZM172.64,0H143.12V1.49l3.21,1V66.76h24.9c16,0,35.36-10.56,35.36-33.38C206.59,10.75,190.18,0,172.64,0Zm-5.56,56h-8.86V10.75h10.84c14.52,0,25.08,6.41,25.08,22.63S182,56,167.08,56ZM246,0H232.2V1.49l2.54.75L206.68,66.76h12.64l5.06-12.67h32.37L262,66.76h12.76ZM228.44,43.85l12.09-29.71,12.38,29.71Z"/></svg>