<svg id="レイヤー_1" data-name="レイヤー 1" xmlns="http://www.w3.org/2000/svg" viewBox="0 0 500 32.15"><title>tagline-en-b</title><path id="Full" d="M42.35,23.31c0,5.81-4.18,8.59-12.13,8.59A20.48,20.48,0,0,1,21,29.8l2.3-4.17a13.5,13.5,0,0,0,6.67,1.76c3.7,0,7-1.2,7-4.36s-3.42-4.61-8.47-4.61c-.34,0-1,0-1.47,0V14.16c.46,0,1,0,1.43,0,5,0,8-1.59,8-4.5,0-2.61-2.13-4-5.5-4A11.54,11.54,0,0,0,25,7.25L23.28,2.9a24.19,24.19,0,0,1,8.08-1.41C38,1.49,42,4.36,42,9.16c0,3.92-2.78,6.27-7,6.82v.13C39.4,16.57,42.35,19.31,42.35,23.31Zm11.31-8.69h-.08V11.46h-5V31.4h5V20.73a5,5,0,0,1,5.36-5,10.37,10.37,0,0,1,2.41.37V11.26a6.4,6.4,0,0,0-7.69,3.36ZM0,6.72H0v2H.85l.6-2H14.37L2.37,31.4H8.22L20,6.56V2H0ZM79.69,0h4.84V31.4H79.79v-3h-.08a7.69,7.69,0,0,1-6.86,3.49C66.71,31.9,63,27.33,63,21.43S67,11,72.65,11a8.21,8.21,0,0,1,6.77,3h.12V1.41L77.66.85V0h2ZM73.85,15.45a5.77,5.77,0,0,0-5.86,6,5.86,5.86,0,1,0,11.72,0A5.78,5.78,0,0,0,73.85,15.45Zm50.34,8.39h-.08L109.86,2H101v.86l1.88.55v28h5.24V8.85h.08L122.78,31.4h6.64V2h-5.23Zm28.07-3.9V31.4H148V28.66h-.13a7.17,7.17,0,0,1-6.39,3.24c-3.7,0-7.27-2-7.27-6,0-6.48,7.56-6.94,12.54-6.94H148v-.54c0-2.45-1.91-3.59-4.57-3.59a7.94,7.94,0,0,0-5.32,2.22l-2.62-3.41A12.6,12.6,0,0,1,144,11C152.47,11,152.26,17.11,152.26,19.94Zm-4.56,2.53h-1c-2.74,0-7.48.21-7.48,3.08,0,1.82,1.87,2.61,3.49,2.61,3.41,0,5-1.78,5-4.57ZM173.37,0h4.83V31.4h-4.73v-3h-.08a7.69,7.69,0,0,1-6.86,3.49c-6.15,0-9.84-4.57-9.84-10.47S160.63,11,166.32,11a8.22,8.22,0,0,1,6.78,3h.12V1.41L171.34.85V0h2Zm-5.84,15.45a5.77,5.77,0,0,0-5.86,6,5.86,5.86,0,1,0,11.72,0A5.78,5.78,0,0,0,167.53,15.45Zm33.05,4.49V31.4h-4.27V28.66h-.12a7.17,7.17,0,0,1-6.4,3.24c-3.7,0-7.27-2-7.27-6,0-6.48,7.56-6.94,12.55-6.94h1.24v-.54c0-2.45-1.91-3.59-4.57-3.59a7.94,7.94,0,0,0-5.31,2.22l-2.62-3.41A12.57,12.57,0,0,1,192.28,11C200.8,11,200.58,17.11,200.58,19.94ZM196,22.47h-1c-2.74,0-7.47.21-7.47,3.08,0,1.82,1.87,2.61,3.48,2.61,3.41,0,5-1.78,5-4.57ZM223.49,9.76c0-2.7,2.27-3.78,4.68-3.78a6.62,6.62,0,0,1,4.42,1.53L232,8.9l.43.35.9-.94h0l3.82-4a12.06,12.06,0,0,0-8.43-3c-5.44,0-10.7,2.82-10.7,8.88,0,9.92,14,6.78,14,13.4,0,2.7-2.89,3.89-5.3,3.89a6.94,6.94,0,0,1-5.81-3.08l-4,3.82c2.41,2.87,6,4,9.64,4,5.77,0,10.76-2.93,10.76-9.24C237.31,12.54,223.49,16.39,223.49,9.76Zm28.32,5.69a5.49,5.49,0,0,1,3.78,2L259,14a9.74,9.74,0,0,0-7.23-3c-6,0-10.84,4.19-10.84,10.46s4.82,10.47,10.84,10.47A11.29,11.29,0,0,0,259,29.12l-3.32-3.57a4.77,4.77,0,0,1-3.86,1.86,5.77,5.77,0,0,1-5.86-6A5.77,5.77,0,0,1,251.81,15.45ZM274,11a6.24,6.24,0,0,0-5.85,3.28h-.09V0h-6.87V.85l1.89.56v30h5V20.52c0-2.66,1.29-5.07,4.57-5.07,3.49,0,3.66,3.66,3.66,5.86V31.4h5V18.82C281.26,14.75,279.35,11,274,11Zm33.39,10.46c0,6.28-4.82,10.47-10.84,10.47S285.7,27.71,285.7,21.43,290.51,11,296.54,11,307.38,15.16,307.38,21.43Zm-5,0a5.86,5.86,0,1,0-11.71,0,5.86,5.86,0,1,0,11.71,0Zm29.82,0c0,6.28-4.82,10.47-10.84,10.47s-10.85-4.19-10.85-10.47S315.34,11,321.37,11,332.21,15.16,332.21,21.43Zm-5,0a5.86,5.86,0,1,0-11.71,0,5.86,5.86,0,1,0,11.71,0ZM336.58,0h-1.89V.85l1.89.56v30h5V0h-5ZM360,2h-1.88v.86L360,3.4v28h5.24V19.19h13V14.45h-13V6.73H379V2H360Zm41.53,19.82v1.37h-15A5.26,5.26,0,0,0,392,28a5.93,5.93,0,0,0,5.28-2.63l3.57,2.55a10.36,10.36,0,0,1-8.43,4c-6,0-10.62-4.19-10.62-10.47S386.42,11,392.44,11C398,11,401.57,14.87,401.57,21.81Zm-4.77-2.37c0-2.91-1.95-4.74-5.07-4.74-2.94,0-4.77,1.87-5.15,4.74Zm12.76-2.37c0-1.8,2.42-2.26,3.75-2.26A6.42,6.42,0,0,1,418,16.5l2.8-2.93c-2.28-2.21-4.66-2.6-7.31-2.6-4,0-8,1.92-7.95,6.36.05,7.43,11.28,4.22,11.28,8.44,0,1.84-2.39,2.18-3.84,2.18a8,8,0,0,1-5.13-2.44l-3,3.32c2,2.28,4.83,3.07,7.91,3.07,4.07,0,8.45-.89,8.45-6.32C421.16,17.73,409.56,21.43,409.56,17.07ZM429.84,6h-4.48V24.84c0,4.69,1.25,7.06,6.52,7.06a13.57,13.57,0,0,0,3.95-.52V27a8.43,8.43,0,0,1-2.7.48c-2.2,0-3.29-1-3.29-3V15.7h6V11.46h-6Zm10.91,2.37H446V3.65h-5.21Zm.11,23h5V11.46h-5Zm48.72-11.46V31.4h-4.27V28.66h-.13a7.17,7.17,0,0,1-6.39,3.24c-3.7,0-7.27-2-7.27-6,0-6.48,7.56-6.94,12.54-6.94h1.25v-.54c0-2.45-1.91-3.59-4.57-3.59a7.94,7.94,0,0,0-5.32,2.22l-2.62-3.41A12.6,12.6,0,0,1,481.28,11C489.79,11,489.58,17.11,489.58,19.94ZM485,22.47h-1c-2.74,0-7.48.21-7.48,3.08,0,1.82,1.87,2.61,3.49,2.61,3.41,0,5-1.78,5-4.57Zm-19.87-11H463.2v.86l1.46.43-4.87,12.67h-.08l-5.32-14H449l8.14,19.94h5.32l7.85-19.94h-5.11ZM495.16,0h-2V.85l1.89.56v30h5V0Z"/></svg>