<?xml version="1.0" encoding="utf-8"?>
<!-- Generator: Adobe Illustrator 23.0.0, SVG Export Plug-In . SVG Version: 6.00 Build 0)  -->
<svg version="1.1" id="レイヤー_1" xmlns="http://www.w3.org/2000/svg" xmlns:xlink="http://www.w3.org/1999/xlink" x="0px"
	 y="0px" viewBox="0 0 247.6 384" style="enable-background:new 0 0 247.6 384;" xml:space="preserve">
<title>vertical-b</title>
<g id="Vertical2">
	<path d="M48.1,237.2c-7.2,3.7-16-3.1-22.4,0c-4.5-5.3-8.4-11.2-11.5-17.5c-4.5,3.3-7.7,6.7-9.3,9.5c-5.2-18.1-5.8-35.6-3.9-60.3
		c7.9,17.3,21.2,32,34.9,40.4c-4.3,1.3-8.5,2.9-12.6,4.9C30.1,223.3,38.5,231.1,48.1,237.2z M193.5,243.2c-7,4.4-15.1,2.3-15,4.8
		s5.3,2.6,4,5s-10.9,0.9-13.2,1.5c-2.7,0.7-2.4,2.9-5,3.1s-3.6-1.9-12.5-2.7c-2.2-0.2-18.6,1.3-18.8-1.2c-0.2-2.7,14.6-0.3,14.6-3.1
		c0-1.5-7.3-0.7-7.8-2.5c-0.3-1.4,1.6-1.9,0.3-4.8c-5.9,2.3-20-3.1-32.7,0c-1.2,2.6-3.7,1.5-5.7,3.2s1.3,8-1.5,8.8
		c-2.8,0.8-8.6-0.9-12.5-0.9c-2.3,0-6,2.5-8.5,2c-2.7-0.6-3.3-3.1-6.1-4.1c-2.5-0.9-11.3,0.6-11.4-2.1c-0.1-1.6-9.1,0-9.1-1.6
		s5.5-1.1,6.8-1.6c1-0.3,0.5-1.1-0.7-1.3s-3.8-2-4.8-2.6c-6.5,3.6-17.7-4.7-23.4,0c2.9,2.4-0.8,5.3,0.6,6.6c1.4,1.4,9.1,0.2,10,2.2
		c1.7,3.9,14.5,1.5,15,3.5C57,258.1,44,257.9,44,260s12.3,1,14.3,2.2c1.4,0.8-0.3,2,0.8,3.3s4.3,0.8,3.9,3.1
		c-0.3,1.5-8.2,0.1-8.1,2.2c0.1,2.9,17,1.6,19.8,1.9c5.5,0.5,3.6,3.2,6.3,4.2c3,0.9,6.2,1.3,9.3,1.1c3.4-0.1,22,0.1,24.6,0.9
		c2,0.5,1.9,2.4-0.1,2.6c-3.4,0.4-15.3-0.2-15.2,3.1c0.1,2,6.6,0.4,8.2,3.1c2.3,3.8,7.5,2.3,9.8,4c1.8,1.3,3.2,6.5,5.9,6.5
		c7.2,0,3.4-4.9,4.8-6.2s19.9,1.2,19.8-2c-0.1-4.6-10.2,0.4-10-4.9c0.1-2.1,9.5,0.7,9.5-1.3c0-2.3-4.8-0.6-4.8-2.4
		c0-2.6,13.9,0,17-2.9c1.9-1.8,0.9-3.1,3.1-4c3.2-1.3,13.1-0.3,13.3-3.5c0.1-2.7-14.6-0.3-13.8-3.6c0.6-2.6,30.3,1.1,33.3-2.3
		c1.2-1.3-0.1-4.4,2.4-5.9c1.5-0.9,11.9,0.1,11.9-1.5c0-2.6-17.8-0.5-17.8-2c0-1.9,14.4-0.3,16.6-2.1s-1.3-2.7,0.5-5.9
		c1-1.8,5-3,6.3-4.6C214.7,242.1,199.3,242.2,193.5,243.2L193.5,243.2z M233.5,219.7c4.5,3.3,7.7,6.7,9.3,9.5
		c5.2-18.1,5.8-35.6,3.9-60.3c-7.9,17.3-21.2,32-34.9,40.4c4.3,1.3,8.5,2.9,12.6,4.9c-6.8,9.1-15.2,16.9-24.8,23
		c8.1,3.7,10.6-1.9,22.4,0C226.5,231.8,230.4,226,233.5,219.7L233.5,219.7z M165.5,101.9l-30,2.7c0.3,42.6-0.1,95.6,4.7,132.6
		c-3.7,1.5-10.7-2.7-17.4-0.8c-6.3,1.8-11.1,2.8-15.3,0.8c4.8-37,4.4-89.9,4.7-132.6l-30-2.7v-14l30.1-2.7c0-5.2,0-9.7,0.1-13.3
		C93,65.6,82.4,44.8,88.7,25.5s27.1-29.9,46.5-23.6s29.9,27.1,23.6,46.5c-3.7,11.2-12.4,20-23.6,23.6c0,3.5,0,8,0.1,13.3l30.1,2.7
		L165.5,101.9z M123.8,53.7c9.3,0,16.8-7.5,16.8-16.8s-7.5-16.8-16.8-16.8s-16.8,7.5-16.8,16.8c0,0,0,0,0,0
		C107.1,46.2,114.6,53.7,123.8,53.7z"/>
	<path d="M124.5,322.3h-1.8v0.7l1.3,0.4l-13.9,32h6.3l2.5-6.3h16l2.6,6.3h6.4l-14.2-33.1H124.5z M120.8,344.1l6-14.7l6.2,14.7H120.8
		z M188.4,322.3l-9.9,33.1h-5.9l-7-25.2h-0.1l-7,25.2h-5.7l-9.7-31.9l-1.6-0.5v-0.7h7.6l6.5,23.8h0.1l6.8-22.7l-1.4-0.4v-0.7h7.5
		l7,23.8h0.1l6.5-22.7l-1.4-0.4v-0.7L188.4,322.3L188.4,322.3z M201.6,322.3h-1.8v0.7l1.3,0.4l-13.9,32h6.3l2.5-6.3h16l2.6,6.3h6.3
		l-14.2-33.1L201.6,322.3z M198,344.1l6-14.7l6.1,14.7H198z M247.6,322.3l-12.4,18.7v14.3h-5.9v-14.3l-12.4-18.8h7.4l8,13.2
		l7.6-12.1l-1.2-0.4v-0.7L247.6,322.3L247.6,322.3z M62.8,322.3h5.7v33.1h-5.9v-31.9l-1.6-0.5v-0.7L62.8,322.3L62.8,322.3z
		 M39.8,322.3H38v0.7l1.3,0.4l-13.9,32h6.3l2.5-6.3h16l2.6,6.3H59l-14.2-33.1L39.8,322.3z M36.1,344.1l6-14.7l6.1,14.7H36.1z
		 M81.7,350.1h14.1v5.3H75.8v-31.9l-1.6-0.5v-0.7h7.5L81.7,350.1z M22.9,345.8c0,7.1-5.6,10.4-12.1,10.4c-4.1,0-8.1-1.3-10.8-4.5
		l4.4-4.3c1.5,2.2,3.9,3.5,6.5,3.5c2.7,0,6-1.3,6-4.4c0-7.4-15.7-3.9-15.7-15.1c0-6.8,5.9-10,12-10c3.5-0.1,6.9,1.1,9.5,3.4
		l-4.3,4.5l0,0l-0.8,0.8l-0.4-0.4l0.6-1.2c-1.4-1.2-3.2-1.9-5.1-1.9c-2.7,0-5.3,1.2-5.3,4.2C7.4,338.5,22.9,334.2,22.9,345.8z"/>
	<path d="M9.7,371.7l-5.2,12H1.8l5.4-12H0.4v-2h9.3V371.7z M12.9,377.4v-1.9c0.2,0,0.4,0,0.6,0c2.5,0,4-0.7,4-2.2s-1.2-2.1-2.8-2.1
		c-1.1,0-2.2,0.2-3.2,0.7l-0.1-2c1.2-0.4,2.4-0.6,3.6-0.6c3,0,4.9,1.4,4.9,3.7c0,1.8-1.4,3-3.5,3.2v0.1c2.1,0.2,3.6,1.5,3.6,3.5
		c0,2.5-2.2,4-5.5,4c-1.2,0-2.4-0.2-3.6-0.5l0.1-2.1c1.1,0.5,2.2,0.8,3.4,0.8c1.8,0,3.1-0.8,3.1-2.4s-1.4-2.4-4-2.4
		C13.4,377.4,13.1,377.4,12.9,377.4L12.9,377.4z M25.6,375.3c0.4-1.2,1.6-2.1,2.9-2.1c0.3,0,0.6,0,1,0.1v2c-0.3-0.1-0.7-0.2-1-0.1
		c-1.8,0-2.8,1.4-2.8,4.1v4.4h-2.3v-7.2c0-1.1,0-2.2-0.1-3h2.2C25.5,373.9,25.6,374.7,25.6,375.3L25.6,375.3z M40.6,380.6
		c0,1.1,0,2.2,0.1,3.1h-2.1c0-0.5-0.1-1.1-0.1-1.8l0,0c-0.7,1.3-2,2-3.5,2c-2.8,0-4.5-2.1-4.5-5.3s1.8-5.4,4.5-5.4
		c1.3-0.1,2.6,0.6,3.3,1.8l0,0c0-0.7-0.1-1.7-0.1-2.7v-3.8h2.3L40.6,380.6z M33,378.6c0,2,1,3.5,2.7,3.5s2.8-1.5,2.8-3.5
		s-1.1-3.6-2.8-3.6S33,376.5,33,378.6L33,378.6z M58.8,369.7H61v14h-3.1l-4.3-8c-0.7-1.2-1.5-2.9-1.8-3.8l0,0
		c0.1,0.9,0.1,3.1,0.1,4.3v7.5h-2.3v-14H53l4.1,7.9c0.5,1,1.3,2.6,1.7,3.6l0,0c-0.1-1-0.1-3.5-0.1-4.9L58.8,369.7z M65,374.1
		c1.1-0.6,2.3-0.8,3.6-0.8c3.1,0,4.3,1.7,4.3,4.1c0,0.9,0,2,0,2.8v1.1c0,0.9,0,1.7,0.2,2.5h-2c0-0.2,0-0.5,0-0.8s0-0.6,0-0.9l0,0
		c-0.7,1.2-2.1,2-3.5,1.9c-2.1,0-3.5-1.2-3.5-3.1c0-2.1,1.9-3.4,5.4-3.4c0.4,0,1,0,1.4,0.1c0.2-1.2-0.7-2.3-1.9-2.5
		c-0.2,0-0.4,0-0.6,0c-1.1,0-2.2,0.4-3.1,1L65,374.1z M69.8,378.9c-2.3,0-3.5,0.5-3.5,1.8c0,1,0.7,1.5,1.8,1.5c1.7,0,2.7-1,2.7-3.3
		C70.5,378.9,70.2,378.9,69.8,378.9z M85.6,380.6c0,1.1,0,2.2,0.1,3.1h-2.1c0-0.5-0.1-1.1-0.1-1.8l0,0c-0.7,1.3-2,2-3.4,2
		c-2.8,0-4.5-2.1-4.5-5.3s1.8-5.4,4.5-5.4c1.3-0.1,2.6,0.6,3.3,1.8l0,0c0-0.7-0.1-1.7-0.1-2.7v-3.8h2.3L85.6,380.6z M77.9,378.6
		c0,2,1,3.5,2.7,3.5s2.8-1.5,2.8-3.5s-1.1-3.6-2.8-3.6S77.9,376.5,77.9,378.6L77.9,378.6z M89.4,374.1c1.1-0.6,2.3-0.8,3.6-0.8
		c3.1,0,4.3,1.7,4.3,4.1c0,0.9,0,2,0,2.8v1.1c0,0.9,0,1.7,0.1,2.5h-2c0-0.2,0-0.5,0-0.8s0-0.6,0-0.9l0,0c-0.7,1.2-2.1,1.9-3.6,1.8
		c-2.1,0-3.5-1.2-3.5-3.1c0-2.1,1.9-3.4,5.3-3.4c0.4,0,1,0,1.4,0.1c0.2-1.2-0.7-2.3-1.9-2.5c-0.2,0-0.4,0-0.6,0
		c-1.1,0-2.2,0.4-3.1,1L89.4,374.1z M94.1,378.9c-2.3,0-3.5,0.5-3.5,1.8c0,1,0.7,1.5,1.8,1.5c1.7,0,2.7-1,2.7-3.3
		C94.9,378.9,94.5,378.9,94.1,378.9L94.1,378.9z M112.8,372c-0.9-0.4-1.8-0.6-2.7-0.6c-1.5,0-2.5,0.7-2.5,1.8s0.4,1.5,2.6,2.4
		c2.5,1,3.6,2.2,3.6,4.2c0,2.6-2,4.3-5,4.3c-1.2,0-2.4-0.2-3.5-0.6l0.2-2.2c1,0.5,2,0.8,3.1,0.8c1.6,0,2.7-0.8,2.7-2
		s-0.6-1.8-2.7-2.6c-2.5-1-3.5-2.1-3.5-4c0-2.4,1.9-3.9,4.8-3.9c1.1,0,2.2,0.2,3.2,0.5L112.8,372z M123.3,375.5
		c-0.5-0.3-1.2-0.4-1.8-0.4c-1.9,0.1-3.4,1.7-3.3,3.6c0.1,1.8,1.5,3.2,3.3,3.3c0.7,0,1.3-0.1,1.9-0.4l0.2,1.9
		c-0.8,0.3-1.6,0.4-2.3,0.4c-3.3,0-5.4-2.1-5.4-5.3c-0.1-2.8,2.2-5.2,5-5.3c0.2,0,0.3,0,0.5,0c0.7,0,1.5,0.1,2.2,0.3L123.3,375.5z
		 M128.4,372.6c0,1,0,2-0.1,2.6l0,0c0.7-1.2,2-1.9,3.4-1.9c2.8,0,3.8,1.8,3.8,4.6v5.9h-2.3v-5c0-2-0.2-3.6-2.2-3.6
		c-1.7,0-2.7,1.3-2.7,3.9v4.8h-2.3v-15.2h2.3L128.4,372.6z M148.9,378.7c0,3-2.5,5.3-5.4,5.3c-3,0-5.3-2.5-5.3-5.4
		c0-3,2.5-5.3,5.4-5.3c2.8-0.1,5.2,2.1,5.3,4.9C148.9,378.3,148.9,378.4,148.9,378.7L148.9,378.7z M140.7,378.7
		c0,2.1,1.2,3.5,2.9,3.5s2.9-1.4,2.9-3.6s-1.2-3.6-3-3.6S140.7,376.4,140.7,378.7L140.7,378.7z M161.7,378.7c0,3-2.5,5.3-5.4,5.3
		c-3,0-5.3-2.5-5.3-5.4c0-3,2.5-5.3,5.4-5.3c2.8-0.1,5.2,2.1,5.3,4.9C161.6,378.3,161.6,378.5,161.7,378.7L161.7,378.7z
		 M153.4,378.7c0,2.1,1.2,3.5,2.9,3.5s2.9-1.4,2.9-3.6s-1.2-3.6-3-3.6S153.4,376.4,153.4,378.7L153.4,378.7z M166.8,383.8h-2.3
		v-15.2h2.3V383.8z M175.8,383.8v-14h7.6v2h-5.2v4h4.9v2h-4.9v6H175.8z M187.4,379.2c0.1,1.8,1.4,3,3.4,3c1.1,0,2.1-0.3,3-0.8l0.1,2
		c-1,0.4-2.2,0.7-3.3,0.6c-3.4,0-5.5-2-5.5-5.4c0-3.2,2-5.3,5-5.3c2.9,0,4.5,1.7,4.5,5.3c0,0.2,0,0.5,0,0.7L187.4,379.2z
		 M192.4,377.6c0-1.8-1-2.7-2.4-2.7c-1.5,0-2.6,1.2-2.6,2.7c0,0,0,0,0,0H192.4z M196.7,381.6c0.8,0.4,1.8,0.7,2.7,0.7
		c1,0,1.8-0.4,1.8-1.3s-0.5-1.1-2.1-1.8c-1.9-0.8-2.6-1.5-2.6-2.9c0-1.9,1.5-3.1,3.8-3.1c0.9,0,1.8,0.1,2.6,0.4l-0.2,1.8
		c-0.7-0.4-1.5-0.5-2.3-0.5c-0.9,0-1.6,0.4-1.6,1.2s0.5,1.1,1.9,1.6c1.9,0.7,2.8,1.5,2.8,3.1c0,2.1-1.6,3.2-4,3.2c-1,0-2-0.2-3-0.5
		L196.7,381.6z M209.1,373.5h2.6v1.7h-2.6v4.3c0,1.6,0.3,2.5,1.7,2.5c0.3,0,0.7-0.1,1-0.2l0.1,1.8c-0.6,0.2-1.1,0.3-1.7,0.3
		c-2.5,0-3.3-1.4-3.3-3.8v-4.8h-2.2v-1.7h2.2v-2.4l2.2-0.7L209.1,373.5z M216.6,371.6h-2.4v-2.4h2.4V371.6z M216.6,383.8h-2.3v-10.3
		h2.3V383.8z M222.8,379.5c0.2,0.6,0.5,1.8,0.7,2.5l0,0c0.2-0.7,0.5-1.9,0.7-2.5l2-6h2.3l-3.8,10.3h-2.7l-3.8-10.3h2.4L222.8,379.5z
		 M230.8,374.1c1.1-0.6,2.3-0.8,3.6-0.8c3.1,0,4.3,1.7,4.3,4.1c0,0.9,0,2,0,2.8v1.1c0,0.9,0,1.7,0.1,2.5h-2c0-0.2,0-0.5,0-0.8
		s0-0.6,0-0.9l0,0c-0.7,1.2-2.1,2-3.5,1.9c-2.1,0-3.5-1.2-3.5-3.1c0-2.1,1.9-3.4,5.4-3.4c0.4,0,1,0,1.4,0.1c0.2-1.2-0.7-2.3-1.9-2.5
		c-0.2,0-0.4,0-0.6,0c-1.1,0-2.2,0.4-3.1,1L230.8,374.1z M235.5,378.9c-2.3,0-3.5,0.5-3.5,1.8c0,1,0.7,1.5,1.8,1.5
		c1.7,0,2.7-1,2.7-3.3c-0.3-0.1-0.7-0.1-1.1-0.1L235.5,378.9z M244.3,383.8H242v-15.2h2.3V383.8z"/>
</g>
</svg>
