<svg xmlns="http://www.w3.org/2000/svg" viewBox="0 0 354.22 298.63"><defs><style>.cls-1{fill:#4d4d4d;}.cls-2{fill:#727171;}.cls-11,.cls-3,.cls-4,.cls-5,.cls-6,.cls-7,.cls-8{fill:none;stroke-miterlimit:10;}.cls-11,.cls-3,.cls-4,.cls-5{stroke:#231815;}.cls-4{stroke-dasharray:3.82 3.82;}.cls-5{stroke-dasharray:3.38 3.38;}.cls-6,.cls-7,.cls-8{stroke:#000;}.cls-7{stroke-width:0.5px;}.cls-8{stroke-width:1.42px;}.cls-9{fill:#fff;}.cls-10{fill:#040000;}.cls-11{stroke-dasharray:3.69 3.69;}</style></defs><title>3階フロアマップ</title><g id="BG"><rect class="cls-1" x="264.12" y="232.54" width="63.11" height="36.35" transform="translate(591.35 501.43) rotate(-180)"/><rect class="cls-1" x="271.04" y="191.82" width="37.23" height="31" transform="translate(579.31 414.65) rotate(-180)"/><rect class="cls-1" x="271.04" y="138.15" width="37.23" height="53.68" transform="translate(579.31 329.97) rotate(-180)"/><rect class="cls-1" x="271.04" y="57.6" width="56.29" height="50.68" transform="translate(598.36 165.89) rotate(-180)"/><rect class="cls-1" x="211.17" y="24.85" width="43.3" height="37.11" transform="translate(465.65 86.81) rotate(-180)"/><rect class="cls-1" x="167.87" y="24.85" width="43.3" height="37.11" transform="translate(379.04 86.81) rotate(-180)"/><rect class="cls-1" x="124.56" y="24.85" width="43.3" height="37.11" transform="translate(292.43 86.81) rotate(-180)"/><rect class="cls-1" x="81.26" y="24.85" width="43.3" height="37.11" transform="translate(205.82 86.81) rotate(-180)"/><rect class="cls-1" x="188.58" y="138.15" width="41.14" height="30.76" transform="translate(418.31 307.05) rotate(-180)"/><rect class="cls-1" x="147.44" y="138.15" width="41.14" height="30.76" transform="translate(336.03 307.05) rotate(-180)"/><rect class="cls-1" x="106.3" y="138.15" width="41.14" height="30.76" transform="translate(253.75 307.05) rotate(-180)"/><rect class="cls-1" x="65.16" y="138.15" width="41.14" height="30.76" transform="translate(171.46 307.05) rotate(-180)"/><rect class="cls-1" x="168.01" y="183.41" width="41.14" height="29.79" transform="translate(377.17 396.62) rotate(-180)"/><rect class="cls-1" x="24.22" y="138.15" width="40.94" height="30.76" transform="translate(89.38 307.05) rotate(-180)"/><rect class="cls-2" x="229.73" y="138.15" width="20.89" height="30.76"/></g><g id="FRAME"><line class="cls-3" x1="250.62" y1="138.15" x2="250.62" y2="140.15"/><line class="cls-4" x1="250.62" y1="143.97" x2="250.62" y2="164.99"/><polyline class="cls-3" points="250.62 166.91 250.62 168.91 248.62 168.91"/><line class="cls-5" x1="245.24" y1="168.9" x2="233.41" y2="168.9"/><line class="cls-3" x1="231.73" y1="168.9" x2="229.73" y2="168.9"/><rect class="cls-6" x="264.12" y="232.54" width="63.11" height="36.35" transform="translate(591.35 501.43) rotate(-180)"/><rect class="cls-6" x="271.04" y="191.82" width="37.23" height="31" transform="translate(579.31 414.65) rotate(-180)"/><rect class="cls-6" x="271.04" y="138.15" width="37.23" height="53.68" transform="translate(579.31 329.97) rotate(-180)"/><polyline class="cls-6" points="264.12 232.54 264.12 222.83 271.04 222.83"/><rect class="cls-6" x="271.04" y="57.6" width="56.29" height="50.68" transform="translate(598.36 165.89) rotate(-180)"/><rect class="cls-6" x="211.17" y="24.85" width="43.3" height="37.11" transform="translate(465.65 86.81) rotate(-180)"/><rect class="cls-6" x="167.87" y="24.85" width="43.3" height="37.11" transform="translate(379.04 86.81) rotate(-180)"/><rect class="cls-6" x="124.56" y="24.85" width="43.3" height="37.11" transform="translate(292.43 86.81) rotate(-180)"/><rect class="cls-6" x="81.26" y="24.85" width="43.3" height="37.11" transform="translate(205.82 86.81) rotate(-180)"/><polyline class="cls-6" points="254.48 24.85 254.48 17.63 304.29 17.63 304.29 41.66 271.04 41.66 271.04 57.6"/><rect class="cls-6" x="65.16" y="24.85" width="16.1" height="37.11" transform="translate(146.42 86.81) rotate(-180)"/><polyline class="cls-6" points="65.16 24.85 48.88 24.85 48.88 75.91 250.62 75.91 250.62 138.15 229.73 138.15"/><rect class="cls-6" x="188.58" y="138.15" width="41.14" height="30.76" transform="translate(418.31 307.05) rotate(-180)"/><rect class="cls-6" x="147.44" y="138.15" width="41.14" height="30.76" transform="translate(336.03 307.05) rotate(-180)"/><rect class="cls-6" x="106.3" y="138.15" width="41.14" height="30.76" transform="translate(253.75 307.05) rotate(-180)"/><rect class="cls-6" x="65.16" y="138.15" width="41.14" height="30.76" transform="translate(171.46 307.05) rotate(-180)"/><rect class="cls-6" x="85.73" y="183.41" width="41.14" height="29.79" transform="translate(212.6 396.62) rotate(-180)"/><rect class="cls-6" x="65.16" y="183.41" width="20.57" height="29.79" transform="translate(150.89 396.62) rotate(-180)"/><rect class="cls-6" x="44.59" y="183.41" width="20.57" height="29.79" transform="translate(109.75 396.62) rotate(-180)"/><rect class="cls-6" x="168.01" y="183.41" width="41.14" height="29.79" transform="translate(377.17 396.62) rotate(-180)"/><rect class="cls-6" x="147.44" y="183.41" width="20.57" height="29.79" transform="translate(315.46 396.62) rotate(-180)"/><rect class="cls-6" x="229.81" y="183.41" width="20.8" height="29.79" transform="translate(480.43 396.62) rotate(-180)"/><rect class="cls-6" x="24.22" y="138.15" width="40.94" height="30.76" transform="translate(89.38 307.05) rotate(-180)"/><line class="cls-6" x1="229.81" y1="213.21" x2="209.16" y2="213.21"/><line class="cls-6" x1="147.44" y1="213.21" x2="126.87" y2="213.21"/><polyline class="cls-6" points="44.59 213.21 24.22 213.21 24.22 168.91"/><polyline class="cls-6" points="264.12 268.89 264.12 281.15 247.81 281.15 247.81 239.98 250.62 239.98 250.62 213.21"/><rect class="cls-6" x="271.04" y="108.28" width="56.29" height="17.54" transform="translate(598.36 234.1) rotate(-180)"/><line class="cls-6" x1="271.04" y1="138.15" x2="271.04" y2="125.82"/><line class="cls-7" x1="24.22" y1="202.02" x2="44.59" y2="202.02"/><line class="cls-7" x1="24.22" y1="199.79" x2="44.59" y2="199.79"/><line class="cls-7" x1="24.22" y1="197.56" x2="44.59" y2="197.56"/><line class="cls-7" x1="24.22" y1="195.34" x2="44.59" y2="195.34"/><line class="cls-7" x1="24.22" y1="193.11" x2="44.59" y2="193.11"/><line class="cls-7" x1="24.22" y1="190.88" x2="44.59" y2="190.88"/><line class="cls-7" x1="24.22" y1="188.65" x2="44.59" y2="188.65"/><line class="cls-7" x1="24.22" y1="186.42" x2="44.59" y2="186.42"/><line class="cls-6" x1="34.41" y1="186.42" x2="34.41" y2="205.89"/><line class="cls-7" x1="137.06" y1="202.02" x2="147.24" y2="202.02"/><line class="cls-7" x1="137.06" y1="199.79" x2="147.24" y2="199.79"/><line class="cls-7" x1="137.06" y1="197.56" x2="147.24" y2="197.56"/><line class="cls-7" x1="137.06" y1="195.34" x2="147.24" y2="195.34"/><line class="cls-7" x1="137.06" y1="193.11" x2="147.24" y2="193.11"/><line class="cls-7" x1="137.06" y1="190.88" x2="147.24" y2="190.88"/><line class="cls-7" x1="137.06" y1="188.65" x2="147.24" y2="188.65"/><line class="cls-7" x1="137.06" y1="186.42" x2="147.24" y2="186.42"/><line class="cls-6" x1="137.06" y1="186.42" x2="137.06" y2="205.89"/><line class="cls-7" x1="209.54" y1="202.02" x2="229.91" y2="202.02"/><line class="cls-7" x1="209.54" y1="199.79" x2="229.91" y2="199.79"/><line class="cls-7" x1="209.54" y1="197.56" x2="229.91" y2="197.56"/><line class="cls-7" x1="209.54" y1="195.34" x2="229.91" y2="195.34"/><line class="cls-7" x1="209.54" y1="193.11" x2="229.91" y2="193.11"/><line class="cls-7" x1="209.54" y1="190.88" x2="229.91" y2="190.88"/><line class="cls-7" x1="209.54" y1="188.65" x2="229.91" y2="188.65"/><line class="cls-7" x1="209.54" y1="186.42" x2="229.91" y2="186.42"/><line class="cls-6" x1="219.73" y1="186.42" x2="219.73" y2="205.89"/><line class="cls-7" x1="48.88" y1="56.33" x2="65.16" y2="56.33"/><line class="cls-7" x1="48.88" y1="54.1" x2="65.16" y2="54.1"/><line class="cls-7" x1="48.88" y1="51.88" x2="65.16" y2="51.88"/><line class="cls-7" x1="48.88" y1="49.65" x2="65.16" y2="49.65"/><line class="cls-7" x1="48.88" y1="47.42" x2="65.16" y2="47.42"/><line class="cls-7" x1="48.88" y1="45.19" x2="65.16" y2="45.19"/><line class="cls-7" x1="48.88" y1="42.96" x2="65.16" y2="42.96"/><line class="cls-7" x1="48.88" y1="40.73" x2="65.16" y2="40.73"/><line class="cls-6" x1="57.02" y1="36.87" x2="57.02" y2="56.33"/><line class="cls-7" x1="274.06" y1="17.63" x2="274.06" y2="41.66"/><line class="cls-7" x1="276.44" y1="17.63" x2="276.44" y2="41.66"/><line class="cls-7" x1="278.81" y1="17.63" x2="278.81" y2="41.66"/><line class="cls-7" x1="281.18" y1="17.63" x2="281.18" y2="41.66"/><line class="cls-7" x1="283.55" y1="17.63" x2="283.55" y2="41.66"/><line class="cls-7" x1="285.92" y1="17.63" x2="285.92" y2="41.66"/><line class="cls-7" x1="288.29" y1="17.63" x2="288.29" y2="41.66"/><line class="cls-7" x1="290.66" y1="17.63" x2="290.66" y2="41.66"/><line class="cls-7" x1="293.03" y1="17.63" x2="293.03" y2="41.66"/><line class="cls-6" x1="274.06" y1="29.65" x2="297.48" y2="29.65"/><line class="cls-8" x1="251.48" y1="268.2" x2="260.44" y2="277.16"/><line class="cls-8" x1="251.48" y1="277.16" x2="260.44" y2="268.2"/></g><g id="LABEL-OL"><path d="M133.68,187.4h-1.43V188l.81.37c.31.15.58.29.8.42l-.34.64c-.18-.12-.39-.25-.62-.38a6.94,6.94,0,0,0-.65-.34v2a3.56,3.56,0,0,0,0,.38h-.77a3.56,3.56,0,0,0,0-.38V187.4h-1.8v-.71h4.51v.71Z"/><path d="M131.88,192.89a3.14,3.14,0,0,0-.19.4,5.27,5.27,0,0,0-.19.56,2.17,2.17,0,0,0-.11.5l-.76.1a5.58,5.58,0,0,1-.09-.59c0-.2,0-.45,0-.76,0-.13,0-.34,0-.64s.07-.64.13-1l.76.12c-.06.22-.12.5-.18.83a4.79,4.79,0,0,0-.09.76v.22a4.61,4.61,0,0,1,.3-.76Zm1.27-1.4c0,.21.07.5.1.89s.05.7.05,1a3.51,3.51,0,0,1-.17,1.12,2.38,2.38,0,0,1-.5.86,2.9,2.9,0,0,1-.84.6l-.21-.18a4,4,0,0,0-.43-.32,2.86,2.86,0,0,0,.83-.5,1.8,1.8,0,0,0,.45-.69,3,3,0,0,0,.15-1c0-.24,0-.53,0-.86a8.1,8.1,0,0,0-.11-.85Z"/><path d="M132.1,196.28a2.2,2.2,0,0,1,.5.06,2,2,0,0,1,.53.19,1.89,1.89,0,0,1,.51.38,1.79,1.79,0,0,1,.49,1.25,2.25,2.25,0,0,1-.06.49,1.56,1.56,0,0,1-.19.52,1.67,1.67,0,0,1-.34.45,2.22,2.22,0,0,1-.45.34,3,3,0,0,1-.49.22l-.43.12-.12-.15a2.2,2.2,0,0,0-.2-.23l-.24-.24.36-.06a2.42,2.42,0,0,0,.36-.1,2,2,0,0,0,.36-.17,1.68,1.68,0,0,0,.34-.27,1.43,1.43,0,0,0,.26-.41,1.46,1.46,0,0,0,.09-.52,1.27,1.27,0,0,0-.07-.44,1.06,1.06,0,0,0-.19-.35,1.6,1.6,0,0,0-.24-.22,1.42,1.42,0,0,0-.25-.12.74.74,0,0,0-.23-.05,6.13,6.13,0,0,1-.16.79,6,6,0,0,1-.2.6,3.1,3.1,0,0,1-.21.45,2.67,2.67,0,0,1-.29.46,1.75,1.75,0,0,1-.43.39.91.91,0,0,1-.49.15.86.86,0,0,1-.39-.09.81.81,0,0,1-.3-.25,1.18,1.18,0,0,1-.19-.39,1.51,1.51,0,0,1-.07-.48,2.49,2.49,0,0,1,.05-.46,1.94,1.94,0,0,1,.16-.5,2.42,2.42,0,0,1,.31-.5,2.27,2.27,0,0,1,.48-.44,2.3,2.3,0,0,1,.65-.31A2.83,2.83,0,0,1,132.1,196.28Zm-1.45,2.83a.29.29,0,0,0,.15-.06,1.13,1.13,0,0,0,.23-.22,2.81,2.81,0,0,0,.24-.4,3,3,0,0,0,.21-.51,4,4,0,0,0,.16-.53c0-.17.06-.32.07-.45a1.33,1.33,0,0,0-.54.18,1.59,1.59,0,0,0-.44.38,1.83,1.83,0,0,0-.28.49,1.41,1.41,0,0,0-.1.52,1.39,1.39,0,0,0,0,.3.67.67,0,0,0,.09.21A.2.2,0,0,0,130.65,199.11Z"/><path d="M134,203a1.31,1.31,0,0,0,.24.12l-.37.7-.21-.17-.27-.17a2.59,2.59,0,0,1-.5.79,2.15,2.15,0,0,1-.75.54l-.29-.21a3.4,3.4,0,0,0-.34-.2,3.77,3.77,0,0,0,.48-.26,2.7,2.7,0,0,0,.44-.4,1.89,1.89,0,0,0,.35-.57,3.8,3.8,0,0,0-.55-.2,2.76,2.76,0,0,0-.42-.08c-.09.17-.16.33-.23.47l-.27.47a2.36,2.36,0,0,1-.25.33.89.89,0,0,1-.29.2.77.77,0,0,1-.34.08.79.79,0,0,1-.2,0,.6.6,0,0,1-.22-.12.52.52,0,0,1-.18-.25.87.87,0,0,1-.07-.37,1.13,1.13,0,0,1,.11-.52,1.27,1.27,0,0,1,.33-.43,1.56,1.56,0,0,1,.52-.31,2.27,2.27,0,0,1,.67-.15c.11-.25.23-.55.38-.9l-1,.12-.27,0-.13-.7h.31l.66,0,.59-.07.07,0,.06,0,.67.37-.07.11a1.7,1.7,0,0,0-.14.24c-.14.28-.29.58-.44.91a5.62,5.62,0,0,1,.86.21c0-.08,0-.16,0-.25s0-.16,0-.23v-.27l.72.22a.35.35,0,0,0,0,.13.26.26,0,0,0,0,.07c0,.08,0,.17,0,.29a2.79,2.79,0,0,1,0,.32Zm-3.51.73a.21.21,0,0,0,.09-.05,1.3,1.3,0,0,0,.17-.22c.07-.1.17-.29.31-.54a1.06,1.06,0,0,0-.34.12.7.7,0,0,0-.26.22.51.51,0,0,0-.09.28.26.26,0,0,0,0,.14A.11.11,0,0,0,130.45,203.71Z"/><path class="cls-9" d="M185.67,36.62h.55v1h-1.47c0,.47,0,1,.05,1.59s0,.95,0,1.07a.93.93,0,0,1-.13.52.9.9,0,0,1-.38.34,2.21,2.21,0,0,1-.61.18,6.78,6.78,0,0,1-.84,0c-.14-.35-.24-.59-.3-.71a4.49,4.49,0,0,0-.23-.41,2.66,2.66,0,0,0,.46.09,3.79,3.79,0,0,0,.5.05.53.53,0,0,0,.36-.13.44.44,0,0,0,.14-.34v-.41c0-.23,0-.48,0-.75s0-.5,0-.69c-.12.19-.27.4-.44.62a7.61,7.61,0,0,1-.62.7,6,6,0,0,1-.82.73,7.66,7.66,0,0,1-1,.7,5.18,5.18,0,0,0-.35-.49c-.13-.17-.24-.3-.32-.39a6.44,6.44,0,0,0,1.53-1A6.92,6.92,0,0,0,183,37.58h-2.33v-1h3.06l0-.78a.41.41,0,0,0,0-.1c0-.05,0-.17,0-.37l1.07.05a2.67,2.67,0,0,0,0,.36l0,.84Z"/><path class="cls-9" d="M190,38.88a6.49,6.49,0,0,0,.65-.58,7.13,7.13,0,0,0,.61-.64l-2,.49v1.28a1.13,1.13,0,0,0,.08.5.35.35,0,0,0,.25.19,2.3,2.3,0,0,0,.53,0c.27,0,.58,0,.94,0s.68-.06,1-.1l0,1c-.21,0-.54,0-1,.08l-1.2,0a3.32,3.32,0,0,1-.75-.08,1.49,1.49,0,0,1-.52-.26,1.08,1.08,0,0,1-.3-.4,1.47,1.47,0,0,1-.09-.53V38.42l-.85.22-.55.16-.28-1c.23,0,.47-.07.7-.12l1-.22V36.14c0-.11,0-.23,0-.36s0-.23,0-.3l1.12.06a1.78,1.78,0,0,0,0,.2c0,.09,0,.17,0,.24V37.2q1.4-.3,2.37-.54l.18-.09.85.79-.11.09-.21.29-.41.51-.54.63a4.74,4.74,0,0,1-.52.51Q190.27,39,190,38.88Z"/><path class="cls-9" d="M198.42,40.87h-1.08l0-.45h-2.84c0,.13,0,.28,0,.45h-1.08c0-.21,0-.38,0-.52V36.14h4.95v4.73Zm-1.06-3.72h-2.84v2.27h2.84Z"/><path class="cls-9" d="M182.78,45.81h.43v1l-.43,0H182V47a3.44,3.44,0,0,1-.59,2,3.79,3.79,0,0,1-1.77,1.31,5.05,5.05,0,0,0-.82-.75,3.34,3.34,0,0,0,1.65-1A2.45,2.45,0,0,0,181,47V46.8h-1.34v1.39H178.6V46.8h-.88l-.44,0v-1h1.32v-.6a4.76,4.76,0,0,0,0-.65l1.09.09a1.88,1.88,0,0,0,0,.23,2.62,2.62,0,0,0,0,.27v.66H181v-.76c0-.11,0-.28,0-.5l1.1.08c0,.08,0,.19,0,.32s0,.25,0,.34v.52Z"/><path class="cls-9" d="M189.29,47v1.08h-5.53V47h5.53Z"/><path class="cls-9" d="M194.69,45.28l.77.59-.11.13a9.42,9.42,0,0,1-.89,1.8,7.27,7.27,0,0,1-1.31,1.52,7.88,7.88,0,0,1-1.77,1.17,2.63,2.63,0,0,0-.29-.29c-.13-.11-.24-.21-.34-.28a1.59,1.59,0,0,0-.24-.17c.19-.07.36-.16.53-.24l.48-.28c.16-.1.35-.23.57-.4a7.11,7.11,0,0,0,.7-.62,6.41,6.41,0,0,0,.72-.87,4.67,4.67,0,0,0,.57-1.05h-1.65a10.34,10.34,0,0,1-.78,1,6,6,0,0,1-.83.74l-.23-.2-.35-.26-.32-.19a5.65,5.65,0,0,0,.65-.53,8.66,8.66,0,0,0,.79-.86,8.3,8.3,0,0,0,.66-1,4,4,0,0,0,.36-.79l1.1.32a.48.48,0,0,0-.09.13l-.09.15a5.2,5.2,0,0,1-.27.51h1.56Z"/><path class="cls-9" d="M196.76,46.38v-.85c0-.25,0-.45,0-.62l1.11.07c0,.1,0,.58,0,1.43a10,10,0,0,1-.06,1.11,4.52,4.52,0,0,1-.22,1,4.07,4.07,0,0,1-.45.88,6,6,0,0,1-.83.91l-.24-.21-.35-.29-.33-.25A3.61,3.61,0,0,0,196,49a2.84,2.84,0,0,0,.44-.7,3.66,3.66,0,0,0,.24-.85A6.85,6.85,0,0,0,196.76,46.38Zm4.79.31a4.35,4.35,0,0,0,.2.56,4.83,4.83,0,0,0,.24.5,10.11,10.11,0,0,1-2.31,2,.81.81,0,0,0-.2.16l-.86-.7a.29.29,0,0,0,.1-.19V45.28a5.07,5.07,0,0,0,0-.55l1.1.07a1.11,1.11,0,0,0,0,.23c0,.06,0,.17,0,.33l0,3.08a6.81,6.81,0,0,0,.61-.44,6.51,6.51,0,0,0,.68-.63A5.7,5.7,0,0,0,201.55,46.69Z"/><path class="cls-9" d="M229.88,41.23c0,1,0,1.69,0,2.2a5.55,5.55,0,0,1-.17,1.21,1.6,1.6,0,0,1-.35.69,1.27,1.27,0,0,1-.61.32,5,5,0,0,1-1.11.09c-.06-.2-.13-.43-.21-.67s-.15-.4-.19-.49a2,2,0,0,0,.46.09,3.08,3.08,0,0,0,.48,0,.47.47,0,0,0,.39-.19,1.71,1.71,0,0,0,.23-.71,10.35,10.35,0,0,0,.09-1.62h-1.35a4.73,4.73,0,0,1-2.37,3.65,4.9,4.9,0,0,0-.39-.43c-.15-.15-.29-.27-.41-.38a4.09,4.09,0,0,0,.67-.4,3.62,3.62,0,0,0,.61-.57,3,3,0,0,0,.51-.8,4.63,4.63,0,0,0,.34-1.07h-1.32l-.46,0v-1l.46,0h1.44c0-.24,0-.48,0-.73s0-.49,0-.58l1.1.06a1.34,1.34,0,0,0,0,.43c0,.31,0,.58,0,.82Z"/><path class="cls-9" d="M232.33,43.3a6.21,6.21,0,0,0-.88-.46c-.37-.16-.66-.28-.87-.35l.39-.87c.24.08.56.2.94.36a5.32,5.32,0,0,1,.84.42Zm3.54-2.36.67,1a6.61,6.61,0,0,1-1.1,1.45A9,9,0,0,1,234,44.62a11.22,11.22,0,0,1-1.85,1l-.2.11-.12.06-.71-1a7.4,7.4,0,0,0,1.53-.61,8.43,8.43,0,0,0,1.36-.9,7.41,7.41,0,0,0,1.12-1.12A5.81,5.81,0,0,0,235.87,40.94Zm-2.86.78a5.29,5.29,0,0,0-.83-.43,6.67,6.67,0,0,0-.88-.35l.38-.87a4.61,4.61,0,0,1,.61.23c.26.1.49.21.68.3a4.19,4.19,0,0,1,.43.25Zm2.42-1.89a3,3,0,0,1,.38.4,3.59,3.59,0,0,1,.32.44l-.49.3a4.36,4.36,0,0,0-.32-.46,4,4,0,0,0-.35-.4Zm.74-.4.21.19.27.32a3.5,3.5,0,0,1,.23.3l-.47.3a5.07,5.07,0,0,0-.33-.45,3.58,3.58,0,0,0-.37-.39Z"/><path class="cls-9" d="M237.23,45.73l-.48-.44-.45-.35a5.62,5.62,0,0,0,1.21-.71,6.68,6.68,0,0,0,1.12-1.08,7.49,7.49,0,0,0,.91-1.4,6.75,6.75,0,0,0,.58-1.61l1.12.47a1.54,1.54,0,0,0-.17.34,9.13,9.13,0,0,1-.61,1.4,8.42,8.42,0,0,1-.83,1.3,8.29,8.29,0,0,1-1.08,1.14A8.12,8.12,0,0,1,237.23,45.73Z"/><path class="cls-9" d="M35.32,151.28V146h1.24v4.3h2.09v1Z"/><path class="cls-9" d="M39.36,151.28V146h3.32v.94H40.57v1.19h2v.92h-2v1.28h2.16v.95Z"/><path class="cls-9" d="M48.16,151.08a4.71,4.71,0,0,1-.84.2,6.73,6.73,0,0,1-.88.06,3.52,3.52,0,0,1-1.6-.34,2.42,2.42,0,0,1-1-1,2.79,2.79,0,0,1-.34-1.4,2.7,2.7,0,0,1,.22-1.12,2.28,2.28,0,0,1,.62-.85,2.75,2.75,0,0,1,1-.53,4,4,0,0,1,1.24-.18,4.57,4.57,0,0,1,1.51.21l-.09,1a3.09,3.09,0,0,0-.63-.22,3.84,3.84,0,0,0-.76-.08,2,2,0,0,0-.9.2,1.42,1.42,0,0,0-.65.59,1.85,1.85,0,0,0-.24,1,2,2,0,0,0,.12.71,1.5,1.5,0,0,0,.34.56,1.48,1.48,0,0,0,.55.35,2,2,0,0,0,.72.12,1.91,1.91,0,0,0,.54-.06v-1.17H46v-.91h2.16Z"/><path class="cls-9" d="M54.27,148.62A3.25,3.25,0,0,1,54,150a2.26,2.26,0,0,1-.91,1,2.76,2.76,0,0,1-1.43.36,2.69,2.69,0,0,1-1.41-.36,2.19,2.19,0,0,1-.9-1,3,3,0,0,1-.31-1.41,3.17,3.17,0,0,1,.19-1.14,2.26,2.26,0,0,1,.52-.86,2.17,2.17,0,0,1,.84-.54,3.23,3.23,0,0,1,1.11-.19,3,3,0,0,1,.63.07,2.6,2.6,0,0,1,.68.23,2.33,2.33,0,0,1,.59.44,2.42,2.42,0,0,1,.42.62,2.77,2.77,0,0,1,.22.71A4,4,0,0,1,54.27,148.62Zm-1.29,0a3.7,3.7,0,0,0,0-.59,2.17,2.17,0,0,0-.16-.49,1.29,1.29,0,0,0-.26-.37,1.15,1.15,0,0,0-.33-.25,1,1,0,0,0-.35-.1,1,1,0,0,0-.21,0,1.18,1.18,0,0,0-.53.12,1.34,1.34,0,0,0-.42.37,1.64,1.64,0,0,0-.27.58,2.83,2.83,0,0,0,0,1.49,1.9,1.9,0,0,0,.28.57,1.14,1.14,0,0,0,.43.36,1.27,1.27,0,0,0,.55.13,1.15,1.15,0,0,0,.41-.08,1.13,1.13,0,0,0,.35-.21,1.29,1.29,0,0,0,.28-.33,1.62,1.62,0,0,0,.19-.44,2.67,2.67,0,0,0,.08-.45C53,148.8,53,148.71,53,148.65Z"/><path class="cls-9" d="M40.6,155v4.21l0,.6c0,.58-.59.86-1.77.86-.09-.2-.25-.52-.46-1a6.28,6.28,0,0,0,.76.06.94.94,0,0,0,.38,0,.19.19,0,0,0,.12-.18v-4.07H35.79v4.68c0,.15,0,.32,0,.51h-1c0-.19,0-.36,0-.51v-5.3l0-.28h5.8ZM39,156.74H36.09V156h3.28v.79Zm-1.78,2.62v.38h-.86v-2.6h2.78c0,.05,0,.14,0,.26v2Zm0-.77h1.06v-.67H37.17Z"/><path class="cls-9" d="M44.33,155.69a10.31,10.31,0,0,1-.48,2.67,6.55,6.55,0,0,1,.69.41c-.18.35-.35.64-.51.89-.09-.08-.29-.22-.58-.42a4,4,0,0,1-1.51,1.47,8,8,0,0,0-.62-.77,3.4,3.4,0,0,0,1.37-1.18c-.38-.24-.76-.45-1.13-.65.06-.21.13-.45.2-.72s.14-.56.2-.85h-.5v-.86h.66c.05-.25.09-.5.12-.74s.06-.48.08-.69l.94.12a.86.86,0,0,0-.06.23c-.06.4-.13.76-.19,1.08Zm-1.77,2,.53.26a4.58,4.58,0,0,0,.21-.68,6.8,6.8,0,0,0,.15-.76h-.61C42.71,157.11,42.61,157.5,42.56,157.72Zm5-.67H48V158H46.9a6.4,6.4,0,0,1,.05.91,3.85,3.85,0,0,1-.07.82,1.35,1.35,0,0,1-.23.54,1,1,0,0,1-.42.31,1.89,1.89,0,0,1-.63.1l-.45,0a2.21,2.21,0,0,0-.14-.43l-.21-.53.29,0a1.89,1.89,0,0,0,.32,0,.71.71,0,0,0,.37-.07.45.45,0,0,0,.16-.27,2.34,2.34,0,0,0,.05-.6,6.65,6.65,0,0,0,0-.81H44.43v-.91h1.32a2.71,2.71,0,0,0-.2-.42,1.35,1.35,0,0,0-.24-.35l.81-.38,0,0v0c.14-.15.28-.32.43-.5H44.52v-.87h2.6l.07-.07a4.41,4.41,0,0,1,.39.28,4.8,4.8,0,0,1,.39.32l-.12.06a5.8,5.8,0,0,1-.41.59c-.17.2-.32.38-.47.54l-.38.36c0,.08.08.2.13.37Z"/><path class="cls-9" d="M50.22,156.67a7.66,7.66,0,0,1-.66.45,7.48,7.48,0,0,1-.67.36c-.06-.11-.14-.25-.25-.42a4.42,4.42,0,0,0-.31-.43,5.8,5.8,0,0,0,.82-.42,8.59,8.59,0,0,0,.84-.59,7.48,7.48,0,0,0,.76-.72,3.83,3.83,0,0,0,.53-.75l1,.19-.07.08a2.72,2.72,0,0,0,.24.34,3.89,3.89,0,0,0,.35.37,6.11,6.11,0,0,0,.5.45,9.39,9.39,0,0,0,.78.53,5.72,5.72,0,0,0,.92.47c-.08.13-.16.29-.25.47a4.36,4.36,0,0,0-.2.44c-.2-.09-.41-.2-.64-.33a6.59,6.59,0,0,1-.7-.47v.47h-3Zm-.93,1h5.59v.89H53.35a13.69,13.69,0,0,1,1.28,1.83l-.93.46a5.76,5.76,0,0,0-.31-.6c-.44.06-1.09.13-2,.22s-1.53.16-2,.18a3.71,3.71,0,0,0-.44.07l-.24-1h.59l.4,0q.19-.39.33-.72c.08-.22.14-.36.17-.44H48.58v-.89Zm2.42-2.5a7.34,7.34,0,0,1-1.09,1.15h2.17A7.76,7.76,0,0,1,51.71,155.18Zm1.17,4.25c-.17-.26-.35-.5-.53-.73l.34-.15H51.34c-.11.28-.27.64-.47,1.09Z"/><path class="cls-9" d="M119.37,150.81h.43v.95h-2.66v1h2v3.41h-1v-.3h-3v.3h-1a2.75,2.75,0,0,0,0-.34v-2.74a2.65,2.65,0,0,0,0-.33h1.91v-2.71c0-.15,0-.25,0-.3l1,0v1ZM118.19,155v-1.31h-3V155Z"/><path class="cls-9" d="M122.49,155.75a1.35,1.35,0,0,1-.71-.19,1.63,1.63,0,0,1-.58-.61,3.25,3.25,0,0,1-.38-1.07,8.38,8.38,0,0,1-.13-1.5q0-.36,0-1c0-.43,0-.7,0-.82l1,.16a5.77,5.77,0,0,0-.1.82c0,.39,0,.75,0,1.07,0,.17,0,.36,0,.56a4.44,4.44,0,0,0,.08.56,2.7,2.7,0,0,0,.16.48,1,1,0,0,0,.24.33.41.41,0,0,0,.26.12c.15,0,.27-.12.37-.38a3.9,3.9,0,0,0,.19-1.14l.83.86a3.78,3.78,0,0,1-.18.7,2.88,2.88,0,0,1-.28.53,1.93,1.93,0,0,1-.32.32,1.15,1.15,0,0,1-.29.15A.87.87,0,0,1,122.49,155.75Zm3.18-1.36a3.18,3.18,0,0,0-.15-.8,4.76,4.76,0,0,0-.33-.86,4.45,4.45,0,0,0-.45-.77,2.51,2.51,0,0,0-.51-.55l.83-.49a3.18,3.18,0,0,1,.52.56,5.58,5.58,0,0,1,1,2.53Z"/><path class="cls-9" d="M130.52,150.38a3.5,3.5,0,0,1,.7.08,3,3,0,0,1,1.45.81,2.43,2.43,0,0,1,.5.78,2.49,2.49,0,0,1,.18,1,3.34,3.34,0,0,1-.07.68,2.9,2.9,0,0,1-.26.73,2.75,2.75,0,0,1-.48.64,3.23,3.23,0,0,1-.63.47,4.1,4.1,0,0,1-.69.31,3.89,3.89,0,0,1-.6.16,1.66,1.66,0,0,1-.17-.2c-.09-.11-.18-.22-.28-.32a3.63,3.63,0,0,0-.34-.34l.5-.08a3,3,0,0,0,1-.38,1.87,1.87,0,0,0,.48-.38,1.85,1.85,0,0,0,.36-.57,2,2,0,0,0,.13-.74,1.77,1.77,0,0,0-.1-.61,1.81,1.81,0,0,0-.26-.48,1.62,1.62,0,0,0-.34-.31,1.13,1.13,0,0,0-.35-.17,1.65,1.65,0,0,0-.32-.08,9.08,9.08,0,0,1-.22,1.11c-.1.35-.2.63-.28.85s-.19.43-.29.63a5.78,5.78,0,0,1-.42.64,2.32,2.32,0,0,1-.59.54,1.3,1.3,0,0,1-.7.21,1.22,1.22,0,0,1-.54-.12,1.27,1.27,0,0,1-.42-.35,1.71,1.71,0,0,1-.27-.54,2.56,2.56,0,0,1-.09-.69,3.72,3.72,0,0,1,.06-.64,3.37,3.37,0,0,1,.23-.7,3.72,3.72,0,0,1,.43-.69,3.14,3.14,0,0,1,.68-.62,3.05,3.05,0,0,1,.91-.43A3.5,3.5,0,0,1,130.52,150.38Zm-2,4a.42.42,0,0,0,.22-.09,1.21,1.21,0,0,0,.31-.3,3.48,3.48,0,0,0,.34-.55c.11-.22.21-.46.31-.72a6.11,6.11,0,0,0,.21-.75c0-.24.08-.45.1-.62a1.74,1.74,0,0,0-.76.24,2.46,2.46,0,0,0-1,1.23,2.13,2.13,0,0,0-.14.72,1.76,1.76,0,0,0,0,.42.69.69,0,0,0,.13.3A.29.29,0,0,0,128.48,154.34Z"/><path class="cls-9" d="M140.26,152.09h-.4v1.45H138V154h2.08v2.25h-.88V156H138l0,.26h-.9a3,3,0,0,0,0-.39v-3.73h-.33a1.77,1.77,0,0,0,0-.22v-.82a3.27,3.27,0,0,0-.24.59,3.59,3.59,0,0,1-.57-.46,4.3,4.3,0,0,1-.52-.61c-.11.16-.24.32-.37.48h.41l.36,0v.63h.75V154h-1.59v1l.76-.21c-.09-.17-.18-.33-.28-.49l.63-.22a7,7,0,0,1,.43.66,8.22,8.22,0,0,1,.42.84l-.71.32-.17-.45c-.58.17-1.21.34-1.87.51l-.33.11-.1-.8.37-.06h.07v-3.39l-.21.14a7.22,7.22,0,0,0-.32-.8,4.41,4.41,0,0,0,1.08-1,2.41,2.41,0,0,0,.29-.47l.8.13,0,.09a1.66,1.66,0,0,0,.2.26,4,4,0,0,0,.35.31,2.94,2.94,0,0,0,.42.27v-.23a1.62,1.62,0,0,0,0-.21h1.23V150l0-.18h.5l.45,0v.54h1.28v1.71Zm-5.14-.87v-.15a4.87,4.87,0,0,1-.65.64h.65Zm.75,1.07h-.81v.29h.81Zm-.81,1.15h.81v-.3h-.81Zm4.31-2.31h-1.65v.48h1.65ZM138,152.82h1v-.48h-1Zm1.2,1.86H138v.55h1.2Z"/><path class="cls-9" d="M177.21,199.31h.73v.94h-6.35v-.94h2.7v-1.2h-1.15l-.57,0v-.91h1.72v-1h-1.22c-.13.27-.27.53-.41.76a4.37,4.37,0,0,1-.43.58,6,6,0,0,0-.73-.74,3.64,3.64,0,0,0,.5-.67,4.62,4.62,0,0,0,.45-1,4.55,4.55,0,0,0,.26-1l1,.2-.05.11c-.06.28-.13.55-.21.8h.87v-.87c0-.14,0-.27,0-.39H175l.36,0c0,.15,0,.27,0,.37v.86h2.09v.92h-2.09v1h1.92v.91l-.56,0h-1.36v1.2Z"/><path class="cls-9" d="M183.49,199.45a10,10,0,0,0,1.58-.12l-.18.9a11.18,11.18,0,0,1-1.45.09,3.05,3.05,0,0,1-.6-.06,2.53,2.53,0,0,1-.57-.18,1.67,1.67,0,0,1-.47-.33,1.84,1.84,0,0,1-.36-.46,6,6,0,0,1-.29.63,3.32,3.32,0,0,1-.32.5l-.63-.66v.31c0,.11,0,.23,0,.37h-1a3.35,3.35,0,0,0,0-.37c0-.16,0-.48,0-1s0-.91,0-1.3a3.61,3.61,0,0,1-.36.35l-.18.14c0-.06-.06-.17-.11-.33s-.14-.35-.25-.58a5,5,0,0,0,1-.86,5.29,5.29,0,0,0,.72-1l.68.51-.08.09,0,.08h1.59v-.67h-1.39v-.84h1.39v-.49a2.09,2.09,0,0,0,0-.24h.5l.45,0a1.62,1.62,0,0,0,0,.21v.48h1.39v.84H183.2v.67h1.69v.86H183.2v.67h1.52v.85H183.2v.87Zm-2.86-4.91a6.52,6.52,0,0,1-.43.51,6.14,6.14,0,0,1-.63.61,4.61,4.61,0,0,1-.63.47.24.24,0,0,1,0-.07l-.13-.26a4.09,4.09,0,0,0-.31-.49A2.69,2.69,0,0,0,179,195a5.56,5.56,0,0,0,.6-.52,3.19,3.19,0,0,0,.42-.53l.71.54Zm1.12,3.66a1.14,1.14,0,0,0,.52,1v-2.12h-1.69v-.71l-.38.54v2.77a4.52,4.52,0,0,0,.32-.55,4.22,4.22,0,0,0,.32-.84,4.84,4.84,0,0,0,.17-.9l.86.2,0,.11C181.81,197.81,181.79,198,181.75,198.2Z"/><path class="cls-9" d="M187.26,196.38a7.66,7.66,0,0,1-.66.45c-.23.14-.45.26-.67.37a2.54,2.54,0,0,0-.25-.42,4.42,4.42,0,0,0-.31-.43,5.8,5.8,0,0,0,.82-.42,7.28,7.28,0,0,0,.84-.6,5.74,5.74,0,0,0,.76-.71,4.54,4.54,0,0,0,.53-.75l1,.18-.07.09a2.69,2.69,0,0,0,.24.33c.1.12.22.25.35.38a5.08,5.08,0,0,0,.51.44,6.31,6.31,0,0,0,.77.53,5.34,5.34,0,0,0,.92.47c-.07.13-.16.29-.25.48a3.54,3.54,0,0,0-.2.44c-.19-.09-.41-.2-.63-.33a6.83,6.83,0,0,1-.71-.48v.47h-3Zm-.93,1h5.59v.89h-1.53a13.46,13.46,0,0,1,1.29,1.83l-.94.46a4.79,4.79,0,0,0-.3-.6c-.44.06-1.1.13-2,.22s-1.53.15-2,.18l-.44.06-.24-1h1c.12-.26.23-.5.32-.72s.15-.37.17-.44h-1.68v-.89Zm2.43-2.49a9.09,9.09,0,0,1-1.1,1.15h2.17A8.16,8.16,0,0,1,188.76,194.9Zm1.17,4.25c-.18-.26-.36-.5-.54-.73l.35-.15h-1.35c-.12.28-.27.64-.47,1.08C188.63,199.29,189.3,199.22,189.93,199.15Z"/><path class="cls-9" d="M195.89,194.6a2.82,2.82,0,0,1,.69.08,3.1,3.1,0,0,1,.75.27,2.8,2.8,0,0,1,.71.53,2.54,2.54,0,0,1,.5.78,2.58,2.58,0,0,1,.18,1,3.41,3.41,0,0,1-.07.68,2.59,2.59,0,0,1-.27.73,2.26,2.26,0,0,1-.47.63,3.06,3.06,0,0,1-.64.48,4.19,4.19,0,0,1-.69.31,4.86,4.86,0,0,1-.59.16l-.17-.21-.28-.32c-.09-.1-.21-.22-.34-.34l.5-.07a3.28,3.28,0,0,0,.51-.15,3.14,3.14,0,0,0,.5-.23,2.11,2.11,0,0,0,.48-.38,2,2,0,0,0,.36-.58,1.9,1.9,0,0,0,.13-.73,1.77,1.77,0,0,0-.1-.61,1.73,1.73,0,0,0-.26-.49,1.56,1.56,0,0,0-.34-.3,1.46,1.46,0,0,0-.35-.18,1.56,1.56,0,0,0-.32-.07,7.51,7.51,0,0,1-.23,1.11,5.84,5.84,0,0,1-.28.84,4.51,4.51,0,0,1-.29.63,3.6,3.6,0,0,1-.41.64,2.34,2.34,0,0,1-.59.55,1.32,1.32,0,0,1-.7.21,1.19,1.19,0,0,1-.54-.12,1.27,1.27,0,0,1-.42-.35,1.57,1.57,0,0,1-.27-.55,2.48,2.48,0,0,1-.09-.68,3.63,3.63,0,0,1,.06-.64,3.24,3.24,0,0,1,.66-1.39,2.91,2.91,0,0,1,.68-.62,3.34,3.34,0,0,1,.91-.44A3.83,3.83,0,0,1,195.89,194.6Zm-2,4a.4.4,0,0,0,.22-.08,1.28,1.28,0,0,0,.31-.31,3.07,3.07,0,0,0,.34-.55,5.23,5.23,0,0,0,.3-.71,6.22,6.22,0,0,0,.22-.75c0-.24.08-.45.1-.63a1.9,1.9,0,0,0-.76.25,2.38,2.38,0,0,0-.61.53,2.41,2.41,0,0,0-.39.7,2.13,2.13,0,0,0-.14.72,1.76,1.76,0,0,0,0,.42.6.6,0,0,0,.13.29A.29.29,0,0,0,193.85,198.55Z"/><path class="cls-9" d="M200.36,196.77v3.16c0,.14,0,.31,0,.51h-.94c0-.2,0-.37,0-.51v-5.46l0-.27h2.81v2.57Zm1-1.9h-1v.31h1Zm-1,1.23h1v-.33h-1Zm5.06-1.48V199l0,.64a.57.57,0,0,1-.09.32.65.65,0,0,1-.26.26,1.39,1.39,0,0,1-.44.17,3.06,3.06,0,0,1-.63.06l-.28-.64h-1.89v.34H201a2.11,2.11,0,0,0,0-.29v-2.42a2.11,2.11,0,0,0,0-.29h2.79v2.39l.36,0a.65.65,0,0,0,.22,0,.18.18,0,0,0,.12-.07.43.43,0,0,0,0-.11v-2.57h-1.87a2.62,2.62,0,0,0,0-.27v-2a2.62,2.62,0,0,0,0-.27h2.8ZM203,197.79h-1.1v.36H203Zm-1.1,1.35H203v-.38h-1.1Zm2.66-4.27h-1v.31h1Zm-1,1.23h1v-.33h-1Z"/><path class="cls-9" d="M76.36,151.28V146H77.6v4.3h2.09v1Z"/><path class="cls-9" d="M80.4,151.28V146h3.32v.94H81.61v1.19h2v.92h-2v1.28h2.16v.95Z"/><path class="cls-9" d="M89.2,151.08a4.71,4.71,0,0,1-.84.2,6.73,6.73,0,0,1-.88.06,3.52,3.52,0,0,1-1.6-.34,2.42,2.42,0,0,1-1-1,2.79,2.79,0,0,1-.34-1.4,2.7,2.7,0,0,1,.22-1.12,2.28,2.28,0,0,1,.62-.85,2.75,2.75,0,0,1,1-.53,4,4,0,0,1,1.24-.18,4.57,4.57,0,0,1,1.51.21l-.09,1a3.09,3.09,0,0,0-.63-.22,3.84,3.84,0,0,0-.76-.08,2,2,0,0,0-.9.2,1.42,1.42,0,0,0-.65.59,1.85,1.85,0,0,0-.24,1,2,2,0,0,0,.12.71,1.5,1.5,0,0,0,.34.56,1.48,1.48,0,0,0,.55.35,2,2,0,0,0,.72.12,1.91,1.91,0,0,0,.54-.06v-1.17H87v-.91H89.2Z"/><path class="cls-9" d="M95.31,148.62A3.25,3.25,0,0,1,95,150a2.26,2.26,0,0,1-.91,1,2.76,2.76,0,0,1-1.43.36,2.69,2.69,0,0,1-1.41-.36,2.19,2.19,0,0,1-.9-1,3.43,3.43,0,0,1-.12-2.55,2.26,2.26,0,0,1,.52-.86,2.17,2.17,0,0,1,.84-.54,3.23,3.23,0,0,1,1.11-.19,3,3,0,0,1,.63.07,2.6,2.6,0,0,1,.68.23,2.33,2.33,0,0,1,.59.44,2.42,2.42,0,0,1,.42.62,2.77,2.77,0,0,1,.22.71A4,4,0,0,1,95.31,148.62Zm-1.29,0a3.7,3.7,0,0,0,0-.59,2.17,2.17,0,0,0-.16-.49,1.29,1.29,0,0,0-.26-.37,1.15,1.15,0,0,0-.33-.25,1,1,0,0,0-.35-.1,1,1,0,0,0-.21,0,1.18,1.18,0,0,0-.53.12,1.34,1.34,0,0,0-.42.37,1.64,1.64,0,0,0-.27.58,2.83,2.83,0,0,0,0,1.49,1.9,1.9,0,0,0,.28.57,1.14,1.14,0,0,0,.43.36,1.27,1.27,0,0,0,.55.13,1.15,1.15,0,0,0,.41-.08,1.13,1.13,0,0,0,.35-.21,1.29,1.29,0,0,0,.28-.33,1.62,1.62,0,0,0,.19-.44,2.67,2.67,0,0,0,.08-.45C94,148.8,94,148.71,94,148.65Z"/><path class="cls-9" d="M81.64,155v4.21l0,.6c0,.58-.59.86-1.77.86-.09-.2-.25-.52-.46-1a6.28,6.28,0,0,0,.76.06.94.94,0,0,0,.38,0,.19.19,0,0,0,.12-.18v-4.07H76.83v4.68c0,.15,0,.32,0,.51h-1c0-.19,0-.36,0-.51v-5.3l0-.28h5.8ZM80,156.74H77.13V156h3.28v.79Zm-1.78,2.62v.38h-.86v-2.6h2.78c0,.05,0,.14,0,.26v2Zm0-.77h1.06v-.67H78.21Z"/><path class="cls-9" d="M85.37,155.69a10.31,10.31,0,0,1-.48,2.67,6.55,6.55,0,0,1,.69.41c-.18.35-.35.64-.51.89-.09-.08-.29-.22-.58-.42A4,4,0,0,1,83,160.71a8,8,0,0,0-.62-.77,3.4,3.4,0,0,0,1.37-1.18c-.38-.24-.76-.45-1.13-.65.06-.21.13-.45.2-.72s.14-.56.2-.85h-.5v-.86h.66c0-.25.09-.5.12-.74s.06-.48.08-.69l.94.12a.86.86,0,0,0-.06.23c-.06.4-.13.76-.19,1.08Zm-1.77,2,.53.26a4.58,4.58,0,0,0,.21-.68,6.8,6.8,0,0,0,.15-.76h-.61C83.75,157.11,83.65,157.5,83.6,157.72Zm5-.67H89V158h-1.1a6.4,6.4,0,0,1,0,.91,3.85,3.85,0,0,1-.07.82,1.35,1.35,0,0,1-.23.54,1,1,0,0,1-.42.31,1.89,1.89,0,0,1-.63.1l-.45,0a2.21,2.21,0,0,0-.14-.43c-.08-.21-.14-.38-.21-.53l.29,0a1.89,1.89,0,0,0,.32,0,.71.71,0,0,0,.37-.07.45.45,0,0,0,.16-.27,2.34,2.34,0,0,0,0-.6,6.65,6.65,0,0,0,0-.81H85.47v-.91h1.32a2.71,2.71,0,0,0-.2-.42,1.35,1.35,0,0,0-.24-.35l.81-.38,0,0v0c.14-.15.28-.32.43-.5H85.56v-.87h2.6l.07-.07a4.41,4.41,0,0,1,.39.28,4.8,4.8,0,0,1,.39.32l-.12.06a5.8,5.8,0,0,1-.41.59c-.17.2-.32.38-.47.54l-.38.36c0,.08.08.2.13.37Z"/><path class="cls-9" d="M91.26,156.67a7.66,7.66,0,0,1-.66.45,7.48,7.48,0,0,1-.67.36c-.06-.11-.14-.25-.25-.42a4.42,4.42,0,0,0-.31-.43,5.8,5.8,0,0,0,.82-.42,8.59,8.59,0,0,0,.84-.59,7.48,7.48,0,0,0,.76-.72,3.83,3.83,0,0,0,.53-.75l1,.19-.07.08a2.72,2.72,0,0,0,.24.34,3.89,3.89,0,0,0,.35.37,6.11,6.11,0,0,0,.5.45,9.39,9.39,0,0,0,.78.53,5.72,5.72,0,0,0,.92.47c-.08.13-.16.29-.25.47a4.36,4.36,0,0,0-.2.44c-.2-.09-.41-.2-.64-.33a6.59,6.59,0,0,1-.7-.47v.47h-3Zm-.93,1h5.59v.89H94.39a13.69,13.69,0,0,1,1.28,1.83l-.93.46a5.76,5.76,0,0,0-.31-.6c-.44.06-1.09.13-2,.22s-1.53.16-2,.18a3.71,3.71,0,0,0-.44.07l-.24-1h.59l.4,0q.19-.39.33-.72c.08-.22.14-.36.17-.44H89.62v-.89Zm2.42-2.5a7.34,7.34,0,0,1-1.09,1.15h2.17A7.76,7.76,0,0,1,92.75,155.18Zm1.17,4.25c-.17-.26-.35-.5-.53-.73l.34-.15H92.38c-.11.28-.27.64-.47,1.09Z"/><path class="cls-9" d="M155.78,143.41h4.34v.87l-.4,0h-1.41a3.37,3.37,0,0,1-.49,1.53,2.83,2.83,0,0,1-1.19,1l-.29-.29a5.78,5.78,0,0,0-.46-.36,3.05,3.05,0,0,0,.65-.35,2.1,2.1,0,0,0,.45-.44,1.75,1.75,0,0,0,.26-.51,3.21,3.21,0,0,0,.13-.59h-1.59l-.41,0v-.87Zm3.42-1.57.38-.26.16.19.23.31a2.94,2.94,0,0,1,.18.3l-.41.28a2.22,2.22,0,0,0-.22-.37c-.09-.15-.18-.27-.26-.38v.87h-3.33v-.88l.4,0h2.52l.39,0Zm1-.59a3.5,3.5,0,0,1,.31.37,2.81,2.81,0,0,1,.27.4l-.39.28a3.46,3.46,0,0,0-.26-.42,2.51,2.51,0,0,0-.31-.37Z"/><path class="cls-9" d="M159.73,146.22l.75.6a.85.85,0,0,0-.16.17c-.3.31-.61.61-.94.91v2.35c0,.11,0,.25,0,.43h-.93c0-.17,0-.31,0-.44l.05-1.71c-.19.15-.41.3-.66.46a7.23,7.23,0,0,1-.71.39,3.88,3.88,0,0,0-.32-.37,2.52,2.52,0,0,0-.33-.33,7.21,7.21,0,0,0,.9-.43,9.29,9.29,0,0,0,.93-.61,7.27,7.27,0,0,0,.82-.72A3.82,3.82,0,0,0,159.73,146.22Z"/><path class="cls-9" d="M160.55,154.74l-.58.84-.82-.74c-.4-.36-.86-.82-1.38-1.36a1.43,1.43,0,0,0-.34-.32.32.32,0,0,0-.18-.06.35.35,0,0,0-.18.05.9.9,0,0,0-.25.28c-.3.41-.54.74-.71,1l-.19.29-.86-.71.35-.35L156,153c.26-.32.44-.52.52-.61a1.11,1.11,0,0,1,.32-.26.81.81,0,0,1,.38-.08,1,1,0,0,1,.44.09,1.65,1.65,0,0,1,.45.34A27.74,27.74,0,0,0,160.55,154.74Zm-1.5-3.2a2.75,2.75,0,0,1,.32.34,3.93,3.93,0,0,1,.28.38l-.42.26a2.65,2.65,0,0,0-.28-.39,3,3,0,0,0-.3-.35Zm.63-.34a1.9,1.9,0,0,1,.18.16l.24.27.19.26-.4.26a4.07,4.07,0,0,0-.28-.38,3.67,3.67,0,0,0-.32-.34Z"/><path class="cls-9" d="M157.22,160.24v-4c0-.19,0-.34,0-.45h1a4,4,0,0,0,0,.45v3.59c0,.2,0,.35,0,.44Z"/><path class="cls-9" d="M159.38,164.19c-.25-.17-.53-.34-.86-.53a10,10,0,0,0-.91-.47v2.08c0,.17,0,.31,0,.42h-1v-4.56c0-.19,0-.35,0-.47l1,.05a2,2,0,0,0,0,.4v1.19c.37.15.76.32,1.17.52a8,8,0,0,1,1,.59Z"/><path class="cls-9" d="M180.54,149.79l-.39.67a3.53,3.53,0,0,0-.38-.34,3.45,3.45,0,0,0-.39-.3l.39-.63.38.28C180.31,149.59,180.44,149.7,180.54,149.79Zm4.15,2.49H185V153h-1.33v.35H183a.92.92,0,0,0,0-.19v-1.63q0-.36,0-1.11l-.05.07-.18-.37v.46h-.75v.18h.78v.54H182l0,.19h.89V152h-.64a1.39,1.39,0,0,0,.32.32,2.39,2.39,0,0,0,.4.23,3.2,3.2,0,0,0-.34.62,3.07,3.07,0,0,1-.5-.39,2.35,2.35,0,0,1-.37-.52,2.11,2.11,0,0,1-.28.45,2.28,2.28,0,0,1-.36.34,2.72,2.72,0,0,1-.34.24l-.43-.65a2.06,2.06,0,0,0,.51-.29,1.14,1.14,0,0,0,.31-.35h-.59v-.53s0,.13-.07.27-.15.55-.35,1.23a2,2,0,0,0-.09.33l-.66-.48a2.14,2.14,0,0,0,.1-.22,9.79,9.79,0,0,0,.3-.94c.11-.4.19-.71.23-.93.29.3.48.49.58.57l0,.14h.77a.84.84,0,0,0,0-.19h-.73v-.54h.76v-.18h-.76a.86.86,0,0,0,0-.15v-.86a.86.86,0,0,0,0-.15h.73v-.21h-.46a.77.77,0,0,0,0-.18v-.32h-.34v-.22l-.13.22q-.12.17-.24.36l-.25-.22a2.21,2.21,0,0,0-.3-.25l-.21-.16s.16-.23.41-.62l.36.28c.15.11.27.22.36.3v-.31h.34v-.31h.66v.29h.36v-.31h.66v.29h.36v.62h-.36V149c0,.09,0,.15,0,.18h-.51v.21h.73v.09a6,6,0,0,0,.22-.82,7.61,7.61,0,0,0,.14-.88l.62.14,0,.08-.15.71h.28c0-.14.07-.29.11-.47a3.5,3.5,0,0,0,.07-.41l.6.14,0,.08-.17.66h.43v.69h-.4v.52h.31v.66h-.31v.52h.31v.66h-.31v.58Zm-3.52-2.47v.28h.27v-.28Zm.76-1.25h-.36v.18h.36Zm.07,1.53h.27v-.28H182Zm1.93-.73h-.31v.52h.31Zm0,1.69v-.52h-.31v.52Zm-.31.65v.58h.31v-.58Z"/><path class="cls-9" d="M184.16,156.68a5.5,5.5,0,0,1-.25.63,4,4,0,0,1-.31.55,2.37,2.37,0,0,0,.51.34,5,5,0,0,0,.91.33l-.33.77a4.3,4.3,0,0,1-1.58-.85,3.48,3.48,0,0,1-.71.51,3.89,3.89,0,0,1-.86.36,1.71,1.71,0,0,0-.09-.22,2.43,2.43,0,0,0-.15-.26c-.06-.1-.12-.18-.17-.25a3.84,3.84,0,0,0,1.49-.73,4.86,4.86,0,0,1-.29-.56c-.09-.21-.17-.43-.25-.68l-.16.15-.16.13-.12-.19c0,.1-.11.22-.17.36s-.11.27-.14.36a3.33,3.33,0,0,1-.38-.69c0,1,.05,1.78.05,2.22,0,.1,0,.22,0,.36h-.81c0-.14,0-.26,0-.36,0-.41,0-1.12,0-2.14a5.49,5.49,0,0,1-.29.78,3.56,3.56,0,0,1-.32.59,2.93,2.93,0,0,0-.12-.34,3.26,3.26,0,0,0-.2-.48,3.19,3.19,0,0,0,.32-.52,4.22,4.22,0,0,0,.3-.65,3.45,3.45,0,0,0,.19-.57h-.71v-.76h.8v-.95a1.41,1.41,0,0,0,0-.18h.42l.39,0v1.1h.49v.76H181c0,.1.08.21.13.32l.17.31.25-.21a2,2,0,0,0,.29-.29,2,2,0,0,0,.24-.32,1.25,1.25,0,0,0,.13-.26h-.73v-.74h1.22v-.54l0-.17.84,0,0,.14v.54h1.36v.74h-2.63l.62.38,0,.07a2.93,2.93,0,0,1-.28.45,4.08,4.08,0,0,1-.36.43l.59-.22a3.69,3.69,0,0,0,.35,1,2.61,2.61,0,0,0,.2-.44,2.35,2.35,0,0,0,.14-.52l.73.31S184.16,156.66,184.16,156.68Zm-2.77-.3.23.3A2.89,2.89,0,0,0,181.39,156.38Zm2.6-1.16a2.58,2.58,0,0,0,.44.55,2.69,2.69,0,0,0,.6.45c-.05.08-.12.19-.19.32s-.14.26-.19.37a4.11,4.11,0,0,1-1.26-1.35Z"/><path class="cls-9" d="M173.88,146.94h-.22v2.85c0,.22,0,.36,0,.44h-.79c0-.08,0-.22,0-.44v-2.85h-.44v-.73h.44v-1.46h.78a2.46,2.46,0,0,0,0,.31v1.12h.49V147Zm3.62,1.43H178V149h-.72v.61a.6.6,0,0,1,0,.22.48.48,0,0,1-.17.21,1.19,1.19,0,0,1-.32.15l-.35.06-.33,0c0-.06-.06-.15-.11-.26s-.12-.28-.21-.47l.21,0h.26a.61.61,0,0,0,.24,0,.15.15,0,0,0,.07-.14V149h-1.45a5.8,5.8,0,0,1,.66.64l-.59.47a3.36,3.36,0,0,0-.27-.36l-.31-.33c-.09-.1-.17-.16-.22-.21l.28-.21H174v-.65h2.55v-.25h-2.2a1.16,1.16,0,0,0,0-.22v-1.59a1.22,1.22,0,0,0,0-.22h1.31v-.23H174v-.61h1.62v-.32a1.41,1.41,0,0,0,0-.18l.78,0v.47h.54a2.27,2.27,0,0,0-.39-.19,4.81,4.81,0,0,1,.4-.36l.36.13.38.18-.25.24h.52v.61h-1.56v.23h1.32v2h-.44v.25Zm-1.86-1.79h-.57v.29h.57Zm-.57.75v.29h.57v-.29Zm1.84-.46v-.29h-.59v.29Zm0,.75v-.29h-.59v.29Z"/><path class="cls-9" d="M177.39,154.77a2.5,2.5,0,0,0,.28.17,3,3,0,0,0,.4.2,2.41,2.41,0,0,1-.07.48.9.9,0,0,1-.17.37.74.74,0,0,1-.38.22,2.57,2.57,0,0,1-.78.08l-.73,0a.78.78,0,0,1-.37-.1.32.32,0,0,1-.14-.17,1,1,0,0,1,0-.27v-.47H175a1.25,1.25,0,0,1-.71.78,3.15,3.15,0,0,1-.65.19c-.26,0-.57.08-.93.1l-.31-.68q.53,0,.87,0a2,2,0,0,0,.57-.12.8.8,0,0,0,.34-.24h-.87a1.7,1.7,0,0,0,0-.22V153.5a2,2,0,0,0,0-.23h3.85v2h-.94v.3a.19.19,0,0,0,0,.08.05.05,0,0,0,.05,0,2.73,2.73,0,0,0,.51,0,1,1,0,0,0,.26,0,.5.5,0,0,0,.16,0,.22.22,0,0,0,.09-.07.57.57,0,0,0,.1-.26A3.36,3.36,0,0,0,177.39,154.77Zm-4.72-1.72s0-.11,0-.21v-2h2.7v.47h-.89v.21h.69v.28a3.28,3.28,0,0,0,.25-.26,2.44,2.44,0,0,0,.28-.39,2.74,2.74,0,0,0,.21-.42l.7.15,0,.07-.14.28h1.47v.62h-1.85a3,3,0,0,1-.39.45h2.06v.62h-2.14v-.54h0a4.24,4.24,0,0,0-.4-.34v.33h-.69v.21h.89v.46h-2.7Zm1.23-1.72h-.59v.21h.59Zm.71.73v-.18h-1.3v.18Zm-.71.54v-.21h-.59v.21Zm2.38,1.07h-2.19v.17h2.19Zm0,.67v-.15h-2.19v.15Zm-2.19.34v.18h2.19v-.18Z"/><path class="cls-9" d="M173.93,158.81l-.56.38c-.2.12-.39.22-.58.31a2.63,2.63,0,0,0-.21-.36,4.28,4.28,0,0,0-.26-.36,6,6,0,0,0,.7-.37,6.24,6.24,0,0,0,.72-.5,5.5,5.5,0,0,0,.65-.62,3.42,3.42,0,0,0,.45-.64l.88.16-.06.07a3.09,3.09,0,0,0,.2.29l.3.32a4.85,4.85,0,0,0,.44.38,6.57,6.57,0,0,0,.66.46,5.87,5.87,0,0,0,.79.4c-.07.11-.14.25-.22.41s-.13.28-.17.37a4.68,4.68,0,0,1-.54-.28,6.52,6.52,0,0,1-.61-.41v.41h-2.58Zm-.79.86h4.79v.77h-1.31a12.25,12.25,0,0,1,1.1,1.57l-.8.39c-.07-.16-.16-.33-.26-.51l-1.69.19c-.75.08-1.31.13-1.69.15l-.37.06-.21-.84h.85c.11-.23.2-.43.28-.62s.12-.32.15-.38h-1.45v-.77Zm2.07-2.14a6.63,6.63,0,0,1-.93,1h1.86A7.19,7.19,0,0,1,175.21,157.53Zm1,3.65a6.41,6.41,0,0,0-.46-.63l.3-.13H174.9c-.1.24-.23.55-.41.93Z"/><path class="cls-9" d="M202.13,146.44a4.2,4.2,0,0,0-.24.38,2,2,0,0,0-.18.35,6,6,0,0,1-1.12-.54,5.35,5.35,0,0,1-1-.76l0,1.14a1.79,1.79,0,0,0,0,.27h-.87a1.79,1.79,0,0,0,0-.27c0-.3,0-.67,0-1.1a6.44,6.44,0,0,1-.55.47,5.41,5.41,0,0,1-.66.44,4.26,4.26,0,0,1-.75.35,2.84,2.84,0,0,0-.21-.31,4.26,4.26,0,0,0-.28-.35,6.3,6.3,0,0,0,1-.43,3.94,3.94,0,0,0,.88-.57h-1.12a2.18,2.18,0,0,0,0-.25v-1.8a1.85,1.85,0,0,0,0-.23h1.61v-.32h-2.23v-.69h2.23v-.31a1.42,1.42,0,0,0,0-.19h.57l.3,0v.47H202v.69h-2.32v.32h1.65v2.28h-1.12a4.55,4.55,0,0,0,.9.53A6.42,6.42,0,0,0,202.13,146.44Zm-3.32-2.62H198v.27h.83Zm-.83.83v.28h.83v-.28Zm2.49-.56v-.27h-.85v.27Zm-.85.84h.85v-.28h-.85Z"/><path class="cls-9" d="M198.79,147.84a2.73,2.73,0,0,0,0,.32v4.57c0,.13,0,.29,0,.47h-.88c0-.18,0-.34,0-.47v-.6l-.89.33-.32.13-.14-1,.36-.09c.19-.05.52-.17,1-.35v-1.31h-1.3v-.83h1.3v-.91c0-.11,0-.23,0-.35h.88Zm2.43,3.25.39.24.43.26a3.54,3.54,0,0,1,0,.53,1.36,1.36,0,0,1-.09.35,1,1,0,0,1-.18.28.87.87,0,0,1-.35.21,2.12,2.12,0,0,1-.7.09,5.26,5.26,0,0,1-.66,0,.88.88,0,0,1-.35-.14.5.5,0,0,1-.17-.27,2,2,0,0,1-.07-.59v-4a1.48,1.48,0,0,0,0-.21l.86.06a.74.74,0,0,0,0,.18v1.51c.25-.16.48-.32.7-.49a3.14,3.14,0,0,0,.48-.44l.52.71-.12.07c-.22.18-.48.36-.77.56s-.57.37-.81.5V152a.19.19,0,0,0,.13.2h.32l.23,0a.38.38,0,0,0,.18-.13,1,1,0,0,0,.07-.33A5.47,5.47,0,0,0,201.22,151.09Z"/><path class="cls-9" d="M199.27,154.61a6.52,6.52,0,0,1-1.1,1.13,6.62,6.62,0,0,1-1.28.83l-.25-.36-.29-.36a6.66,6.66,0,0,0,.7-.36c.24-.15.48-.32.73-.51a6.45,6.45,0,0,0,.65-.62,3.93,3.93,0,0,0,.46-.65l.88.17-.05.06a3.34,3.34,0,0,0,.44.56,6,6,0,0,0,.68.59,5.89,5.89,0,0,0,.73.47,4.2,4.2,0,0,0,.58.28,4.18,4.18,0,0,0-.49.74,4.24,4.24,0,0,1-.57-.31,4.6,4.6,0,0,1-.68-.49,5.1,5.1,0,0,1-.63-.58A6.94,6.94,0,0,1,199.27,154.61Zm.41,3.69h1.67l.64,0v.83h-5.46v-.83l.63,0h.25v-1.53a1.41,1.41,0,0,0,0-.2h.44l.39,0v1.7h.65v-2.52a2.29,2.29,0,0,0,0-.25h.45l.39,0v1.09h1.47v.78h-1.47Z"/><path class="cls-9" d="M201.4,160h.6v.72h-2.35v.49h1.06V164h-2.92a2.35,2.35,0,0,0,0-.26v-2.3a2.35,2.35,0,0,0,0-.26h1.05v-.49h-2.3V160h4.86Zm.36,1.36v3.58a2.67,2.67,0,0,0,0,.36H201c0-.07,0-.17,0-.32H197.5a2.64,2.64,0,0,0,0,.32h-.78a3.24,3.24,0,0,0,0-.36v-3.83h.76v3.16H201v-2.93a1.87,1.87,0,0,0,0-.28h.39l.38,0S201.76,161.23,201.76,161.34Zm-2.86.43h-.41v.46h.41Zm-.41,1.06v.55h.41v-.55Zm1.52-.6v-.46h-.42v.46Zm-.42,1.15H200v-.55h-.42Z"/><path class="cls-9" d="M222.74,146.14a2.44,2.44,0,0,1-.3-.28c-.11-.11-.21-.23-.3-.34,0,.7,0,1.33,0,1.91a2,2,0,0,0,0,.28h-.81a2,2,0,0,0,0-.28c0-.43,0-1,0-1.68a5.61,5.61,0,0,1-.66.51,4.38,4.38,0,0,0-.39-.68,4.67,4.67,0,0,0,.65-.48,6.82,6.82,0,0,0,.6-.61A4.92,4.92,0,0,0,222,144H220.6v-.69h.78v-.65l0-.16h.8v.79h.27l0-.05.26.18.27.24-.09,0c-.06.13-.14.29-.24.47s-.23.38-.38.6a2,2,0,0,0,.29.31l.35.28.26.17c-.09.11-.19.23-.27.35A1,1,0,0,0,222.74,146.14Zm2.86.61H226v.77l-.43,0h-2.54l-.45,0v-.77h1.28V144.9H223v-.75h.93v-1.36a2.81,2.81,0,0,0,0-.3h.86c0,.06,0,.16,0,.29v1.35h1.09v.75h-1.09v1.85Z"/><path class="cls-9" d="M222,150.05a6.65,6.65,0,0,1-.56.36,4.6,4.6,0,0,1-.58.3,1.75,1.75,0,0,0-.21-.34c-.1-.14-.18-.26-.26-.35a7.41,7.41,0,0,0,.7-.34,6.12,6.12,0,0,0,.72-.49,5.17,5.17,0,0,0,.65-.58,3.28,3.28,0,0,0,.45-.61l.88.15-.06.07a3.07,3.07,0,0,0,.2.27,4.24,4.24,0,0,0,.3.31,4.5,4.5,0,0,0,.43.36,6.61,6.61,0,0,0,.67.43,4.29,4.29,0,0,0,.78.38l-.21.39a2.65,2.65,0,0,0-.17.36,4.52,4.52,0,0,1-.54-.27c-.2-.11-.4-.24-.61-.38v.38H222Zm-.79.82H226v.73h-1.31a10.81,10.81,0,0,1,1.09,1.5l-.79.37a3.45,3.45,0,0,0-.27-.49c-.37,0-.94.11-1.68.18l-1.69.15-.38.05-.2-.8h.85c.11-.21.2-.41.28-.59s.12-.3.15-.36h-1.45v-.73Zm2.07-2a6.86,6.86,0,0,1-.93.94h1.86A7.49,7.49,0,0,1,223.24,148.84Zm1,3.46a5.39,5.39,0,0,0-.45-.59l.29-.13h-1.15c-.1.23-.23.52-.41.89Z"/><path class="cls-9" d="M225.57,157.5l-.1,0v1.06c0,.12,0,.26,0,.43h-.81c0-.17,0-.31,0-.43v-.94l-1.5.22-.4.07,0-.49,0,.09a3,3,0,0,1-.5-.67c0,.24,0,.55,0,.94s0,.69,0,.9a2.12,2.12,0,0,0,0,.3h-.81a2.12,2.12,0,0,0,0-.3v-.08c0-.05,0-.21,0-.5s0-.68,0-1.16a5.3,5.3,0,0,1-.37.67,3.36,3.36,0,0,1-.41.51,1.73,1.73,0,0,0-.08-.18c0-.08-.08-.17-.14-.27s-.1-.18-.13-.23a2.87,2.87,0,0,0,.38-.43c.13-.19.25-.37.35-.55a4.7,4.7,0,0,0,.22-.48h-.83v-.68h1v-.56l-.33.07-.34.05a2.74,2.74,0,0,0-.13-.29l-.16-.33c.16,0,.36,0,.6-.08a6.06,6.06,0,0,0,.77-.18,3.87,3.87,0,0,0,.62-.22l.18.19c.1.09.16.17.21.22l.12.13-.17,0-.3.1-.31.1v.75h.67V156h-.57c.08.12.16.25.25.36s.17.22.24.31l.23.22-.19.3.27,0,1.53-.23v-2.84c0-.11,0-.22,0-.33h.81a2.28,2.28,0,0,0,0,.3v2.72h.05l.42-.07,0,.72Zm-1-1.38c-.19.27-.34.46-.44.6-.16-.13-.33-.26-.53-.4a4.28,4.28,0,0,0-.54-.34l.44-.54a5.31,5.31,0,0,1,.53.32Zm.09-1.36-.44.58a5.62,5.62,0,0,0-.49-.38c-.19-.13-.36-.24-.52-.33l0-.08.09-.1.15-.18.15-.18.53.33Z"/><path class="cls-9" d="M225.33,162.5h.6v.71h-2.07c0,.05,0,.12,0,.22s0,.17,0,.22a1.25,1.25,0,0,1,0,.35.66.66,0,0,1-.1.27.86.86,0,0,1-.18.2,1,1,0,0,1-.3.13,2.08,2.08,0,0,1-.48,0l-.49,0c0-.11-.12-.34-.25-.7l.26,0,.29,0a.6.6,0,0,0,.4-.09.42.42,0,0,0,.1-.31,2.05,2.05,0,0,0,0-.37h-2.56v-.71h2.29a1.24,1.24,0,0,0-.26-.25l.7-.17,0,0,0,0,.17-.1a1.64,1.64,0,0,0,.26-.17h-1.94v-.62h2.53l.05-.06.29.18.31.23v-.71h-3.47v.78h-.83a1,1,0,0,0,0-.17v-1.06a1.21,1.21,0,0,0,0-.18h.92l-.28-.35-.29-.29.8-.26a5,5,0,0,1,.53.67l-.59.23h2.19a6.44,6.44,0,0,0,.38-.52,2,2,0,0,0,.24-.45l.81.28-.09.09a4.89,4.89,0,0,1-.42.6h.93v1.41H225v0l-.1,0a5.13,5.13,0,0,1-.58.44c-.24.15-.47.28-.68.39v0ZM223.74,160l-.74.24a3.78,3.78,0,0,0-.51-.74l.77-.2c.07.08.15.2.26.34S223.69,159.87,223.74,160Z"/><path class="cls-9" d="M215.67,143.82v.25h-1.11v.43h-.65c0-.1,0-.18,0-.26v-1.48a2.5,2.5,0,0,1-.34.39,2.2,2.2,0,0,0-.12-.37c-.06-.16-.11-.29-.16-.4a2.71,2.71,0,0,0,.37-.52,5.23,5.23,0,0,0,.31-.69,6.27,6.27,0,0,0,.18-.61h-.7v-.71h2.32v.71h-.95a7.26,7.26,0,0,1-.25.88h1.09v2.38Zm-1.1-.39H215v-1.36h-.45Zm4-1.74H219v.75h-.48v2.05c0,.11,0,.25,0,.4h-.81c0-.15,0-.29,0-.4v-2.05h-.53a3.73,3.73,0,0,1-.32,1.5,2.25,2.25,0,0,1-.86,1,4.82,4.82,0,0,0-.66-.51,2.29,2.29,0,0,0,.43-.32,2.22,2.22,0,0,0,.34-.45,2.17,2.17,0,0,0,.21-.56,2.8,2.8,0,0,0,.08-.67h-.59v-.75h.59v-1.15H216v-.71h2.85v.71h-.36v1.15Zm-1.38,0h.53v-1.15h-.53Z"/><path class="cls-9" d="M218.38,149l.31.2.38.21a1.65,1.65,0,0,1-.14.68.7.7,0,0,1-.36.34,2,2,0,0,1-.69.1,2.72,2.72,0,0,1-.64-.06.64.64,0,0,1-.35-.17.5.5,0,0,1-.11-.34c0-.12,0-.46,0-1h-.71a2.39,2.39,0,0,1-.41.65,2.87,2.87,0,0,1-.53.46,3.51,3.51,0,0,1-.6.33,3.91,3.91,0,0,1-.6.21l-.52-.63a4.13,4.13,0,0,0,1.08-.4,2.27,2.27,0,0,0,.71-.62h-1.36v-.69h1.66a2.26,2.26,0,0,0,.06-.55,1.93,1.93,0,0,0,0-.24l.77,0s0,.09,0,.16a3,3,0,0,1,0,.59h1.37c0,.13,0,.38,0,.74s0,.57,0,.64a.12.12,0,0,0,.09.12l.25,0a.48.48,0,0,0,.22,0,.29.29,0,0,0,.15-.17A2.55,2.55,0,0,0,218.38,149Zm-4.78-1.9a1,1,0,0,0,0-.17v-1a1.21,1.21,0,0,0,0-.18h2.16v-.47h.59l.31,0v.44h2.22v1.32h-.5l.37.16a.72.72,0,0,1-.08.32.53.53,0,0,1-.15.2.58.58,0,0,1-.23.13,1.45,1.45,0,0,1-.33.08,2.81,2.81,0,0,1-.43,0,5,5,0,0,1-.66,0,.65.65,0,0,1-.3-.11.34.34,0,0,1-.12-.16,1.47,1.47,0,0,1-.05-.46v-.64a.45.45,0,0,0,0-.11l.78.05a.2.2,0,0,0,0,.09v.62a.08.08,0,0,0,.07.09,2.18,2.18,0,0,0,.35,0l.25,0a.36.36,0,0,0,.15-.08.57.57,0,0,0,.08-.33h0v-.55h-3.63v.69Zm0,.35a3.08,3.08,0,0,0,1.13-.34,1.39,1.39,0,0,0,.63-.64l.68.33,0,.07a2.7,2.7,0,0,1-.26.36,2.45,2.45,0,0,1-.37.34,2.27,2.27,0,0,1-.48.27,4.27,4.27,0,0,1-.49.18l-.43.11A4.72,4.72,0,0,0,213.63,147.42Z"/><path class="cls-9" d="M218.72,151.54v3.92c0,.47-.5.71-1.51.71-.08-.17-.21-.43-.4-.78a6.49,6.49,0,0,0,.65.05.92.92,0,0,0,.33,0,.18.18,0,0,0,.1-.15v-3.31h-3.3v3.81c0,.12,0,.26,0,.41h-.84c0-.15,0-.29,0-.41v-4.54h5Zm-1.41,1.39h-2.46v-.65h2.82v.65Zm-1.53,2.14v.3H215v-2.11h2.39a1,1,0,0,0,0,.2v1.61Zm0-.63h.91v-.55h-.91Z"/><path class="cls-9" d="M215.91,157.72a7.78,7.78,0,0,1-.4,2.17,6.54,6.54,0,0,1,.59.34c-.16.28-.31.52-.44.72a5.44,5.44,0,0,0-.5-.34,3.3,3.3,0,0,1-1.29,1.19,7.45,7.45,0,0,0-.54-.62,2.86,2.86,0,0,0,1.18-1c-.33-.2-.65-.37-1-.53.05-.17.11-.37.17-.59s.12-.45.18-.69h-.44v-.7H214c0-.2.08-.41.11-.61s.05-.39.06-.56l.8.1a.58.58,0,0,0,0,.19c-.06.32-.11.62-.17.88Zm-1.51,1.65.45.21A3.23,3.23,0,0,0,215,159a4.56,4.56,0,0,0,.13-.62h-.52Q214.46,159.1,214.4,159.37Zm4.26-.54h.4v.75h-.94a5.86,5.86,0,0,1,0,.75,3.26,3.26,0,0,1-.06.67,1.05,1.05,0,0,1-.2.44.9.9,0,0,1-.35.25,1.71,1.71,0,0,1-.54.08l-.39,0a2.92,2.92,0,0,0-.12-.35l-.18-.43.25,0h.27a.65.65,0,0,0,.32-.06.37.37,0,0,0,.14-.22,2,2,0,0,0,0-.48,4.55,4.55,0,0,0,0-.67H216v-.75h1.13a2.26,2.26,0,0,0-.17-.35,1.27,1.27,0,0,0-.21-.29l.7-.3,0,0v0l.37-.41h-1.78v-.71h2.23l.06-.06.33.23a3.19,3.19,0,0,1,.33.27l-.1,0a4.1,4.1,0,0,1-.35.48c-.14.17-.28.31-.4.44l-.33.3a3,3,0,0,1,.12.3Z"/><path class="cls-9" d="M215,164.16a6.65,6.65,0,0,1-.56.36l-.58.3a1.75,1.75,0,0,0-.21-.34c-.1-.14-.18-.26-.26-.35a5.7,5.7,0,0,0,.7-.35,7.5,7.5,0,0,0,.72-.48,6.09,6.09,0,0,0,.65-.58,3.28,3.28,0,0,0,.45-.61l.88.15-.06.07a3.07,3.07,0,0,0,.2.27,4.24,4.24,0,0,0,.3.31l.43.36c.18.13.4.27.67.43a5.07,5.07,0,0,0,.78.38l-.21.39a2.65,2.65,0,0,0-.17.36,4.52,4.52,0,0,1-.54-.27,6.17,6.17,0,0,1-.61-.39v.38H215Zm-.79.82H219v.72h-1.31a10.76,10.76,0,0,1,1.09,1.49l-.79.37a4,4,0,0,0-.27-.48l-1.68.18c-.75.07-1.31.12-1.69.14l-.38.05-.2-.79h.85c.11-.22.2-.41.28-.59s.12-.3.15-.36h-1.45V165Zm2.07-2a6.81,6.81,0,0,1-.93.93h1.86A7.42,7.42,0,0,1,216.24,163Zm1,3.46a5.52,5.52,0,0,0-.45-.6l.29-.12h-1.15c-.1.23-.23.52-.41.88Z"/><path class="cls-9" d="M244.69,145.72a9.21,9.21,0,0,1,.92.66,9.87,9.87,0,0,1,.82.73l-.67.71a7.1,7.1,0,0,0-1.62-1.45,7.09,7.09,0,0,1-.95.85,7.48,7.48,0,0,1-1.12.69l0,0-.16-.18a2.56,2.56,0,0,0-.27-.29,2.46,2.46,0,0,0-.25-.22,4.9,4.9,0,0,0,1-.5,7.29,7.29,0,0,0,.93-.73,5.68,5.68,0,0,0,.75-.82,3.44,3.44,0,0,0,.48-.78h-2.58v-.92H245l.08-.05.7.51-.09.1A7.71,7.71,0,0,1,244.69,145.72Z"/><path class="cls-9" d="M245.64,149.88l.59.49-.09.1a4.35,4.35,0,0,1-2.92,3.07,3.82,3.82,0,0,0-.71-.71,4.2,4.2,0,0,0,.66-.21,3.48,3.48,0,0,0,.64-.32,4.35,4.35,0,0,0,.57-.45,2.94,2.94,0,0,0,.43-.53,2.27,2.27,0,0,0,.27-.54h-2.82l-.44,0v-.87h3.71Zm-.31-.61h-3.07v-.85h3.37v.85Z"/><path class="cls-9" d="M245.21,153.28l.77.62-.2.21-.45.47a8,8,0,0,1-.65.61V158c0,.14,0,.32,0,.52h-1c0-.19,0-.37,0-.53l0-2.1c-.25.19-.52.38-.81.56a9.69,9.69,0,0,1-.89.48c-.09-.11-.2-.24-.34-.39a3.25,3.25,0,0,0-.34-.33,8.22,8.22,0,0,0,.85-.39,11.83,11.83,0,0,0,1-.64,8.09,8.09,0,0,0,.95-.76,5.85,5.85,0,0,0,.62-.64A5.22,5.22,0,0,0,245.21,153.28Z"/><path class="cls-9" d="M246.56,163.37l-.79.42-.12-.34-.18-.4-1.8.28-1.71.27-.2,0a1.14,1.14,0,0,0-.22.07l-.27-1,.46,0,.33,0q.23-.49.51-1.29c.19-.53.36-1,.5-1.48a7.69,7.69,0,0,0,.25-1l1,.36a2.23,2.23,0,0,0-.17.35c-.32,1-.55,1.62-.69,2s-.26.67-.38.94c.85-.1,1.52-.19,2-.27a6.37,6.37,0,0,0-.45-.67,2.15,2.15,0,0,0-.3-.36l.7-.46a4.76,4.76,0,0,1,.45.55,8.15,8.15,0,0,1,.47.72c.15.27.29.51.4.74A4.88,4.88,0,0,1,246.56,163.37Z"/><path class="cls-9" d="M237.69,145.76a7.84,7.84,0,0,1,.92.66c.3.24.57.48.82.72l-.67.72a7.1,7.1,0,0,0-1.62-1.45,7.86,7.86,0,0,1-.95.85,7.48,7.48,0,0,1-1.12.69s0,0,0,0l-.16-.18a2.56,2.56,0,0,0-.27-.29,2.46,2.46,0,0,0-.25-.22,4.47,4.47,0,0,0,1-.51,6.42,6.42,0,0,0,.93-.72,6.26,6.26,0,0,0,.75-.82,3.44,3.44,0,0,0,.48-.78h-2.58v-.92H238l.08-.05.7.51-.09.1A7.71,7.71,0,0,1,237.69,145.76Z"/><path class="cls-9" d="M239.17,149.39l-.1.13a7.05,7.05,0,0,1-.41.89,8,8,0,0,1-.48.8,4.54,4.54,0,0,1,.45.34l-.54.71a2.4,2.4,0,0,0-.45-.39,6.79,6.79,0,0,1-1.95,1.48,3.83,3.83,0,0,0-.35-.35l-.38-.29a5.47,5.47,0,0,0,.59-.27,4.92,4.92,0,0,0,.7-.46,5.64,5.64,0,0,0,.69-.59l-.33-.2a4.82,4.82,0,0,0-.5-.27l.47-.61.3.13.59.32a5.19,5.19,0,0,0,.34-.52,4.52,4.52,0,0,0,.27-.54H236.6a6.55,6.55,0,0,1-.52.66,6.42,6.42,0,0,1-.5.52c-.15.14-.28.24-.38.32a3.43,3.43,0,0,0-.45-.35l-.29-.19a5.69,5.69,0,0,0,.68-.57,6.73,6.73,0,0,0,.75-.87,5.06,5.06,0,0,0,.58-1,1.31,1.31,0,0,0,.08-.21V148l.92.26a.35.35,0,0,0-.09.11l-.07.13c-.06.13-.14.28-.23.45h1.33a.23.23,0,0,0,.1-.05Z"/><path class="cls-9" d="M236,155.46l-.36-.3-.52-.35c-.19-.13-.38-.24-.55-.34l.55-.73c.2.12.43.26.69.44s.51.37.74.55Zm3-1.35.57.86a5.93,5.93,0,0,1-1,1.24,7.76,7.76,0,0,1-1.27,1.06,10.89,10.89,0,0,1-1.59.87l-.18.09-.09.06-.61-.85a6.66,6.66,0,0,0,1.31-.53,7.17,7.17,0,0,0,1.17-.77,6.22,6.22,0,0,0,1-1A5.35,5.35,0,0,0,239,154.11Z"/><path class="cls-9" d="M236.77,159.18v1.19c.37.15.77.32,1.18.53a8.58,8.58,0,0,1,1,.58l-.42.78c-.24-.17-.53-.34-.85-.53s-.63-.34-.92-.47v2.08c0,.17,0,.31,0,.42h-1V159.2c0-.19,0-.35,0-.47l1,.05A2,2,0,0,0,236.77,159.18Zm1.44.86a2.65,2.65,0,0,0-.28-.39,3,3,0,0,0-.3-.35l.4-.24a3,3,0,0,1,.32.35,2.75,2.75,0,0,1,.28.37Zm.66-.37a2.82,2.82,0,0,0-.28-.38,3.67,3.67,0,0,0-.32-.34l.39-.23a.89.89,0,0,1,.18.17l.24.26c.08.11.15.19.19.26Z"/><path class="cls-9" d="M140.13,45.66V40.39h3.32v.93h-2.11v1.19h1.95v.93h-1.95v1.28h2.15v.94Z"/><path class="cls-9" d="M147.85,44.09a1.6,1.6,0,0,1-.15.7,1.49,1.49,0,0,1-.41.53,2,2,0,0,1-.66.33,3.34,3.34,0,0,1-.87.11,5.67,5.67,0,0,1-.67,0,3.64,3.64,0,0,1-.81-.19l.1-1a3.59,3.59,0,0,0,.68.22,2.49,2.49,0,0,0,.64.08,1.23,1.23,0,0,0,.65-.15.51.51,0,0,0,.25-.44.68.68,0,0,0-.07-.27.69.69,0,0,0-.27-.27,4.14,4.14,0,0,0-.65-.3,4.31,4.31,0,0,1-.6-.26,2.09,2.09,0,0,1-.43-.32,1.36,1.36,0,0,1-.26-.41,1.74,1.74,0,0,1-.08-.53,1.43,1.43,0,0,1,.15-.66,1.36,1.36,0,0,1,.42-.5,2.12,2.12,0,0,1,.64-.31,3,3,0,0,1,.8-.1,5.34,5.34,0,0,1,.69.05,4.54,4.54,0,0,1,.66.14l-.09,1a3.13,3.13,0,0,0-.61-.17,2.78,2.78,0,0,0-.54-.06,1.18,1.18,0,0,0-.63.15.43.43,0,0,0-.23.39.48.48,0,0,0,.18.38,2.38,2.38,0,0,0,.74.36,4.36,4.36,0,0,1,.64.28,2.26,2.26,0,0,1,.44.35,1.34,1.34,0,0,1,.26.43A1.53,1.53,0,0,1,147.85,44.09Z"/><path class="cls-9" d="M152.1,44.09a1.59,1.59,0,0,1-.14.7,1.52,1.52,0,0,1-.42.53,2,2,0,0,1-.66.33,3.26,3.26,0,0,1-.86.11,5.83,5.83,0,0,1-.68,0,3.91,3.91,0,0,1-.81-.19l.11-1a3.37,3.37,0,0,0,.68.22,2.47,2.47,0,0,0,.63.08,1.26,1.26,0,0,0,.66-.15.5.5,0,0,0,.24-.44.66.66,0,0,0-.06-.27.73.73,0,0,0-.28-.27,3.74,3.74,0,0,0-.65-.3,4.72,4.72,0,0,1-.59-.26,1.85,1.85,0,0,1-.43-.32,1.19,1.19,0,0,1-.26-.41,1.47,1.47,0,0,1-.09-.53,1.43,1.43,0,0,1,.15-.66,1.29,1.29,0,0,1,.43-.5,2,2,0,0,1,.64-.31,2.92,2.92,0,0,1,.8-.1,5.34,5.34,0,0,1,.69.05,4.14,4.14,0,0,1,.65.14l-.08,1a3.21,3.21,0,0,0-.62-.17,2.61,2.61,0,0,0-.53-.06,1.13,1.13,0,0,0-.63.15.43.43,0,0,0-.23.39.48.48,0,0,0,.18.38,2.26,2.26,0,0,0,.74.36,4.21,4.21,0,0,1,.63.28,1.78,1.78,0,0,1,.44.35,1.21,1.21,0,0,1,.27.43A1.8,1.8,0,0,1,152.1,44.09Z"/><path class="cls-9" d="M88.51,40.81l.77.59-.11.13a9.26,9.26,0,0,1-.9,1.81A7.48,7.48,0,0,1,87,44.86,8.08,8.08,0,0,1,85.2,46a2.85,2.85,0,0,0-.3-.29l-.33-.28a1.4,1.4,0,0,0-.24-.16l.53-.25.48-.28.57-.39a9,9,0,0,0,.7-.63,6.41,6.41,0,0,0,.72-.87,5.34,5.34,0,0,0,.57-1H86.25a7.43,7.43,0,0,1-.79,1,6.14,6.14,0,0,1-.82.75l-.23-.2a3.32,3.32,0,0,0-.36-.26,2.62,2.62,0,0,0-.31-.19,7,7,0,0,0,.65-.53,7.59,7.59,0,0,0,.78-.86,7.71,7.71,0,0,0,.67-1,4.26,4.26,0,0,0,.36-.78l1.1.31a1,1,0,0,0-.1.14l-.08.14a4.56,4.56,0,0,1-.27.52h1.56Z"/><path class="cls-9" d="M93.84,39.87l.9.73a1.75,1.75,0,0,0-.23.24c-.14.15-.31.34-.52.55s-.47.45-.77.71v3.23c0,.17,0,.37,0,.61H92.1c0-.23,0-.43,0-.62l.07-2.46a9.93,9.93,0,0,1-1,.66,11.65,11.65,0,0,1-1,.56l-.39-.45a4.46,4.46,0,0,0-.4-.39,7.88,7.88,0,0,0,1-.45A11.5,11.5,0,0,0,91.61,42a12.9,12.9,0,0,0,1.12-.89,6,6,0,0,0,.72-.75A6.21,6.21,0,0,0,93.84,39.87Z"/><path class="cls-9" d="M99.9,41.22a9.22,9.22,0,0,1-1.13,2,12.48,12.48,0,0,1,1.07.77c.34.28.66.56,1,.85l-.79.83A8.57,8.57,0,0,0,98.12,44,8.13,8.13,0,0,1,97,45a8.4,8.4,0,0,1-1.31.81l0,0-.18-.21-.31-.34-.29-.25A6.41,6.41,0,0,0,96,44.33a8.77,8.77,0,0,0,1.08-.85,8.54,8.54,0,0,0,.88-.95,4.54,4.54,0,0,0,.56-.92H96.08l-.56,0V40.55l.56,0h3l.09-.06.83.6Zm.18-.25a4.14,4.14,0,0,0-.31-.46c-.14-.17-.26-.3-.36-.4l.47-.28a3.07,3.07,0,0,1,.37.4,2.93,2.93,0,0,1,.33.44Zm.54-1.54.2.19c.09.09.18.2.28.32a2,2,0,0,1,.22.3l-.47.3a3.48,3.48,0,0,0-.32-.45,2.84,2.84,0,0,0-.38-.39Z"/><path class="cls-9" d="M107.76,40.42v4.22l0,.6c0,.57-.59.86-1.77.86-.09-.21-.25-.52-.47-1a6.57,6.57,0,0,0,.77.06.91.91,0,0,0,.38-.06.18.18,0,0,0,.11-.17V40.9H103v4.69c0,.15,0,.32,0,.5h-1c0-.18,0-.35,0-.5V40h5.8Zm-1.65,1.7h-2.86v-.8h3.28v.8Zm-1.78,2.63v.38h-.86v-2.6h2.78s0,.13,0,.25v2Zm0-.77h1.06v-.67h-1.06Z"/><path class="cls-9" d="M111.49,41.08a10.31,10.31,0,0,1-.48,2.67,6.55,6.55,0,0,1,.69.41c-.18.34-.36.64-.51.89a5.35,5.35,0,0,0-.58-.43,3.81,3.81,0,0,1-1.51,1.47,8,8,0,0,0-.62-.77,3.38,3.38,0,0,0,1.37-1.17c-.38-.24-.76-.46-1.13-.66.06-.2.13-.44.2-.72s.14-.55.2-.84h-.5v-.86h.66q.07-.37.12-.75c0-.25.06-.48.08-.69l.94.12a.86.86,0,0,0-.06.23c-.07.41-.13.77-.19,1.09Zm-1.77,2,.53.26a4.43,4.43,0,0,0,.21-.67,7.28,7.28,0,0,0,.15-.76H110C109.87,42.49,109.77,42.88,109.72,43.1Zm5-.66h.47v.92h-1.1a6.54,6.54,0,0,1,0,.92,3.92,3.92,0,0,1-.07.82,1.49,1.49,0,0,1-.23.54.91.91,0,0,1-.42.3,1.67,1.67,0,0,1-.63.1l-.45,0a3.83,3.83,0,0,0-.14-.43L112,45l.29,0,.32,0a.7.7,0,0,0,.37-.08.42.42,0,0,0,.16-.27,2.25,2.25,0,0,0,.05-.59,5.16,5.16,0,0,0-.05-.82h-1.51v-.92h1.32a3.36,3.36,0,0,0-.2-.43,1.8,1.8,0,0,0-.24-.35l.81-.37,0,0,0,0,.43-.51h-2.08V40h2.6l.07-.07a4.41,4.41,0,0,1,.39.28l.39.33-.12.06a5.74,5.74,0,0,1-.41.58,7,7,0,0,1-.47.54c-.15.16-.28.28-.38.37l.13.37Z"/><path class="cls-9" d="M117.37,42.05a7.49,7.49,0,0,1-.65.45,6.43,6.43,0,0,1-.68.36,3.44,3.44,0,0,0-.24-.42c-.11-.16-.22-.31-.31-.42a5.9,5.9,0,0,0,.82-.43,7.16,7.16,0,0,0,.84-.59,6.44,6.44,0,0,0,.76-.71,4.54,4.54,0,0,0,.53-.75l1,.18-.07.09a2.69,2.69,0,0,0,.24.33c.1.12.21.25.34.38s.31.28.51.44a9.39,9.39,0,0,0,.78.53,5.72,5.72,0,0,0,.92.47c-.08.13-.16.29-.26.48a4.15,4.15,0,0,0-.19.44c-.2-.09-.41-.2-.64-.33a8.09,8.09,0,0,1-.71-.48v.47h-3Zm-.92,1H122v.89h-1.53a13.34,13.34,0,0,1,1.28,1.83l-.93.45a5.67,5.67,0,0,0-.31-.59c-.44.06-1.09.13-2,.22s-1.53.15-2,.18l-.44.06-.24-1h1q.19-.39.33-.72c.08-.22.14-.37.17-.44h-1.69v-.89Zm2.42-2.49a8.34,8.34,0,0,1-1.09,1.15H120A8.89,8.89,0,0,1,118.87,40.57ZM120,44.82a8.59,8.59,0,0,0-.53-.73l.34-.15H118.5c-.11.28-.27.64-.47,1.08C118.75,45,119.42,44.89,120,44.82Z"/><path class="cls-9" d="M281.89,81.43a4.73,4.73,0,0,0,.79-.88,7,7,0,0,0,.67-1.06,3.66,3.66,0,0,0,.33-.82l1,.28-.05.07A8.79,8.79,0,0,1,284,80.4v4.18a4.17,4.17,0,0,0,0,.46h-1.05c0-.16,0-.32,0-.46v-.14c0-.07,0-.34,0-.82s0-1.13.06-1.93a4.82,4.82,0,0,1-.71.76A9.36,9.36,0,0,0,281.89,81.43Zm5.64,1.22.35.21.39.24.19.11a3.65,3.65,0,0,1-.11.84,1.28,1.28,0,0,1-.29.53,1.09,1.09,0,0,1-.54.3,3.41,3.41,0,0,1-.87.09,4.58,4.58,0,0,1-.85-.06,1,1,0,0,1-.44-.16.66.66,0,0,1-.25-.37,2.92,2.92,0,0,1-.07-.67c0-.25,0-1.83,0-4.73a2.28,2.28,0,0,0,0-.26c.28,0,.62,0,1,.07,0,0,0,.12,0,.21v2a10.44,10.44,0,0,0,.94-.7,4.25,4.25,0,0,0,.64-.63l.65.8-.16.07a3.56,3.56,0,0,1-.47.43c-.21.17-.46.37-.76.58s-.57.39-.84.56v1.58a.28.28,0,0,0,.06.2.19.19,0,0,0,.14.09,2.66,2.66,0,0,0,.51,0,1.45,1.45,0,0,0,.4,0,.49.49,0,0,0,.24-.15.81.81,0,0,0,.12-.39A7,7,0,0,0,287.53,82.65Z"/><path class="cls-9" d="M294.64,82.45h.7v.88h-2.42q0,.09,0,.27c0,.11,0,.2,0,.27a2.63,2.63,0,0,1,0,.43,1.15,1.15,0,0,1-.13.34.79.79,0,0,1-.21.24,1.44,1.44,0,0,1-.35.16,2.12,2.12,0,0,1-.56.06l-.56,0c-.05-.14-.14-.43-.3-.86l.31,0h.33c.24,0,.4,0,.47-.11a.48.48,0,0,0,.11-.37,3.13,3.13,0,0,0,0-.46h-3v-.88h2.67a1.46,1.46,0,0,0-.3-.31l.82-.21,0,0,0,0,.19-.11c.1-.06.2-.14.31-.22H290.5v-.77h2.94l.07-.07.34.22c.13.1.25.19.35.28v-.87h-4.05v1h-1a1.62,1.62,0,0,0,0-.22V79.9a1.93,1.93,0,0,0,0-.23h1.07l-.33-.43-.33-.36.93-.31a7,7,0,0,1,.62.82l-.69.28H293a5.72,5.72,0,0,0,.45-.63,3.16,3.16,0,0,0,.28-.56l.95.34-.11.11a5.15,5.15,0,0,1-.49.74h1.08v1.74h-1v0l-.11,0a6.21,6.21,0,0,1-.68.54c-.28.18-.54.34-.8.48l0,0Zm-1.86-3.12-.86.3a5.19,5.19,0,0,0-.6-.91l.9-.25q.12.15.3.42A3.47,3.47,0,0,1,292.78,79.33Z"/><path class="cls-9" d="M298.54,83.77v.3h-1.29v.53h-.76c0-.12,0-.23,0-.32V82.47a4.42,4.42,0,0,1-.39.47c0-.11-.08-.27-.15-.46a4.13,4.13,0,0,0-.18-.48,3.36,3.36,0,0,0,.43-.64,4.81,4.81,0,0,0,.36-.85,5.55,5.55,0,0,0,.21-.75H296v-.88h2.71v.88h-1.12a10.72,10.72,0,0,1-.28,1.08h1.26v2.93Zm-1.29-.48h.52V81.61h-.52Zm4.68-2.14h.48v.92h-.56v2.51c0,.14,0,.3,0,.49h-.94c0-.19,0-.35,0-.49V82.05h-.61a4.69,4.69,0,0,1-.38,1.84,2.71,2.71,0,0,1-1,1.25,5.15,5.15,0,0,0-.77-.62,2.74,2.74,0,0,0,.5-.4,2.22,2.22,0,0,0,.4-.55,2.67,2.67,0,0,0,.25-.69,3.49,3.49,0,0,0,.09-.82h-.69v-.92h.69V79.74h-.47v-.87h3.33v.87h-.42v1.41Zm-1.61,0h.61V79.74h-.61Z"/><path class="cls-9" d="M308.69,83.16a3,3,0,0,0,.37.24c.15.1.3.18.45.26a2.32,2.32,0,0,1-.17.84.84.84,0,0,1-.42.41,2,2,0,0,1-.81.13,3.49,3.49,0,0,1-.74-.07.73.73,0,0,1-.41-.21.61.61,0,0,1-.14-.42q0-.23.06-1.23h-.83a2.92,2.92,0,0,1-.48.79,3.37,3.37,0,0,1-.62.58,4,4,0,0,1-.69.4c-.25.1-.48.19-.71.26-.14-.19-.34-.45-.61-.77a4.6,4.6,0,0,0,1.26-.5,2.55,2.55,0,0,0,.83-.76h-1.59v-.85h1.94a2.84,2.84,0,0,0,.07-.68,2.71,2.71,0,0,0,0-.29l.9,0a1,1,0,0,0,0,.19,4.59,4.59,0,0,1-.06.73h1.6c0,.16,0,.46-.05.9s0,.7,0,.79a.13.13,0,0,0,.11.14,1.12,1.12,0,0,0,.29,0,.68.68,0,0,0,.26,0,.36.36,0,0,0,.17-.22A2.86,2.86,0,0,0,308.69,83.16Zm-5.57-2.33a1.64,1.64,0,0,0,0-.22V79.42a1.83,1.83,0,0,0,0-.21h2.52v-.58h.68l.37,0v.55h2.59v1.62h-.58l.43.19a1.07,1.07,0,0,1-.09.4.79.79,0,0,1-.19.25.87.87,0,0,1-.27.15,1.23,1.23,0,0,1-.38.1,3.84,3.84,0,0,1-.5,0,6.87,6.87,0,0,1-.77,0,.83.83,0,0,1-.35-.13.46.46,0,0,1-.14-.21,2.12,2.12,0,0,1-.05-.56v-.78a.78.78,0,0,0,0-.14l.91.06a.31.31,0,0,0,0,.11V81a.12.12,0,0,0,.08.12,2.89,2.89,0,0,0,.41,0,1.12,1.12,0,0,0,.29,0,.28.28,0,0,0,.17-.09.64.64,0,0,0,.1-.4h0V80h-4.24v.85Zm0,.43a3.81,3.81,0,0,0,1.31-.42,1.59,1.59,0,0,0,.73-.79l.8.41-.06.08a2.45,2.45,0,0,1-.3.44,2.52,2.52,0,0,1-.44.42,3.14,3.14,0,0,1-.55.34,3.71,3.71,0,0,1-.58.21l-.49.14A9.26,9.26,0,0,0,303.16,81.26Z"/><path class="cls-9" d="M312.81,81.11h.71v.82h-3.61V81.1h.81a7.54,7.54,0,0,0-.29-.94l.36-.09h-.73v-.81h1.22v-.47l0-.18,1,0v.62h1.19v.81h-.51l.25.09a.31.31,0,0,0-.06.12C313,80.65,312.88,80.92,312.81,81.11Zm.42,1.27c0,.06,0,.15,0,.28V85h-.9v-.28h-1.12V85h-.91c0-.11,0-.2,0-.28v-2.1c0-.09,0-.18,0-.28Zm-2,1.6h1.12v-.84h-1.12Zm.06-3.9c.08.24.16.59.26,1H312a3.33,3.33,0,0,0,.13-.39c.06-.2.12-.41.17-.64Zm5.08-.64c-.21.65-.35,1.1-.44,1.34s-.15.45-.21.59a2.8,2.8,0,0,1,.51.72,1.73,1.73,0,0,1,.18.76,1.19,1.19,0,0,1-.35.9,1.41,1.41,0,0,1-1,.32,3,3,0,0,0-.18-.34c-.08-.14-.16-.27-.22-.39v1.24c0,.23,0,.39,0,.49h-.91c0-.1,0-.26,0-.49V78.94h1.91l.09-.1.33.24a3.7,3.7,0,0,1,.35.32ZM315,83.27a.43.43,0,0,0,.34-.16.63.63,0,0,0,.13-.43,1.28,1.28,0,0,0-.19-.66,1.89,1.89,0,0,0-.54-.6,6.2,6.2,0,0,0,.24-.65c.1-.3.21-.65.32-1h-.68v3.51A2.73,2.73,0,0,0,315,83.27Z"/><path class="cls-9" d="M284.14,252.21h.74v.94h-6.35v-.94h2.7V251h-1.15l-.58,0v-.91h1.73v-1H280a6.82,6.82,0,0,1-.42.76,3.64,3.64,0,0,1-.42.58,6.86,6.86,0,0,0-.73-.74,3.64,3.64,0,0,0,.5-.67,4.62,4.62,0,0,0,.45-1,5.2,5.2,0,0,0,.26-1l1,.2-.05.11c-.06.28-.13.55-.21.8h.87v-.87c0-.14,0-.27,0-.4h.69l.36,0c0,.15,0,.27,0,.37v.86h2.08v.92h-2.08v1h1.92V251l-.56,0h-1.36v1.2Z"/><path class="cls-9" d="M287.37,251v1.81c0,.15,0,.32,0,.51h-.9c0-.19,0-.36,0-.51v-1.52c-.29.1-.47.17-.56.19l-.38.13-.18-.93.45-.1c.14,0,.36-.1.67-.2v-1.49h-.3A6.83,6.83,0,0,1,286,250l-.27-.11-.44-.16a4.87,4.87,0,0,0,.21-1,13.47,13.47,0,0,0,.07-1.35l.72.11a.41.41,0,0,0,0,.14v.53h.23v-.82c0-.12,0-.25,0-.38H287l.44,0a2.61,2.61,0,0,0,0,.35v.82H288v.83h-.62v1.2l.58-.2c0,.31,0,.6,0,.89Zm4.5-3.09,0,.26c0,.85,0,1.52,0,2s0,.95-.06,1.3a3.57,3.57,0,0,1-.18.91,1.23,1.23,0,0,1-.23.37,1.5,1.5,0,0,1-.31.24,2,2,0,0,1-.5.16,3.67,3.67,0,0,1-.82.07c0-.12-.13-.42-.29-.91a5.35,5.35,0,0,1-.41.42,3.15,3.15,0,0,1-.43.35,7.48,7.48,0,0,0-.56-.63,3.9,3.9,0,0,0,.59-.49,6.12,6.12,0,0,0,.69-.85A7.33,7.33,0,0,0,290,250a8.84,8.84,0,0,0,.43-1.25h-.25a10.68,10.68,0,0,1-.4,1.05,6.22,6.22,0,0,1-.67,1.13,4.37,4.37,0,0,1-.86.86,3,3,0,0,0-.24-.31l-.31-.31a4,4,0,0,0,.67-.6,4.06,4.06,0,0,0,.63-.86,5.12,5.12,0,0,0,.44-1h-.29a7.33,7.33,0,0,1-.42.73,4.59,4.59,0,0,1-.44.55l-.15-.16-.27-.22c-.1-.09-.19-.15-.24-.19a3.84,3.84,0,0,0,.53-.68,6.56,6.56,0,0,0,.5-.95,5.7,5.7,0,0,0,.31-.94l.84.17,0,.09a6.85,6.85,0,0,1-.27.8ZM290,252.41a1.05,1.05,0,0,0,.55-.11.61.61,0,0,0,.28-.36,3.34,3.34,0,0,0,.15-.91c0-.43.05-1,.05-1.84a8.17,8.17,0,0,1-.63,1.74,6.39,6.39,0,0,1-.9,1.42l.25,0A1.24,1.24,0,0,0,290,252.41Z"/><path class="cls-9" d="M295,252v.31h-1.3v.53H293c0-.12,0-.23,0-.32v-1.82a3,3,0,0,1-.39.47c0-.11-.07-.26-.14-.45s-.13-.36-.19-.49a3,3,0,0,0,.43-.64,6.14,6.14,0,0,0,.37-.84,6.71,6.71,0,0,0,.2-.76h-.81v-.87h2.71V248h-1.11a10.29,10.29,0,0,1-.29,1.09H295V252Zm-1.29-.48h.53v-1.67h-.53Zm4.68-2.14h.48v.92h-.56v2.52c0,.14,0,.3,0,.49h-.94c0-.19,0-.35,0-.49v-2.52h-.61a4.62,4.62,0,0,1-.38,1.84,2.77,2.77,0,0,1-1,1.26,5.88,5.88,0,0,0-.78-.63,2.43,2.43,0,0,0,.51-.4,2.66,2.66,0,0,0,.39-.54,3,3,0,0,0,.25-.69,3.62,3.62,0,0,0,.09-.82v0h-.69v-.92h.69V248h-.47v-.87h3.33V248h-.42v1.41Zm-1.61,0h.61V248h-.61Z"/><path class="cls-9" d="M305.19,251.43l.36.24a5.05,5.05,0,0,0,.45.25,2.32,2.32,0,0,1-.17.84.86.86,0,0,1-.42.42,2.1,2.1,0,0,1-.8.12,3,3,0,0,1-.75-.07.76.76,0,0,1-.41-.21.58.58,0,0,1-.13-.41c0-.16,0-.57.05-1.23h-.83a3,3,0,0,1-.48.79,3.62,3.62,0,0,1-.61.57,4.49,4.49,0,0,1-.7.4,5.69,5.69,0,0,1-.71.27c-.13-.2-.34-.45-.61-.78a4.49,4.49,0,0,0,1.27-.5,2.71,2.71,0,0,0,.82-.75h-1.58v-.84h1.94a3.39,3.39,0,0,0,.07-.68,2.64,2.64,0,0,0,0-.29l.9.05a1.09,1.09,0,0,0,0,.2,4.46,4.46,0,0,1-.06.72h1.6c0,.16,0,.46-.05.9s0,.71,0,.79a.14.14,0,0,0,.1.15,1.15,1.15,0,0,0,.3,0,.66.66,0,0,0,.25,0,.34.34,0,0,0,.17-.22A3.12,3.12,0,0,0,305.19,251.43Zm-5.58-2.34a1.49,1.49,0,0,0,0-.21v-1.19a2,2,0,0,0,0-.22h2.52v-.58h.26l.43,0h.36v.55h2.59v1.62h-.58c.13.06.27.13.43.19a1,1,0,0,1-.09.4.8.8,0,0,1-.18.25,1.2,1.2,0,0,1-.27.16,1.87,1.87,0,0,1-.39.09,3.84,3.84,0,0,1-.5,0,6.87,6.87,0,0,1-.77,0,.67.67,0,0,1-.34-.13.39.39,0,0,1-.15-.2,2.16,2.16,0,0,1-.05-.57v-.77s0-.1,0-.14l.9,0a.36.36,0,0,0,0,.11v.77a.1.1,0,0,0,.08.11,3,3,0,0,0,.41,0l.3,0a.32.32,0,0,0,.17-.1.72.72,0,0,0,.09-.4h0v-.67h-4.24v.84Zm0,.43a3.42,3.42,0,0,0,1.32-.42,1.59,1.59,0,0,0,.72-.78l.8.4-.05.09a5.14,5.14,0,0,1-.31.44,2.21,2.21,0,0,1-.44.42,2.77,2.77,0,0,1-.55.33,6,6,0,0,1-.57.22l-.5.13A8.05,8.05,0,0,0,299.65,249.52Z"/><path class="cls-9" d="M309.3,249.37H310v.82h-3.61v-.82h.8a6.54,6.54,0,0,0-.29-.94l.36-.08h-.73v-.81h1.22v-.66l.95,0v.63h1.19v.81h-.51l.25.08a.28.28,0,0,0-.06.13C309.46,248.91,309.37,249.19,309.3,249.37Zm.42,1.28v2.65h-.89V253H307.7v.28h-.9a2.62,2.62,0,0,0,0-.27v-2.11a2.44,2.44,0,0,0,0-.27Zm-2,1.59h1.13v-.84H307.7Zm.06-3.89c.08.24.16.58.26,1h.46l.12-.38c.06-.2.12-.42.17-.64Zm5.08-.64c-.2.64-.35,1.09-.43,1.34s-.16.44-.22.58a2.8,2.8,0,0,1,.51.72,1.8,1.8,0,0,1,.18.76,1.19,1.19,0,0,1-.35.9,1.34,1.34,0,0,1-1,.33c0-.08-.1-.19-.19-.34s-.15-.28-.22-.39v1.23c0,.23,0,.4,0,.49h-.91c0-.09,0-.26,0-.49V247.2h1.91l.1-.1a3.67,3.67,0,0,1,.32.25c.13.1.25.21.36.31Zm-1.31,3.82a.42.42,0,0,0,.34-.15.66.66,0,0,0,.13-.44,1.43,1.43,0,0,0-.18-.66,2,2,0,0,0-.54-.59c.05-.13.13-.35.23-.65s.21-.66.33-1h-.69v3.51Z"/><path class="cls-9" d="M288.91,204.11h.73V205H283.3v-.94H286v-1.2h-1.15l-.57,0V202H286v-1h-1.22c-.13.27-.27.53-.41.76a4.37,4.37,0,0,1-.43.58,6,6,0,0,0-.73-.74,3.24,3.24,0,0,0,.51-.67,6,6,0,0,0,.45-.95,5.13,5.13,0,0,0,.25-1l1,.2-.05.11c-.06.28-.13.55-.21.8H286v-.87c0-.14,0-.27,0-.4h.69l.36,0c0,.15,0,.27,0,.37v.86h2.09V201H287v1h1.93v.91l-.57,0H287v1.2Z"/><path class="cls-9" d="M292.14,202.94v1.81c0,.15,0,.32,0,.51h-.9c0-.19,0-.36,0-.51v-1.52c-.29.1-.48.17-.57.19l-.38.13-.17-.93.45-.1.67-.2v-1.49H291a8.3,8.3,0,0,1-.19,1.07,1.51,1.51,0,0,0-.26-.11l-.45-.16a4.87,4.87,0,0,0,.21-1,13.09,13.09,0,0,0,.08-1.35l.71.11a.41.41,0,0,0,0,.14V200h.24v-.82c0-.12,0-.25,0-.38h.46l.44,0a3.13,3.13,0,0,0,0,.35V200h.61v.83h-.61V202l.58-.2c0,.31,0,.6,0,.89Zm4.49-3.09v.26c0,.85,0,1.52,0,2s0,1-.06,1.3a3.45,3.45,0,0,1-.19.91,1.45,1.45,0,0,1-.22.37,1.57,1.57,0,0,1-.32.24,2,2,0,0,1-.5.16,3.67,3.67,0,0,1-.82.07,9,9,0,0,0-.29-.91c-.12.14-.26.28-.4.42a3.91,3.91,0,0,1-.43.35,8.25,8.25,0,0,0-.57-.63,4.48,4.48,0,0,0,.6-.49,5.58,5.58,0,0,0,.68-.85,6.62,6.62,0,0,0,.64-1.18,7.74,7.74,0,0,0,.43-1.25h-.24a8.25,8.25,0,0,1-.41,1,6.22,6.22,0,0,1-.67,1.13,3.86,3.86,0,0,1-.85.86c-.06-.08-.14-.18-.25-.3a3.2,3.2,0,0,0-.31-.32,4.4,4.4,0,0,0,.68-.59,4.86,4.86,0,0,0,.63-.87,5.85,5.85,0,0,0,.44-1h-.3a7.33,7.33,0,0,1-.42.73,4.6,4.6,0,0,1-.43.55,1.23,1.23,0,0,0-.16-.15,2.28,2.28,0,0,0-.27-.23,2.12,2.12,0,0,0-.24-.19,3.83,3.83,0,0,0,.54-.68,6.52,6.52,0,0,0,.49-1,5.82,5.82,0,0,0,.32-.94l.84.17-.05.09c-.07.26-.16.53-.26.8Zm-1.9,4.46a1,1,0,0,0,.54-.11.63.63,0,0,0,.29-.36,3.34,3.34,0,0,0,.15-.91c0-.43,0-1,.05-1.84a9.43,9.43,0,0,1-.63,1.74,6.77,6.77,0,0,1-.9,1.42l.24,0A1.33,1.33,0,0,0,294.73,204.31Z"/><path class="cls-9" d="M282.29,212.93v.31H281v.53h-.77c0-.12,0-.23,0-.32v-1.82a3,3,0,0,1-.4.47,3,3,0,0,0-.14-.45l-.18-.49a3.06,3.06,0,0,0,.43-.64,6.06,6.06,0,0,0,.36-.84,7,7,0,0,0,.21-.76h-.81v-.87h2.7v.87h-1.11A8.34,8.34,0,0,1,281,210h1.27v2.92Zm-1.28-.48h.52v-1.67H281Zm4.68-2.14h.47v.92h-.55v2.52c0,.14,0,.3,0,.49h-.95c0-.19,0-.35,0-.49v-2.52h-.62a4.61,4.61,0,0,1-.37,1.84,2.86,2.86,0,0,1-1,1.26,4.78,4.78,0,0,0-.78-.63,2.2,2.2,0,0,0,.51-.4,2.41,2.41,0,0,0,.39-.54,2.58,2.58,0,0,0,.25-.69,3.55,3.55,0,0,0,.09-.82v0h-.68v-.92h.68V208.9h-.47V208H286v.87h-.42v1.41Zm-1.62,0h.62V208.9h-.62Z"/><path class="cls-9" d="M292.45,212.33l.37.24.44.25a2.35,2.35,0,0,1-.16.84,1,1,0,0,1-.42.42,2.16,2.16,0,0,1-.81.12,3.77,3.77,0,0,1-.75-.06.76.76,0,0,1-.4-.22.58.58,0,0,1-.14-.41q0-.24.06-1.23h-.83a3.27,3.27,0,0,1-.48.79,3.68,3.68,0,0,1-.62.57,3.73,3.73,0,0,1-.7.4,6.23,6.23,0,0,1-.7.27c-.14-.19-.34-.45-.61-.78A4.54,4.54,0,0,0,288,213a2.59,2.59,0,0,0,.82-.75H287.2v-.84h1.94a2.79,2.79,0,0,0,.07-.68,2.71,2.71,0,0,0,0-.29l.9.05a1.09,1.09,0,0,0,0,.2,4.46,4.46,0,0,1-.06.72h1.59c0,.16,0,.46,0,.9s0,.71,0,.79a.14.14,0,0,0,.11.15,1.07,1.07,0,0,0,.29,0,.71.71,0,0,0,.26-.05.37.37,0,0,0,.17-.22A2.76,2.76,0,0,0,292.45,212.33ZM286.88,210a1.48,1.48,0,0,0,0-.21v-1.19a1.77,1.77,0,0,0,0-.22h2.52V208a.81.81,0,0,0,0-.17h.26l.43,0h.37v.55H293V210h-.59a3.63,3.63,0,0,0,.44.19,1.22,1.22,0,0,1-.1.4.6.6,0,0,1-.18.25.88.88,0,0,1-.27.16,1.77,1.77,0,0,1-.38.09,3.89,3.89,0,0,1-.51,0,6.66,6.66,0,0,1-.76,0,.71.71,0,0,1-.35-.13.38.38,0,0,1-.14-.2,1.7,1.7,0,0,1-.06-.57v-.77a.61.61,0,0,0,0-.14l.9,0a.37.37,0,0,0,0,.11v.77c0,.06,0,.1.08.11a2.78,2.78,0,0,0,.41,0l.29,0a.32.32,0,0,0,.17-.1.8.8,0,0,0,.1-.4h0v-.67h-4.23V210Zm0,.43a3.6,3.6,0,0,0,1.32-.41,1.72,1.72,0,0,0,.73-.79l.8.4-.06.09a4.93,4.93,0,0,1-.3.44,2.52,2.52,0,0,1-.44.42,2.84,2.84,0,0,1-.56.33,6,6,0,0,1-.57.22l-.5.13A6.4,6.4,0,0,0,286.91,210.42Z"/><path class="cls-9" d="M296.57,210.27h.71v.82h-3.61v-.82h.8a8.18,8.18,0,0,0-.28-.94l.35-.08h-.72v-.81H295v-.66l1,0v.63h1.19v.81h-.52l.26.08a.57.57,0,0,0-.07.13C296.72,209.82,296.63,210.09,296.57,210.27Zm.42,1.28a1.86,1.86,0,0,0,0,.27v2.38h-.9v-.28H295v.28h-.9a2.62,2.62,0,0,0,0-.27v-2.11a2.44,2.44,0,0,0,0-.27Zm-2,1.59h1.13v-.84H295Zm.07-3.89c.07.24.16.58.26,1h.45c0-.06.07-.19.13-.38s.11-.42.16-.64Zm5.07-.64c-.2.64-.34,1.09-.43,1.34s-.16.44-.21.58a2.8,2.8,0,0,1,.51.72,1.94,1.94,0,0,1,.17.76,1.18,1.18,0,0,1-.34.9,1.37,1.37,0,0,1-1,.33l-.18-.34c-.08-.15-.16-.28-.23-.39v1.23a4.88,4.88,0,0,0,0,.49h-.92a4.88,4.88,0,0,0,0-.49V208.1h1.9l.1-.1a3.6,3.6,0,0,1,.33.25c.13.1.24.21.35.31Zm-1.31,3.82a.44.44,0,0,0,.35-.15.66.66,0,0,0,.13-.44,1.33,1.33,0,0,0-.19-.66,2,2,0,0,0-.54-.59c.06-.13.14-.35.24-.65s.21-.65.32-1.05h-.69v3.51Z"/><path class="cls-9" d="M288.92,174.54h.72v.88h-1.46a2.81,2.81,0,0,1-.1.49,2.16,2.16,0,0,1-.16.34,1.4,1.4,0,0,1-.81.55,6.17,6.17,0,0,1-1.61.17c0-.1-.14-.44-.35-1a3.13,3.13,0,0,0,.4.06l.44,0a2.54,2.54,0,0,0,.7-.08.72.72,0,0,0,.39-.25,1,1,0,0,0,.12-.31h-4v-.88h4.08c0-.18,0-.32,0-.43h-1.83l-.05.18-1,0c.1-.3.21-.73.33-1.28a10,10,0,0,0,.22-1.2.36.36,0,0,0,0-.1h-.59v.88h-1a1.77,1.77,0,0,0,0-.22v-1.26a1.93,1.93,0,0,0,0-.23h6.06v1.71h-1v-.88h-3l.47,0,0,.09-.06.37h2.54v.79h-2.69l-.08.39h2.64v.29c0,.27,0,.58,0,.93Z"/><path class="cls-9" d="M296.65,175.84h-2a7.83,7.83,0,0,0,.94.29,8.63,8.63,0,0,0,1,.2l-.28.37c-.1.15-.19.27-.24.36a10.45,10.45,0,0,1-1.31-.39,7.27,7.27,0,0,1-1.09-.46l.65-.37h-1.82l.63.36a8.65,8.65,0,0,1-1.07.45,10.94,10.94,0,0,1-1.28.36l-.28-.34-.33-.38.57-.08c.24,0,.49-.1.77-.17a5.41,5.41,0,0,0,.66-.2h-2v-.78h6.42Zm-3.75-4.13h-2.45V171l.64,0h1.81v-.22c0-.06,0-.13,0-.21h.25l.41,0h.35v.4h1.91l.64,0v.76h-2.55V172h1.77v2.86H291.2c0-.11,0-.21,0-.3V172.3c0-.09,0-.19,0-.3h1.7Zm1.79,1.1v-.28h-2.52v.28Zm-2.52.49v.26h2.52v-.26Zm0,1h2.52V174h-2.52Z"/><path class="cls-9" d="M285.85,180.28v4.82c0,.57-.58.86-1.76.86-.09-.21-.25-.53-.47-1a6.43,6.43,0,0,0,.76.06.88.88,0,0,0,.38-.06.18.18,0,0,0,.12-.17v-4.08H281v4.69c0,.15,0,.31,0,.5h-1c0-.19,0-.35,0-.5v-5.58h5.79ZM284.2,182h-2.86v-.8h3.28v.8Zm-1.78,2.63V185h-.86v-2.59h2.78a1.56,1.56,0,0,0,0,.25v2Zm0-.77h1.06v-.68h-1.06Z"/><path class="cls-9" d="M289.57,180.94a9.93,9.93,0,0,1-.47,2.67,6.55,6.55,0,0,1,.69.41c-.19.34-.36.64-.52.89a4.46,4.46,0,0,0-.58-.43,3.79,3.79,0,0,1-1.5,1.47,7.14,7.14,0,0,0-.63-.77,3.36,3.36,0,0,0,1.38-1.18c-.39-.23-.76-.45-1.14-.65q.1-.3.21-.72c.06-.27.13-.56.2-.84h-.51v-.86h.67q.08-.37.12-.75c0-.25.06-.48.08-.69l.93.12a1.55,1.55,0,0,0-.05.23c-.07.4-.13.77-.19,1.09Zm-1.77,2,.54.26a6.18,6.18,0,0,0,.21-.68,6.58,6.58,0,0,0,.14-.75h-.61C288,182.35,287.86,182.74,287.8,183Zm5-.66h.47v.92h-1.09a8.36,8.36,0,0,1,.05.92,4.73,4.73,0,0,1-.07.82,1.34,1.34,0,0,1-.24.54.83.83,0,0,1-.41.3,1.67,1.67,0,0,1-.63.1l-.45,0c0-.08-.07-.22-.14-.43l-.21-.53.29,0,.31,0a.68.68,0,0,0,.37-.08.45.45,0,0,0,.17-.27,2.79,2.79,0,0,0,.05-.59,6.56,6.56,0,0,0-.05-.82h-1.52v-.92H291a2.8,2.8,0,0,0-.19-.43,2,2,0,0,0-.25-.35l.82-.37,0,0v0a5.34,5.34,0,0,0,.43-.5h-2.07v-.88h2.6l.07-.07.38.28.39.33-.11.05a5,5,0,0,1-.42.59,5.35,5.35,0,0,1-.47.54c-.15.16-.27.28-.37.37s.07.2.13.37Z"/><path class="cls-9" d="M295.46,181.91a7.66,7.66,0,0,1-.66.45,6.32,6.32,0,0,1-.67.36,3.44,3.44,0,0,0-.24-.42c-.12-.16-.22-.31-.31-.42a8.16,8.16,0,0,0,.82-.43,7.16,7.16,0,0,0,.84-.59,5.13,5.13,0,0,0,.75-.72,4.19,4.19,0,0,0,.54-.74l1,.18-.07.08a2.14,2.14,0,0,0,.24.34,3.74,3.74,0,0,0,.34.38,6.53,6.53,0,0,0,.51.44,7.68,7.68,0,0,0,.77.53,6.16,6.16,0,0,0,.92.47c-.07.13-.16.29-.25.48a2.75,2.75,0,0,0-.19.44,5.81,5.81,0,0,1-.64-.34,6.68,6.68,0,0,1-.71-.47v.47h-3Zm-.92,1h5.58v.89H298.6a15.08,15.08,0,0,1,1.28,1.84l-.93.45c-.09-.19-.19-.39-.31-.59l-2,.22c-.87.09-1.53.15-2,.18l-.44.06-.23-1h1c.13-.27.23-.51.32-.72l.18-.45h-1.69v-.89Zm2.42-2.49a9,9,0,0,1-1.09,1.15H298A8.89,8.89,0,0,1,297,180.43Zm1.17,4.25a8.59,8.59,0,0,0-.53-.73l.34-.16h-1.35c-.11.28-.27.65-.47,1.09Z"/><path class="cls-9" d="M281.85,148.92c.27.17.56.34.89.51a3,3,0,0,1-.16.68,1.17,1.17,0,0,1-.31.44,1.52,1.52,0,0,1-.6.28,4.21,4.21,0,0,1-1.06.1,6.31,6.31,0,0,1-1-.05.91.91,0,0,1-.47-.17.71.71,0,0,1-.26-.39,2.16,2.16,0,0,1-.09-.7c0-.11,0-.74,0-1.89l-.05,0-.23.08-.23.08-.09-.72h-.31v1.55l.59-.27s0,.18,0,.47,0,.44,0,.49l-.09,0-.54.24-1.08.43a2.39,2.39,0,0,0-.37.15l-.19-.95.41-.11.36-.14v-1.9h-.64v-.88H277v-1.24c0-.1,0-.21,0-.32l.92,0c0,.11,0,.21,0,.29v1.24h.59v.62l.16-.05.16,0v-1.69l.91.06v1.33l.53-.17v-1.48c0-.1,0-.2,0-.31H281c0,.06,0,.15,0,.28v1.21l.82-.27.08-.08.33.24.34.3-.08,0c0,.53,0,.95,0,1.25a3.21,3.21,0,0,1-.1.7.72.72,0,0,1-.21.36.85.85,0,0,1-.37.21,1.55,1.55,0,0,1-.5.07c0-.15-.13-.47-.27-.95a.77.77,0,0,0,.27.07.3.3,0,0,0,.15,0,.34.34,0,0,0,.1-.2,6,6,0,0,0,.05-1l-.59.2v2a3.45,3.45,0,0,0,0,.4h-.86c0-.15,0-.29,0-.4v-1.7l-.53.17v2.17a.67.67,0,0,0,0,.22.32.32,0,0,0,.11.12l.13.05.2,0h.55a3,3,0,0,0,.58,0,.63.63,0,0,0,.33-.15.45.45,0,0,0,.14-.2,1.22,1.22,0,0,0,.06-.32A2.6,2.6,0,0,0,281.85,148.92Z"/><path class="cls-9" d="M285.55,148.4v.91c-.14.06-.42.15-.85.29l-1,.3-.36.12-.16-.93.42-.07.36-.1v-1.29h-.58v-.84h.58v-1h-.7V145h2.25v.85h-.67v1h.56v.84h-.56v1C285.17,148.54,285.41,148.46,285.55,148.4Zm3.58,1.59.54,0v.87h-4.56V150l.54,0h1.47v-.53h-1.35v-.8h1.35v-.46h-1.4c0-.12,0-.23,0-.31v-2.74c0-.09,0-.2,0-.32h3.7v3.37H288v.46h1.45v.8H288V150Zm-2-4.36h-.55v.51h.55Zm-.55,1.25v.54h.55v-.54Zm2-.74v-.51H288v.51Zm-.58,1.28h.58v-.54H288Z"/><path class="cls-9" d="M291.86,148.28a3.65,3.65,0,0,0-.3-.48c0,.32,0,.65-.07,1a6.91,6.91,0,0,1-.15.91,4.48,4.48,0,0,1-.23.73,2.56,2.56,0,0,1-.3.55l-.78-.66a3.21,3.21,0,0,0,.44-1.11,7.69,7.69,0,0,0,.17-1.7v-2.4l0-.28h5.88v.79h-4.94v2a1.86,1.86,0,0,0,.35-.34,2.53,2.53,0,0,0,.31-.42h-.48v-.7h.64v-.42h.41l.38,0v.39h.79v.7h-.57a2,2,0,0,0,.31.26,3.37,3.37,0,0,0,.35.22l-.14.25a3.71,3.71,0,0,0,.41-.33,3,3,0,0,0,.35-.4h-.56v-.7h.69v-.42h.4l.39,0v.39h.81v.7h-.72l.3.3a3.25,3.25,0,0,0,.38.31l.3.19a3.45,3.45,0,0,0-.19.34,1.87,1.87,0,0,0-.14.3,4.92,4.92,0,0,1-.39-.33c-.13-.14-.26-.29-.38-.44,0,.21,0,.38,0,.5a4,4,0,0,0,0,.46h-.79c0-.05,0-.2,0-.46v-.43a3.15,3.15,0,0,1-.31.41,4.57,4.57,0,0,1-.34.31,3.91,3.91,0,0,0-.34-.52c-.05.11-.08.19-.09.22a2.44,2.44,0,0,1-.3-.28,2.41,2.41,0,0,1-.29-.36q0,.51,0,.75c0,.21,0,.33,0,.38h-.79a3.06,3.06,0,0,0,0-.38c0-.11,0-.27,0-.47A3.33,3.33,0,0,1,291.86,148.28Zm2.52,1.8h2.23v.79c-.1,0-.3,0-.6,0H291.9l-.59,0v-.79H292v-1.25l.89,0v1.21h.56v-1.54a1.7,1.7,0,0,0,0-.22H294l.43,0v.48h1.82v.74h-1.82Z"/><path class="cls-9" d="M303.77,150.09c-.16.37-.29.67-.38.91a12.43,12.43,0,0,1-2-.2,5.18,5.18,0,0,1-1.47-.49,3.4,3.4,0,0,1-.95.49,5.65,5.65,0,0,1-1.29.26c-.09-.16-.27-.45-.54-.85a4.63,4.63,0,0,0,2-.47,3.1,3.1,0,0,1-.39-.41,3.59,3.59,0,0,1-.37-.5l.8-.36a2.3,2.3,0,0,0,.59.69l.12-.25a1.75,1.75,0,0,0,.1-.34,2.58,2.58,0,0,0,0-.4h-1.17v.31h-1c0-.1,0-.2,0-.3v-2.34c0-.1,0-.2,0-.31H300v-.69a2.44,2.44,0,0,0,0-.27l1,0v.92h2.16v2.95h-1v-.31h-1.19a3.07,3.07,0,0,1-.41,1.45,6.39,6.39,0,0,0,1.39.35A12.87,12.87,0,0,0,303.77,150.09Zm-5-3.68v.87H300v-.87Zm3.32,0h-1.19v.87h1.19Z"/><path class="cls-9" d="M282.29,158.67v.3H281v.54h-.77c0-.12,0-.23,0-.33v-1.81a3,3,0,0,1-.4.47,3,3,0,0,0-.14-.45l-.18-.49a3.36,3.36,0,0,0,.43-.64,6.06,6.06,0,0,0,.36-.84,7,7,0,0,0,.21-.76h-.81v-.88h2.7v.88h-1.11a8.34,8.34,0,0,1-.29,1.09h1.27v2.92Zm-1.28-.48h.52v-1.67H281Zm4.68-2.14h.47V157h-.55v2.51c0,.14,0,.31,0,.49h-.95c0-.18,0-.35,0-.49V157h-.62a4.65,4.65,0,0,1-.37,1.84,2.86,2.86,0,0,1-1,1.26,4.3,4.3,0,0,0-.78-.63,2.2,2.2,0,0,0,.51-.4,2.66,2.66,0,0,0,.39-.54,2.58,2.58,0,0,0,.25-.69,3.62,3.62,0,0,0,.09-.82v0h-.68V156h.68v-1.41h-.47v-.87H286v.87h-.42v1.41Zm-1.62,0h.62v-1.41h-.62Z"/><path class="cls-9" d="M292.45,158.06l.37.25.44.25a2.35,2.35,0,0,1-.16.84.88.88,0,0,1-.42.41,2,2,0,0,1-.81.13,3.07,3.07,0,0,1-.75-.07.7.7,0,0,1-.4-.21.6.6,0,0,1-.14-.41q0-.24.06-1.23h-.83a3.27,3.27,0,0,1-.48.79,3.68,3.68,0,0,1-.62.57,3.73,3.73,0,0,1-.7.4,6.23,6.23,0,0,1-.7.27c-.14-.2-.34-.46-.61-.78a4.54,4.54,0,0,0,1.26-.5,2.59,2.59,0,0,0,.82-.75H287.2v-.84h1.94a2.79,2.79,0,0,0,.07-.68,2.71,2.71,0,0,0,0-.29l.9,0a1,1,0,0,0,0,.19,4.49,4.49,0,0,1-.06.73h1.59c0,.16,0,.46,0,.9s0,.71,0,.79a.14.14,0,0,0,.11.15,1.15,1.15,0,0,0,.29,0,.71.71,0,0,0,.26,0,.37.37,0,0,0,.17-.22A2.79,2.79,0,0,0,292.45,158.06Zm-5.57-2.33a1.48,1.48,0,0,0,0-.21v-1.19a1.77,1.77,0,0,0,0-.22h2.52v-.41a.76.76,0,0,0,0-.17h.26l.43,0h.37v.55H293v1.62h-.59l.44.19a1.22,1.22,0,0,1-.1.4.67.67,0,0,1-.18.25.88.88,0,0,1-.27.16,1.77,1.77,0,0,1-.38.09,3.89,3.89,0,0,1-.51,0,6.66,6.66,0,0,1-.76,0,.71.71,0,0,1-.35-.13.38.38,0,0,1-.14-.2,1.7,1.7,0,0,1-.06-.57v-.77a.61.61,0,0,0,0-.14l.9.05a.37.37,0,0,0,0,.11v.77a.1.1,0,0,0,.08.11,2.78,2.78,0,0,0,.41,0l.29,0a.32.32,0,0,0,.17-.1.8.8,0,0,0,.1-.4h0v-.67h-4.23v.84Zm0,.43a3.42,3.42,0,0,0,1.32-.42A1.66,1.66,0,0,0,289,155l.8.4-.06.09a4.93,4.93,0,0,1-.3.44,2.52,2.52,0,0,1-.44.42,2.84,2.84,0,0,1-.56.33,6,6,0,0,1-.57.22l-.5.13A5.82,5.82,0,0,0,286.91,156.16Z"/><path class="cls-9" d="M296.57,156h.71v.82h-3.61V156h.8a8.18,8.18,0,0,0-.28-.94l.35-.09h-.72v-.81H295v-.66l1,0v.63h1.19V155h-.52l.26.09-.07.12C296.72,155.55,296.63,155.83,296.57,156Zm.42,1.28a1.79,1.79,0,0,0,0,.27v2.38h-.9v-.28H295v.28h-.9a2.62,2.62,0,0,0,0-.27v-2.11a2.44,2.44,0,0,0,0-.27Zm-2,1.59h1.13V158H295ZM295,155c.07.25.16.59.26,1h.45c0-.06.07-.19.13-.38s.11-.42.16-.65Zm5.07-.63c-.2.64-.34,1.09-.43,1.34s-.16.44-.21.58a2.8,2.8,0,0,1,.51.72,1.94,1.94,0,0,1,.17.76,1.18,1.18,0,0,1-.34.9,1.36,1.36,0,0,1-1,.32l-.18-.33c-.08-.15-.16-.28-.23-.39v1.23a4.88,4.88,0,0,0,0,.49h-.92a4.88,4.88,0,0,0,0-.49v-5.64h1.9l.1-.1a3.6,3.6,0,0,1,.33.25c.13.1.24.21.35.31Zm-1.31,3.82a.44.44,0,0,0,.35-.15.66.66,0,0,0,.13-.44,1.33,1.33,0,0,0-.19-.66,2,2,0,0,0-.54-.59c.06-.13.14-.35.24-.65s.21-.66.32-1.05h-.69v3.5A1.89,1.89,0,0,0,298.79,158.17Z"/><path class="cls-10" d="M240.21,193.81a1.5,1.5,0,1,0-1.5-1.5A1.5,1.5,0,0,0,240.21,193.81Z"/><path class="cls-10" d="M241.68,195.59a1.49,1.49,0,0,0-1.42-1h-.09a1.49,1.49,0,0,0-1.42,1l-1.91,5.72h2.25v4.5h2.25v-4.5h2.25Z"/><path class="cls-10" d="M73.21,38.61a1.6,1.6,0,1,0-1.6-1.6A1.6,1.6,0,0,0,73.21,38.61Z"/><path class="cls-10" d="M74.41,39.41H72a1.6,1.6,0,0,0-1.6,1.6v4.4h1.2v6h3.2v-6H76V41A1.6,1.6,0,0,0,74.41,39.41Z"/><line class="cls-3" x1="271.04" y1="164.99" x2="273.04" y2="164.99"/><line class="cls-11" x1="276.73" y1="164.99" x2="304.43" y2="164.99"/><line class="cls-3" x1="306.27" y1="164.99" x2="308.27" y2="164.99"/><line class="cls-3" x1="209.16" y1="138.15" x2="209.16" y2="140.15"/><line class="cls-4" x1="209.16" y1="143.97" x2="209.16" y2="164.99"/><line class="cls-3" x1="209.16" y1="166.9" x2="209.16" y2="168.9"/><line class="cls-3" x1="168.01" y1="138.15" x2="168.01" y2="140.15"/><line class="cls-4" x1="168.01" y1="143.97" x2="168.01" y2="164.99"/><line class="cls-3" x1="168.01" y1="166.9" x2="168.01" y2="168.9"/></g></svg>