<svg xmlns="http://www.w3.org/2000/svg" viewBox="0 0 364.03 218.52"><defs><style>.cls-1{fill:#4d4d4d;}.cls-2{fill:#727171;}.cls-10,.cls-3,.cls-4,.cls-5,.cls-6,.cls-7{fill:none;stroke-miterlimit:10;}.cls-10,.cls-3,.cls-4,.cls-5{stroke:#231815;}.cls-4{stroke-dasharray:3.95 3.95;}.cls-5{stroke-dasharray:3.74 3.74;}.cls-6,.cls-7{stroke:#000;}.cls-7{stroke-width:0.5px;}.cls-8{fill:#fff;}.cls-9{fill:#040000;}.cls-10{stroke-dasharray:3.8 3.8;}</style></defs><title>4階フロアマップ</title><g id="BG"><rect class="cls-1" x="218.8" y="30.97" width="44.56" height="38.18" transform="translate(482.16 100.13) rotate(-180)"/><rect class="cls-1" x="174.24" y="30.97" width="44.56" height="38.18" transform="translate(393.04 100.13) rotate(-180)"/><rect class="cls-1" x="129.68" y="30.97" width="44.56" height="38.18" transform="translate(303.92 100.13) rotate(-180)"/><rect class="cls-1" x="85.12" y="30.97" width="44.56" height="38.18" transform="translate(214.81 100.13) rotate(-180)"/><rect class="cls-1" x="153.23" y="124.2" width="42.33" height="31.65" transform="translate(348.79 280.04) rotate(-180)"/><rect class="cls-1" x="110.9" y="124.2" width="42.33" height="31.65" transform="translate(264.12 280.04) rotate(-180)"/><rect class="cls-1" x="68.56" y="124.2" width="42.33" height="31.65" transform="translate(179.46 280.04) rotate(-180)"/><rect class="cls-1" x="26.44" y="124.2" width="42.12" height="31.65" transform="translate(95 280.04) rotate(-180)"/><rect class="cls-1" x="237.98" y="153.3" width="42.42" height="38.21" transform="translate(518.38 344.8) rotate(-180)"/><rect class="cls-1" x="280.4" y="85.68" width="56.61" height="26.45" transform="translate(617.41 197.8) rotate(-180)"/><rect class="cls-1" x="292.9" y="62.4" width="44.12" height="23.27" transform="translate(629.91 148.08) rotate(-180)"/><rect class="cls-2" x="195.56" y="124.2" width="30.2" height="31.65"/></g><g id="FRAME"><line class="cls-3" x1="225.76" y1="124.2" x2="225.76" y2="126.2"/><line class="cls-4" x1="225.76" y1="130.15" x2="225.76" y2="151.87"/><polyline class="cls-3" points="225.76 153.85 225.76 155.85 223.76 155.85"/><line class="cls-5" x1="220.01" y1="155.85" x2="199.43" y2="155.85"/><line class="cls-3" x1="197.56" y1="155.85" x2="195.56" y2="155.85"/><rect class="cls-6" x="218.8" y="30.97" width="44.56" height="38.18" transform="translate(482.16 100.13) rotate(-180)"/><rect class="cls-6" x="174.24" y="30.97" width="44.56" height="38.18" transform="translate(393.04 100.13) rotate(-180)"/><rect class="cls-6" x="129.68" y="30.97" width="44.56" height="38.18" transform="translate(303.92 100.13) rotate(-180)"/><rect class="cls-6" x="85.12" y="30.97" width="44.56" height="38.18" transform="translate(214.81 100.13) rotate(-180)"/><polyline class="cls-6" points="263.36 30.97 263.36 23.54 314.61 23.54 314.61 48.27 280.4 48.27 280.4 62.4"/><rect class="cls-6" x="68.56" y="30.97" width="16.56" height="38.18" transform="translate(153.69 100.13) rotate(-180)"/><rect class="cls-6" x="153.23" y="124.2" width="42.33" height="31.65" transform="translate(348.79 280.04) rotate(-180)"/><rect class="cls-6" x="110.9" y="124.2" width="42.33" height="31.65" transform="translate(264.12 280.04) rotate(-180)"/><rect class="cls-6" x="68.56" y="124.2" width="42.33" height="31.65" transform="translate(179.46 280.04) rotate(-180)"/><polyline class="cls-6" points="68.56 30.97 51.81 30.97 51.81 81.24 259.39 81.24 259.39 124.2 195.56 124.2"/><rect class="cls-6" x="68.56" y="166.52" width="148.16" height="24.99" transform="translate(285.29 358.03) rotate(-180)"/><rect class="cls-6" x="26.44" y="124.2" width="42.12" height="31.65" transform="translate(95 280.04) rotate(-180)"/><rect class="cls-6" x="237.98" y="153.3" width="42.42" height="38.21" transform="translate(518.38 344.8) rotate(-180)"/><line class="cls-6" x1="237.98" y1="191.51" x2="216.73" y2="191.51"/><rect class="cls-6" x="237.98" y="136.37" width="42.42" height="16.93" transform="translate(518.38 289.66) rotate(-180)"/><line class="cls-6" x1="280.4" y1="120.02" x2="280.4" y2="136.37"/><rect class="cls-6" x="47.71" y="166.52" width="20.85" height="24.99" transform="translate(116.27 358.03) rotate(-180)"/><rect class="cls-6" x="280.4" y="112.13" width="56.61" height="7.89" transform="translate(617.41 232.14) rotate(-180)"/><rect class="cls-6" x="280.4" y="85.68" width="56.61" height="26.45" transform="translate(617.41 197.8) rotate(-180)"/><rect class="cls-6" x="292.9" y="62.4" width="44.12" height="23.27" transform="translate(629.91 148.08) rotate(-180)"/><polyline class="cls-6" points="292.9 62.4 280.4 62.4 280.4 76.43"/><polyline class="cls-6" points="26.44 155.85 26.44 191.51 47.71 191.51"/><line class="cls-7" x1="37.07" y1="182.12" x2="47.71" y2="182.12"/><line class="cls-7" x1="37.07" y1="179.99" x2="47.71" y2="179.99"/><line class="cls-7" x1="37.07" y1="177.86" x2="47.71" y2="177.86"/><line class="cls-7" x1="37.07" y1="175.74" x2="47.71" y2="175.74"/><line class="cls-7" x1="37.07" y1="173.61" x2="47.71" y2="173.61"/><line class="cls-7" x1="37.07" y1="171.48" x2="47.71" y2="171.48"/><line class="cls-7" x1="37.07" y1="169.36" x2="47.71" y2="169.36"/><line class="cls-6" x1="37.07" y1="169.36" x2="37.07" y2="185.98"/><line class="cls-7" x1="216.72" y1="182.12" x2="227.35" y2="182.12"/><line class="cls-7" x1="216.72" y1="179.99" x2="227.35" y2="179.99"/><line class="cls-7" x1="216.72" y1="177.86" x2="227.35" y2="177.86"/><line class="cls-7" x1="216.72" y1="175.74" x2="227.35" y2="175.74"/><line class="cls-7" x1="216.72" y1="173.61" x2="227.35" y2="173.61"/><line class="cls-7" x1="216.72" y1="171.48" x2="227.35" y2="171.48"/><line class="cls-7" x1="216.72" y1="169.36" x2="227.35" y2="169.36"/><line class="cls-6" x1="227.35" y1="169.36" x2="227.35" y2="185.98"/><line class="cls-7" x1="59.95" y1="63.54" x2="68.09" y2="63.54"/><line class="cls-7" x1="59.95" y1="61.31" x2="68.09" y2="61.31"/><line class="cls-7" x1="59.95" y1="59.08" x2="68.09" y2="59.08"/><line class="cls-7" x1="59.95" y1="56.85" x2="68.09" y2="56.85"/><line class="cls-7" x1="59.95" y1="54.63" x2="68.09" y2="54.63"/><line class="cls-7" x1="59.95" y1="52.4" x2="68.09" y2="52.4"/><line class="cls-7" x1="59.95" y1="50.17" x2="68.09" y2="50.17"/><line class="cls-7" x1="59.95" y1="47.94" x2="68.09" y2="47.94"/><line class="cls-6" x1="59.95" y1="44.08" x2="59.95" y2="63.54"/><line class="cls-7" x1="283.23" y1="36.12" x2="283.23" y2="48.14"/><line class="cls-7" x1="285.61" y1="36.12" x2="285.61" y2="48.14"/><line class="cls-7" x1="287.98" y1="36.12" x2="287.98" y2="48.14"/><line class="cls-7" x1="290.35" y1="36.12" x2="290.35" y2="48.14"/><line class="cls-7" x1="292.72" y1="36.12" x2="292.72" y2="48.14"/><line class="cls-7" x1="295.09" y1="36.12" x2="295.09" y2="48.14"/><line class="cls-7" x1="297.46" y1="36.12" x2="297.46" y2="48.14"/><line class="cls-7" x1="299.83" y1="36.12" x2="299.83" y2="48.14"/><line class="cls-7" x1="302.2" y1="36.12" x2="302.2" y2="48.14"/><line class="cls-6" x1="283.23" y1="36.12" x2="306.65" y2="36.12"/></g><g id="LABEL-OL"><path class="cls-8" d="M232,42.11l.79.27a5.38,5.38,0,0,1-.26.77,5.07,5.07,0,0,1-.38.74,2.68,2.68,0,0,1-.37.48,4.63,4.63,0,0,0-.79-.55,1.81,1.81,0,0,0,.36-.37,3.11,3.11,0,0,0,.3-.44,3.31,3.31,0,0,0,.22-.47A2.93,2.93,0,0,0,232,42.11Zm2.28-.48v1.6l0,.77a.88.88,0,0,1-.09.41.73.73,0,0,1-.28.27,1.77,1.77,0,0,1-.46.16,4.19,4.19,0,0,1-.65,0c0-.08-.08-.22-.17-.42s-.17-.38-.25-.53a2.07,2.07,0,0,0,.68.1.4.4,0,0,0,.25-.06.35.35,0,0,0,.06-.24v-2.1h-2v-.89l.4,0h1.56v-.55a2.72,2.72,0,0,0,0-.48l1,.07,0,.14a2.29,2.29,0,0,0,0,.31v.51h1.9v.89h-1.9Zm.52.78.77-.34a3.86,3.86,0,0,0,.2.48,5.09,5.09,0,0,0,.35.63,6.25,6.25,0,0,0,.42.56l-.75.54c-.08-.13-.19-.29-.31-.49s-.25-.44-.38-.7A6.86,6.86,0,0,1,234.75,42.41ZM236,40.55a.58.58,0,0,1-.6-.6.62.62,0,0,1,.17-.44.61.61,0,0,1,.43-.17.68.68,0,0,1,.31.08.58.58,0,0,1,.22.22.68.68,0,0,1,.08.31.67.67,0,0,1-.08.3.52.52,0,0,1-.22.22A.58.58,0,0,1,236,40.55Zm0-.94-.14,0a.3.3,0,0,0-.13.12.33.33,0,0,0-.06.19.39.39,0,0,0,0,.14.31.31,0,0,0,.12.14.37.37,0,0,0,.18.05.4.4,0,0,0,.15,0,.29.29,0,0,0,.13-.12.29.29,0,0,0,.05-.18.4.4,0,0,0,0-.15.27.27,0,0,0-.11-.13A.33.33,0,0,0,236,39.61Z"/><path class="cls-8" d="M235.81,46.58h.41v.83h-1.45a4.24,4.24,0,0,1-.12.86,4.35,4.35,0,0,1-.3.83,3.11,3.11,0,0,1-.47.69,3,3,0,0,1-.56.52,3.51,3.51,0,0,1-.65.37,1.55,1.55,0,0,0-.22-.24c-.09-.09-.26-.23-.51-.43a2.51,2.51,0,0,0,.58-.26,2.36,2.36,0,0,0,.5-.38,2.45,2.45,0,0,0,.67-1.06,3,3,0,0,0,.14-.56c0-.17,0-.28,0-.34h-1.12a6.72,6.72,0,0,1-.48.67,4.22,4.22,0,0,1-.54.51A6.57,6.57,0,0,0,231,48a3.56,3.56,0,0,0,.34-.29,4.28,4.28,0,0,0,.38-.43q.19-.26.39-.57a6.53,6.53,0,0,0,.35-.7,5.12,5.12,0,0,0,.22-.71l1,.24a.9.9,0,0,0-.12.24c0,.1-.08.24-.14.41s-.12.3-.16.39Z"/><path class="cls-8" d="M235.78,53.78h-2v.74a.37.37,0,0,0,.07.23.46.46,0,0,0,.22.11,2.22,2.22,0,0,0,.41,0l.55,0a6.68,6.68,0,0,0,.85-.08v.86a13.61,13.61,0,0,1-1.63.08,1.79,1.79,0,0,1-1-.25.86.86,0,0,1-.33-.74v-1h-1.7V53l.43,0h1.28v-.89H232l-.37,0v-.85h4.1v.85l-.37,0h-1.56V53h2.4v.84Z"/><path class="cls-8" d="M232.84,57.75c-.09-.08-.21-.18-.36-.29s-.33-.23-.52-.36l-.55-.34L232,56c.2.11.43.26.69.44s.51.36.74.55Zm3-1.35.57.86a6,6,0,0,1-.95,1.25,8.25,8.25,0,0,1-1.27,1.05,12,12,0,0,1-1.59.88l-.18.08-.09.06-.61-.85a6.62,6.62,0,0,0,1.31-.52,7.22,7.22,0,0,0,1.17-.78,6.64,6.64,0,0,0,1-1A5.71,5.71,0,0,0,235.82,56.4Z"/><path class="cls-8" d="M228.92,40.73h.37v.87h-1v.13a3,3,0,0,1-.51,1.77,3.18,3.18,0,0,1-1.52,1.11,4.62,4.62,0,0,0-.69-.64,3,3,0,0,0,1.41-.84,2.1,2.1,0,0,0,.44-1.37v-.16h-1.16v.8l0,.39h-.9V41.58h-1.14v-.87h1.14v-.52a5.42,5.42,0,0,0,0-.55l.93.07a.88.88,0,0,0,0,.2,2.32,2.32,0,0,0,0,.24v.56h1.16v-.65c0-.09,0-.24,0-.43l.94.07c0,.06,0,.16,0,.28s0,.21,0,.29v.44Z"/><path class="cls-8" d="M226.19,49.53v-4c0-.19,0-.34,0-.45h1a4,4,0,0,0,0,.45v3.59c0,.2,0,.35,0,.44Z"/><path class="cls-8" d="M228.41,50.88l.65.51-.09.11A7.39,7.39,0,0,1,228.2,53a6,6,0,0,1-1.12,1.31,6.72,6.72,0,0,1-1.51,1,1.57,1.57,0,0,0-.26-.25,2.6,2.6,0,0,0-.28-.24,1.06,1.06,0,0,0-.21-.14l.45-.21.42-.24c.14-.09.3-.2.48-.34a6.78,6.78,0,0,0,.61-.54,5.91,5.91,0,0,0,.62-.74,4.94,4.94,0,0,0,.49-.9h-1.42a9,9,0,0,1-.67.83,6.61,6.61,0,0,1-.71.64l-.2-.18-.3-.22-.27-.16a5.55,5.55,0,0,0,.55-.46,6.18,6.18,0,0,0,.68-.73,7.74,7.74,0,0,0,.57-.82,4.17,4.17,0,0,0,.31-.67l.94.27-.08.11a.66.66,0,0,0-.08.13c-.09.2-.17.34-.22.44h1.33Z"/><path class="cls-8" d="M225.17,57.1v-.24c0-.12,0-.28,0-.49a4.11,4.11,0,0,0,0-.53l1,.06a12,12,0,0,0,0,1.23c0,.32,0,.64,0,.95a4.34,4.34,0,0,1-.19.86,3,3,0,0,1-.39.76,4.82,4.82,0,0,1-.71.78l-.2-.18-.3-.25-.29-.22a2.87,2.87,0,0,0,.58-.5,2.42,2.42,0,0,0,.38-.6,3.12,3.12,0,0,0,.2-.73A5,5,0,0,0,225.17,57.1Zm4.1.27a4.3,4.3,0,0,0,.18.47,2.55,2.55,0,0,0,.2.43,8.54,8.54,0,0,1-2,1.68.53.53,0,0,0-.17.14l-.74-.6a.28.28,0,0,0,.09-.17V56.16a3.87,3.87,0,0,0,0-.48l1,.07a.74.74,0,0,0,0,.19c0,.05,0,.15,0,.28v2.64a4.8,4.8,0,0,0,.52-.37,7.15,7.15,0,0,0,.58-.54A4.13,4.13,0,0,0,229.27,57.37Z"/><path class="cls-8" d="M255.8,36.22v1.2a10.67,10.67,0,0,1,1.18.52,6.77,6.77,0,0,1,1,.59l-.41.77c-.25-.16-.53-.34-.86-.53s-.63-.34-.92-.47v2.09c0,.16,0,.3,0,.42h-1l0-.42V36.24c0-.19,0-.34,0-.47l1,.06A1.85,1.85,0,0,0,255.8,36.22Zm1.44.86a2.52,2.52,0,0,0-.27-.39,4.06,4.06,0,0,0-.3-.35l.4-.24a4.17,4.17,0,0,1,.32.35,4,4,0,0,1,.28.37Zm.66-.37a2.61,2.61,0,0,0-.28-.38,2.68,2.68,0,0,0-.32-.34l.4-.23.18.17.23.26a2.61,2.61,0,0,1,.2.27Z"/><path class="cls-8" d="M257.68,42.85l.59.49-.09.09a4.36,4.36,0,0,1-2.92,3.08,4.33,4.33,0,0,0-.72-.71,4,4,0,0,0,.67-.21,3.9,3.9,0,0,0,.64-.33,3.14,3.14,0,0,0,.57-.45,3,3,0,0,0,.43-.52,3.4,3.4,0,0,0,.27-.54h-3.27V42.9h3.72Zm-.31-.62h-2.69l-.38,0v-.86l.38,0h2.69l.3,0v.86Z"/><path class="cls-8" d="M258.41,51.32l.08.83-.75.07-.72,0a1.4,1.4,0,0,1-.43-.06.69.69,0,0,1-.32-.22,1.46,1.46,0,0,1-.22-.54,1.82,1.82,0,0,0-.11-.35.47.47,0,0,0-.14-.2.19.19,0,0,0-.14-.05.45.45,0,0,0-.17,0,1.41,1.41,0,0,0-.34.26,7.21,7.21,0,0,0-.52.57l-.53.63-.74-.61c.28-.25.75-.69,1.41-1.33L256,49.2l-.93.13c-.46.06-.76.1-.89.13l-.13-.86.81-.05,1.13-.11.8-.09.17-.05.51.68a1.29,1.29,0,0,0-.35.18c-.1.07-.23.19-.39.33l-.79.73h.1a.58.58,0,0,1,.41.15,1.08,1.08,0,0,1,.23.48,2.56,2.56,0,0,0,.14.44.32.32,0,0,0,.17.16.58.58,0,0,0,.19,0,4.59,4.59,0,0,0,.59,0Zm-1.31-4.06-.16.76c-.23,0-.51,0-.83-.07l-.86-.13a5.69,5.69,0,0,1-.58-.12l.19-.79c.22.06.53.12.95.19S256.65,47.22,257.1,47.26Z"/><path class="cls-8" d="M257.53,54.86a1.67,1.67,0,0,1,.55.62,1.69,1.69,0,0,1,.21.78,1.8,1.8,0,0,1-.24.92,1.61,1.61,0,0,1-.7.64,2.29,2.29,0,0,1-1,.23,2.59,2.59,0,0,1-.63-.07,1.37,1.37,0,0,1-.51-.26,1.16,1.16,0,0,1-.36-.47,1.83,1.83,0,0,1-.13-.75c0-.17,0-.34,0-.51-.33,0-.69-.08-1.06-.15l0-.86.53.12.58.08.1-.75a8.1,8.1,0,0,1-1.08-.18l0-.83a8.35,8.35,0,0,0,1.16.21l.05-.39c0-.36.08-.59.08-.7l.93.15q-.06.23-.15.69c0,.12,0,.22,0,.3a8.43,8.43,0,0,0,1-.08v.79a9.53,9.53,0,0,1-1.11.07l-.1.76.44,0,.38,0,.21,0,0,.81a3.28,3.28,0,0,1-.52.07l-.63,0c0,.16,0,.31,0,.46a.65.65,0,0,0,0,.19.66.66,0,0,0,.06.2.65.65,0,0,0,.15.18.52.52,0,0,0,.23.13,1,1,0,0,0,.31,0,1.47,1.47,0,0,0,.36,0,1.43,1.43,0,0,0,.31-.12,1.64,1.64,0,0,0,.25-.21.9.9,0,0,0,.17-.3,1.39,1.39,0,0,0,.05-.33,1,1,0,0,0-.08-.37,1,1,0,0,0-.22-.33,1.34,1.34,0,0,0-.26-.23A6.94,6.94,0,0,0,257.53,54.86Z"/><path class="cls-8" d="M258.05,61.42a1.51,1.51,0,0,0,.18.18,2.27,2.27,0,0,0,.27.25l.27.21a2.87,2.87,0,0,1-.37.86,1.81,1.81,0,0,1-.61.59,1.57,1.57,0,0,1-.8.21,1.37,1.37,0,0,1-.36,0,.86.86,0,0,1-.32-.15.73.73,0,0,1-.22-.27,1.51,1.51,0,0,1-.13-.33c0-.11-.06-.29-.1-.55a5,5,0,0,0-.09-.5.39.39,0,0,0-.12-.23.28.28,0,0,0-.21-.08.41.41,0,0,0-.19.06.83.83,0,0,0-.23.23,2.84,2.84,0,0,0-.23.4c-.07.15-.15.35-.23.58s-.18.54-.29.92l-.93-.26q.6-1.57,2-4.68a3.19,3.19,0,0,0,.13-.34l.92.37a2.41,2.41,0,0,0-.25.39c-.2.34-.48.88-.83,1.61l.18-.05h.16a.87.87,0,0,1,.4.08.89.89,0,0,1,.3.24,1.21,1.21,0,0,1,.18.38q0,.12.06.33l.06.43c0,.15,0,.23,0,.23a.52.52,0,0,0,.12.28.29.29,0,0,0,.22.09.61.61,0,0,0,.31-.09.89.89,0,0,0,.28-.27,1.71,1.71,0,0,0,.24-.45A2.68,2.68,0,0,0,258.05,61.42Z"/><path class="cls-8" d="M251.45,41.64v4.13c0,.49-.5.74-1.51.74-.08-.18-.21-.45-.4-.82a4.7,4.7,0,0,0,.65.06.87.87,0,0,0,.33,0,.16.16,0,0,0,.1-.15V42.06h-3.3v4c0,.13,0,.27,0,.43h-.85c0-.16,0-.3,0-.43V41.53l0-.24h5ZM250,43.1h-2.45v-.69h2.81v.69Zm-1.52,2.25v.32h-.74V43.45h2.38v1.9Zm0-.66h.91v-.57h-.91Z"/><path class="cls-8" d="M248.64,48.21a8.1,8.1,0,0,1-.41,2.28,6.16,6.16,0,0,1,.6.36c-.16.29-.31.54-.45.76a4.12,4.12,0,0,0-.49-.37,3.26,3.26,0,0,1-1.29,1.26,7.26,7.26,0,0,0-.54-.66,2.75,2.75,0,0,0,1.18-1c-.33-.2-.65-.39-1-.55,0-.18.11-.39.17-.62s.12-.48.17-.73h-.43V48.2h.57c0-.22.08-.43.1-.65s.05-.4.07-.58c.26,0,.53.06.8.1a.59.59,0,0,0,0,.2c-.06.34-.11.65-.17.93Zm-1.52,1.73.46.22a3.33,3.33,0,0,0,.18-.58,4.67,4.67,0,0,0,.13-.65h-.53C247.25,49.42,247.17,49.75,247.12,49.94Zm4.26-.57h.41v.78h-.94a6.41,6.41,0,0,1,0,.79,3.44,3.44,0,0,1-.06.7,1.13,1.13,0,0,1-.2.47.8.8,0,0,1-.36.26,1.62,1.62,0,0,1-.54.08,2,2,0,0,1-.38,0c0-.06-.06-.19-.12-.36l-.18-.46a1.31,1.31,0,0,0,.25,0h.27a.6.6,0,0,0,.31-.06.35.35,0,0,0,.14-.24,2,2,0,0,0,0-.5,5.14,5.14,0,0,0,0-.71h-1.3v-.78h1.13a2.48,2.48,0,0,0-.17-.37,1.61,1.61,0,0,0-.21-.3l.7-.31,0,0h0l.37-.43h-1.78v-.75H251l.06-.07.33.24c.12.1.24.2.33.29l-.1,0a5.88,5.88,0,0,1-.35.51c-.14.17-.28.33-.41.46a3,3,0,0,1-.32.31,2.8,2.8,0,0,1,.11.32Z"/><path class="cls-8" d="M247.69,55a4.35,4.35,0,0,1-.57.38,5.45,5.45,0,0,1-.57.32,4,4,0,0,0-.21-.36c-.1-.15-.19-.27-.27-.37a6.78,6.78,0,0,0,.71-.36,8,8,0,0,0,.72-.51,5.33,5.33,0,0,0,.64-.61,3.08,3.08,0,0,0,.46-.64l.88.15-.06.08a3.07,3.07,0,0,0,.2.28,2.24,2.24,0,0,0,.3.33c.11.11.26.23.43.37a5.73,5.73,0,0,0,.66.46,4.52,4.52,0,0,0,.79.4l-.21.41a3.31,3.31,0,0,0-.17.38,6,6,0,0,1-.55-.29c-.19-.11-.39-.25-.6-.4v.4h-2.58Zm-.79.86h4.78v.76h-1.3a11.26,11.26,0,0,1,1.09,1.58l-.79.39a4.19,4.19,0,0,0-.27-.51l-1.68.19-1.69.15-.38,0-.2-.84h.85c.11-.22.2-.43.28-.62l.15-.38h-1.45V55.9ZM249,53.77a7.75,7.75,0,0,1-.93,1h1.86A7.09,7.09,0,0,1,249,53.77Zm1,3.64a7.61,7.61,0,0,0-.45-.62l.29-.14h-1.16c-.09.24-.23.55-.4.93C248.87,57.53,249.44,57.47,250,57.41Z"/><path class="cls-8" d="M103.75,47.41q-.31.63-.45,1a8,8,0,0,1-1.18-.35,6.68,6.68,0,0,1-1-.48,6.07,6.07,0,0,1-.71-.5,5.82,5.82,0,0,1-1.29.82,6.19,6.19,0,0,1-1.52.51c-.08-.19-.25-.5-.49-.94A7.37,7.37,0,0,0,98.53,47a5.5,5.5,0,0,0,1.17-.67A5.66,5.66,0,0,1,99,45.21a7.44,7.44,0,0,1-.51-1.37H97.3v-.92c.12,0,.36,0,.72,0h1.83v-.88a1.56,1.56,0,0,0,0-.2h.26l.42,0h.36s0,.1,0,.17V43h1.92l.71,0v.92h-1.14a6.41,6.41,0,0,1-.49,1.35,5.63,5.63,0,0,1-.77,1.15A6.82,6.82,0,0,0,103.75,47.41Zm-2.39-3.57H99.43a4.28,4.28,0,0,0,1,1.88,4.39,4.39,0,0,0,.58-.87A4.56,4.56,0,0,0,101.36,43.84Z"/><path class="cls-8" d="M104.11,44.69a5.08,5.08,0,0,0,.79-.88,7.13,7.13,0,0,0,.68-1.06,4.13,4.13,0,0,0,.32-.83l1,.28-.06.07a9.9,9.9,0,0,1-.64,1.39v4.17c0,.23,0,.39,0,.47h-1c0-.17,0-.32,0-.47V47.7c0-.07,0-.35,0-.83s0-1.12,0-1.92a4.31,4.31,0,0,1-.71.75A9.45,9.45,0,0,0,104.11,44.69Zm5.64,1.22.35.21.39.24.2.11a4.21,4.21,0,0,1-.12.84,1.24,1.24,0,0,1-.29.53,1.09,1.09,0,0,1-.53.29,3.5,3.5,0,0,1-.88.1,4.65,4.65,0,0,1-.85-.06,1,1,0,0,1-.44-.16.74.74,0,0,1-.24-.38,2.35,2.35,0,0,1-.08-.67c0-.24,0-1.82,0-4.73a2.09,2.09,0,0,0,0-.25c.28,0,.61.05,1,.06a1.27,1.27,0,0,0,0,.22v2c.34-.23.66-.47,1-.7a4.62,4.62,0,0,0,.63-.63l.65.79-.15.08a6.18,6.18,0,0,1-.48.43c-.2.17-.46.36-.75.57s-.58.4-.85.56V47a.28.28,0,0,0,.06.2.29.29,0,0,0,.15.09,2.53,2.53,0,0,0,.5,0,1.4,1.4,0,0,0,.4,0,.48.48,0,0,0,.25-.14,1.07,1.07,0,0,0,.11-.39A5.35,5.35,0,0,0,109.75,45.91Z"/><path class="cls-8" d="M114.86,46.31v1.24a.57.57,0,0,1-.08.32.81.81,0,0,1-.26.26,1.53,1.53,0,0,1-.46.17,2.93,2.93,0,0,1-.63.06c0-.13-.18-.44-.4-.92a3.5,3.5,0,0,0,.54.05.56.56,0,0,0,.27-.05.17.17,0,0,0,.09-.16v-1h-2.11v-.68l-.36.16A5.28,5.28,0,0,0,111,45a5,5,0,0,0,1-.45,4.72,4.72,0,0,0-.5-.3l.07-.09a5.65,5.65,0,0,0-.57-.62,4,4,0,0,0,.64-.47,3.93,3.93,0,0,0,.59-.64,2.68,2.68,0,0,0,.37-.64l.86.17,0,.09-.13.27h.84l-.09-.24.82-.21a5.2,5.2,0,0,0,.21.55v-.17h1.73l.07-.07.29.23.29.26-.09.05a5.74,5.74,0,0,1-.41.76,6.74,6.74,0,0,1-.53.7,3.86,3.86,0,0,0,.34.24,4,4,0,0,0,.46.26,5.38,5.38,0,0,0,.51.2,4.27,4.27,0,0,0-.27.51,3.8,3.8,0,0,0-.16.36l-.32-.15v.7h-2.15Zm-3.68,1a3.67,3.67,0,0,0,.47-.2,4,4,0,0,0,.45-.25,3.17,3.17,0,0,0,.4-.29,2.38,2.38,0,0,0,.32-.31l.71.47-.08.07a4,4,0,0,1-.76.71,5.45,5.45,0,0,1-1,.58l-.19-.31Zm.91-3.49.29.15.27.16.28-.24-.23-.13-.35-.17Zm.35,1.6h4.3a6,6,0,0,1-1.14-.9V45h-2.28v-.36a5.74,5.74,0,0,1-1.16.83Zm1.19-2.41h-.77l-.09.12a4,4,0,0,1,.62.25C113.48,43.3,113.56,43.18,113.63,43.06Zm1.66,1.16a6,6,0,0,1-.78-1.13,5.7,5.7,0,0,1-.78,1.13h1.56Zm0,2.56.69-.47a4.43,4.43,0,0,0,.55.45,6.1,6.1,0,0,0,.59.37,3.65,3.65,0,0,0,.46.22c-.2.28-.37.53-.51.76a6.87,6.87,0,0,1-.93-.57A5.27,5.27,0,0,1,115.31,46.78Zm.07-3.82h0a5.91,5.91,0,0,0,.48.67c.09-.09.18-.2.28-.32a3,3,0,0,0,.23-.35Z"/><path class="cls-8" d="M94.22,52.6a.78.78,0,0,1,.35.1.92.92,0,0,1,.28.24,1.09,1.09,0,0,1,.19.33,1.61,1.61,0,0,1,.1.36,2.14,2.14,0,0,1,0,.34,5.66,5.66,0,0,1-.36,2.32,1.17,1.17,0,0,1-1.1.77,2.89,2.89,0,0,1-.86-.19,6.9,6.9,0,0,0-.21-1.15,1.94,1.94,0,0,0,.43.24,1.42,1.42,0,0,0,.45.1.45.45,0,0,0,.37-.2,1.5,1.5,0,0,0,.25-.62,5.31,5.31,0,0,0,.09-1.08,1.52,1.52,0,0,0-.08-.58.3.3,0,0,0-.28-.17l-.48.06q-.28.83-.57,1.56c-.19.49-.38.91-.54,1.25a6.16,6.16,0,0,1-.46.82l-.94-.56a8.18,8.18,0,0,0,.59-.94A10,10,0,0,0,92,54.55c.15-.34.27-.63.36-.88l-1.06.18h-.12l-.18-1h.4l1.27-.12c.07-.26.15-.56.21-.88,0-.05,0-.14,0-.28s0-.26,0-.38l1.1.21c-.06.15-.11.28-.15.4s-.14.51-.25.84Zm1.86-.33a3.58,3.58,0,0,1,.41.44,3.9,3.9,0,0,1,.4.64,5.48,5.48,0,0,1,.34.81,3.84,3.84,0,0,1,.18.84l-1,.46a6,6,0,0,0-.23-1.09,4.64,4.64,0,0,0-.42-1,2.92,2.92,0,0,0-.59-.74Z"/><path class="cls-8" d="M101.18,53.62a2.64,2.64,0,0,1,.62.08,1.67,1.67,0,0,1,.6.29,1.35,1.35,0,0,1,.44.53,1.58,1.58,0,0,1,.16.72,1.73,1.73,0,0,1-.19.81,2,2,0,0,1-.58.63,3.27,3.27,0,0,1-.94.43,5.26,5.26,0,0,1-1.26.17,2.34,2.34,0,0,0-.11-.21,2.92,2.92,0,0,0-.23-.36,4.1,4.1,0,0,0-.29-.36,6,6,0,0,0,.84,0,3.15,3.15,0,0,0,.85-.18,1.59,1.59,0,0,0,.66-.39.84.84,0,0,0,.24-.59.67.67,0,0,0-.1-.38.64.64,0,0,0-.3-.23,1.49,1.49,0,0,0-.43-.07,2.58,2.58,0,0,0-1.23.33,2.7,2.7,0,0,0-1,.79l-.93-.19c0-.09,0-.26.08-.51s.11-.63.21-1.13.16-.83.18-1l0-.33,1.08.22a1.38,1.38,0,0,0-.1.22c-.14.5-.23.84-.27,1a3.3,3.3,0,0,0-.08.38,4.68,4.68,0,0,1,.53-.31,4,4,0,0,1,.72-.26A2.85,2.85,0,0,1,101.18,53.62Zm.53-2.06-.24.93a5.1,5.1,0,0,1-.72-.11c-.3-.06-.62-.14-1-.25s-.67-.22-.94-.33l.33-.93a8.09,8.09,0,0,0,1.24.42A11.09,11.09,0,0,0,101.71,51.56Z"/><path class="cls-8" d="M107.11,51.49a3.5,3.5,0,0,1,.7.08,2.77,2.77,0,0,1,.75.28,2.7,2.7,0,0,1,.7.53,2.33,2.33,0,0,1,.5.77,2.58,2.58,0,0,1,.18,1,3.34,3.34,0,0,1-.07.68,2.9,2.9,0,0,1-.26.73,2.5,2.5,0,0,1-.48.63,2.92,2.92,0,0,1-.63.48,4.1,4.1,0,0,1-.69.31,3.89,3.89,0,0,1-.6.16l-.17-.2-.28-.33-.34-.34a4.61,4.61,0,0,0,.5-.07,3,3,0,0,0,1-.38,1.87,1.87,0,0,0,.48-.38,1.78,1.78,0,0,0,.36-.58,1.9,1.9,0,0,0,.13-.73,1.77,1.77,0,0,0-.1-.61,1.81,1.81,0,0,0-.26-.48,1.62,1.62,0,0,0-.34-.31,1.29,1.29,0,0,0-.35-.18,1.56,1.56,0,0,0-.32-.07,9.08,9.08,0,0,1-.22,1.11c-.1.35-.2.63-.28.85s-.19.42-.29.63a5.78,5.78,0,0,1-.42.64,2.32,2.32,0,0,1-.59.54,1.3,1.3,0,0,1-.7.21,1.25,1.25,0,0,1-.54-.12,1.27,1.27,0,0,1-.42-.35,2,2,0,0,1-.27-.54,2.56,2.56,0,0,1-.09-.69,3.72,3.72,0,0,1,.06-.64,3.37,3.37,0,0,1,.23-.7,3.72,3.72,0,0,1,.43-.69,3.14,3.14,0,0,1,.68-.62,3.05,3.05,0,0,1,.91-.43A3.5,3.5,0,0,1,107.11,51.49Zm-2,4a.42.42,0,0,0,.22-.09,1.12,1.12,0,0,0,.31-.31,3,3,0,0,0,.34-.54c.11-.22.21-.46.31-.72a6.11,6.11,0,0,0,.21-.75,4.61,4.61,0,0,0,.1-.62,1.74,1.74,0,0,0-.76.24,2.46,2.46,0,0,0-1,1.23,2.13,2.13,0,0,0-.14.72,1.76,1.76,0,0,0,0,.42.69.69,0,0,0,.13.3A.29.29,0,0,0,105.07,55.45Z"/><path class="cls-8" d="M116.27,55.33a6.39,6.39,0,0,0,.78.47,3.4,3.4,0,0,1-.11,1,.66.66,0,0,1-.32.4,1.56,1.56,0,0,1-.64.1,4,4,0,0,1-.5,0,.56.56,0,0,1-.34-.13A.47.47,0,0,1,115,57a1,1,0,0,1-.06-.41c0-.06,0-.73,0-2h-.28a5.36,5.36,0,0,1-.17,1.22,2.84,2.84,0,0,1-.43.93,2.37,2.37,0,0,1-.77.66c-.11-.13-.26-.3-.44-.49a.75.75,0,0,1-.35.33,1.41,1.41,0,0,1-.61.12c-.11-.3-.23-.61-.36-.94l.15,0h.2a.43.43,0,0,0,.2,0,.17.17,0,0,0,.06-.14v-1h-.58c0,.35-.08.67-.14,1a5.36,5.36,0,0,1-.18.74,2.06,2.06,0,0,1-.2.44,7.23,7.23,0,0,0-.68-.63,3.72,3.72,0,0,0,.35-1.11,10.62,10.62,0,0,0,.12-1.76v-2.7H113l0,.39v4.34l0,.61a1.8,1.8,0,0,0,.36-.32,1.51,1.51,0,0,0,.27-.42,2.63,2.63,0,0,0,.17-.54,3.32,3.32,0,0,0,.07-.65h-.51c0-.08,0-.17,0-.25V52.49c0-.09,0-.17,0-.26h1.6a4.15,4.15,0,0,0,.38-.7,4,4,0,0,0,.23-.64l.94.27-.07.12a6.17,6.17,0,0,1-.49.95h.62v2.3h-.7v1.76c0,.12,0,.19,0,.21a.54.54,0,0,0,.17,0,.17.17,0,0,0,.18-.15,1.09,1.09,0,0,0,0-.24C116.25,56,116.26,55.75,116.27,55.33Zm-4.65-1h.54v-.79h-.53v.79Zm.54-2.39h-.53v.81h.53Zm2.63-.09-.87.28c-.06-.14-.14-.32-.24-.53s-.2-.38-.28-.51l.88-.25a4.45,4.45,0,0,1,.26.46Zm.84,1.09h-1.44v.82h1.44Z"/><path class="cls-8" d="M122.58,57.28c0-.1,0-.2,0-.29v0h-3.82v0c0,.08,0,.18,0,.29h-1c0-.11,0-.21,0-.29V54.94a1.56,1.56,0,0,0,0-.25h.52l.47,0V56h1.39V54H118c0-.11,0-.2,0-.28V51.47h.32l.45,0H119v1.54h1.21V51.32c0-.14,0-.27,0-.39l.52,0,.52,0c0,.14,0,.25,0,.35v1.73h1.21V51.47h.32l.45,0h.21v2.17c0,.08,0,.17,0,.28h-2.19v2h1.42V54.66h.51l.47,0V57c0,.09,0,.19,0,.29Z"/><path class="cls-8" d="M185.33,47.55,184.24,47a4.79,4.79,0,0,0,.61-.8,6.47,6.47,0,0,0,.53-1,7.45,7.45,0,0,0,.36-1,5.09,5.09,0,0,0,.16-1l1.16.34a3.06,3.06,0,0,0-.11.35c0,.23-.11.48-.19.76s-.17.55-.28.82-.22.52-.33.75-.24.45-.38.68S185.48,47.35,185.33,47.55Zm4.14-.18a9.16,9.16,0,0,0-.59-2,7.78,7.78,0,0,0-1-1.78l.9-.51a4.67,4.67,0,0,1,.56.78,7.38,7.38,0,0,1,.54,1.05c.17.38.31.72.41,1s.17.53.21.69.06.28.07.33Zm.61-4.06a.68.68,0,0,1-.71-.71.7.7,0,0,1,.2-.5.69.69,0,0,1,.51-.2.73.73,0,0,1,.35.09.65.65,0,0,1,.26.26.73.73,0,0,1,.09.35.77.77,0,0,1-.09.36.65.65,0,0,1-.26.26A.73.73,0,0,1,190.08,43.31Zm0-.31a.53.53,0,0,0,.16,0,.31.31,0,0,0,.16-.14.4.4,0,0,0,.06-.22.5.5,0,0,0,0-.16.36.36,0,0,0-.14-.16.31.31,0,0,0-.21-.07.38.38,0,0,0-.17,0,.33.33,0,0,0-.15.14.31.31,0,0,0-.07.21.35.35,0,0,0,0,.17.28.28,0,0,0,.13.16A.44.44,0,0,0,190.08,43Z"/><path class="cls-8" d="M192.25,44.94a8.15,8.15,0,0,0-.57-.94,5.68,5.68,0,0,0-.63-.79l.9-.54a6.91,6.91,0,0,1,.67.82,5.91,5.91,0,0,1,.55.87Zm.62,3.07c-.12-.12-.27-.25-.44-.39a5.57,5.57,0,0,0-.5-.34,6,6,0,0,0,2.19-1.75,6.54,6.54,0,0,0,1.14-2.63c0-.06,0-.17,0-.31l1.11.36s0,.1-.07.18a.79.79,0,0,0,0,.17A8.12,8.12,0,0,1,195,46.12,6.6,6.6,0,0,1,192.87,48Z"/><path class="cls-8" d="M202,47.65h-1.07v-.32h-3.3l-.44,0V46.28l.44,0h3.3V44h-3.26a3.7,3.7,0,0,0-.45,0V43l.45,0H202v4.68Z"/><path class="cls-8" d="M204.55,44.74c-.11-.1-.25-.21-.43-.35a6.86,6.86,0,0,0-.6-.41l-.64-.4.64-.84a8.51,8.51,0,0,1,.81.51c.3.21.59.42.85.64ZM208,43.16l.66,1a6.66,6.66,0,0,1-1.1,1.46,9.66,9.66,0,0,1-1.49,1.23,12.91,12.91,0,0,1-1.85,1l-.2.1-.12.07-.7-1a8,8,0,0,0,1.52-.62,8.53,8.53,0,0,0,1.37-.9,7.41,7.41,0,0,0,1.12-1.12A6.22,6.22,0,0,0,208,43.16Z"/><path class="cls-8" d="M188.88,56v.3h-1.29v.53h-.76c0-.12,0-.23,0-.32V54.73a4.31,4.31,0,0,1-.39.46q0-.16-.15-.45a4.13,4.13,0,0,0-.18-.48,3.47,3.47,0,0,0,.43-.65,4.43,4.43,0,0,0,.36-.84,5.55,5.55,0,0,0,.21-.75h-.81v-.87H189V52H187.9a10.72,10.72,0,0,1-.28,1.08h1.26V56Zm-1.29-.49h.52V53.87h-.52Zm4.68-2.14h.48v.91h-.56v2.51c0,.14,0,.3,0,.49h-.94c0-.19,0-.35,0-.49V54.31h-.62a4.44,4.44,0,0,1-.37,1.83,2.74,2.74,0,0,1-1,1.26,5.15,5.15,0,0,0-.77-.62,2.8,2.8,0,0,0,.5-.41,2,2,0,0,0,.4-.54,2.67,2.67,0,0,0,.25-.69,3.57,3.57,0,0,0,.08-.82h-.68V53.4h.68V52h-.46v-.87h3.33V52h-.42v1.4Zm-1.62,0h.62V52h-.62Z"/><path class="cls-8" d="M199,55.42l.37.24c.15.1.3.18.45.26a2.42,2.42,0,0,1-.17.84.92.92,0,0,1-.42.41,2.16,2.16,0,0,1-.81.12,3.6,3.6,0,0,1-.74-.06.8.8,0,0,1-.41-.22.56.56,0,0,1-.14-.41q0-.24.06-1.23h-.83a3.08,3.08,0,0,1-.48.79,3.3,3.3,0,0,1-.62.57,3.43,3.43,0,0,1-.69.4,6.35,6.35,0,0,1-.71.27c-.14-.19-.34-.45-.61-.78a4.42,4.42,0,0,0,1.26-.49,2.66,2.66,0,0,0,.83-.76h-1.59v-.85h1.94a2.84,2.84,0,0,0,.07-.68c0-.1,0-.2,0-.3l.9,0a1.15,1.15,0,0,0,0,.2,4.59,4.59,0,0,1-.06.73h1.6c0,.16,0,.46-.05.9s0,.7,0,.78a.14.14,0,0,0,.11.15,1.12,1.12,0,0,0,.29,0,.67.67,0,0,0,.26,0,.34.34,0,0,0,.17-.21A2.93,2.93,0,0,0,199,55.42Zm-5.57-2.33a1.8,1.8,0,0,0,0-.22V51.68c0-.06,0-.13,0-.22H196v-.58h.68l.37,0v.54h2.59v1.63H199l.43.19a1.12,1.12,0,0,1-.09.4.65.65,0,0,1-.19.24.72.72,0,0,1-.27.16,1.6,1.6,0,0,1-.38.1,3.84,3.84,0,0,1-.5,0,4.74,4.74,0,0,1-.77,0,.72.72,0,0,1-.35-.12.46.46,0,0,1-.14-.21,1.76,1.76,0,0,1-.05-.56V52.5a.68.68,0,0,0,0-.14l.91.06a.27.27,0,0,0,0,.11v.76a.1.1,0,0,0,.08.11,1.86,1.86,0,0,0,.41,0,1.19,1.19,0,0,0,.29,0,.32.32,0,0,0,.17-.1.67.67,0,0,0,.1-.39h0v-.67h-4.24v.85Zm0,.42a3.61,3.61,0,0,0,1.31-.41,1.63,1.63,0,0,0,.73-.79l.8.41-.06.08a2.86,2.86,0,0,1-.3.44,2.52,2.52,0,0,1-.44.42A2.84,2.84,0,0,1,195,54a2.68,2.68,0,0,1-.57.22l-.49.14Q193.8,54.07,193.5,53.51Z"/><path class="cls-8" d="M203.15,53.37h.71v.82h-3.61v-.82h.81a8.3,8.3,0,0,0-.29-.95l.36-.08h-.73v-.82h1.22v-.48l0-.18,1,0v.62h1.19v.82h-.51l.25.08a.33.33,0,0,0-.06.13C203.3,52.91,203.22,53.18,203.15,53.37Zm.42,1.27a1.94,1.94,0,0,0,0,.27v2.38h-.9V57h-1.12v.28h-.91c0-.1,0-.19,0-.27V54.91c0-.08,0-.17,0-.27Zm-2,1.6h1.12V55.4h-1.12Zm.06-3.9c.08.24.16.58.26,1h.45a3.33,3.33,0,0,0,.13-.39c.06-.2.12-.41.17-.64Zm5.08-.64c-.21.65-.35,1.09-.44,1.34s-.15.45-.21.59a2.8,2.8,0,0,1,.51.72,1.72,1.72,0,0,1,.18.75,1.16,1.16,0,0,1-.35.9,1.37,1.37,0,0,1-1,.33,2.36,2.36,0,0,0-.18-.34L205,55.6v1.23c0,.24,0,.4,0,.49h-.91c0-.09,0-.25,0-.49V51.2H206l.09-.11.33.25c.13.11.25.21.35.31Zm-1.31,3.82a.42.42,0,0,0,.34-.15.63.63,0,0,0,.13-.43,1.28,1.28,0,0,0-.19-.66,1.79,1.79,0,0,0-.54-.6,6.2,6.2,0,0,0,.24-.65c.1-.3.21-.65.32-1.05H205v3.51Z"/><path class="cls-8" d="M311.17,66.58l.86.73-.12.08c-.11.21-.27.46-.46.76a7.45,7.45,0,0,1-.68.88,4.46,4.46,0,0,1-.69.69.86.86,0,0,0-.16-.13l-.34-.27-.31-.22a6.05,6.05,0,0,0,.57-.48,5.61,5.61,0,0,0,.48-.51c.13-.18.24-.33.32-.47h-4l-.5,0v-1l.5,0h4.39Zm-3,1.65,1.12.09,0,.11a.77.77,0,0,0,0,.15,3.87,3.87,0,0,1-2.05,3.6,2.63,2.63,0,0,0-.37-.34c-.17-.14-.34-.26-.5-.37a3.28,3.28,0,0,0,.85-.52,2.84,2.84,0,0,0,.59-.67,3.19,3.19,0,0,0,.32-.79,3.57,3.57,0,0,0,.1-.87C308.2,68.49,308.19,68.36,308.19,68.23Z"/><path class="cls-8" d="M318,70.44v1.08h-5.72V70.44l.46,0h4.81Zm-.67-3.33v1.1l-.45,0h-3.57l-.49,0v-1.1c.24,0,.4,0,.49,0h3.57C317,67.13,317.12,67.13,317.34,67.11Z"/><path class="cls-8" d="M322.31,69c.23.16.48.35.76.57a6.27,6.27,0,0,1,.68.63l-.61.89a3.73,3.73,0,0,0-.29-.3c-.13-.13-.29-.28-.49-.45s-.42-.33-.65-.49a11.06,11.06,0,0,1-1.21,1.33,7.49,7.49,0,0,1-1.31,1l-.29-.3a3.76,3.76,0,0,0-.32-.28l-.27-.2c.1,0,.23-.11.38-.19a4.25,4.25,0,0,0,.46-.29,6,6,0,0,0,.5-.38q.24-.21.54-.51a8.44,8.44,0,0,0,.66-.73l-.82-.48c-.28-.15-.55-.28-.79-.38l.5-.91a6.82,6.82,0,0,1,.83.4c.31.17.6.34.89.52a1.76,1.76,0,0,1,.13-.21l.27-.47c.12-.22.23-.47.35-.74a6.09,6.09,0,0,0,.25-.76l1.05.51a2.27,2.27,0,0,0-.21.41l-.25.56c-.12.23-.24.47-.38.71S322.41,68.89,322.31,69Z"/><path class="cls-8" d="M307.31,80.07v.3H306v.54h-.76c0-.12,0-.23,0-.32V78.77a2.5,2.5,0,0,1-.39.47c0-.11-.07-.26-.14-.45s-.13-.36-.19-.49a3,3,0,0,0,.43-.64,6.14,6.14,0,0,0,.37-.84,6.71,6.71,0,0,0,.2-.76h-.81V75.2h2.71v.87h-1.11a10.29,10.29,0,0,1-.29,1.09h1.27v2.92ZM306,79.59h.53V77.92H306Zm4.69-2.14h.47v.92h-.56v2.52c0,.14,0,.3,0,.49h-.95c0-.19,0-.35,0-.49V78.35h-.61a4.62,4.62,0,0,1-.38,1.84,2.77,2.77,0,0,1-1,1.26,5.88,5.88,0,0,0-.78-.63,2.2,2.2,0,0,0,.51-.4,2.66,2.66,0,0,0,.39-.54,3,3,0,0,0,.25-.69,3.62,3.62,0,0,0,.09-.82v0h-.69v-.92h.69V76h-.47v-.87H311v.87h-.42v1.41Zm-1.62,0h.61V76h-.61Z"/><path class="cls-8" d="M317.47,79.47l.36.24.45.25a2.32,2.32,0,0,1-.17.84.86.86,0,0,1-.42.42,2.07,2.07,0,0,1-.8.12,3,3,0,0,1-.75-.07.76.76,0,0,1-.41-.21.58.58,0,0,1-.13-.41c0-.16,0-.57,0-1.23h-.83a3,3,0,0,1-.47.79,4.11,4.11,0,0,1-.62.57,4.49,4.49,0,0,1-.7.4,5.69,5.69,0,0,1-.71.27c-.13-.2-.34-.45-.61-.78a4.49,4.49,0,0,0,1.27-.5,2.71,2.71,0,0,0,.82-.75h-1.58v-.84h1.94a3.39,3.39,0,0,0,.07-.68,2.64,2.64,0,0,0,0-.29l.91,0a1,1,0,0,0,0,.2,5.94,5.94,0,0,1-.05.72h1.59c0,.16,0,.46-.05.9s0,.71,0,.79a.14.14,0,0,0,.1.15,1.15,1.15,0,0,0,.3,0,.66.66,0,0,0,.25,0,.34.34,0,0,0,.17-.22A2.62,2.62,0,0,0,317.47,79.47Zm-5.57-2.34c0-.07,0-.14,0-.21V75.73c0-.06,0-.14,0-.22h2.52V75.1c0-.08,0-.13,0-.17h.26l.43,0h.37l0,.14v.41H318v1.62h-.58l.43.19a1,1,0,0,1-.09.4.8.8,0,0,1-.18.25.88.88,0,0,1-.27.16,1.87,1.87,0,0,1-.39.09,3.73,3.73,0,0,1-.5,0,6.87,6.87,0,0,1-.77,0,.67.67,0,0,1-.34-.13.46.46,0,0,1-.15-.2,2.16,2.16,0,0,1-.05-.57v-.77a.61.61,0,0,0,0-.14l.9,0a.37.37,0,0,0,0,.11v.77a.1.1,0,0,0,.07.11,3.08,3.08,0,0,0,.42,0l.29,0a.32.32,0,0,0,.17-.1.8.8,0,0,0,.1-.4h0v-.67h-4.24v.84Zm0,.43a3.42,3.42,0,0,0,1.32-.42,1.59,1.59,0,0,0,.72-.78l.8.4,0,.09a5.14,5.14,0,0,1-.31.44,2.21,2.21,0,0,1-.44.42,2.77,2.77,0,0,1-.55.33,6,6,0,0,1-.57.22l-.5.13A6.4,6.4,0,0,0,311.93,77.56Z"/><path class="cls-8" d="M320.48,77.32a7.66,7.66,0,0,1-.66.45c-.23.14-.45.26-.67.37a2.54,2.54,0,0,0-.25-.42,3.46,3.46,0,0,0-.31-.43,5,5,0,0,0,.82-.43,7.16,7.16,0,0,0,.84-.59,5.74,5.74,0,0,0,.76-.71,4.54,4.54,0,0,0,.53-.75l1,.18-.07.09a2.69,2.69,0,0,0,.24.33,3.92,3.92,0,0,0,.35.38,5.08,5.08,0,0,0,.51.44,7.68,7.68,0,0,0,.77.53,6.16,6.16,0,0,0,.92.47,5.15,5.15,0,0,0-.25.48,3,3,0,0,0-.2.44c-.19-.09-.41-.2-.64-.33a8,8,0,0,1-.7-.48v.47h-3Zm-.93,1h5.59v.89h-1.53A12.52,12.52,0,0,1,324.89,81l-.93.46a4.79,4.79,0,0,0-.3-.6c-.44.06-1.1.13-2,.22s-1.53.15-2,.18l-.44.06-.24-1h1c.12-.26.23-.5.32-.72s.15-.37.17-.44h-1.68v-.89ZM322,75.84a9.09,9.09,0,0,1-1.1,1.15h2.17A8.16,8.16,0,0,1,322,75.84Zm1.16,4.25a8.59,8.59,0,0,0-.53-.73l.35-.15H321.6c-.11.28-.26.64-.46,1.08C321.85,80.23,322.52,80.16,323.14,80.09Z"/><path class="cls-8" d="M293.4,99.49v1.81c0,.15,0,.32,0,.52h-.9c0-.2,0-.37,0-.52V99.79L292,100l-.38.12-.17-.93.44-.1c.14,0,.36-.1.68-.2V97.38h-.3a8.3,8.3,0,0,1-.19,1.07l-.26-.11-.45-.16a4.87,4.87,0,0,0,.21-1.05,12.92,12.92,0,0,0,.08-1.35l.71.11a.5.5,0,0,0,0,.14v.54h.24v-.83c0-.12,0-.25,0-.38H293l.44,0a2.61,2.61,0,0,0,0,.35v.83H294v.83h-.62v1.2l.59-.2q0,.47,0,.9C293.9,99.3,293.72,99.38,293.4,99.49Zm4.5-3.08,0,.25c0,.85,0,1.53,0,2s0,1-.07,1.31a3.4,3.4,0,0,1-.18.9,1.23,1.23,0,0,1-.23.37,1.28,1.28,0,0,1-.31.24,2,2,0,0,1-.5.16,3.67,3.67,0,0,1-.82.07,9,9,0,0,0-.29-.91,5.42,5.42,0,0,1-.41.43c-.15.14-.29.25-.42.35a6.41,6.41,0,0,0-.57-.64,3.9,3.9,0,0,0,.59-.49,5,5,0,0,0,.69-.85,6.62,6.62,0,0,0,.64-1.18,7.74,7.74,0,0,0,.43-1.25h-.24a9.29,9.29,0,0,1-.41,1,6.22,6.22,0,0,1-.67,1.13,3.89,3.89,0,0,1-.86.86,2.21,2.21,0,0,0-.24-.3c-.11-.13-.22-.23-.31-.32a3.92,3.92,0,0,0,.68-.59,4.61,4.61,0,0,0,.62-.86,4.87,4.87,0,0,0,.44-1h-.29a6.35,6.35,0,0,1-.42.73,4.6,4.6,0,0,1-.43.55l-.16-.15a2.28,2.28,0,0,0-.27-.23l-.24-.19a3.42,3.42,0,0,0,.53-.68,5.33,5.33,0,0,0,.5-1,5.51,5.51,0,0,0,.32-.94l.84.17-.05.09c-.07.27-.16.53-.26.81ZM296,100.86a1.05,1.05,0,0,0,.55-.11.64.64,0,0,0,.29-.35,3.21,3.21,0,0,0,.14-.92c0-.43,0-1,0-1.84a8.74,8.74,0,0,1-.62,1.74,7.2,7.2,0,0,1-.9,1.42l.24,0A1.29,1.29,0,0,0,296,100.86Z"/><path class="cls-8" d="M300.82,99.21v.91c-.14.06-.43.15-.85.29l-1,.3-.36.13-.16-.93.42-.08.35-.09v-1.3h-.57v-.84h.57v-1h-.69v-.86h2.25v.86h-.67v1h.56v.84h-.56v1C300.44,99.35,300.68,99.27,300.82,99.21Zm3.57,1.59h.55v.87c-.09,0-.27,0-.55,0h-3.47l-.54,0v-.87h2v-.53H301v-.81h1.36V99H301c0-.12,0-.22,0-.31V96c0-.09,0-.19,0-.31h3.7V99h-1.42v.46h1.45v.81h-1.45v.53Zm-2-4.35h-.55V97h.55Zm-.55,1.24v.54h.55v-.54Zm1.95-.74v-.5h-.57V97Zm-.57,1.28h.57v-.54h-.57Z"/><path class="cls-8" d="M308.06,100.49v.3h-1.3v.53H306c0-.12,0-.23,0-.32V99.18a3,3,0,0,1-.4.47,3,3,0,0,0-.14-.45c-.07-.19-.13-.35-.19-.48a3,3,0,0,0,.43-.65,5.65,5.65,0,0,0,.37-.84q.13-.44.21-.75h-.82v-.87h2.71v.87h-1.11a8.64,8.64,0,0,1-.29,1.08h1.27v2.93Zm-1.29-.49h.53V98.33h-.53Zm4.69-2.14h.47v.92h-.56v2.52c0,.14,0,.3,0,.49h-.95c0-.19,0-.35,0-.49V98.76h-.62a4.61,4.61,0,0,1-.37,1.84,2.86,2.86,0,0,1-1,1.26,4.75,4.75,0,0,0-.78-.62,2.55,2.55,0,0,0,.51-.41,2.2,2.2,0,0,0,.39-.54,2.81,2.81,0,0,0,.25-.69,3.55,3.55,0,0,0,.09-.82v0h-.69v-.92h.69V96.45h-.47v-.87h3.33v.87h-.42v1.41Zm-1.62,0h.62V96.45h-.62Z"/><path class="cls-8" d="M318.22,99.88l.36.24.45.25a2.13,2.13,0,0,1-.17.84.82.82,0,0,1-.42.42,2.07,2.07,0,0,1-.8.12,3.77,3.77,0,0,1-.75-.06.84.84,0,0,1-.41-.22.56.56,0,0,1-.13-.41q0-.24.06-1.23h-.84a2.8,2.8,0,0,1-.47.79,3.68,3.68,0,0,1-.62.57,4.07,4.07,0,0,1-.7.4,5.69,5.69,0,0,1-.71.27q-.19-.28-.6-.78a4.54,4.54,0,0,0,1.26-.5,2.59,2.59,0,0,0,.82-.75H313V99h1.94a2.9,2.9,0,0,0,.07-.68,2.83,2.83,0,0,0,0-.3l.91,0a1,1,0,0,0,0,.2,6.11,6.11,0,0,1-.05.73h1.59c0,.15,0,.45-.05.89s0,.71,0,.79a.14.14,0,0,0,.1.15,1.15,1.15,0,0,0,.3,0,.62.62,0,0,0,.25,0c.08,0,.13-.1.18-.22A2.76,2.76,0,0,0,318.22,99.88Zm-5.57-2.33a1.7,1.7,0,0,0,0-.22V96.14a1.86,1.86,0,0,0,0-.22h2.52v-.4a.87.87,0,0,0,0-.18h.26l.43,0,.37,0,0,.14v.4h2.59v1.63h-.58l.44.19a1.23,1.23,0,0,1-.1.39.7.7,0,0,1-.18.25.72.72,0,0,1-.27.16,1.93,1.93,0,0,1-.38.09,2.64,2.64,0,0,1-.51,0,6.43,6.43,0,0,1-.77,0,.67.67,0,0,1-.34-.12.57.57,0,0,1-.15-.21,2.12,2.12,0,0,1-.05-.56V97a.66.66,0,0,0,0-.14l.9.05a.41.41,0,0,0,0,.12v.76c0,.06,0,.1.07.11a2,2,0,0,0,.42,0l.29,0a.32.32,0,0,0,.17-.1.8.8,0,0,0,.1-.4h0V96.7h-4.23v.85Zm0,.42a3.6,3.6,0,0,0,1.32-.41,1.72,1.72,0,0,0,.73-.79l.79.41,0,.08a5.14,5.14,0,0,1-.31.44,2.15,2.15,0,0,1-.43.42,3.16,3.16,0,0,1-.56.33,4.13,4.13,0,0,1-.57.22l-.5.14A6.37,6.37,0,0,0,312.68,98Z"/><path class="cls-8" d="M322.34,97.83h.71v.82h-3.61v-.82h.8a8.38,8.38,0,0,0-.28-1l.35-.08h-.73V96h1.22v-.66l1,0,0,.15V96h1.19v.81h-.51l.25.08-.06.13C322.49,97.37,322.4,97.64,322.34,97.83Zm.42,1.27a1.94,1.94,0,0,0,0,.27v2.38h-.9v-.28h-1.13v.28h-.9a2.62,2.62,0,0,0,0-.27V99.37a2.44,2.44,0,0,0,0-.27Zm-2,1.6h1.13v-.84h-1.13Zm.07-3.9c.07.24.16.58.25,1h.46l.13-.39c.06-.2.11-.41.16-.64Zm5.07-.64c-.2.64-.34,1.09-.43,1.34l-.21.59a2.46,2.46,0,0,1,.5.72,1.72,1.72,0,0,1,.18.75,1.18,1.18,0,0,1-.34.9,1.37,1.37,0,0,1-1,.33l-.18-.34-.23-.39v1.23a4.88,4.88,0,0,0,0,.49h-.92c0-.09,0-.26,0-.49V95.66h1.9l.1-.11a2.6,2.6,0,0,1,.32.25c.13.1.25.21.36.31ZM324.56,100a.44.44,0,0,0,.35-.15.7.7,0,0,0,.13-.44,1.38,1.38,0,0,0-.19-.65,1.92,1.92,0,0,0-.54-.6c.06-.13.13-.35.24-.65s.21-.65.32-1h-.69V100Z"/><path class="cls-8" d="M163.09,140.51c.27.17.56.33.88.5a2.55,2.55,0,0,1-.15.69,1.4,1.4,0,0,1-.31.44,1.52,1.52,0,0,1-.6.28,4.8,4.8,0,0,1-1.06.1,8.09,8.09,0,0,1-1-.05,1,1,0,0,1-.46-.18.72.72,0,0,1-.26-.38,2.23,2.23,0,0,1-.09-.71c0-.11,0-.73,0-1.88H160l-.23.08-.23.08-.1-.72h-.3v1.55a5.22,5.22,0,0,0,.59-.27s0,.19,0,.47,0,.45,0,.49l-.1.05-.53.23-1.08.43-.37.15-.19-1,.41-.11.36-.13v-1.91h-.64v-.88h.64v-1.24c0-.1,0-.21,0-.32l.92,0c0,.11,0,.2,0,.28v1.24h.58v.62l.17-.05.16-.05v-1.68l.91.06v1.33l.53-.18v-1.47c0-.1,0-.21,0-.32h.28l.39,0h.18c0,.05,0,.15,0,.28v1.2l.82-.27.08-.08a3.6,3.6,0,0,1,.33.25,3.45,3.45,0,0,1,.34.3l-.08,0c0,.53,0,.94,0,1.25a3.1,3.1,0,0,1-.1.69.77.77,0,0,1-.22.37,1.07,1.07,0,0,1-.36.21,1.55,1.55,0,0,1-.5.07c0-.16-.13-.48-.27-.95a.74.74,0,0,0,.27.06.3.3,0,0,0,.15-.05.31.31,0,0,0,.1-.2,5.89,5.89,0,0,0,.05-1l-.59.19v2a3.31,3.31,0,0,0,0,.4h-.86c0-.15,0-.28,0-.4v-1.7l-.53.17v2.17a.62.62,0,0,0,0,.22.22.22,0,0,0,.11.12l.12.05.2,0H162a4,4,0,0,0,.57,0,.82.82,0,0,0,.34-.15.46.46,0,0,0,.13-.2,1,1,0,0,0,.07-.33A2.56,2.56,0,0,0,163.09,140.51Z"/><path class="cls-8" d="M170.13,139.93h.7v.87h-2.41q0,.09,0,.27c0,.11,0,.2,0,.27a1.91,1.91,0,0,1,0,.43.81.81,0,0,1-.12.33.83.83,0,0,1-.21.24,1,1,0,0,1-.35.16,1.74,1.74,0,0,1-.56.07l-.57,0q-.06-.21-.3-.87l.32,0,.33,0a.71.71,0,0,0,.47-.11.54.54,0,0,0,.11-.37,3.13,3.13,0,0,0,0-.46h-3v-.87h2.67a1.42,1.42,0,0,0-.3-.3l.82-.21,0,0,0,0,.2-.12.3-.21H166v-.77h2.94l.07-.07.33.22a4.15,4.15,0,0,1,.36.28v-.87h-4v1h-1a1.7,1.7,0,0,0,0-.22v-1.29a1.93,1.93,0,0,0,0-.23h1.08c-.1-.14-.21-.29-.33-.43a4,4,0,0,0-.34-.36l.93-.31a5.47,5.47,0,0,1,.62.82l-.68.28h2.55a7.51,7.51,0,0,0,.44-.63,2.83,2.83,0,0,0,.28-.56l1,.34-.1.11a6,6,0,0,1-.5.74h1.09v1.74h-1v-.05l-.12.05a4.61,4.61,0,0,1-.68.53,7,7,0,0,1-.79.48l0,0Zm-1.86-3.12-.85.3a5.21,5.21,0,0,0-.6-.9l.89-.25a3.84,3.84,0,0,1,.31.42A4,4,0,0,1,168.27,136.81Z"/><path class="cls-8" d="M174,141.26v.3h-1.29v.53H172c0-.12,0-.23,0-.32V140a3.47,3.47,0,0,1-.4.46,3,3,0,0,0-.14-.45c-.07-.19-.13-.35-.19-.48a3,3,0,0,0,.44-.65,6.24,6.24,0,0,0,.36-.84,7.56,7.56,0,0,0,.21-.75h-.82v-.87h2.71v.87h-1.11a8.64,8.64,0,0,1-.29,1.08H174v2.93Zm-1.28-.49h.52V139.1h-.52Zm4.68-2.14h.47v.91h-.56v2.51c0,.14,0,.3,0,.49h-1c0-.19,0-.35,0-.49v-2.51h-.62a4.6,4.6,0,0,1-.37,1.83,2.8,2.8,0,0,1-1,1.26,4.85,4.85,0,0,0-.78-.62,2.55,2.55,0,0,0,.51-.41,2.2,2.2,0,0,0,.39-.54,2.35,2.35,0,0,0,.25-.69,3.55,3.55,0,0,0,.09-.82h-.68v-.91h.68v-1.4h-.47v-.87h3.33v.87h-.42v1.4Zm-1.62,0h.62v-1.4h-.62Z"/><path class="cls-8" d="M184.19,140.65l.36.24.45.26a2.21,2.21,0,0,1-.17.84.84.84,0,0,1-.42.41,2.07,2.07,0,0,1-.8.12,3.77,3.77,0,0,1-.75-.06.84.84,0,0,1-.41-.22.61.61,0,0,1-.13-.41q0-.24.06-1.23h-.84a2.8,2.8,0,0,1-.47.79,3.3,3.3,0,0,1-.62.57,3.5,3.5,0,0,1-.7.4,6.23,6.23,0,0,1-.7.27c-.14-.19-.34-.45-.61-.78a4.54,4.54,0,0,0,1.26-.49,2.62,2.62,0,0,0,.82-.76h-1.58v-.85h1.94a2.84,2.84,0,0,0,.07-.68c0-.1,0-.2,0-.3l.9.05a1,1,0,0,0,0,.2,4.56,4.56,0,0,1,0,.73h1.59c0,.16,0,.46-.05.9s0,.7,0,.78a.13.13,0,0,0,.11.15,1.07,1.07,0,0,0,.29,0,.71.71,0,0,0,.26,0,.38.38,0,0,0,.17-.21A2.93,2.93,0,0,0,184.19,140.65Zm-5.57-2.33a1.7,1.7,0,0,0,0-.22v-1.19a1.86,1.86,0,0,0,0-.22h2.52v-.4a.87.87,0,0,0,0-.18h.69l.37,0,0,.14v.4h2.59v1.63h-.58l.44.19a1.37,1.37,0,0,1-.1.4.76.76,0,0,1-.18.24.72.72,0,0,1-.27.16,1.74,1.74,0,0,1-.38.1,3.89,3.89,0,0,1-.51,0,4.6,4.6,0,0,1-.76,0,.68.68,0,0,1-.35-.12.46.46,0,0,1-.14-.21,1.67,1.67,0,0,1-.06-.56v-.78a.66.66,0,0,0,0-.14l.9.06a.31.31,0,0,0,0,.11v.76c0,.06,0,.1.08.11a1.8,1.8,0,0,0,.41,0,1.19,1.19,0,0,0,.29,0,.32.32,0,0,0,.17-.1.76.76,0,0,0,.1-.39h0v-.67h-4.23v.85Zm0,.42a3.6,3.6,0,0,0,1.32-.41,1.68,1.68,0,0,0,.73-.79l.8.41-.06.08a3.94,3.94,0,0,1-.31.44,2.15,2.15,0,0,1-.43.42,3.85,3.85,0,0,1-1.13.55l-.5.14A6.37,6.37,0,0,0,178.65,138.74Z"/><path class="cls-8" d="M188.31,138.6H189v.82h-3.61v-.82h.8a8.38,8.38,0,0,0-.28-.95l.35-.08h-.72v-.82h1.21v-.66l1,0,0,.15v.47h1.19v.82h-.51l.26.08a.92.92,0,0,0-.07.13C188.46,138.14,188.37,138.41,188.31,138.6Zm.42,1.27a1.94,1.94,0,0,0,0,.27v2.38h-.9v-.28H186.7v.28h-.9a2.62,2.62,0,0,0,0-.27v-2.11a2.62,2.62,0,0,0,0-.27Zm-2,1.6h1.13v-.84H186.7Zm.07-3.9c.07.24.16.58.25,1h.46c0-.06.07-.19.13-.39s.11-.41.16-.64Zm5.07-.64c-.2.65-.34,1.09-.43,1.34l-.21.59a2.53,2.53,0,0,1,.5.72,1.72,1.72,0,0,1,.18.75,1.15,1.15,0,0,1-.34.9,1.37,1.37,0,0,1-1,.33l-.18-.34-.23-.39v1.23a4.72,4.72,0,0,0,0,.49h-.92a4.72,4.72,0,0,0,0-.49v-5.63h1.9l.1-.11.33.25.35.31Zm-1.31,3.82a.44.44,0,0,0,.35-.15.63.63,0,0,0,.13-.43,1.38,1.38,0,0,0-.19-.66,2,2,0,0,0-.54-.6,6.2,6.2,0,0,0,.24-.65c.1-.3.21-.65.32-1h-.69v3.51Z"/><path class="cls-8" d="M205.47,130.87h.37v.88l-.37,0h-.67v.14a3,3,0,0,1-.51,1.76,3.22,3.22,0,0,1-1.51,1.12,5.34,5.34,0,0,0-.7-.65,2.9,2.9,0,0,0,1.41-.84,2.09,2.09,0,0,0,.44-1.37v-.16h-1.15v1.19h-.9v-1.19h-.76l-.37,0v-.88h1.13v-.51a5.52,5.52,0,0,0,0-.56l.93.08s0,.1,0,.19a2.09,2.09,0,0,0,0,.24v.56h1.15v-.65c0-.09,0-.24,0-.43l.94.07a1.91,1.91,0,0,0,0,.28c0,.11,0,.21,0,.29v.44Z"/><path class="cls-8" d="M206.86,132.8l-.15-.42c-.07-.19-.15-.39-.24-.58a4.18,4.18,0,0,0-.21-.38l.76-.29c0,.06.09.15.17.3s.15.31.24.52a4,4,0,0,1,.19.55Zm1.08,2.11-.26-.21a6.37,6.37,0,0,0-.54-.38,5.23,5.23,0,0,0,.82-.49,3.86,3.86,0,0,0,.73-.68,3.92,3.92,0,0,0,.6-.93,4.2,4.2,0,0,0,.34-1.14l0-.24.89.3a.33.33,0,0,0-.05.12.88.88,0,0,0,0,.15A5.36,5.36,0,0,1,207.94,134.91Zm.18-2.5a5.14,5.14,0,0,0-.29-.73c-.14-.31-.25-.51-.31-.62l.74-.27a4.32,4.32,0,0,1,.33.61,5.08,5.08,0,0,1,.26.73Z"/><path class="cls-8" d="M215.6,130.77c0,.82,0,1.45,0,1.89a5.56,5.56,0,0,1-.15,1,1.32,1.32,0,0,1-.3.58,1,1,0,0,1-.52.28,4.39,4.39,0,0,1-1,.08,5.43,5.43,0,0,0-.19-.57,3.89,3.89,0,0,0-.16-.43,1.66,1.66,0,0,0,.39.08,2.43,2.43,0,0,0,.42,0,.39.39,0,0,0,.33-.17,1.38,1.38,0,0,0,.2-.6,10.64,10.64,0,0,0,.08-1.39h-1.16a4,4,0,0,1-2,3.12c-.09-.11-.21-.23-.33-.36s-.25-.24-.36-.33a3.08,3.08,0,0,0,.58-.35,3,3,0,0,0,1-1.17,3.89,3.89,0,0,0,.29-.91h-1.53v-.85h1.63c0-.2,0-.41,0-.62a4.51,4.51,0,0,0,0-.5l.94,0a1.41,1.41,0,0,0,0,.37c0,.26,0,.5,0,.7Z"/><path class="cls-8" d="M221.05,131.88v.93h-4.74v-.93h4.74Z"/><path class="cls-8" d="M204.39,140l.79.27a4.37,4.37,0,0,1-.26.77,4.24,4.24,0,0,1-.38.74,2.7,2.7,0,0,1-.37.49,4.87,4.87,0,0,0-.78-.56,2.08,2.08,0,0,0,.35-.37,2.45,2.45,0,0,0,.3-.44,3.31,3.31,0,0,0,.22-.47A1.9,1.9,0,0,0,204.39,140Zm2.29-.48v2.37a.88.88,0,0,1-.09.41.67.67,0,0,1-.28.27,1.38,1.38,0,0,1-.46.16,4,4,0,0,1-.65.05,3.23,3.23,0,0,0-.17-.43,5.35,5.35,0,0,0-.25-.53,2.11,2.11,0,0,0,.68.1.38.38,0,0,0,.25-.06.3.3,0,0,0,.07-.24v-2.1h-1.57l-.4,0v-.9l.4,0h1.57v-.55a2.88,2.88,0,0,0,0-.48l1,.07,0,.14v.82h1.89v.9l-.38,0Zm.51.78L208,140a3.6,3.6,0,0,0,.19.48,5.24,5.24,0,0,0,.36.63,4,4,0,0,0,.42.57l-.75.53c-.09-.12-.2-.29-.32-.49s-.25-.44-.38-.7A6.86,6.86,0,0,1,207.19,140.32Zm.86-1.76a3.48,3.48,0,0,0-.27-.39c-.12-.14-.22-.26-.31-.35l.41-.24a4.36,4.36,0,0,1,.31.35,4.43,4.43,0,0,1,.29.37Zm.66-.37a3.64,3.64,0,0,0-.28-.38,2.68,2.68,0,0,0-.32-.34l.4-.23.17.17a2.05,2.05,0,0,1,.24.26,2.33,2.33,0,0,1,.19.27Z"/><path class="cls-8" d="M214.07,139.88v.93h-4.74v-.93h4.74Z"/><path class="cls-8" d="M216,138.14v1.19c.38.15.77.32,1.18.53a7.83,7.83,0,0,1,1,.58l-.41.78c-.25-.17-.54-.34-.86-.53s-.63-.34-.92-.47v2.08c0,.17,0,.31,0,.42h-1v-4.56a3.18,3.18,0,0,0,0-.47l1,.05A2,2,0,0,0,216,138.14Zm1.44.86a3.48,3.48,0,0,0-.27-.39,4.16,4.16,0,0,0-.31-.35l.41-.24a4,4,0,0,1,.31.34,4.33,4.33,0,0,1,.29.38Zm.66-.37a2.16,2.16,0,0,0-.28-.38,2.68,2.68,0,0,0-.32-.34l.4-.23.17.17a2.05,2.05,0,0,1,.24.26,2.34,2.34,0,0,1,.19.26Z"/><path class="cls-8" d="M205,146.82h3v.83h-1.45a4.22,4.22,0,0,1-.42,1.68,3,3,0,0,1-.47.7,3.42,3.42,0,0,1-.56.52,3.17,3.17,0,0,1-.65.36,2.19,2.19,0,0,0-.22-.24l-.51-.42a3,3,0,0,0,.58-.26,2.74,2.74,0,0,0,.5-.38,3.17,3.17,0,0,0,.4-.49,2.8,2.8,0,0,0,.27-.58,2.86,2.86,0,0,0,.14-.56c0-.16,0-.27,0-.33H204.6a5.6,5.6,0,0,1-.48.66,3.16,3.16,0,0,1-.54.51c-.27-.22-.53-.41-.77-.57a3.29,3.29,0,0,0,.34-.28,4.48,4.48,0,0,0,.38-.44,5.63,5.63,0,0,0,.39-.57,4.57,4.57,0,0,0,.35-.7,4.73,4.73,0,0,0,.22-.71l1,.24a1.15,1.15,0,0,0-.12.25c0,.1-.08.23-.14.4Zm2.45-.27-.27-.39a3.83,3.83,0,0,0-.31-.34l.41-.24a4,4,0,0,1,.31.34,4.33,4.33,0,0,1,.29.38Zm.46-1.32.17.17a3.27,3.27,0,0,1,.24.27,1.51,1.51,0,0,1,.19.26l-.4.26a2.65,2.65,0,0,0-.28-.39,3.4,3.4,0,0,0-.32-.33Z"/><path class="cls-8" d="M213.34,147.88v.93H208.6v-.93h4.74Z"/><path class="cls-8" d="M218.86,150.24l-.79.42a1.76,1.76,0,0,0-.12-.34l-.18-.41c-.31.06-.91.15-1.8.29l-1.71.27-.2,0-.22.06-.26-1,.46,0,.33,0q.21-.5.51-1.29c.19-.52.36-1,.5-1.47a6.15,6.15,0,0,0,.24-1l1,.36a2.23,2.23,0,0,0-.17.35c-.32,1-.55,1.61-.69,2s-.26.67-.38.94l2-.27c-.17-.29-.32-.51-.44-.68s-.23-.28-.31-.36l.7-.45a4.57,4.57,0,0,1,.45.54c.16.23.32.47.47.73a7.93,7.93,0,0,1,.4.74A3.27,3.27,0,0,1,218.86,150.24Z"/><path class="cls-8" d="M120.47,140.51c.27.17.57.33.89.5a2.51,2.51,0,0,1-.16.69,1.25,1.25,0,0,1-.31.44,1.48,1.48,0,0,1-.59.28,4.8,4.8,0,0,1-1.06.1,8.09,8.09,0,0,1-1-.05,1,1,0,0,1-.47-.18.78.78,0,0,1-.26-.38,2.23,2.23,0,0,1-.09-.71c0-.11,0-.73,0-1.88h0l-.23.08-.23.08-.09-.72h-.3v1.55c.26-.11.46-.2.59-.27v.47c0,.28,0,.45,0,.49l-.1.05-.54.23c-.3.13-.66.27-1.08.43l-.36.15-.2-1,.42-.11.36-.13v-1.91H115v-.88h.64v-1.24c0-.1,0-.21,0-.32l.92,0c0,.11,0,.2,0,.28v1.24h.58v.62l.17-.05.15-.05v-1.68l.91.06v1.33l.52-.18v-1.47c0-.1,0-.21,0-.32h.28l.38,0h.18v1.48l.82-.27.07-.08a7.26,7.26,0,0,1,.68.55l-.09,0c0,.53,0,.94,0,1.25a2.6,2.6,0,0,1-.1.69.75.75,0,0,1-.21.37,1,1,0,0,1-.37.21,1.51,1.51,0,0,1-.5.07c0-.16-.12-.48-.27-.95a.78.78,0,0,0,.27.06.25.25,0,0,0,.15-.05s.08-.09.11-.2a7.35,7.35,0,0,0,0-1l-.59.19v2c0,.19,0,.32,0,.4h-.85c0-.15,0-.28,0-.4v-1.7l-.52.17v2.17a.46.46,0,0,0,0,.22.2.2,0,0,0,.1.12l.13.05.2,0h.56a4.24,4.24,0,0,0,.57,0,.82.82,0,0,0,.34-.15.58.58,0,0,0,.13-.2,1.36,1.36,0,0,0,.07-.33C120.46,140.77,120.47,140.64,120.47,140.51Z"/><path class="cls-8" d="M127.52,139.93h.7v.87H125.8q0,.09,0,.27c0,.11,0,.2,0,.27a2.74,2.74,0,0,1,0,.43,1.27,1.27,0,0,1-.12.33.73.73,0,0,1-.22.24.9.9,0,0,1-.34.16,1.85,1.85,0,0,1-.57.07l-.56,0q-.06-.21-.3-.87l.31,0,.33,0a.71.71,0,0,0,.47-.11.5.5,0,0,0,.11-.37,3.13,3.13,0,0,0,0-.46h-3v-.87h2.67a1.42,1.42,0,0,0-.3-.3l.82-.21,0,0,0,0,.19-.12.31-.21h-2.26v-.77h2.94l.07-.07.34.22.36.28v-.87H123v1h-1a1.7,1.7,0,0,0,0-.22v-1.29a1.93,1.93,0,0,0,0-.23h1.07c-.1-.14-.21-.29-.33-.43l-.33-.36.93-.31a6.26,6.26,0,0,1,.62.82l-.69.28h2.55a5.72,5.72,0,0,0,.45-.63,3.54,3.54,0,0,0,.28-.56l.95.34-.11.11a5.77,5.77,0,0,1-.49.74h1.08v1.74h-1v-.05l-.12.05a5.21,5.21,0,0,1-.68.53,8,8,0,0,1-.79.48v0Zm-1.86-3.12-.86.3a5.21,5.21,0,0,0-.6-.9l.9-.25q.12.15.3.42A4.44,4.44,0,0,1,125.66,136.81Z"/><path class="cls-8" d="M131.42,141.26v.3h-1.3v.53h-.76c0-.12,0-.23,0-.32V140a4.31,4.31,0,0,1-.39.46c0-.11-.08-.26-.14-.45s-.13-.35-.19-.48a3.47,3.47,0,0,0,.43-.65,4.43,4.43,0,0,0,.36-.84,5.55,5.55,0,0,0,.21-.75h-.81v-.87h2.71v.87h-1.12a10.72,10.72,0,0,1-.28,1.08h1.27v2.93Zm-1.29-.49h.52V139.1h-.52Zm4.68-2.14h.48v.91h-.56v2.51c0,.14,0,.3,0,.49h-.94c0-.19,0-.35,0-.49v-2.51h-.61a4.61,4.61,0,0,1-.38,1.83,2.74,2.74,0,0,1-1,1.26,5.15,5.15,0,0,0-.77-.62,2.8,2.8,0,0,0,.5-.41,2,2,0,0,0,.4-.54,2.67,2.67,0,0,0,.25-.69,3.55,3.55,0,0,0,.09-.82h-.69v-.91h.69v-1.4h-.47v-.87h3.33v.87h-.42v1.4Zm-1.61,0h.61v-1.4h-.61Z"/><path class="cls-8" d="M141.57,140.65l.37.24c.15.1.3.18.45.26a2.42,2.42,0,0,1-.17.84.84.84,0,0,1-.42.41,2.16,2.16,0,0,1-.81.12,3.6,3.6,0,0,1-.74-.06.8.8,0,0,1-.41-.22.56.56,0,0,1-.13-.41c0-.16,0-.57,0-1.23h-.83a3.08,3.08,0,0,1-.48.79,3,3,0,0,1-.62.57,3.43,3.43,0,0,1-.69.4,6.35,6.35,0,0,1-.71.27c-.14-.19-.34-.45-.61-.78a4.3,4.3,0,0,0,1.26-.49,2.66,2.66,0,0,0,.83-.76h-1.59v-.85h1.94a2.84,2.84,0,0,0,.07-.68c0-.1,0-.2,0-.3l.9.05a1.09,1.09,0,0,0,0,.2,4.59,4.59,0,0,1-.06.73h1.6c0,.16,0,.46-.05.9s0,.7,0,.78a.14.14,0,0,0,.11.15,1.12,1.12,0,0,0,.29,0,.67.67,0,0,0,.26,0,.34.34,0,0,0,.17-.21A2.93,2.93,0,0,0,141.57,140.65ZM136,138.32a1.8,1.8,0,0,0,0-.22v-1.19c0-.06,0-.13,0-.22h2.52v-.58h.69l.36,0v.54h2.59v1.63h-.58l.43.19a1.12,1.12,0,0,1-.09.4.76.76,0,0,1-.18.24.92.92,0,0,1-.27.16,1.84,1.84,0,0,1-.39.1,3.84,3.84,0,0,1-.5,0,4.74,4.74,0,0,1-.77,0,.72.72,0,0,1-.35-.12.55.55,0,0,1-.14-.21,2.12,2.12,0,0,1-.05-.56v-.78a.68.68,0,0,0,0-.14l.91.06a.27.27,0,0,0,0,.11v.76a.1.1,0,0,0,.08.11,1.86,1.86,0,0,0,.41,0,1.19,1.19,0,0,0,.29,0,.35.35,0,0,0,.18-.1.68.68,0,0,0,.09-.39h0v-.67H137v.85Zm0,.42a3.61,3.61,0,0,0,1.31-.41,1.63,1.63,0,0,0,.73-.79l.8.41-.06.08a2.86,2.86,0,0,1-.3.44,2.52,2.52,0,0,1-.44.42,3.08,3.08,0,0,1-.55.33,3,3,0,0,1-.58.22l-.49.14Q136.34,139.29,136,138.74Z"/><path class="cls-8" d="M145.69,138.6h.71v.82h-3.61v-.82h.81a8.3,8.3,0,0,0-.29-.95l.36-.08h-.73v-.82h1.22v-.48l0-.18,1,0v.62h1.19v.82h-.51l.25.08a.33.33,0,0,0-.06.13C145.85,138.14,145.76,138.41,145.69,138.6Zm.42,1.27c0,.06,0,.15,0,.27v2.38h-.89v-.28h-1.13v.28h-.9c0-.1,0-.19,0-.27v-2.11c0-.08,0-.17,0-.27Zm-2,1.6h1.13v-.84h-1.13Zm.06-3.9c.08.24.16.58.26,1h.45a3.33,3.33,0,0,0,.13-.39c.06-.2.12-.41.17-.64Zm5.08-.64-.43,1.34c-.09.25-.16.45-.22.59a2.8,2.8,0,0,1,.51.72,1.72,1.72,0,0,1,.18.75,1.16,1.16,0,0,1-.35.9,1.37,1.37,0,0,1-1,.33,2.36,2.36,0,0,0-.18-.34l-.22-.39v1.23c0,.24,0,.4,0,.49h-.91c0-.09,0-.25,0-.49v-5.63h1.91l.09-.11.33.25c.13.11.25.21.35.31Zm-1.31,3.82a.42.42,0,0,0,.34-.15.63.63,0,0,0,.13-.43,1.28,1.28,0,0,0-.19-.66,1.79,1.79,0,0,0-.54-.6,6.2,6.2,0,0,0,.24-.65c.11-.3.21-.65.33-1h-.69v3.51Z"/><path class="cls-8" d="M76.37,137.71c.61-.09,1-.16,1.18-.2l0,.81-1.3.21-1.46.22-.38.06-.14-.86a4.1,4.1,0,0,0,.49,0q.3,0,.81-.09v-.7h-1.1v-.79h1.1v-.53H74.46v-3h3v3h-1.1v.53h1.11v.79H76.37Zm-.77-4.16h-.37v.51h.37Zm-.37,1.14v.48h.37v-.48Zm1.46-.63v-.51H76.3v.51Zm-.39,1.11h.39v-.48H76.3Zm4.52.28-.08,0a4.29,4.29,0,0,1-.26.7,5.22,5.22,0,0,1-.33.6,3.12,3.12,0,0,1-.26.37.63.63,0,0,0-.15-.16,2.88,2.88,0,0,0-.34-.27v.9l0,.61a.66.66,0,0,1-.17.45,1,1,0,0,1-.5.27,2.71,2.71,0,0,1-.81.1c-.06-.15-.2-.45-.41-.92a4,4,0,0,0,.58.05.71.71,0,0,0,.3-.05.19.19,0,0,0,.09-.17v-2.13h-.87v-.76h1.49l-.63-.39c-.23-.13-.43-.24-.61-.32l.56-.53.52.26c.17-.14.34-.28.5-.44H77.7v-.74H80l0-.05a5,5,0,0,1,.65.49l-.1,0a6.81,6.81,0,0,1-.42.54c-.17.2-.34.38-.49.53l.43.27-.31.32h.46l0-.05a2.62,2.62,0,0,1,.34.24Zm-1.42,1.08a3.49,3.49,0,0,0,.48-.7H79.4Z"/><path class="cls-8" d="M86.57,136.38c.08.14.18.29.3.46a4.71,4.71,0,0,0,.42.51,3,3,0,0,0,.47.42c-.09.11-.19.25-.3.41a3.5,3.5,0,0,0-.24.39,4,4,0,0,1-.79-.92,6.43,6.43,0,0,1-.62-1.29c0,.54,0,1,0,1.29v.61a.66.66,0,0,1-.35.58A1.67,1.67,0,0,1,85,139a3.37,3.37,0,0,1-.68.06l-.41-.91a3.17,3.17,0,0,0,.6.05.62.62,0,0,0,.31-.05A.18.18,0,0,0,85,138v-3.39H83.33v-.8h-.47v.92h.58v.59l.54-.54a12.33,12.33,0,0,1,1,.88l-.62.66a5.45,5.45,0,0,0-.42-.43l-.47-.42v.1h-.58v.9a6.65,6.65,0,0,0,.69-.28v.9l-.85.34-1,.35-.37.16-.17-.91.19,0,.22-.06.41-.13v-1.23h-.6v-.84H82v-.92h-.72V133h2.31v.76H85v-.84a2.5,2.5,0,0,0,0-.25h.5l.43,0v1.06h.75a6.57,6.57,0,0,0-.75-.58,2.87,2.87,0,0,1,.31-.25l.29-.23.28.17a7.65,7.65,0,0,1,.65.49l-.47.4h.67v.89H85.9a7.53,7.53,0,0,0,.31,1,4.38,4.38,0,0,0,.44-.43,3.91,3.91,0,0,0,.36-.44l.65.73a.2.2,0,0,0-.11.07c-.13.13-.28.27-.47.43S86.73,136.26,86.57,136.38Zm-1.95.07a4.37,4.37,0,0,0,.29.83c-.14.11-.39.3-.75.55s-.65.45-.86.58l-.31.21c-.14-.33-.26-.64-.37-.92l.18-.07.2-.09c.27-.14.56-.32.89-.53A5.77,5.77,0,0,0,84.62,136.45Z"/><path class="cls-8" d="M92.5,133.49l.85.64-.09.1a6.27,6.27,0,0,1-.42,1.38,6.52,6.52,0,0,1-.75,1.27A5.8,5.8,0,0,1,91,138a5.5,5.5,0,0,1-1.34.81,6.13,6.13,0,0,0-.86-.79A5.54,5.54,0,0,0,91,136.62a4.51,4.51,0,0,0,1.13-2.05H88.35v-1.07l.46,0h3.56Z"/><path class="cls-8" d="M98.32,134.34l.78.67a1.45,1.45,0,0,0-.18.17,6.66,6.66,0,0,1-.7,1.06,5.19,5.19,0,0,1-.83.85,2.43,2.43,0,0,0-.33-.28,2.9,2.9,0,0,1-.34-.28,3.58,3.58,0,0,1-.54,1.58,3.06,3.06,0,0,1-1.2,1,2.81,2.81,0,0,0-.34-.32l-.45-.35a2.41,2.41,0,0,0,1.15-.92,2.63,2.63,0,0,0,.41-1.48v-.33l1,.09a.63.63,0,0,0-.05.21,2.61,2.61,0,0,1,0,.4,6.54,6.54,0,0,0,.57-.51,3.24,3.24,0,0,0,.5-.62H94v-1a3.78,3.78,0,0,0,.41,0h3.79Z"/><path class="cls-8" d="M101.17,135.48a4.85,4.85,0,0,0-.43-.35q-.26-.19-.6-.42l-.64-.39.64-.85c.24.14.51.31.81.52s.59.42.85.64Zm3.47-1.58.66,1a6.64,6.64,0,0,1-1.09,1.45,9.12,9.12,0,0,1-1.5,1.23,12,12,0,0,1-1.85,1,.93.93,0,0,0-.2.1l-.12.06-.7-1a8,8,0,0,0,1.52-.62,8.53,8.53,0,0,0,1.37-.9,7.9,7.9,0,0,0,1.12-1.12A5.81,5.81,0,0,0,104.64,133.9Z"/><path class="cls-8" d="M83,143.31l.44,0v1l-.44,0h-.78v.16a3.46,3.46,0,0,1-.59,2,3.79,3.79,0,0,1-1.77,1.31,5.07,5.07,0,0,0-.81-.75,3.36,3.36,0,0,0,1.64-1,2.42,2.42,0,0,0,.51-1.6v-.18H79.85v1.39h-1l0-.46v-.93h-.89l-.44,0v-1l.44,0h.89v-.6c0-.34,0-.55,0-.65l1.08.09a2,2,0,0,0,0,.22c0,.11,0,.2,0,.28v.66h1.34v-.76c0-.11,0-.28,0-.5l1.1.07q0,.12,0,.33c0,.14,0,.25,0,.34v.52Z"/><path class="cls-8" d="M89.5,144.48v1.09l-.57,0H84.54l-.57,0v-1.09l.57,0h4.39Z"/><path class="cls-8" d="M94.9,142.78l.77.58-.11.14a9.42,9.42,0,0,1-.89,1.8,7.54,7.54,0,0,1-1.31,1.52A7.85,7.85,0,0,1,91.59,148l-.29-.29-.34-.28-.24-.16.53-.25.48-.28a6.6,6.6,0,0,0,.57-.39,9,9,0,0,0,.7-.63,6.56,6.56,0,0,0,.73-.87,5.34,5.34,0,0,0,.57-1.05H92.64a8.27,8.27,0,0,1-.78,1,6.85,6.85,0,0,1-.83.75l-.23-.2-.35-.26-.32-.19a5.65,5.65,0,0,0,.65-.53,8.3,8.3,0,0,0,1.45-1.82,5.24,5.24,0,0,0,.37-.78l1.09.31s-.06.08-.09.14l-.09.14c-.11.24-.2.41-.26.52H94.8Z"/><path class="cls-8" d="M97,143.87V143c0-.24,0-.45,0-.62l1.12.07a11.68,11.68,0,0,0,0,1.44A10,10,0,0,1,98,145a4.31,4.31,0,0,1-.22,1,3.92,3.92,0,0,1-.45.89,5.47,5.47,0,0,1-.83.91l-.24-.21c-.12-.11-.24-.2-.35-.29l-.33-.25a4,4,0,0,0,.68-.59,3,3,0,0,0,.44-.7,3.6,3.6,0,0,0,.24-.86A6.68,6.68,0,0,0,97,143.87Zm4.79.32c0,.15.11.34.2.55a4.26,4.26,0,0,0,.24.51,10.11,10.11,0,0,1-2.31,1.95.63.63,0,0,0-.2.16l-.86-.7a.29.29,0,0,0,.1-.2v-3.68a5.25,5.25,0,0,0,0-.56l1.1.08a1,1,0,0,0,0,.22c0,.06,0,.17,0,.33l0,3.08a5,5,0,0,0,.61-.43,5.64,5.64,0,0,0,.68-.63A6.63,6.63,0,0,0,101.76,144.19Z"/><path class="cls-8" d="M37.51,133.27l.85.73-.12.08a7.33,7.33,0,0,1-.46.76,8.29,8.29,0,0,1-.67.89,5.4,5.4,0,0,1-.7.68l-.15-.13-.35-.26-.31-.23a6.17,6.17,0,0,0,.57-.47,4.47,4.47,0,0,0,.48-.52c.13-.18.24-.33.32-.46H32.5v-1l.49,0h4.39Zm-3,1.65,1.12.09,0,.12s0,.09,0,.14a3.88,3.88,0,0,1-2,3.6,2.82,2.82,0,0,0-.38-.34c-.17-.14-.34-.26-.5-.37a3.36,3.36,0,0,0,.85-.51,2.67,2.67,0,0,0,.91-1.47,3.57,3.57,0,0,0,.1-.87C34.53,135.18,34.53,135.05,34.52,134.92Z"/><path class="cls-8" d="M44.1,133.79l.86.87-.14.1a9.81,9.81,0,0,1-1,1.18,12.11,12.11,0,0,1-1.27,1.15,6.41,6.41,0,0,1,.72.87l-.86.68a9.15,9.15,0,0,0-1-1.22,11.37,11.37,0,0,0-1.28-1.19l.68-.67a8.46,8.46,0,0,1,1,.81,7.31,7.31,0,0,0,.89-.73,5.9,5.9,0,0,0,.74-.79h-4l-.49,0v-1.05l.49,0H44Z"/><path class="cls-8" d="M50.72,135.15h.46v1l-.46,0H49a4.18,4.18,0,0,1-.22.94,3.34,3.34,0,0,1-.4.75,3.18,3.18,0,0,1-.58.58,4.42,4.42,0,0,1-.77.49,7.72,7.72,0,0,0-.87-.74,3.24,3.24,0,0,0,1.23-.8,2.61,2.61,0,0,0,.57-1.22h-2l-.47,0v-1H48c0-.38,0-.69,0-.91-.76.11-1.32.18-1.66.2t-.18-.36a3.35,3.35,0,0,0-.32-.58,14.6,14.6,0,0,0,1.68-.13,12.82,12.82,0,0,0,1.59-.27,3.71,3.71,0,0,0,.82-.25l.63.92a3,3,0,0,0-.41.08c-.19.05-.56.13-1.12.23v1.07Z"/><path class="cls-8" d="M56,137.71h.39v1H51.49v-1h2.65c.18-.89.29-1.56.34-2H52.09v-1h3.58q0,.39-.18,1.29t-.3,1.68Z"/><path class="cls-8" d="M61.88,133.27l.86.73-.12.08c-.11.21-.27.47-.46.76a8.44,8.44,0,0,1-.68.89,4.83,4.83,0,0,1-.7.68,1.24,1.24,0,0,0-.15-.13l-.34-.26-.31-.23c.19-.14.38-.3.57-.47a5.38,5.38,0,0,0,.47-.52,5,5,0,0,0,.32-.46H56.87v-1l.5,0h4.39Zm-3,1.65L60,135l0,.12a.78.78,0,0,1,0,.14,3.84,3.84,0,0,1-2,3.6,2.63,2.63,0,0,0-.37-.34c-.17-.14-.34-.26-.5-.37a3.55,3.55,0,0,0,.85-.51,2.8,2.8,0,0,0,.58-.68,2.88,2.88,0,0,0,.33-.79,4.14,4.14,0,0,0,.1-.87C58.91,135.18,58.9,135.05,58.89,134.92Z"/><path class="cls-8" d="M30.16,147.66a4.17,4.17,0,0,0,.41-.47,5.62,5.62,0,0,0,.34-.5,2.72,2.72,0,0,0,.17-.32l.83.28c-.16.34-.31.64-.46.9a4,4,0,0,1-.41.61Zm1.24-3H30.33v-.79h1.14v-.55a3.7,3.7,0,0,1-.55.49c-.11-.15-.3-.38-.56-.68a2.78,2.78,0,0,0,.39-.29c.13-.12.27-.26.4-.4s.24-.3.35-.46a3.35,3.35,0,0,0,.24-.45l.86.18-.05.08a3.87,3.87,0,0,1-.27.48h4.11v.8h-.63v.82h.93v.79h-.93v.81h.78v.79h-6v-.79h.85Zm.81-1.59v.82h.4v-.82Zm0,1.59v.81h.4v-.81Zm0,2,.86-.16a5.91,5.91,0,0,1,.16.64c.06.26.1.51.14.75l-1,.17a6.91,6.91,0,0,0-.06-.69C32.32,147.1,32.28,146.87,32.24,146.67Zm1.15-2.77h.37v-.82h-.37Zm.37.77h-.37v.81h.37Zm-.15,2,.82-.24c.13.2.25.43.38.68s.22.48.29.66l-1,.27a5.8,5.8,0,0,0-.24-.69A6.93,6.93,0,0,0,33.61,146.68ZM35,143.9v-.82h-.43v.82Zm0,1.58v-.81h-.43v.81Zm.95.88.33.4a4.85,4.85,0,0,1,.35.48l.25.4L36,148a6.27,6.27,0,0,0-.32-.63c-.16-.26-.32-.51-.49-.75Z"/><path class="cls-8" d="M42.83,146.11a4.12,4.12,0,0,0,.46.47,3.45,3.45,0,0,0,.39.28l.19.11a5.81,5.81,0,0,0-.45.82,3.47,3.47,0,0,1-.69-.65,4.46,4.46,0,0,1-.57-.92c0,.26,0,.45,0,.59v.61a.54.54,0,0,1-.32.51,2.07,2.07,0,0,1-1,.18,1.16,1.16,0,0,0-.06-.16q0-.12-.15-.33l-.12-.29a2.6,2.6,0,0,1-.54.47l-.22-.26c-.1-.12-.22-.25-.35-.38a2.46,2.46,0,0,0,.51-.39,2.28,2.28,0,0,0,.36-.43,2.42,2.42,0,0,0,.2-.39h-.63a4.3,4.3,0,0,1,.13.72l-.6.19c0-.17,0-.36-.05-.56s-.07-.38-.11-.56l.53-.14.07.21v-.37l-.35.09,0-.34-.37,0v2.53a2.37,2.37,0,0,0,0,.31h-.81a2.29,2.29,0,0,0,0-.31v-2.44l-.7.06-.33.05-.1-.81a3.22,3.22,0,0,0,.43,0h.16l.39-.48a12.24,12.24,0,0,0-.94-1l.42-.66.22.23a4.72,4.72,0,0,0,.37-.61,3.46,3.46,0,0,0,.24-.51l.7.4-.09.11a11.84,11.84,0,0,1-.72,1.17l.23.27a7.47,7.47,0,0,0,.77-1.32l.68.4-.1.12c-.14.24-.32.53-.56.87s-.46.65-.69.94l.62-.07a2.93,2.93,0,0,0-.16-.46l.56-.16c.07.2.14.41.21.65a4.71,4.71,0,0,1,.16.65h.75l0-.07a3.09,3.09,0,0,1,.48.37v-.74H40.12c0-.1,0-.19,0-.27v-2c0-.08,0-.17,0-.27h1.11c0-.1.08-.21.12-.34a1.6,1.6,0,0,0,.07-.28l.95.14a.33.33,0,0,0-.06.13l-.14.35h1.24v2.51H42.19v.09a3.09,3.09,0,0,0,.25.66l.26-.2L43,145l.17-.2.61.61-.1.06c-.11.1-.24.2-.4.32Zm-5.61,1.38a5.92,5.92,0,0,0,.26-1.82l.66.11,0,.14a6.87,6.87,0,0,1-.23,1.83c-.05,0-.15-.07-.33-.13Zm4.13-.39v-1.48a3.83,3.83,0,0,1-.16.58,3.77,3.77,0,0,1-.24.56,4.3,4.3,0,0,1-.35.52,2.75,2.75,0,0,0,.41,0,.83.83,0,0,0,.24,0C41.32,147.25,41.35,147.19,41.35,147.1Zm1.18-4.24H41v.32h1.52Zm-1.52.91v.34h1.52v-.34Z"/><path class="cls-8" d="M46.87,146.77v.3h-1.3v.53h-.76c0-.12,0-.23,0-.32v-1.82a2.5,2.5,0,0,1-.39.47c0-.11-.07-.26-.14-.45s-.13-.35-.19-.49a2.72,2.72,0,0,0,.43-.64,5.65,5.65,0,0,0,.37-.84,6.71,6.71,0,0,0,.2-.76H44.3v-.87H47v.87H45.9a10.29,10.29,0,0,1-.29,1.09h1.27v2.93Zm-1.29-.49h.53v-1.67h-.53Zm4.69-2.14h.47v.92h-.56v2.52c0,.14,0,.3,0,.49h-1c0-.19,0-.35,0-.49V145h-.62a4.62,4.62,0,0,1-.38,1.84,2.77,2.77,0,0,1-1,1.26,5.88,5.88,0,0,0-.78-.63,2.2,2.2,0,0,0,.51-.4,2.41,2.41,0,0,0,.39-.54,3,3,0,0,0,.25-.69,3.55,3.55,0,0,0,.09-.82v0h-.69v-.92h.69v-1.41h-.47v-.87H50.6v.87h-.42v1.41Zm-1.62,0h.62v-1.41h-.62Z"/><path class="cls-8" d="M57,146.16l.36.24.45.25a2.13,2.13,0,0,1-.17.84.86.86,0,0,1-.42.42,2.07,2.07,0,0,1-.8.12,3.71,3.71,0,0,1-.75-.06.84.84,0,0,1-.41-.22.58.58,0,0,1-.13-.41q0-.24.06-1.23h-.84a3,3,0,0,1-.47.79,4.11,4.11,0,0,1-.62.57,4.49,4.49,0,0,1-.7.4,5.69,5.69,0,0,1-.71.27c-.13-.19-.34-.45-.61-.78a4.49,4.49,0,0,0,1.27-.5,2.59,2.59,0,0,0,.82-.75H51.78v-.84h1.94a3.36,3.36,0,0,0,.07-.67,2.66,2.66,0,0,0,0-.3l.91,0a1,1,0,0,0,0,.2,5.94,5.94,0,0,1,0,.72H56.2c0,.16,0,.46-.05.9s0,.71,0,.79a.14.14,0,0,0,.1.15,1.15,1.15,0,0,0,.3,0,.66.66,0,0,0,.25,0,.31.31,0,0,0,.17-.22A2.62,2.62,0,0,0,57,146.16Zm-5.57-2.33a1.7,1.7,0,0,0,0-.22v-1.19a1.86,1.86,0,0,0,0-.22H54v-.4c0-.08,0-.14,0-.18h.26l.43,0,.37,0,0,.14v.4H57.6v1.63H57l.44.18a1.22,1.22,0,0,1-.1.4.7.7,0,0,1-.18.25.72.72,0,0,1-.27.16,1.87,1.87,0,0,1-.39.09,3.62,3.62,0,0,1-.5,0,6.43,6.43,0,0,1-.77,0,.59.59,0,0,1-.34-.13.46.46,0,0,1-.15-.2,2.16,2.16,0,0,1,0-.57v-.77a.61.61,0,0,0,0-.14l.9.05a.41.41,0,0,0,0,.12V144c0,.06,0,.1.07.11a3.08,3.08,0,0,0,.42,0l.29,0a.32.32,0,0,0,.17-.1.8.8,0,0,0,.1-.4h0V143H52.42v.85Zm0,.42a3.6,3.6,0,0,0,1.32-.41,1.65,1.65,0,0,0,.72-.79l.8.4,0,.09A5.14,5.14,0,0,1,54,144a2.21,2.21,0,0,1-.44.42,2.77,2.77,0,0,1-.55.33,4.13,4.13,0,0,1-.57.22l-.5.14A5.81,5.81,0,0,0,51.49,144.25Z"/><path class="cls-8" d="M61.14,144.11h.72v.82H58.25v-.82h.8a6.69,6.69,0,0,0-.29-1l.36-.08h-.73v-.81h1.22v-.66l1,0,0,.15v.47h1.19v.81h-.51l.25.08a.45.45,0,0,0-.06.13C61.3,143.65,61.21,143.92,61.14,144.11Zm.42,1.27V148h-.89v-.28H59.54V148h-.9a2.62,2.62,0,0,0,0-.27v-2.11a2.44,2.44,0,0,0,0-.27Zm-2,1.6h1.13v-.84H59.54Zm.06-3.9a8.84,8.84,0,0,1,.26,1h.46l.12-.39c.06-.2.12-.41.17-.64Zm5.08-.64c-.2.64-.35,1.09-.43,1.34s-.16.44-.22.58a2.68,2.68,0,0,1,.51.73,1.72,1.72,0,0,1,.18.75,1.15,1.15,0,0,1-.35.9,1.34,1.34,0,0,1-1,.33l-.18-.34-.23-.39v1.23a4.88,4.88,0,0,0,0,.49h-.92c0-.09,0-.26,0-.49v-5.63H64l.1-.11a2.6,2.6,0,0,1,.32.25c.13.1.25.21.36.31Zm-1.31,3.82a.44.44,0,0,0,.35-.15.72.72,0,0,0,.13-.44,1.38,1.38,0,0,0-.19-.65,1.92,1.92,0,0,0-.54-.6l.24-.65c.1-.3.21-.65.32-1.05H63v3.51Z"/><path class="cls-8" d="M247.6,174.18a9.11,9.11,0,0,0,.89.5,2.94,2.94,0,0,1-.16.69,1.25,1.25,0,0,1-.31.44,1.48,1.48,0,0,1-.59.28,4.32,4.32,0,0,1-1.06.1,7.86,7.86,0,0,1-1-.05,1.19,1.19,0,0,1-.47-.17.86.86,0,0,1-.26-.39,2.23,2.23,0,0,1-.09-.71c0-.1,0-.73,0-1.88h0l-.23.08-.23.08-.09-.72h-.3V174l.58-.26s0,.18,0,.46,0,.45,0,.49l-.09,0-.54.23c-.3.13-.67.27-1.08.43a3,3,0,0,0-.36.16l-.2-1,.41-.11.37-.13v-1.91h-.65v-.87h.65v-1.24c0-.1,0-.21,0-.32l.92,0c0,.11,0,.21,0,.28v1.24h.58v.61l.17-.05.15,0v-1.68l.91.06v1.33l.52-.18v-1.47c0-.1,0-.2,0-.32h.28l.38,0h.18v1.48l.81-.26.08-.09.33.25a3.6,3.6,0,0,1,.34.3l-.08,0c0,.53,0,.94,0,1.25a3.21,3.21,0,0,1-.1.7.72.72,0,0,1-.21.36,1.12,1.12,0,0,1-.37.21,1.51,1.51,0,0,1-.5.07c0-.16-.13-.48-.27-1a.74.74,0,0,0,.27.06.28.28,0,0,0,.15,0,.29.29,0,0,0,.1-.2,6.13,6.13,0,0,0,.05-1l-.58.2v2c0,.19,0,.32,0,.4H246c0-.15,0-.28,0-.4v-1.7l-.52.18v2.17a.62.62,0,0,0,0,.21.22.22,0,0,0,.11.12.35.35,0,0,0,.13.05l.2,0h.55a4,4,0,0,0,.58,0,.78.78,0,0,0,.33-.15.6.6,0,0,0,.14-.2,2.09,2.09,0,0,0,.07-.33C247.59,174.44,247.6,174.31,247.6,174.18Z"/><path class="cls-8" d="M254.65,173.61h.7v.87h-2.42q0,.09,0,.27c0,.11,0,.2,0,.27a2.72,2.72,0,0,1,0,.43,1.15,1.15,0,0,1-.13.34.66.66,0,0,1-.21.23,1.14,1.14,0,0,1-.35.17,2.12,2.12,0,0,1-.56.06l-.56,0c0-.14-.15-.43-.31-.86l.32,0a2.06,2.06,0,0,0,.33,0,.71.71,0,0,0,.47-.11.53.53,0,0,0,.11-.37,3.13,3.13,0,0,0,0-.46h-3v-.87h2.67a1.26,1.26,0,0,0-.3-.31l.82-.21,0,0,0,0,.19-.11.3-.22h-2.25v-.77h2.94l.07-.07.34.22c.13.1.25.19.35.28v-.87h-4.05v1h-1a1.64,1.64,0,0,0,0-.22v-1.29a2.15,2.15,0,0,0,0-.23h1.08l-.33-.43-.33-.36.93-.31a5.27,5.27,0,0,1,.61.82l-.68.28H253a5.72,5.72,0,0,0,.44-.63,2.36,2.36,0,0,0,.28-.56l1,.34-.11.11a5.35,5.35,0,0,1-.5.74h1.09v1.74h-1v0l-.12,0a4.74,4.74,0,0,1-.68.54c-.27.18-.53.34-.79.48l0,0Zm-1.87-3.13-.85.31a4.84,4.84,0,0,0-.6-.91l.9-.25q.12.15.3.42A4,4,0,0,1,252.78,170.48Z"/><path class="cls-8" d="M258.55,174.93v.3h-1.29v.53h-.77c0-.12,0-.23,0-.32v-1.81a4.42,4.42,0,0,1-.39.47,4.71,4.71,0,0,0-.15-.46c-.06-.19-.13-.35-.18-.48a3.47,3.47,0,0,0,.43-.65,4.43,4.43,0,0,0,.36-.84,5.55,5.55,0,0,0,.21-.75H256v-.88h2.71v.88h-1.12a10.72,10.72,0,0,1-.28,1.08h1.26v2.93Zm-1.29-.48h.52v-1.68h-.52Zm4.68-2.15h.48v.91h-.56v2.51c0,.14,0,.3,0,.49h-.94c0-.19,0-.35,0-.49v-2.51h-.62A4.6,4.6,0,0,1,260,175a2.75,2.75,0,0,1-1,1.26,5.15,5.15,0,0,0-.77-.62,2.74,2.74,0,0,0,.5-.4,2.47,2.47,0,0,0,.39-.55,2.68,2.68,0,0,0,.26-.69,4.15,4.15,0,0,0,.08-.82h-.68v-.91h.68v-1.4h-.47V170h3.34v.86h-.42v1.4Zm-1.62,0h.62v-1.4h-.62Z"/><path class="cls-8" d="M268.7,174.32a3,3,0,0,0,.37.24c.15.1.3.18.45.26a2.32,2.32,0,0,1-.17.84.88.88,0,0,1-.42.41,2.13,2.13,0,0,1-.81.13,3.49,3.49,0,0,1-.74-.07.79.79,0,0,1-.41-.21.61.61,0,0,1-.14-.42q0-.24.06-1.23h-.83a3.08,3.08,0,0,1-.48.79,3.37,3.37,0,0,1-.62.58,4.76,4.76,0,0,1-.69.4c-.25.1-.48.19-.71.26-.14-.19-.34-.45-.61-.78a4.54,4.54,0,0,0,1.26-.49,2.51,2.51,0,0,0,.82-.76h-1.58v-.85h1.94a2.84,2.84,0,0,0,.07-.68,2.71,2.71,0,0,0,0-.29l.9,0a1.15,1.15,0,0,0,0,.2,4.59,4.59,0,0,1-.06.73h1.6c0,.16,0,.46-.05.9s0,.7,0,.78a.14.14,0,0,0,.11.15,1.12,1.12,0,0,0,.29,0,.53.53,0,0,0,.26-.05.34.34,0,0,0,.17-.21A2.93,2.93,0,0,0,268.7,174.32ZM263.13,172a1.7,1.7,0,0,0,0-.22v-1.19a1.62,1.62,0,0,0,0-.21h2.52V170a.87.87,0,0,0,0-.18h.69l.37,0v.55h2.59V172h-.58l.43.19a1.39,1.39,0,0,1-.09.4.79.79,0,0,1-.19.25.87.87,0,0,1-.27.15,1.23,1.23,0,0,1-.38.1,3.89,3.89,0,0,1-.51,0,4.6,4.6,0,0,1-.76,0,.72.72,0,0,1-.35-.12.46.46,0,0,1-.14-.21,1.76,1.76,0,0,1-.05-.56v-.78a.68.68,0,0,0,0-.14l.9.06s0,.06,0,.11v.76a.1.1,0,0,0,.08.11,1.58,1.58,0,0,0,.41,0,1.12,1.12,0,0,0,.29,0,.39.39,0,0,0,.17-.09.74.74,0,0,0,.1-.4h0v-.67h-4.23V172Zm0,.43a3.81,3.81,0,0,0,1.31-.42,1.68,1.68,0,0,0,.73-.79l.8.41-.06.08a2.86,2.86,0,0,1-.3.44,2.52,2.52,0,0,1-.44.42,3.48,3.48,0,0,1-.56.34,3.61,3.61,0,0,1-.57.21l-.49.14A9.26,9.26,0,0,0,263.17,172.42Z"/><path class="cls-8" d="M272.82,172.27h.71v.82h-3.61v-.82h.81a8.3,8.3,0,0,0-.29-1l.36-.08h-.73v-.82h1.22V170l0-.19,1,0v.62h1.19v.82h-.51l.25.08a.92.92,0,0,0-.07.13C273,171.81,272.88,172.08,272.82,172.27Zm.42,1.27a2,2,0,0,0,0,.28v2.38h-.9v-.28h-1.12v.28h-.91c0-.11,0-.2,0-.28v-2.1c0-.09,0-.18,0-.28Zm-2,1.6h1.12v-.84h-1.12Zm.06-3.9c.07.24.16.59.26,1H272a3.33,3.33,0,0,0,.13-.39c.06-.2.12-.41.17-.64Zm5.07-.64c-.2.65-.34,1.09-.43,1.34s-.15.45-.21.59a2.8,2.8,0,0,1,.51.72,1.73,1.73,0,0,1,.18.76,1.15,1.15,0,0,1-.35.89,1.37,1.37,0,0,1-1,.33,3,3,0,0,0-.18-.34l-.22-.39v1.23c0,.24,0,.4,0,.49h-.92a4.72,4.72,0,0,0,0-.49V170.1h1.91l.09-.11.33.25.35.31Zm-1.3,3.83a.43.43,0,0,0,.34-.16.63.63,0,0,0,.13-.43,1.28,1.28,0,0,0-.19-.66,1.79,1.79,0,0,0-.54-.6,6.2,6.2,0,0,0,.24-.65c.1-.3.21-.65.32-1.05h-.68v3.51A2.73,2.73,0,0,0,275.05,174.43Z"/><path class="cls-8" d="M140.65,47.55,139.56,47a5.42,5.42,0,0,0,.62-.8,7,7,0,0,0,.88-2,4.39,4.39,0,0,0,.16-1l1.16.34a2,2,0,0,0-.1.35c-.05.23-.12.48-.2.76s-.17.55-.28.82-.22.52-.33.75-.24.45-.38.68A7.07,7.07,0,0,1,140.65,47.55Zm4.14-.18a9.16,9.16,0,0,0-.59-2,7.42,7.42,0,0,0-1-1.78l.9-.51a4.67,4.67,0,0,1,.56.78,8.61,8.61,0,0,1,.55,1.05c.16.38.3.72.4,1s.17.53.21.69.06.28.07.33Zm.61-4.06a.68.68,0,0,1-.71-.71.7.7,0,0,1,.2-.5.69.69,0,0,1,.51-.2.73.73,0,0,1,.35.09.59.59,0,0,1,.26.26.73.73,0,0,1,.09.35A.77.77,0,0,1,146,43a.59.59,0,0,1-.26.26A.73.73,0,0,1,145.4,43.31Zm0-.31a.59.59,0,0,0,.17,0,.33.33,0,0,0,.15-.14.4.4,0,0,0,.06-.22.5.5,0,0,0,0-.16.33.33,0,0,0-.13-.16.36.36,0,0,0-.22-.07.38.38,0,0,0-.17,0,.33.33,0,0,0-.15.14.31.31,0,0,0-.07.21.35.35,0,0,0,0,.17.33.33,0,0,0,.13.16A.44.44,0,0,0,145.4,43Z"/><path class="cls-8" d="M147.58,44.94A10.16,10.16,0,0,0,147,44a5.68,5.68,0,0,0-.63-.79l.9-.54a6.83,6.83,0,0,1,.68.82,6.61,6.61,0,0,1,.54.87Zm.61,3.07c-.12-.12-.27-.25-.44-.39a5.57,5.57,0,0,0-.5-.34,6,6,0,0,0,2.19-1.75,6.54,6.54,0,0,0,1.14-2.63c0-.06,0-.17,0-.31l1.11.36s0,.1-.07.18a.79.79,0,0,0,0,.17,8.12,8.12,0,0,1-1.31,2.82A6.5,6.5,0,0,1,148.19,48Z"/><path class="cls-8" d="M157.31,47.65h-1.08v-.32h-3.3l-.44,0V46.28l.44,0h3.3V44H153a3.7,3.7,0,0,0-.45,0V43l.45,0h4.32v4.68Z"/><path class="cls-8" d="M159.87,44.74c-.11-.1-.25-.21-.43-.35a6.86,6.86,0,0,0-.6-.41c-.22-.15-.44-.28-.64-.4l.64-.84a8.51,8.51,0,0,1,.81.51c.3.21.59.42.85.64Zm3.47-1.58.66,1a6.94,6.94,0,0,1-1.09,1.46,10.26,10.26,0,0,1-1.5,1.23,12.91,12.91,0,0,1-1.85,1l-.2.1-.12.07-.7-1a8,8,0,0,0,1.52-.62,8.53,8.53,0,0,0,1.37-.9,7.41,7.41,0,0,0,1.12-1.12A5.81,5.81,0,0,0,163.34,43.16Z"/><path class="cls-8" d="M144.2,56v.3h-1.3v.53h-.76c0-.12,0-.23,0-.32V54.73a4.31,4.31,0,0,1-.39.46c0-.11-.08-.26-.14-.45s-.13-.35-.19-.48a3.47,3.47,0,0,0,.43-.65,4.43,4.43,0,0,0,.36-.84,5.55,5.55,0,0,0,.21-.75h-.81v-.87h2.71V52h-1.11a10.8,10.8,0,0,1-.29,1.08h1.27V56Zm-1.29-.49h.53V53.87h-.53Zm4.68-2.14h.48v.91h-.56v2.51c0,.14,0,.3,0,.49h-.94c0-.19,0-.35,0-.49V54.31H146a4.61,4.61,0,0,1-.38,1.83,2.74,2.74,0,0,1-1,1.26,5.15,5.15,0,0,0-.77-.62,2.8,2.8,0,0,0,.5-.41,2,2,0,0,0,.4-.54,2.67,2.67,0,0,0,.25-.69,3.55,3.55,0,0,0,.09-.82h-.69V53.4h.69V52h-.47v-.87h3.33V52h-.42v1.4Zm-1.61,0h.61V52H146Z"/><path class="cls-8" d="M154.35,55.42l.37.24c.15.1.3.18.45.26a2.42,2.42,0,0,1-.17.84.84.84,0,0,1-.42.41,2.16,2.16,0,0,1-.81.12,3.6,3.6,0,0,1-.74-.06.8.8,0,0,1-.41-.22.56.56,0,0,1-.13-.41c0-.16,0-.57,0-1.23h-.83a3.08,3.08,0,0,1-.48.79,3,3,0,0,1-.62.57,3.43,3.43,0,0,1-.69.4,6.35,6.35,0,0,1-.71.27c-.14-.19-.34-.45-.61-.78a4.3,4.3,0,0,0,1.26-.49,2.66,2.66,0,0,0,.83-.76H149.1v-.85H151a2.84,2.84,0,0,0,.07-.68c0-.1,0-.2,0-.3l.9,0a1.15,1.15,0,0,0,0,.2,4.59,4.59,0,0,1-.06.73h1.6c0,.16,0,.46-.05.9s0,.7,0,.78a.14.14,0,0,0,.11.15,1.12,1.12,0,0,0,.29,0,.67.67,0,0,0,.26,0,.34.34,0,0,0,.17-.21A2.93,2.93,0,0,0,154.35,55.42Zm-5.57-2.33a1.8,1.8,0,0,0,0-.22V51.68c0-.06,0-.13,0-.22h2.52v-.58H152l.36,0v.54h2.59v1.63h-.58l.43.19a1.12,1.12,0,0,1-.09.4.76.76,0,0,1-.18.24.92.92,0,0,1-.27.16,1.84,1.84,0,0,1-.39.1,3.84,3.84,0,0,1-.5,0,4.74,4.74,0,0,1-.77,0,.72.72,0,0,1-.35-.12.55.55,0,0,1-.14-.21,2.12,2.12,0,0,1-.05-.56V52.5a.68.68,0,0,0,0-.14l.91.06a.27.27,0,0,0,0,.11v.76a.1.1,0,0,0,.08.11,1.86,1.86,0,0,0,.41,0,1.19,1.19,0,0,0,.29,0,.35.35,0,0,0,.18-.1.68.68,0,0,0,.09-.39h0v-.67h-4.24v.85Zm0,.42a3.55,3.55,0,0,0,1.31-.41,1.63,1.63,0,0,0,.73-.79l.8.41-.06.08a2.86,2.86,0,0,1-.3.44,2.52,2.52,0,0,1-.44.42,3.08,3.08,0,0,1-.55.33,3,3,0,0,1-.58.22l-.49.14Q149.12,54.07,148.82,53.51Z"/><path class="cls-8" d="M158.47,53.37h.72v.82h-3.62v-.82h.81a8.3,8.3,0,0,0-.29-.95l.36-.08h-.73v-.82h1.22v-.48l0-.18,1,0v.62h1.19v.82h-.51l.25.08a.33.33,0,0,0-.06.13C158.63,52.91,158.54,53.18,158.47,53.37Zm.42,1.27c0,.06,0,.15,0,.27v2.38H158V57h-1.13v.28H156c0-.1,0-.19,0-.27V54.91c0-.08,0-.17,0-.27Zm-2,1.6H158V55.4h-1.13Zm.06-3.9c.08.24.16.58.26,1h.45a3.33,3.33,0,0,0,.13-.39c.06-.2.12-.41.17-.64ZM162,51.7c-.2.65-.35,1.09-.43,1.34s-.16.45-.22.59a2.8,2.8,0,0,1,.51.72,1.72,1.72,0,0,1,.18.75,1.16,1.16,0,0,1-.35.9,1.36,1.36,0,0,1-1,.33c0-.08-.1-.19-.19-.34l-.22-.39v1.23c0,.24,0,.4,0,.49h-.91c0-.09,0-.25,0-.49V51.2h1.91l.1-.11.32.25c.13.11.25.21.35.31Zm-1.31,3.82a.42.42,0,0,0,.34-.15.63.63,0,0,0,.13-.43,1.28,1.28,0,0,0-.19-.66,1.79,1.79,0,0,0-.54-.6,6.2,6.2,0,0,0,.24-.65c.11-.3.21-.65.33-1.05h-.69v3.51Z"/><path class="cls-9" d="M76.84,45.56a1.5,1.5,0,1,0-1.5-1.5A1.5,1.5,0,0,0,76.84,45.56Z"/><path class="cls-9" d="M78.31,47.34a1.5,1.5,0,0,0-1.42-1H76.8a1.5,1.5,0,0,0-1.42,1l-1.91,5.72h2.25v4.5H78v-4.5h2.25Z"/><path class="cls-9" d="M58.14,174.22a1.6,1.6,0,1,0-1.6-1.6A1.6,1.6,0,0,0,58.14,174.22Z"/><path class="cls-9" d="M59.34,175h-2.4a1.6,1.6,0,0,0-1.6,1.6V181h1.2v6h3.2v-6h1.2v-4.39A1.6,1.6,0,0,0,59.34,175Z"/><line class="cls-3" x1="241.08" y1="30.97" x2="241.08" y2="32.97"/><line class="cls-10" x1="241.08" y1="36.77" x2="241.08" y2="65.26"/><line class="cls-3" x1="241.08" y1="67.16" x2="241.08" y2="69.16"/></g></svg>