<?xml version="1.0" encoding="utf-8"?>
<!-- Generator: Adobe Illustrator 23.0.0, SVG Export Plug-In . SVG Version: 6.00 Build 0)  -->
<svg version="1.1" id="レイヤー_1" xmlns="http://www.w3.org/2000/svg" xmlns:xlink="http://www.w3.org/1999/xlink" x="0px"
	 y="0px" viewBox="0 0 904 165.4" style="enable-background:new 0 0 904 165.4;" xml:space="preserve">
<style type="text/css">
	.st0{fill:#F9913C;}
	.st1{fill:#FFFFFF;}
	.st2{fill:#333333;}
</style>
<title>DeptIconName-Stages</title>
<path class="st0" d="M184.9,5.1L92.4,165.4l-31.2-54.1h0.5c16.5,0,30.9-8.5,30.9-26.3c0-28-36.8-18.6-36.8-33.2
	c0-6,6.9-8.2,11.9-8.2c4.3,0,9.9,1.7,12.8,5.3l12.1-13.2c-6.8-6-15.5-8.4-24.5-8.4c-15.7,0-30.5,8.9-30.5,26
	C37.5,79.9,75,72,75,86.7c0,5.7-6.4,8.4-12.2,8.4S51,93.8,47.6,87.7L0,5.1C2.6,2.6,5.1,0,10.3,0c10.3,0,10.3,10.3,20.5,10.3
	S41.1,0,51.3,0s10.3,10.3,20.5,10.3S82.2,0,92.4,0s10.3,10.3,20.6,10.3S123.3,0,133.5,0s10.3,10.3,20.5,10.3S164.3,0,174.6,0
	C179.8,0,182.3,2.6,184.9,5.1z"/>
<g>
	<path class="st1" d="M92.7,85c0-28-36.8-18.6-36.8-33.2c0-6,6.9-8.2,11.9-8.2c4.3,0,9.9,1.7,12.8,5.3l12.1-13.2
		c-6.8-6-15.5-8.4-24.5-8.4c-15.7,0-30.5,8.9-30.5,26C37.5,79.9,75,72,75,86.7c0,5.7-6.4,8.4-12.2,8.4S51,93.8,47.6,87.7l13.6,23.6
		h0.5C78.3,111.3,92.7,102.8,92.7,85z"/>
</g>
<path class="st2" d="M304.5,88.7c13.8,8.3,28.5,20.3,44.2,35.8l-10.3,10.2c-13.7-15.1-27.7-27.2-42.1-36.2
	c-7,7.7-14.7,14.8-22.9,21.2c-8.2,6.5-17.1,12.1-26.5,16.8c-3.2-4-6.8-7.6-10.8-10.8c10.9-4.8,21.1-11,30.5-18.3
	c10.4-8,19.7-17.1,28-27.3c8.3-10.2,14.4-20.2,18.2-29.9h-53.6c-3.5,0-7.1,0.1-10.8,0.3V36.1c3.7,0.2,7.3,0.3,10.8,0.3h59l1.9-1
	l11.5,8.6l-1.8,1.9C323.3,61.2,314.8,75.6,304.5,88.7z"/>
<path class="st2" d="M465.6,64.6l9.9-0.3v13.4c-3.3-0.3-6.6-0.4-9.9-0.3h-34.8c-0.2,2.9-0.7,6.5-1.4,10.8c-0.9,4.8-2.1,9.5-3.8,14
	c-1.8,5.1-4.2,10-7.2,14.5c-3.2,4.8-6.9,9.2-11.2,13c-4.7,4.2-9.8,7.7-15.4,10.6c-1.8-1.8-3.7-3.4-5.8-5c-2-1.6-4.1-3.1-6.3-4.4
	c5.8-2.6,11.2-5.9,16.1-10c4.3-3.6,8.1-7.8,11.1-12.6c2.8-4.5,5.1-9.4,6.6-14.6c1.6-5.3,2.6-10.8,3.1-16.3H375
	c-3.2,0-6.5,0.1-9.8,0.3V64.3c3.1,0.2,6.4,0.3,9.8,0.3H465.6z M451.8,42.6h-63.4c-3.3-0.1-6.5,0-9.8,0.3V29.4l9.8,0.3h63.4l9.8-0.3
	V43C460,42.8,456.8,42.7,451.8,42.6L451.8,42.6z"/>
<path class="st2" d="M610.2,76v14.3L599.3,90H513l-11.1,0.3V76c2.3,0.2,6,0.3,11.1,0.3h86.3C604.4,76.3,608.1,76.2,610.2,76z"/>
<path class="st2" d="M666.3,85.2c-5.3-3.4-10.8-6.4-16.5-9.1c-5-2.6-10.2-4.8-15.6-6.6l5.7-11.5c3,1.1,7,2.7,11.9,4.8
	c4.9,2.1,9.2,4.1,12.8,6c2.7,1.4,5.4,2.9,8,4.5L666.3,85.2z M742.8,46l8.7,13.5c-4.7,8.5-10.3,16.4-16.7,23.7
	c-6.6,7.6-14,14.5-21.8,20.8c-8,6.4-16.4,12.1-25.3,17.2c-8.8,5.1-17.9,9.7-27.3,13.7l-5.1,2.6l-9.3-13.4c3.8-1.2,8-2.6,12.5-4.4
	s9.3-3.9,14.3-6.4c5.5-2.8,10.9-5.9,16.2-9.2c6.6-4.2,12.8-8.9,18.8-14c7.1-6,13.6-12.7,19.4-19.9C733.3,62.8,738.6,54.7,742.8,46z
	 M680.8,54.5c-3.2-2.3-6.6-4.3-10.2-6c-4.7-2.4-8.9-4.4-12.7-6c-3.8-1.6-6.6-2.7-8.6-3.3l5.4-11.4c1.9,0.7,4.8,1.8,8.5,3.4
	c3.7,1.6,7.9,3.5,12.6,5.8c3.8,1.8,7.5,3.9,11.1,6.1L680.8,54.5z M732.2,18.2c2.9,2.4,5.5,4.9,8,7.7c2.6,2.8,5,5.7,7.3,8.7l-7.4,5.2
	c-2.1-3.1-4.4-6.1-6.9-8.9c-2.5-2.9-5.1-5.6-7.9-8.1L732.2,18.2z M746.2,10.2c3,2.2,5.7,4.8,8.2,7.5c2.6,2.7,5,5.6,7.2,8.7l-7.1,5
	c-2.1-3.1-4.4-5.9-6.8-8.7c-2.5-2.9-5.2-5.5-8.2-7.9L746.2,10.2z"/>
<path class="st2" d="M813,52h-38l-6.8,0.2V40.6l6.8,0.1h38c3.1,0,5.4,0,7-0.1v11.5C818.4,52,816.1,52,813,52z M815.6,101.6l-0.1,4.5
	v36.2l0.1,4.5h-11.4v-6.7h-19.6v6.7h-11.5c0.2-1.5,0.3-3,0.3-4.5v-36.3c0-1.5-0.1-3-0.3-4.5L815.6,101.6z M809.2,30.8h-28.6
	l-6.1,0.1V19.5l6.1,0.1h28.5l6.1-0.1v11.3L809.2,30.8z M813.4,61.6v10.7l-5.7-0.2h-26.7l-5.8,0.2V61.6l5.8,0.1h26.6L813.4,61.6z
	 M781.1,81.7h26.6l5.7-0.2v10.7l-5.7-0.1h-26.7l-5.8,0.1V81.5L781.1,81.7z M784.6,130h19.7v-18.2h-19.7V130z M874.2,99.6
	c2,3.3,4.3,6.4,6.8,9.3c3.2,3.8,6.8,7.3,10.6,10.5c3.9,3.3,8,6.2,12.4,8.7c-1.8,2.2-3.6,4.5-5.2,6.8c-0.9,1.3-1.7,2.7-2.4,4.1
	c-6-4-11.4-8.7-16.2-14.1c-5.3-5.8-9.9-12.3-13.7-19.2c0,0.5,0,1.5,0.1,3.1s0.1,5.9,0.2,13c0.1,7.1,0.2,13.8,0.2,20.1
	c0,1.6,0.1,3.2,0.3,4.8h-13c0.2-1.6,0.3-3.2,0.3-4.8v-1.2c0-0.7,0-4.7,0.1-12.2c0.1-7.5,0.2-14.8,0.4-21.8c-4,6.5-8.6,12.5-13.9,18
	c-4.9,5.2-10.4,9.8-16.4,13.7c-0.9-2-3.5-5.6-8-10.8c6.3-3.2,12.2-7.3,17.4-12.2c5.1-4.7,9.5-10,13.2-15.8h-18.8
	c-4.2,0-7.2,0.1-9,0.3V87.8c1.8,0.2,4.8,0.3,9,0.3h26V76.6h-26.3c0.2-1.9,0.3-3.6,0.3-4.9v-46c0-1.3-0.1-3-0.3-5.1h66.1l-0.2,5.1v46
	l0.2,4.9h-27.5v11.5h25c4.3,0,7.3-0.1,9.2-0.3v12.1c-1.8-0.2-4.9-0.3-9.2-0.3L874.2,99.6z M855.2,31.2h-14.4v12.6h14.4L855.2,31.2z
	 M840.8,53v13h14.4V53H840.8z M882.5,43.8V31.2h-15.9v12.7H882.5z M866.7,66h15.9V53h-15.9V66z"/>
</svg>
