<svg id="レイヤー_1" data-name="レイヤー 1" xmlns="http://www.w3.org/2000/svg" viewBox="0 0 721.19 645.06"><title>General-Affairs</title><path d="M447.29,494.79l-86.7,150.27L264.14,477.88c27.41,18.06,61.58,28,99.87,28C392.49,505.85,420.46,502.44,447.29,494.79ZM195.65,341.9c0-100,71-163.95,168.36-163.95,49.36,0,93,11,124.28,40.11l-48.48,52.88c-18.51-19.39-41-29.53-75.8-29.53-58.62,0-97,42.31-97,100.49s38.34,100.49,97,100.49c30,0,52-8.38,64.79-15.43V376.28h-56V312.81H494.9v99.45L721.19,20c-10-10-20-20-40.07-20C641,0,641,40.07,601,40.07S560.88,0,520.82,0s-40.07,40.07-80.13,40.07S400.62,0,360.55,0s-40.06,40.07-80.13,40.07S240.36,0,200.29,0s-40.07,40.07-80.13,40.07S80.13,0,40.07,0C20,0,10,10,0,20L196.52,360.67Q195.66,351.52,195.65,341.9Z" style="fill:#34f059"/></svg>