<?xml version="1.0" encoding="utf-8"?>
<!-- Generator: Adobe Illustrator 23.0.0, SVG Export Plug-In . SVG Version: 6.00 Build 0)  -->
<svg version="1.1" id="レイヤー_1" xmlns="http://www.w3.org/2000/svg" xmlns:xlink="http://www.w3.org/1999/xlink" x="0px"
	 y="0px" viewBox="0 0 678.7 165.4" style="enable-background:new 0 0 678.7 165.4;" xml:space="preserve">
<style type="text/css">
	.st0{fill:#489EF5;}
	.st1{fill:#FFFFFF;}
	.st2{fill:#333333;}
</style>
<title>DeptIconName-Management</title>
<path class="st0" d="M49.3,90.6L0,5.1C2.6,2.6,5.1,0,10.3,0c10.3,0,10.3,10.3,20.5,10.3S41.1,0,51.3,0s10.3,10.3,20.5,10.3
	S82.2,0,92.4,0s10.3,10.3,20.6,10.3S123.3,0,133.5,0s10.3,10.3,20.5,10.3S164.3,0,174.6,0c5.1,0,7.7,2.6,10.3,5.1l-49.3,85.5V27.7
	h-25.3L92.6,77.5h-0.2L74.8,27.7H49.3V90.6z M118.8,104.1V45.5h-0.2l-20.1,58.6H85.7L66.3,45.5h-0.2v58.6h-9.1l35.4,61.3l35.4-61.3
	H118.8z"/>
<g>
	<polygon class="st1" points="135.6,90.6 135.6,27.7 110.2,27.7 92.5,77.5 92.3,77.5 74.8,27.7 49.3,27.7 49.3,90.6 57.1,104.1 
		66.1,104.1 66.1,45.5 66.3,45.5 85.7,104.1 98.5,104.1 118.5,45.5 118.8,45.5 118.8,104.1 127.8,104.1 	"/>
</g>
<path class="st2" d="M274.1,85.6v55.2l0.2,5.8h-12.5c0.3-1.9,0.4-3.9,0.3-5.8V87.1c-10.3,1.1-16.5,1.7-18.5,1.8l-6.1,1l-1.2-12.8
	c2.5,0.2,5.1,0.2,7.6,0l4.5-0.1c2.9-3.4,6.4-7.9,10.6-13.4c-3.5-4.1-7.1-8.1-11-12.1s-7.3-7.4-10.3-10.1l6.9-9.5l5.8,5.8
	c1.4-2,3.1-4.5,5-7.5c1.9-3,3.8-6.3,5.6-9.7c1.5-2.7,2.7-5.5,3.7-8.4l10.6,7.3l-1.4,2.1c-1.8,3.5-4.1,7.4-6.9,11.8
	s-5.7,8.7-8.6,12.9l7.3,7.9c1.8-2.6,3.8-5.6,6-9.2s4.3-7.1,6.3-10.7c1.6-2.9,3.1-5.9,4.5-9l10.6,7.3l-1.6,2.1
	c-3.3,5.9-7.2,12.1-11.6,18.7s-8.2,11.7-11.1,15.4c-2.9,3.7-4.9,6.2-5.9,7.4c6-0.5,12.5-1.1,19.5-1.9c-0.7-2.1-1.5-4.2-2.4-6.3
	c-0.9-2.1-1.7-3.9-2.5-5.4l9.9-3c2.2,4.2,4.1,8.6,5.7,13.1c2,5.4,3.7,10.8,5.1,16.4c-4.3,1.4-7.9,2.5-10.9,3.4
	c-0.5-2.9-1.1-5.6-1.8-8.2L274.1,85.6z M237.7,133.4c3.8-9.5,6-22.1,6.6-37.6l11.2,2.1l-0.3,2.8c-0.3,7-1.1,14.1-2.3,21
	c-1.1,6-2.6,12-4.7,17.7L237.7,133.4z M294.6,116.9c1-2.5,1.9-5.2,2.8-8.3c0.8-2.8,1.5-5.6,1.9-8.4l10.7,4.3l-0.6,1.6
	c-1,4.7-2.2,9.3-3.8,13.9c-1.3,3.9-2.8,7.6-4.6,11.3c-1.5,3-2.9,5.4-3.9,7.2c-2.9-3.2-6.1-6.2-9.4-8.9c2.2-2.9,4-6.1,5.5-9.4
	l-8.5,3.3c-0.3-3.5-0.9-7.8-1.9-12.8c-0.8-4.4-1.8-8.8-3-13.1l8.9-2.7c1.5,3.6,2.7,7.3,3.6,11.2
	C293.4,110.2,294.1,113.8,294.6,116.9z M300.5,54.3c-2.9-3.4-5.9-6.7-9.2-9.7c3.5-2.4,6.7-5.2,9.6-8.3c3.4-3.4,6.4-7.2,9-11.3
	c2.3-3.5,4.3-7.1,6-10.9l10.6,5.2l-0.9,1.3c-3,6.5-6.7,12.8-11,18.6C310.4,44.9,305.7,49.9,300.5,54.3z M334.5,40l-0.8,1.9
	c-3.3,10.8-6.3,19.5-8.9,25.9c7.8-0.8,15-1.6,21.8-2.4c-1.5-2.3-3-4.5-4.5-6.6c-1.5-2.1-2.8-3.9-3.9-5.3l10.3-4.2
	c3.1,3.6,6.2,7.7,9.5,12.2s5.7,8.4,7.4,11.4c1.7,3,2.8,5.1,3.4,6.2l-6.1,3.1c-2.3,1.1-4.1,2.1-5.4,2.8c-1.2-3.1-2.7-6.1-4.3-8.9
	c-5.2,0.7-12.8,1.6-22.9,2.8c-10.1,1.2-17.9,2-23.3,2.6c-2,0.3-4,0.7-6,1.2l-2.1-12.7c2.4,0,4.9-0.1,7.5-0.3l5.4-0.4
	c2.4-5.2,4.7-11,7-17.6c1.8-4.9,3.2-9.9,4.2-15.1L334.5,40z M342.2,131.4c0.8-1.3,1.3-2.6,1.5-4.1c0.4-1.9,0.6-6.1,0.7-12.6
	c0.3,0.2,2.1,1.3,5.4,3.1s5.4,3.1,6.4,3.6c-0.1,3.9-0.6,7.9-1.4,11.7c-0.5,2.8-1.7,5.4-3.5,7.7c-1.8,2.1-4.1,3.6-6.7,4.4
	c-3.5,1-7.1,1.5-10.7,1.4c-3.4,0-6.8-0.2-10.1-0.6c-2.5-0.2-5-1.2-7-2.7c-1.4-1.2-2.3-2.8-2.7-4.6c-0.6-2.8-0.8-5.6-0.7-8.5V97.8
	c0-0.9-0.1-1.7-0.3-2.5l12.8,0.9c-0.2,0.6-0.3,1.3-0.3,1.9v32.9c0,1.5,0.6,2.4,1.8,2.7c0.9,0.4,3.3,0.6,7.1,0.6
	S340.9,133.4,342.2,131.4L342.2,131.4z M321.3,88.7l7.8-7c2.9,2,5.6,4.2,8.2,6.6c3.2,2.9,6.2,5.9,8.9,9c-0.5,0.4-1,0.8-1.5,1.3
	c-0.9,0.8-2.1,2-3.8,3.6s-2.8,2.6-3.4,3.2c-1.4-2.1-2.9-4-4.6-5.9c-2.1-2.4-4.3-4.6-6.6-6.6C324.1,90.9,322.4,89.5,321.3,88.7z
	 M366,53.8c-5.4-4.4-10.4-9.4-14.8-14.8c-5.1-6-9.7-12.5-13.5-19.5c2.4-1.2,5.8-3,10.3-5.4c3.2,6.3,7.3,12,12.2,17.1
	c4.3,4.8,9.2,9.1,14.5,12.8C371.6,47.1,368.7,50.4,366,53.8z M360.8,97.2c1,1.5,2.4,3.8,4.2,6.9s3.8,6.9,5.9,11.5
	c2.1,4.6,4,8.9,5.7,13.1c-3.3,1.9-6.9,3.9-11,6.1c-1.8-5.8-4-11.5-6.6-17c-2.5-5.4-5.3-10.7-8.4-15.8L360.8,97.2z"/>
<path class="st2" d="M497,64.1c6.8,4.1,16.4,7.1,28.8,9.1l-4.9,13c-13.2-3.2-24.1-7.8-32.5-13.7c-8.7,6.2-20,10.8-34,14l-3.7-7.6
	c-2,4.8-4.2,9.5-6.7,14c-2,3.8-4.4,7.4-7,10.7c-0.7-1.1-2.8-3-6.4-5.8v25.5l0.1,10.6c0.2,3.6-1.6,7.1-4.5,9.2
	c-1.6,1.1-3.3,1.9-5.1,2.5c-2.4,0.8-4.9,1.3-7.4,1.6c-3.2,0.4-6.4,0.5-9.5,0.5l-6.4-13.7c3.4,0.4,5.8,0.6,7.4,0.7s2.8,0.1,3.6,0.1
	c3.2,0,5.4-0.4,6.7-1.1c1.2-0.6,2-2,1.9-3.4v-25.5c0-2.7,0.4-8.7,1-18c-2.9,7.7-6.3,15.3-10.2,22.5c-3.1,6-6.9,11.7-11.3,16.8
	c-1.1-1.7-2.4-3.2-3.8-4.6c-1.9-2-3.8-3.8-5.5-5.4c4.1-4.2,8.4-10.1,13-17.8c4.4-7.3,8-15,10.9-23h-13.9l-7.3,0.2V63.7l7.3,0.2h32.8
	c-2.3-1.8-5.1-3.7-8.2-5.8s-6.8-4.3-10.9-6.5c-4.1-2.2-8.2-4.3-12.4-6.2l6.7-9.3c5.2,2.1,10.2,4.5,15.1,7.2c4-4.2,7.7-8.6,11.2-13.2
	h-31.8c-3,0-5.2,0.1-6.7,0.1V18.2c1.5,0.1,3.7,0.1,6.7,0.1h40l1-1c3.5,2.4,6.9,5.1,10,8.1l-1.9,0.9c-2.3,3.6-5.1,7.6-8.6,12
	c-3.4,4.4-6.6,8.2-9.5,11.3c3.2,2,6.4,4.1,9.4,6.4l-5.6,7.9h10.1l1-1.3c1.5,1,2.9,2,4.2,3.2c1.7,1.4,3.3,2.9,4.8,4.2
	c-0.5,0.3-1,0.6-1.5,0.8l-1.3,3.9c5-1,10-2.3,14.8-4c4.2-1.5,8.2-3.5,11.9-6c-2.9-3.1-5.6-6.3-8-9.8c-1.8-2.6-3.4-5.2-4.8-8
	c-2.5,3.2-5.4,6.2-8.6,8.8c-1.2-1.5-2.5-2.8-4-4.1c-1.9-1.8-3.6-3.4-5.1-4.7c4.4-3.1,8.7-7.9,13-14.3c4.2-6.1,7.3-12.9,9.3-20
	l12.3,2.5l-0.7,1.3c-1.2,3.5-2.5,6.9-4,10.3h37.6l7-0.1V38l-7-0.2h-4.5C508.7,47.6,503.8,56.6,497,64.1z M430.5,93.3
	c2-2.7,3.8-5.6,5.5-8.5c1.8-3,3.4-6.2,4.8-9.4h-10.3L430.5,93.3z M520.8,95.4l-0.3,4c-0.1,11.3-0.4,19.6-0.8,24.8s-1.3,9.1-2.6,11.9
	c-3.7,7.5-13.1,11.2-28.3,11.2c-0.3-1.6-1.9-6.4-4.8-14.3c2.9,0.9,5.9,1.4,8.9,1.3c2.8,0.1,5.6-0.3,8.2-1.3c1.9-0.8,3.5-2.2,4.5-4.1
	c0.8-2.3,1.4-4.8,1.6-7.2c0.3-3.1,0.6-8,0.7-14.5h-19.7c-2.7,9.2-7.7,17.7-14.5,24.5c-7.2,7.1-15.9,12.4-25.5,15.6l-8.6-10.3
	c9.2-3.1,16.7-7.2,22.5-12.2c5.6-4.7,10-10.8,12.8-17.6h-16.7c-3.6,0-6.2,0.1-7.9,0.2V95.3c1.7,0.1,4.3,0.2,7.9,0.2h19.7
	c0.5-3.4,0.8-6.7,0.8-10.1l-0.2-4l13.1,0.6l-0.3,2.8c0,3.6-0.2,7.2-0.6,10.7L520.8,95.4z M487.6,57.3c2.6-2.6,4.8-5.6,6.6-8.9
	c1.8-3.3,3.3-6.9,4.5-10.5h-23.8c1.4,3.7,3.3,7.3,5.4,10.7C482.3,51.7,484.8,54.7,487.6,57.3z"/>
<path class="st2" d="M585.4,50h-38.9l-7,0.1V38.3l7,0.1h38.9c3.2,0,5.6,0,7.2-0.1v11.8C591,50,588.6,50,585.4,50z M588.1,100.8
	l-0.2,4.6v37.1l0.2,4.6h-11.6v-6.9h-20.1v6.9h-11.8c0.2-1.5,0.3-3.1,0.3-4.6v-37.2c0-1.5-0.1-3.1-0.3-4.6L588.1,100.8z M581.5,28.2
	h-29.2l-6.3,0.1V16.7l6.3,0.1h29.2l6.3-0.1v11.6L581.5,28.2z M585.8,59.8v11l-5.8-0.2h-27.3l-6,0.2v-11l6,0.2H580L585.8,59.8z
	 M552.7,80.4H580l5.8-0.2v11l-5.8-0.1h-27.3l-6,0.1v-11L552.7,80.4z M556.3,129.9h20.1v-18.7h-20.1L556.3,129.9z M648.2,98.8
	c2.1,3.3,4.4,6.5,7,9.5c6.7,7.8,14.7,14.5,23.6,19.7c-1.9,2.2-3.6,4.6-5.3,7c-0.9,1.3-1.7,2.7-2.5,4.2c-6.1-4.1-11.7-8.9-16.5-14.5
	c-5.4-6-10.1-12.6-14-19.7c0,0.5,0,1.6,0.1,3.1s0.1,6,0.2,13.3s0.2,14.1,0.2,20.6c0,1.6,0.1,3.3,0.3,4.9h-13.3
	c0.3-1.6,0.4-3.3,0.3-4.9v-1.2c0-0.7,0-4.8,0.2-12.5c0.1-7.7,0.2-15.1,0.4-22.4c-4.1,6.7-8.8,12.9-14.2,18.5c-5,5.3-10.6,10-16.8,14
	c-0.9-2.1-3.6-5.8-8.2-11c6.5-3.3,12.5-7.5,17.8-12.4c5.2-4.8,9.7-10.2,13.5-16.2h-19.2c-4.3,0-7.4,0.1-9.3,0.3V86.6
	c1.9,0.2,5,0.3,9.3,0.3h26.7V75.2h-27c0.2-2,0.3-3.7,0.3-5.1V23c0-1.3-0.1-3-0.3-5.2H669l-0.1,5.2v47.1l0.2,5.1h-28.2v11.8h25.6
	c4.4,0,7.5-0.1,9.4-0.3V99c-1.9-0.2-5-0.3-9.4-0.3L648.2,98.8z M628.6,28.6h-14.8v13h14.8V28.6z M613.9,51v13.3h14.8V51H613.9z
	 M656.7,41.6v-13h-16.3v13H656.7z M640.4,64.3h16.3V51h-16.3V64.3z"/>
</svg>
