<svg id="レイヤー_1" data-name="レイヤー 1" xmlns="http://www.w3.org/2000/svg" viewBox="0 0 721.19 645.06"><title>Design</title><path d="M200.29,0c17.47,0,27.32,11.63,36.2,20.22a282.91,282.91,0,0,0-38.77-2.58H166.84C175.06,10.16,184.6,0,200.29,0ZM104,37.41C79.15,28.47,73.84,0,40.07,0,20,0,10,10,0,20l104,180.2ZM721.19,20l-360.6,625L160,297.31h46.17c84.54,0,159.47-49.28,159.47-141,0-60.35-25.91-98.72-65.55-120.28C322,25.8,328.39,0,360.55,0c40.07,0,40.07,40.07,80.14,40.07S480.75,0,520.82,0,560.88,40.07,601,40.07,641,0,681.12,0C701.15,0,711.17,10,721.19,20ZM539.08,238c0-74.13-101.37-49.68-101.37-78.53,0-11.62,12-16,22-16,14.42,0,26,5.61,34.85,16.43l36.87-36.46c-18-19.24-46.48-25.65-72.12-25.65-40.88,0-81.74,20-81.74,65.71,0,74.13,101.37,47.68,101.37,78.94,0,10.42-13.62,14-27.25,14-18,0-31.25-7.61-42.47-21.23L372.8,275.68c19.23,19.63,49.28,26.44,76.53,26.44C491,302.12,539.08,287.7,539.08,238ZM300.7,153.07c0-55.7-44.48-81.74-97.37-81.74H166.47V239.61h32.46C257,239.61,300.7,217.58,300.7,153.07Z" style="fill:#ec53f5"/></svg>