<svg id="レイヤー_1" data-name="レイヤー 1" xmlns="http://www.w3.org/2000/svg" viewBox="0 0 721.19 645.06"><title>Stages</title><path d="M721.19,20l-360.6,625L238.93,434.18c.72,0,1.43,0,2.15,0,64.35,0,120.32-33.06,120.32-102.69,0-109.3-143.67-72.72-143.67-129.58,0-23.35,26.88-32.17,46.27-32.17,16.75,0,38.78,6.61,49.8,20.72L361,138.93c-26.44-23.36-60.38-32.61-95.64-32.61-61.26,0-119,34.81-119,101.36,0,104,146.32,73.16,146.32,130.46,0,22-25.12,32.61-47.6,32.61s-46-4.84-59.27-28.7L0,20C10,10,20,0,40.07,0c40.06,0,40.06,40.07,80.09,40.07S160.22,0,200.29,0s40.07,40.07,80.13,40.07S320.49,0,360.55,0s40.07,40.07,80.14,40.07S480.75,0,520.82,0,560.88,40.07,601,40.07,641,0,681.12,0C701.15,0,711.17,10,721.19,20Z" style="fill:#f9913c"/></svg>