<svg id="レイヤー_1" data-name="レイヤー 1" xmlns="http://www.w3.org/2000/svg" viewBox="0 0 895.63 165.37"><title>DeptIconName-Design</title><path d="M51.35,0c4.48,0,7,3,9.28,5.18a73.1,73.1,0,0,0-9.94-.66H42.77C44.88,2.6,47.32,0,51.35,0ZM26.65,9.59C20.29,7.3,18.93,0,10.27,0,5.14,0,2.57,2.57,0,5.14L26.65,51.33ZM184.89,5.14,92.44,165.37,41,76.22H52.85c21.67,0,40.88-12.63,40.88-36.16,0-15.47-6.64-25.31-16.81-30.83C82.56,6.61,84.19,0,92.43,0,102.7,0,102.7,10.27,113,10.27S123.25,0,133.52,0s10.27,10.27,20.54,10.27S164.33,0,174.61,0C179.75,0,182.32,2.57,184.89,5.14ZM138.2,61c0-19-26-12.74-26-20.14,0-3,3.08-4.1,5.65-4.1A11,11,0,0,1,126.8,41l9.45-9.35c-4.62-4.93-11.92-6.58-18.49-6.58-10.48,0-21,5.14-21,16.85,0,19,26,12.22,26,20.24,0,2.67-3.49,3.59-7,3.59-4.62,0-8-1.95-10.89-5.44L95.57,70.67c4.93,5,12.64,6.78,19.62,6.78C125.87,77.45,138.2,73.75,138.2,61ZM77.09,39.24c0-14.28-11.4-21-25-21H42.68V61.43H51C65.89,61.43,77.09,55.78,77.09,39.24Z" style="fill:#ec53f5"/><path d="M246,65h90.66l9.91-.29V78.1a98.93,98.93,0,0,0-9.91-.29H301.84q-.3,4.36-1.39,10.84a84.3,84.3,0,0,1-3.78,14,68.65,68.65,0,0,1-7.21,14.48,65.88,65.88,0,0,1-11.21,12.95,72.55,72.55,0,0,1-15.42,10.55,65.82,65.82,0,0,0-5.74-5,64.84,64.84,0,0,0-6.34-4.44,68.92,68.92,0,0,0,16.15-10A53.64,53.64,0,0,0,278,108.67a60,60,0,0,0,6.62-14.56,79.2,79.2,0,0,0,3-16.3H246q-4.8,0-9.75.29V64.72C239.3,64.91,242.56,65,246,65Zm72-22H259.34a96,96,0,0,0-9.75.29V29.79l9.75.29H318l9.76-.29V43.32Q325.4,43,318,43Zm17-25.17A76.21,76.21,0,0,1,342.8,26,113.12,113.12,0,0,1,350,35.32l-7.28,5.53a83.24,83.24,0,0,0-6.63-9.31,87.78,87.78,0,0,0-7.78-8.73Zm13.1-8a64.39,64.39,0,0,1,8,7.93,76.84,76.84,0,0,1,7,9.1l-7,5.24a57.39,57.39,0,0,0-4.59-6.7c-1.89-2.42-3.71-4.56-5.46-6.4a57.13,57.13,0,0,0-4.51-4.36Z" style="fill:#333"/><path d="M462.08,52.93h17.75a91.6,91.6,0,0,0,9.46-.29V66.32L479.83,66H462.08v9.6a72.66,72.66,0,0,1-3,21.25,57.39,57.39,0,0,1-8.74,17.53,64.91,64.91,0,0,1-14.26,14,97.93,97.93,0,0,1-19.57,10.84c-1.56-1.56-3.47-3.37-5.75-5.46a51.91,51.91,0,0,0-6-4.87,115.27,115.27,0,0,0,15.79-6.85,56.78,56.78,0,0,0,13.17-9.24,45.53,45.53,0,0,0,8.44-10.69,48.42,48.42,0,0,0,4.66-12.23,62.16,62.16,0,0,0,1.6-14.4V66H414.2V88.44q0,3.78.29,9.75H400.23q.28-5.67.29-9.75V66H380.44c-3.11,0-6.21.09-9.32.29V52.64q4.36.28,9.32.29h20.08V39.1a108.64,108.64,0,0,0-.44-12.51l15,1a45.21,45.21,0,0,0-.87,10.62v14.7h34.2V36.77c0-3.39-.2-7.08-.58-11.06L463,27q-.87,3.5-.87,12.52Zm18.34-11.65c-.78-1.25-1.89-2.88-3.35-4.87s-3.2-4.17-5.24-6.55a81,81,0,0,0-5.68-6l6.7-4.8A81.58,81.58,0,0,1,480.56,27a91.89,91.89,0,0,1,7,9Zm5.38-30.7a57.28,57.28,0,0,1,7.93,7.57A68,68,0,0,1,500.64,27l-6.84,5.1a72.84,72.84,0,0,0-7.41-10,75.43,75.43,0,0,0-7-7.06Z" style="fill:#333"/><path d="M591.48,21.93l11.94,9.61a23.9,23.9,0,0,0-4.95,4.94,248.35,248.35,0,0,1-25.61,26.2v64q0,6.4.43,13H557.72q.43-6.54.44-13l.72-53.41a239.61,239.61,0,0,1-23,16.52,204.58,204.58,0,0,1-24.6,13.32q-2.19-2.91-5.24-6.34a32.22,32.22,0,0,0-4.95-4.73q7.27-2.91,14.62-6.62t14-7.71q6.62-4,14.77-9.67t17.1-13.18a189.1,189.1,0,0,0,16.88-16A103.29,103.29,0,0,0,591.48,21.93Z" style="fill:#333"/><path d="M662.51,69.52A163.66,163.66,0,0,0,647,57.58,172.91,172.91,0,0,0,630.2,47.25l8.3-10.77a154.25,154.25,0,0,1,16.66,10.05q8.94,6.11,16.08,11.93ZM734.4,46.38l8.73,13.53A134.55,134.55,0,0,1,726.4,83.56a170.91,170.91,0,0,1-21.84,20.81,204.86,204.86,0,0,1-25.25,17.25A251.77,251.77,0,0,1,652,135.3l-5.09,2.62-9.32-13.39c3.78-1.17,8-2.64,12.51-4.44s9.32-3.93,14.27-6.4,10.33-5.56,16.16-9.24a171.46,171.46,0,0,0,18.76-14,157.43,157.43,0,0,0,19.43-19.86A121.48,121.48,0,0,0,734.4,46.38Z" style="fill:#333"/><path d="M804.52,52.35h-38l-6.84.14V41l6.84.14h38c3.11,0,5.43,0,7-.14V52.49C810,52.4,807.63,52.35,804.52,52.35ZM807.14,102l-.14,4.51v36.24l.14,4.51H795.79v-6.69H776.14v6.69H764.65a42.78,42.78,0,0,0,.29-4.51V106.48a42.78,42.78,0,0,0-.29-4.51ZM800.73,31.1H772.21l-6.11.14V19.89l6.11.15h28.52l6.12-.15V31.24ZM805,62V72.72l-5.67-.15H772.65l-5.82.15V62l5.82.15h26.63ZM772.65,82h26.63l5.67-.14V92.66l-5.67-.15H772.65l-5.82.15V81.89Zm3.49,48.32h19.65V112.16H776.14Zm89.65-30.41a80.68,80.68,0,0,0,6.84,9.31,84.52,84.52,0,0,0,10.62,10.48,86,86,0,0,0,12.38,8.73,81.45,81.45,0,0,0-5.17,6.84,31,31,0,0,0-2.4,4.07,81.1,81.1,0,0,1-16.16-14.12,101.84,101.84,0,0,1-13.68-19.2c0,.48,0,1.5.07,3s.13,5.87.22,13,.15,13.78.15,20.09a27,27,0,0,0,.29,4.8H846a26.4,26.4,0,0,0,.29-4.8V141q0-1,.14-12.22t.44-21.83A104.13,104.13,0,0,1,833,125a87.74,87.74,0,0,1-16.37,13.67c-.87-2-3.55-5.62-8-10.77A76.44,76.44,0,0,0,826,115.72a77.08,77.08,0,0,0,13.17-15.78H820.38c-4.17,0-7.17.09-9,.28V88.14c1.85.2,4.85.3,9,.3h26V76.94H820.09c.19-1.94.29-3.59.29-5V26c0-1.26-.1-3-.29-5.1h66.08L886,26V72l.16,5H858.66v11.5h25c4.27,0,7.33-.1,9.16-.3v12.08c-1.83-.19-4.89-.28-9.16-.28Zm-19.06-68.4H832.32V44.2h14.41ZM832.32,53.36v13h14.41v-13Zm41.77-9.16V31.54H858.22V44.2ZM858.22,66.32h15.87v-13H858.22Z" style="fill:#333"/></svg>