<?xml version="1.0" encoding="utf-8"?>
<!-- Generator: Adobe Illustrator 23.0.0, SVG Export Plug-In . SVG Version: 6.00 Build 0)  -->
<svg version="1.1" id="レイヤー_1" xmlns="http://www.w3.org/2000/svg" xmlns:xlink="http://www.w3.org/1999/xlink" x="0px"
	 y="0px" viewBox="0 0 663.1 165.4" style="enable-background:new 0 0 663.1 165.4;" xml:space="preserve">
<style type="text/css">
	.st0{fill:#34F059;}
	.st1{fill:#FFFFFF;}
	.st2{fill:#333333;}
</style>
<title>DeptIconName-General-Affairs</title>
<path class="st0" d="M114.7,126.8l-22.2,38.5l-24.7-42.9c7,4.6,15.8,7.2,25.6,7.2C100.5,129.7,107.7,128.8,114.7,126.8z M50.2,87.7
	c0-25.7,18.2-42,43.2-42c12.7,0,23.8,2.8,31.9,10.3l-12.4,13.5c-4.7-5-10.5-7.6-19.4-7.6c-15,0-24.9,10.8-24.9,25.8
	s9.8,25.8,24.9,25.8c5.8,0.1,11.5-1.3,16.6-4v-13H95.6V80.2h31.3v25.5l58-100.6c-2.6-2.6-5.1-5.1-10.3-5.1
	c-10.3,0-10.3,10.3-20.6,10.3S143.8,0,133.5,0S123.3,10.3,113,10.3S102.7,0,92.4,0S82.2,10.3,71.9,10.3S61.6,0,51.3,0
	S41.1,10.3,30.8,10.3S20.5,0,10.3,0C5.1,0,2.6,2.6,0,5.1l50.4,87.3C50.2,90.9,50.2,89.3,50.2,87.7z"/>
<path class="st1" d="M126.9,80.2H95.6v16.2h14.3v13c-5.1,2.7-10.8,4.1-16.6,4c-15,0-24.9-10.8-24.9-25.8c0-14.9,9.9-25.8,24.9-25.8
	c8.9,0,14.7,2.6,19.4,7.6l12.4-13.5c-8-7.5-19.2-10.3-31.9-10.3c-25,0-43.2,16.3-43.2,42c0,1.6,0.1,3.3,0.2,4.8l17.3,30
	c7,4.6,15.8,7.2,25.6,7.2c7.2,0.1,14.4-0.9,21.3-2.8l12.2-21.2V80.2z"/>
<path class="st2" d="M261.1,76.1c0,15.2-1.3,28.8-3.9,40.6c-2.6,11.8-6.3,20.8-11.1,26.9c-2.1-2.7-5.4-6.2-9.9-10.7
	c2.1-3.7,4-7.7,5.5-11.7c2.2-6.1,3.7-12.5,4.5-18.9c1.2-8.9,1.8-17.8,1.7-26.7V30.6c0-1.4-0.1-2.7-0.3-4.1h51.1v-8.6l-0.3-3.6
	c1.5,0,3.9,0.1,7.2,0.2c3.3,0.1,5.5,0.3,6.8,0.4c-0.2,1.1-0.3,2.1-0.3,3.2v8.4h40c5.3,0,9.1-0.1,11.2-0.3v12.2
	c-2.1-0.2-5.9-0.3-11.2-0.3h-91L261.1,76.1z M259.2,138.3c1.9-2.5,3.6-5,5.2-7.7c2.2-3.6,4.1-7.4,5.8-11.2c1.5-3.3,2.8-6.8,3.8-10.4
	l10.9,3.5c-1.6,5.4-3.5,10.8-5.8,16c-2.4,5.8-5.2,11.5-8.5,16.9C264.6,141.5,260.8,139.2,259.2,138.3L259.2,138.3z M287.1,102.2
	c0.2-1.9,0.3-3.7,0.3-5.2V71.3h-12.5c-5,0-8.4,0.1-10.5,0.3V59.1c2,0.2,5.5,0.3,10.5,0.3h12.5v-9.6c0-2.1,0-3.7-0.1-4.7
	c1.5,0,3.9,0.1,7.1,0.2s5.4,0.3,6.8,0.4l-0.1,4.1v9.6h22.1V49.2c0-2.1,0-3.7-0.1-4.7c1.6,0,3.9,0.1,7.1,0.2c3.1,0.2,5.4,0.3,6.8,0.4
	l-0.1,4.1v10.2h15.9c4.8,0,8.3-0.1,10.3-0.3v12.5c-2-0.2-5.5-0.3-10.3-0.3h-15.9V97c0,1.6,0.1,3.3,0.3,5.2L287.1,102.2z
	 M293.8,113.3l11.1-2c2.2,10.1,3.8,20.3,4.5,30.6l-12.7,2.3c0-4.3-0.3-9.4-0.9-15.4S294.6,117.5,293.8,113.3L293.8,113.3z
	 M323.1,71.3H301v18.9h22.1L323.1,71.3z M316.8,113.4l10.6-2.8c2.3,5,4.3,10.1,6,15.3c1.6,4.8,2.9,9.6,4,14.5l-12,3.5
	c-0.9-5-2.1-9.9-3.5-14.7C320.3,123.5,318.6,118.2,316.8,113.4L316.8,113.4z M351.7,109.2l1.2,1.8c0.6,0.9,1.6,2.6,3.2,5.2
	s3.4,6,5.5,10.2c2.1,4.2,3.9,8.4,5.5,12.4l-11.2,5.4c-1.4-4.8-3.2-9.5-5.2-14.1c-2.5-5.9-5.5-11.7-8.7-17.3L351.7,109.2z"/>
<path class="st2" d="M485.7,64.5c6.6,4,16,7,28.1,8.9L509,86c-12.9-3.1-23.5-7.6-31.7-13.4c-8.4,6-19.5,10.6-33.2,13.7l-3.6-7.4
	c-1.9,4.7-4.1,9.3-6.5,13.7c-2,3.7-4.3,7.2-6.9,10.5c-0.7-1.1-2.8-3-6.3-5.7v24.9l0.1,10.3c0.2,3.6-1.5,7-4.4,9
	c-1.5,1-3.2,1.8-5,2.4c-2.3,0.8-4.8,1.3-7.2,1.5c-3.1,0.3-6.2,0.5-9.3,0.5l-6.3-13.4c3.3,0.4,5.7,0.6,7.2,0.7s2.7,0.1,3.6,0.1
	c3.1,0,5.3-0.4,6.5-1.1c1.2-0.6,1.9-1.9,1.9-3.3v-24.9c0-2.6,0.3-8.5,1-17.6c-2.8,7.6-6.2,14.9-10,22c-3,5.8-6.7,11.3-11,16.4
	c-1-1.7-2.3-3.2-3.7-4.5c-1.9-1.9-3.7-3.7-5.3-5.2c4-4.1,8.2-9.9,12.7-17.3c4.3-7.1,7.8-14.6,10.6-22.4h-13.5l-7.1,0.1V64.1l7.1,0.2
	h32c-2.2-1.7-4.9-3.6-8-5.7c-3.1-2-6.6-4.1-10.6-6.3c-4-2.2-8-4.2-12.1-6l6.5-9c5,2,9.9,4.4,14.7,7c3.9-4.1,7.5-8.5,10.9-13h-31
	c-2.9,0-5.1,0-6.6,0.1V19.7c1.5,0.1,3.6,0.1,6.6,0.1h39l1-1c3.4,2.4,6.7,5,9.8,7.8l-1.9,0.9c-2.2,3.5-5,7.4-8.4,11.7s-6.4,8-9.2,11
	c3.2,1.9,6.2,4,9.2,6.3l-5.5,7.7h9.9l1-1.3c1.4,0.9,2.8,2,4.1,3.1c1.6,1.4,3.2,2.8,4.7,4.1c-0.4,0.3-0.9,0.6-1.5,0.7l-1.3,3.8
	c4.9-1,9.8-2.3,14.5-3.9c4.1-1.4,8-3.4,11.6-5.8c-2.9-3-5.5-6.2-7.9-9.6c-1.7-2.5-3.3-5.1-4.7-7.9c-2.5,3.2-5.3,6-8.4,8.6
	c-1.2-1.4-2.5-2.8-3.9-4c-1.9-1.8-3.6-3.3-5-4.6c4.3-3,8.5-7.7,12.7-14c4.1-6,7.1-12.6,9.1-19.5l11.9,2.5l-0.7,1.3
	c-1.1,3.4-2.5,6.7-3.9,10H504l6.8-0.2V39l-6.8-0.1h-4.4C497,48.4,492.3,57.2,485.7,64.5z M420.8,93c2-2.7,3.7-5.4,5.4-8.3
	c1.7-3,3.3-6,4.7-9.2h-10L420.8,93z M509,95l-0.3,4c-0.1,11.1-0.4,19.1-0.8,24.2c-0.4,5-1.3,8.9-2.5,11.7
	c-3.6,7.3-12.8,10.9-27.6,10.9c-0.3-1.5-1.8-6.2-4.6-14c2.8,0.9,5.8,1.4,8.7,1.3c2.7,0.1,5.4-0.3,8-1.2c1.9-0.8,3.4-2.2,4.4-4
	c0.8-2.3,1.3-4.7,1.5-7.1c0.3-3,0.6-7.8,0.7-14.2h-19.2c-2.6,9.1-7.5,17.3-14.1,24c-7,6.9-15.5,12.1-24.9,15.2l-8.4-10
	c8.9-3,16.3-7,22-11.9c5.5-4.6,9.8-10.5,12.5-17.2h-16.3c-3.5,0-6.1,0-7.7,0.2V94.9c1.7,0.1,4.2,0.2,7.7,0.2h19.2
	c0.5-3.3,0.8-6.6,0.7-9.9l-0.2-3.9l12.8,0.6l-0.3,2.8c0,3.5-0.2,7-0.6,10.5L509,95z M476.5,57.8c2.5-2.6,4.7-5.5,6.4-8.7
	c1.8-3.3,3.3-6.7,4.4-10.3H464c1.4,3.7,3.2,7.1,5.3,10.4C471.4,52.4,473.8,55.3,476.5,57.8z"/>
<path class="st2" d="M572,50.7h-38l-6.8,0.1V39.3l6.8,0.1h38c3.1,0,5.4,0,7-0.1v11.5C577.4,50.7,575.1,50.7,572,50.7z M574.6,100.3
	l-0.2,4.5V141l0.2,4.5h-11.4v-6.7h-19.6v6.7h-11.5c0.2-1.5,0.3-3,0.3-4.5v-36.2c0-1.5-0.1-3-0.3-4.5L574.6,100.3z M568.2,29.4h-28.5
	l-6.1,0.1V18.2l6.1,0.1h28.5l6.1-0.1v11.4L568.2,29.4z M572.4,60.3v10.8l-5.7-0.2h-26.6l-5.8,0.2V60.3l5.8,0.2h26.6L572.4,60.3z
	 M540.1,80.4h26.6l5.7-0.2V91l-5.7-0.1h-26.6l-5.8,0.1V80.2L540.1,80.4z M543.6,128.7h19.6v-18.2h-19.6V128.7z M633.3,98.3
	c2,3.3,4.3,6.4,6.8,9.3c3.2,3.8,6.8,7.3,10.6,10.5c3.9,3.3,8,6.2,12.4,8.7c-2.2,2.7-4,5-5.2,6.8c-0.9,1.3-1.7,2.7-2.4,4.1
	c-6-4-11.4-8.7-16.2-14.1c-5.3-5.8-9.9-12.3-13.7-19.2c0,0.5,0,1.5,0.1,3.1s0.1,5.9,0.2,12.9s0.1,13.8,0.1,20.1
	c0,1.6,0.1,3.2,0.3,4.8h-13c0.2-1.6,0.3-3.2,0.3-4.8v-1.2c0-0.7,0-4.7,0.1-12.2c0.1-7.5,0.2-14.8,0.4-21.8c-4,6.5-8.6,12.5-13.9,18
	c-4.9,5.2-10.4,9.9-16.4,13.8c-0.9-2-3.5-5.6-8-10.8c6.3-3.2,12.2-7.3,17.4-12.2c5.1-4.6,9.5-10,13.2-15.8h-18.8
	c-4.2,0-7.2,0.1-9,0.3V86.5c1.8,0.2,4.8,0.3,9,0.3h26V75.3h-26.3c0.2-1.9,0.3-3.6,0.3-5v-46c0-1.3-0.1-3-0.3-5.1h66.1l-0.2,5.1v46
	l0.2,5h-27.5v11.5h25c4.3,0,7.3-0.1,9.2-0.3v12.1c-1.8-0.2-4.9-0.3-9.2-0.3L633.3,98.3z M614.2,29.9h-14.4v12.7h14.4V29.9z
	 M599.8,51.7v13h14.4v-13L599.8,51.7z M641.5,42.5V29.9h-15.9v12.7H641.5z M625.7,64.6h15.9v-13h-15.9V64.6z"/>
</svg>
