<svg id="レイヤー_1" data-name="レイヤー 1" xmlns="http://www.w3.org/2000/svg" viewBox="0 0 721.19 645.06"><title>Decoration</title><path d="M519.84,273c0,71-48,95.19-112,95.19h-35.7V183.05h40.55C470.92,183.05,519.84,211.7,519.84,273Zm-104,158.66H303.44v-312H406.57c91.81,0,170,35.73,182.78,129L721.19,20c-10-10-20-20-40.07-20C641,0,641,40.07,601,40.07S560.88,0,520.82,0s-40.07,40.07-80.13,40.07S400.62,0,360.55,0s-40.06,40.07-80.13,40.07S240.36,0,200.29,0s-40.07,40.07-80.13,40.07S80.13,0,40.07,0C20,0,10,10,0,20l360.59,625L491.32,418.47C468.13,427.17,442.42,431.62,415.82,431.62Z" style="fill:#fa4335"/></svg>