<svg id="レイヤー_1" data-name="レイヤー 1" xmlns="http://www.w3.org/2000/svg" viewBox="0 0 721.19 645.06"><title>Management</title><path d="M192.32,353.38,0,20C10,10,20,0,40.07,0c40.06,0,40.06,40.07,80.09,40.07S160.22,0,200.29,0s40.07,40.07,80.13,40.07S320.49,0,360.55,0s40.07,40.07,80.14,40.07S480.75,0,520.82,0,560.88,40.07,601,40.07,641,0,681.12,0c20,0,30,10,40.07,20L528.86,353.4V108.09H430L361,302.44h-.84L291.6,108.09H192.32Zm270.91,52.55V177.5h-.84L384.14,405.93H334.09L258.79,177.5h-.85V405.93H222.63l138,239.13,138-239.13Z" style="fill:#489ef5"/></svg>