<svg id="レイヤー_1" data-name="レイヤー 1" xmlns="http://www.w3.org/2000/svg" viewBox="0 0 721.19 645.06"><title>Anchor</title><circle cx="360.59" cy="279.5" r="29.16" transform="translate(-40.12 61.37) rotate(-9.22)" style="fill:#333"/><path d="M360.59,0,0,625c10,10,20,20,40.07,20,40.06,0,40.06-40.06,80.09-40.06s40.06,40.06,80.13,40.06c12.19,0,20.66-3.72,27.69-8.88-20.28-14.63-35.36-32.09-46.41-54.5-7.88,5.78-13.36,11.66-16.16,16.5-9-31.45-10-61.88-6.83-104.87,13.78,30.14,36.92,55.59,60.78,70.21a133.36,133.36,0,0,0-21.86,8.55A162.35,162.35,0,0,0,248.8,617c7.82-6.73,17.08-12,31.62-12,20.34,0,30.35,10.32,40.52,20.48,7.77-5.14,13.13-13.61,14.83-26,2.75-19.94,4-128.09,4.59-202.24H288.25V363.5h52.34c.05-9.12.09-16.94.12-23.05a64.15,64.15,0,1,1,39.77,0c0,6.11.06,13.93.12,23.05h52.34v33.78H380.82c.57,74.15,1.85,182.3,4.59,202.24,1.7,12.32,7,20.78,14.79,25.93C410.36,615.29,420.37,605,440.69,605c14.56,0,23.82,5.3,31.65,12a162.39,162.39,0,0,0,51.35-45,133.71,133.71,0,0,0-21.86-8.55c23.85-14.62,47-40.07,60.77-70.21,3.2,43,2.19,73.42-6.82,104.87-2.8-4.84-8.29-10.72-16.17-16.5-11.05,22.43-26.14,39.89-46.44,54.53,7,5.15,15.48,8.85,27.65,8.85,40.06,0,40.06-40.06,80.13-40.06s40.07,40.06,80.17,40.06c20,0,30-10,40.07-20Z" style="fill:#333"/></svg>