<?xml version="1.0" encoding="utf-8"?>
<!-- Generator: Adobe Illustrator 23.0.0, SVG Export Plug-In . SVG Version: 6.00 Build 0)  -->
<svg version="1.1" id="レイヤー_1" xmlns="http://www.w3.org/2000/svg" xmlns:xlink="http://www.w3.org/1999/xlink" x="0px"
	 y="0px" viewBox="0 0 668.8 165.4" style="enable-background:new 0 0 668.8 165.4;" xml:space="preserve">
<style type="text/css">
	.st0{fill:#FA4335;}
	.st1{fill:#FFFFFF;}
	.st2{fill:#FFFFFF;stroke:#000000;stroke-miterlimit:10;}
	.st3{fill:#333333;}
</style>
<title>DeptIconName-Decoration</title>
<path class="st0" d="M133.3,70c0,18.2-12.3,24.4-28.7,24.4h-9.2V46.9h10.4C120.7,46.9,133.3,54.3,133.3,70z M106.6,110.7H77.8v-80
	h26.4c23.5,0,43.6,9.2,46.9,33.1l33.8-58.6c-2.6-2.6-5.1-5.1-10.3-5.1c-10.3,0-10.3,10.3-20.6,10.3S143.8,0,133.5,0
	S123.3,10.3,113,10.3S102.7,0,92.4,0S82.2,10.3,71.9,10.3S61.6,0,51.3,0S41.1,10.3,30.8,10.3S20.5,0,10.3,0C5.1,0,2.6,2.6,0,5.1
	l92.4,160.2l33.6-58.1C119.8,109.6,113.2,110.7,106.6,110.7z"/>
<g>
	<path class="st1" d="M151.1,63.7c-3.3-23.9-23.3-33.1-46.9-33.1H77.8v80h28.8c6.6,0,13.2-1.1,19.4-3.4L151.1,63.7z M95.4,94.4V46.9
		h10.4c14.9,0,27.5,7.3,27.5,23.1c0,18.2-12.3,24.4-28.7,24.4H95.4z"/>
	<polygon class="st2" points="119.6,118.4 119.6,118.4 119.6,118.4 	"/>
</g>
<path class="st3" d="M340.3,120.7c8.9,5.3,19.6,9.3,31.9,11.8c-2.4,3.7-4.6,7.6-6.5,11.5c-7.2-1.6-14.1-4-20.8-7.1
	c-6.1-2.8-11.9-6.3-17.2-10.5c-5-3.9-9.5-8.5-13.3-13.5c-3.8-5.1-7-10.6-9.5-16.4h-9.2c-1.5,1.4-3.8,3.5-7.1,6.3v25.2
	c13.9-2.5,22.8-4.3,26.8-5.2c-0.9,6.8-1.3,10.9-1.3,12.4c-3.5,0.8-11.8,2.3-24.9,4.7c-13.1,2.3-22.9,4-29.5,4.9
	c-2.1,0.3-4.2,0.6-6.3,1.2l-2.2-12.8l7.9-0.6c5.6-0.7,10.9-1.4,15.9-2.2c0.5-8.4,0.9-14.6,1.3-18.5c-5.2,3.2-10.6,6.2-16.2,8.8
	c-5.5,2.6-11.2,4.8-17,6.5c-0.6-1.7-2.8-5.5-6.7-11.5c7.9-2,15.6-4.7,23.1-7.9c7.2-3,14-6.8,20.5-11.1h-27.6c-6.1,0-10.4,0-12.8,0.1
	V84.9c2.4,0.2,6.7,0.3,12.8,0.3h46v-8.9l-0.3-3.6c1.4,0,3.7,0.1,6.8,0.2s5.2,0.3,6.5,0.4c-0.2,1-0.3,2-0.3,3.1v8.9h45.1
	c5.7,0,9.7-0.1,11.9-0.3v11.6c-2.2-0.1-6.2-0.1-11.9-0.1h-38.4c1.7,3.2,3.6,6.3,5.8,9.1c2.2,2.9,4.7,5.5,7.4,7.9
	c3.5-2,7.3-4.5,11.5-7.5c3.2-2.1,6.2-4.6,8.7-7.5l10.8,7.6l-1.7,0.9c-2.5,2-5.7,4.3-9.4,7C346.8,116.5,343.4,118.8,340.3,120.7z
	 M247.4,69.3l-5.7,2.2L239,59.5c2.1-0.4,4.2-0.9,6.3-1.6c5.3-1.7,10.4-3.4,15.2-5.2l9.5-3.6V19l-0.1-4.8c1.5,0,3.7,0.1,6.6,0.2
	s5.1,0.3,6.3,0.4c-0.1,1.4-0.2,2.8-0.1,4.2v54.2c0,1.4,0.1,3.2,0.3,5.5h-13.3c0.2-2.1,0.3-4,0.3-5.5V60.7
	C265.7,62.5,258.2,65.3,247.4,69.3z M265.7,35.5l-8.6,7c-1.7-2.6-3.8-5.7-6.4-9.2s-5-6.6-7.1-9.3l9.3-6.1c1.9,2.3,4.2,5.2,6.7,8.7
	S264.2,33.1,265.7,35.5z M322.8,41.1h-23c-4,0-6.9,0.1-8.7,0.3V29.7c1.8,0.2,4.7,0.3,8.7,0.3h23V19.2c0-1.5-0.1-2.9-0.3-4.4
	c3.4,0,8,0.1,13.8,0.4c-0.2,1.3-0.3,2.7-0.3,4.1V30h23.9c4.2,0,7.1-0.1,8.9-0.3v11.7c-1.8-0.2-4.7-0.3-8.9-0.3H336v16h19.8
	c3.7,0,6.4,0,8-0.1v11.5c-1.7-0.1-4.3-0.2-8-0.2h-51.9c-3.7,0-6.4,0-8,0.2V56.9c1.6,0.1,4.3,0.1,8,0.1h18.9L322.8,41.1z"/>
<path class="st3" d="M419.5,25.6c-4.1,6.2-8.8,12-14,17.2c-4.7,4.9-9.9,9.2-15.5,13c-1.3-3.1-3.2-6.7-5.5-10.9
	c6.2-4,11.9-8.7,16.9-14c5.1-5.1,9.4-11.1,12.6-17.5l11.6,1.7l-0.9,1.6c2,3.1,4.3,6,7,8.6c2.7,2.8,5.6,5.3,8.8,7.5
	c2.3,1.6,4.6,3.1,7.1,4.4c-1.2,1.8-2.2,3.6-3.2,5.5c-0.9,1.6-1.7,3.3-2.3,5.1c-2.8-1.8-5.5-3.8-8-6c-3-2.6-5.8-5.4-8.4-8.4
	C423.5,31,421.4,28.4,419.5,25.6z M421.4,106.7l9.2-3.3c3.4,4.1,6.5,8.5,9.4,13c3.4,5.3,6.6,10.8,9.4,16.5l-10.6,5.1
	c-1.1-2.8-2.6-6.2-4.5-10.2c-4.2,1.3-10.7,3.3-19.6,5.9s-15.7,4.5-20.4,5.7c-0.2,0.1-2.2,0.8-6,2.2l-2-11.9c2.2-0.3,4.3-0.7,6.4-1.3
	l3.8-0.9V56.9c0-1.2-0.1-2.4-0.3-3.6h18.3v-10l-0.3-3.6c1.2,0,2.9,0,5.1,0.2s3.8,0.2,4.7,0.3s1.4,0.1,1.6,0.1
	c-0.2,1.1-0.3,2.1-0.3,3.2v9.9h17c-0.1,1.1-0.1,2.6-0.1,4.5v36.3l0.1,4.5h-34.6v25.8c9-2.5,16.1-4.6,21.3-6.3
	C426.6,114.2,424.1,110.4,421.4,106.7z M430.9,62h-23.3v9.5h23.3V62z M407.6,90h23.3v-9.9h-23.3V90z M509.8,43h-20.7v20.5h24.7
	l-0.2,4.2v38l0.3,10.9c0.1,2.3-0.7,4.5-2.3,6.3c-1.7,1.8-3.9,3-6.3,3.6c-3.2,0.8-6.5,1.2-9.8,1.2c-1.3-3.6-2.8-7.5-4.5-11.7
	c2.1,0.3,4.2,0.4,6.3,0.4c1.2,0,2.4-0.2,3.6-0.6c0.9-0.4,1.4-1.3,1.4-2.8V74.7h-13.2v63.5l0.3,7.6h-12.5l0.3-7.6V74.7h-12.5V124
	c0,1.8,0.1,3.7,0.3,5.5H453c0.2-1.8,0.3-3.7,0.3-5.5V67.1c0-1.2-0.1-2.4-0.3-3.6h24.2V43h-12.1c-3.2,5.6-7.1,10.8-11.5,15.6
	c-1.1-1.1-2.5-2.4-4.4-4.1s-3.5-3-4.7-3.9c3.9-3.8,7.9-9.2,12-16.2c3.9-6.4,6.9-13.3,9.1-20.5l11.4,3.4l-0.7,1.5
	c-1.5,4.4-3.2,8.8-5.1,13h38.7l7.1-0.1v11.5L509.8,43z"/>
<path class="st3" d="M577.7,50.7h-38l-6.8,0.2V39.3l6.8,0.1h38c3.1,0,5.4,0,7-0.1v11.5C583.2,50.7,580.8,50.7,577.7,50.7z
	 M580.3,100.3l-0.2,4.5V141l0.2,4.5H569v-6.7h-19.7v6.7h-11.5c0.2-1.5,0.3-3,0.3-4.5v-36.2c0-1.5-0.1-3-0.3-4.5L580.3,100.3z
	 M573.9,29.4h-28.5l-6.1,0.1V18.2l6.1,0.1h28.5l6.1-0.1v11.4L573.9,29.4z M578.1,60.3v10.8l-5.7-0.2h-26.6l-5.8,0.2V60.3l5.8,0.1
	h26.6L578.1,60.3z M545.8,80.4h26.6l5.7-0.2V91l-5.7-0.1h-26.6L540,91V80.2L545.8,80.4z M549.3,128.7H569v-18.2h-19.7L549.3,128.7z
	 M639,98.3c2,3.3,4.3,6.4,6.8,9.3c3.2,3.8,6.8,7.3,10.6,10.5c3.9,3.3,8,6.2,12.4,8.7c-1.8,2.2-3.6,4.5-5.2,6.8
	c-0.9,1.3-1.7,2.7-2.4,4.1c-6-4-11.4-8.7-16.2-14.1c-5.3-5.8-9.9-12.3-13.7-19.2c0,0.5,0,1.5,0.1,3.1s0.1,5.9,0.2,12.9
	s0.1,13.8,0.1,20.1c0,1.6,0.1,3.2,0.3,4.8h-13c0.2-1.6,0.3-3.2,0.3-4.8v-1.2c0-0.7,0-4.7,0.1-12.2c0.1-7.5,0.2-14.8,0.4-21.8
	c-4,6.5-8.6,12.5-13.9,18c-4.9,5.2-10.4,9.9-16.4,13.8c-0.9-2-3.5-5.6-8-10.8c6.3-3.2,12.2-7.3,17.4-12.2c5.1-4.6,9.5-10,13.2-15.8
	h-18.8c-4.2,0-7.2,0.1-9,0.3V86.5c1.8,0.2,4.8,0.3,9,0.3h26V75.3h-26.3c0.2-1.9,0.3-3.6,0.3-4.9v-46c0-1.3-0.1-3-0.3-5.1h66.1
	l-0.2,5.1v46l0.2,4.9h-27.5v11.5h25c4.3,0,7.3-0.1,9.2-0.3v12.1c-1.8-0.2-4.9-0.3-9.2-0.3H639z M619.9,29.9h-14.4v12.7h14.4V29.9z
	 M605.5,51.7v13h14.4v-13H605.5z M647.3,42.5V29.9h-15.9v12.7L647.3,42.5z M631.4,64.6h15.9v-13h-15.9V64.6z"/>
</svg>
