<svg id="レイヤー_1" data-name="レイヤー 1" xmlns="http://www.w3.org/2000/svg" viewBox="0 0 940.55 165.37"><title>DeptIconName-School-Festival</title><circle cx="92.44" cy="71.65" r="7.47" transform="translate(-10.28 15.73) rotate(-9.22)" style="fill:#333"/><path d="M92.44,0,0,160.23c2.57,2.57,5.14,5.14,10.27,5.14,10.27,0,10.27-10.27,20.53-10.27s10.28,10.27,20.55,10.27a11.36,11.36,0,0,0,7.1-2.28,36.78,36.78,0,0,1-11.9-14,15.26,15.26,0,0,0-4.15,4.23c-2.31-8.06-2.56-15.86-1.75-26.88a42.24,42.24,0,0,0,15.59,18,34.35,34.35,0,0,0-5.61,2.2,41.83,41.83,0,0,0,13.15,11.52,11.6,11.6,0,0,1,8.11-3.08c5.21,0,7.78,2.64,10.39,5.25a9,9,0,0,0,3.8-6.66c.7-5.11,1-32.83,1.18-51.84H73.9V93.19H87.31c0-2.34,0-4.35,0-5.91a16.45,16.45,0,1,1,10.2,0c0,1.56,0,3.57,0,5.91H111v8.66H97.63c.14,19,.47,46.73,1.18,51.84a9,9,0,0,0,3.79,6.65c2.6-2.6,5.17-5.24,10.37-5.24a11.65,11.65,0,0,1,8.12,3.08,41.51,41.51,0,0,0,13.16-11.52,34.22,34.22,0,0,0-5.6-2.2,42.16,42.16,0,0,0,15.58-18c.82,11,.56,18.82-1.75,26.88a15.2,15.2,0,0,0-4.14-4.23,36.92,36.92,0,0,1-11.91,14,11.36,11.36,0,0,0,7.09,2.27c10.27,0,10.27-10.27,20.54-10.27s10.27,10.27,20.55,10.27c5.14,0,7.71-2.57,10.28-5.14Z" style="fill:#333"/><path d="M369.93,132l-6.25,13.52a177.44,177.44,0,0,1-21-6.69,141.28,141.28,0,0,1-20.08-9.75,118.78,118.78,0,0,1-19.13-14A129.29,129.29,0,0,1,275.85,134a127.54,127.54,0,0,1-32.67,11.86q-2.19-4.66-7-13.1a150.61,150.61,0,0,0,21.38-5.89,115.77,115.77,0,0,0,20.31-9.39,102.72,102.72,0,0,0,16.22-11.64A113.42,113.42,0,0,1,281.67,89a137.85,137.85,0,0,1-9.17-18,157.37,157.37,0,0,1-6.62-19.44H252.2c-6.21,0-10.48.06-12.81.15V38.74q3.5.3,12.81.29h42.93V17.78l-.29-3.93q10,0,14.56.44a24.5,24.5,0,0,0-.3,3.49V39h44.25c6.11,0,10.27-.09,12.51-.29V51.69c-2.24-.09-6.4-.15-12.51-.15H339.08A154.07,154.07,0,0,1,328.31,80.8a121.92,121.92,0,0,1-15.42,24.59A107.13,107.13,0,0,0,328,115.8a146.23,146.23,0,0,0,18.56,8.87A173.64,173.64,0,0,0,369.93,132ZM325.26,51.54H279.85A119.91,119.91,0,0,0,284.36,66a93.9,93.9,0,0,0,7.79,15.72,90.27,90.27,0,0,0,11.13,14.7A96.9,96.9,0,0,0,313.39,81.6,106.19,106.19,0,0,0,321,65.37,140.56,140.56,0,0,0,325.26,51.54Z" style="fill:#333"/><path d="M372.64,74.54a96.35,96.35,0,0,0,10.55-10.4,146.63,146.63,0,0,0,12-15.65A157.4,157.4,0,0,0,405.45,31a82,82,0,0,0,6.19-15.86L425,20.26l-.73,1q-2.78,7.14-6.41,14.77T410.76,49.8v87.31q0,3.21.29,7.87H395.92q.29-4.66.29-7.87,0-9,.51-31.5t1.09-38.35c-2.91,3.89-5.91,7.54-9,11a97.27,97.27,0,0,1-8.88,8.8Q378.61,83.86,372.64,74.54ZM491.09,99.28l6,3.93q5.61,3.65,7.5,4.66a84.8,84.8,0,0,1-2,16.29,23.43,23.43,0,0,1-5.32,10.41,21.45,21.45,0,0,1-10.41,5.82,67.1,67.1,0,0,1-17.17,1.82,121.77,121.77,0,0,1-16.22-.8c-3.65-.54-6.28-1.43-7.94-2.7q-7-4.65-7-19.64l.15-99.54a22.28,22.28,0,0,0-.3-3.78l14.27.87a16.56,16.56,0,0,0-.3,3.34V69.3Q478,51,489.06,35.54l10.92,10-2.48,1.6Q492,54,480.54,64.06A302.63,302.63,0,0,1,452.38,85.6v33.62a13,13,0,0,0,1.1,5.45c.73,1.61,2.25,2.69,4.58,3.28a24.74,24.74,0,0,0,3.35.5c1.46.16,4.56.23,9.32.23a39.17,39.17,0,0,0,9.89-1,15.36,15.36,0,0,0,6.25-3.2q2.19-2.62,3.13-8.16A118.72,118.72,0,0,0,491.09,99.28Z" style="fill:#333"/><path d="M524.57,79.92q-1.32-2.76-7.42-11.06a142.55,142.55,0,0,0,14.11-3.28,127.72,127.72,0,0,0,17-6.11,87.94,87.94,0,0,0,15-8.07h-29q-8.73,0-12.08.29V39.75q3.35.3,12.08.3h42.93V30.3q-6.69.43-16.52.72c-6.54.2-14,.25-22.34.15-.19-.48-.53-1.26-1-2.33s-1.19-2.78-2.1-5.16-1.53-3.91-1.82-4.59q25.6.43,50.06-1.09t39.43-5.31l9.17,10.62-4.22.58q-8.14,1.74-18.12,3.14T590.2,29.28V40.05h44.24q8.59,0,12.23-.3V51.69q-3.64-.28-12.23-.29H604.32a97.67,97.67,0,0,0,12.58,7.06A137.8,137.8,0,0,0,633,64.79a143.85,143.85,0,0,0,18.19,4.66c-1,2-2,4.22-3,6.55s-1.73,4.07-2.12,5.24a134.15,134.15,0,0,1-23.5-7.94,122.36,122.36,0,0,1-19.79-10.69,110.59,110.59,0,0,1-12.74-9.9q.45,10.92.45,18.91a23.4,23.4,0,0,0,.28,4.38h-14a21.76,21.76,0,0,0,.29-4.38c0-5,.15-11.2.44-18.47a101.94,101.94,0,0,1-23.35,15.93A129.08,129.08,0,0,1,524.57,79.92Zm55.15,7.86H637.5q9.6,0,13.24-.29v12.67q-3.65-.3-13.24-.3H617a65.36,65.36,0,0,1-5.6,10.7,55,55,0,0,1-7.36,9.23q10.05,2.77,21,6.2t19.72,6.47c-.2.29-.49.77-.88,1.46s-2.33,4.41-5.82,11.2q-10.2-4.5-22.27-9t-23-7.79q-11.07,6.7-27.8,10.78t-40.31,5.66q-1-3.78-4.22-12.65a256.91,256.91,0,0,0,31.51-3,114.57,114.57,0,0,0,23.21-6q-8.73-2.46-18.12-4.65t-16.81-3.64l.44-.29q5.82-4.66,14.11-14.7h-24q-9.45,0-13.09.3V87.49q3.63.29,13.09.29h32.9c.57-.87,1.62-2.49,3.12-4.87a34.85,34.85,0,0,0,3.28-6.34l15,2.48-1.46,1.75Zm9.32,28a46.44,46.44,0,0,0,7.78-7.21,47.78,47.78,0,0,0,5.9-8.66H571.13c-1.06,1.36-2.45,3.06-4.15,5.09s-3.07,3.59-4.13,4.66q4.93,1,13.16,2.91T589,115.73Z" style="fill:#333"/><path d="M663.11,134.79a138.66,138.66,0,0,0,25-4.73q13.3-3.72,19.58-7.21l9.6,8.15q-7.86,4.38-21.68,9a147.2,147.2,0,0,1-26.06,6.4Q664.86,138.29,663.11,134.79Zm16.16-13.39c.19-2.13.29-4,.29-5.53V62.46c0-1.46-.1-3.35-.29-5.68h97.5l-.14,5.68v53.41l.14,5.53Zm9.16-74.08a32.1,32.1,0,0,0,.3-4.07V20.69a31.4,31.4,0,0,0-.3-3.92h79.75a35.62,35.62,0,0,0-.14,3.92V43.25l.14,4.07Zm75.25,19.94H692.51v8.58h71.17ZM692.51,93h71.17V84.73H692.51Zm0,18h71.17V101.9H692.51Zm62.58-84.4H701.68V37.29h53.41Zm-6.55,96.05q5.81,2.91,19.86,6.47a179.15,179.15,0,0,0,25.26,4.74q-1.32,2.61-3.42,6.54c-1.42,2.62-2.51,4.52-3.28,5.68a218.8,218.8,0,0,1-25.25-5.9,140.15,140.15,0,0,1-16.38-5.75c-3.39-1.54-5.62-2.62-6.69-3.19Z" style="fill:#333"/><path d="M872,26.8A150.81,150.81,0,0,1,853,48.12a175.36,175.36,0,0,1-21,16.74,134.55,134.55,0,0,1-20.66,11.57q-1.89-4.08-8.15-11.79A114.9,114.9,0,0,0,816.93,58q6.9-3.93,13.6-8.66a159.6,159.6,0,0,0,13.53-10.77,123.33,123.33,0,0,0,12.74-13,83.52,83.52,0,0,0,9.67-14l14,2.76-1,1.16a81.15,81.15,0,0,0,8.65,11.72,119.52,119.52,0,0,0,13.69,13.24A161.72,161.72,0,0,0,920,53.51a114.55,114.55,0,0,0,20.59,10.26A99.83,99.83,0,0,0,934,76.57,131.86,131.86,0,0,1,912.24,65,161.25,161.25,0,0,1,890.86,48.2,137.8,137.8,0,0,1,872,26.8ZM821.8,86H923.09c6.21,0,10.47-.09,12.81-.28V99c-2.34-.19-6.6-.29-12.81-.29H863.28Q860.94,105,857,113.18t-7.41,14.91q11.49-.87,26-2.47t26.27-3.21q-5.24-7.41-11.21-14.54l11.21-6q6.54,7.56,13.1,16.59t10,14.84q3.49,5.82,4.66,7.86l-12.66,7q-1.32-2.76-3.79-7.2t-4.07-7.2q-5.68.87-19.06,2.4t-34.13,3.64q-20.74,2.1-33,3.12l-7.29,1-3.34-14.25h9.31q5.54,0,12.08-.45,3.79-6.39,7.86-15.13t6.55-15.42H821.8q-9.46,0-13,.29V85.75Q812.33,86,821.8,86Zm19.36-26.49c1.64.1,4.22.16,7.71.16h46.57c3.49,0,6.06-.06,7.71-.16V71.48q-2.48-.14-7.71-.14H848.87c-3.49,0-6.07,0-7.71.14Z" style="fill:#333"/></svg>